# MagicaVoxel @ Ephtracy

# group
o 

# material
mtllib RoadXHasarli.mtl
usemtl palette

# normals
vn -1 0 0
vn 1 0 0
vn 0 0 1
vn 0 0 -1
vn 0 -1 0
vn 0 1 0

# texcoords
vt 0.447266 0.5
vt 0.958984 0.5
vt 0.990234 0.5

# verts
v -2 0 2
v -2 0 1.5
v -2 0 0.0999999
v -2 0 -0.1
v -2 0 -1.5
v -2 0 -2
v -2 0.1 2
v -2 0.1 1.5
v -2 0.1 0.0999999
v -2 0.1 -0.1
v -2 0.1 -1.5
v -2 0.1 -2
v -1.8 0 -1.9
v -1.8 0 -2
v -1.8 0.1 -1.9
v -1.8 0.1 -2
v -1.7 0 -1.7
v -1.7 0 -1.9
v -1.7 0.1 -1.7
v -1.7 0.1 -1.9
v -1.6 0 -1.5
v -1.6 0 -1.7
v -1.6 0.1 -1.5
v -1.6 0.1 -1.7
v -1.5 0 -1.3
v -1.5 0 -1.5
v -1.5 0.1 -1.3
v -1.5 0.1 -1.5
v -1.4 0 -1.1
v -1.4 0 -1.3
v -1.4 0.1 -1.1
v -1.4 0.1 -1.3
v -1.3 0 -0.9
v -1.3 0 -1.1
v -1.3 0.1 -0.9
v -1.3 0.1 -1.1
v -1.2 0 -0.7
v -1.2 0 -0.9
v -1.2 0.1 -0.7
v -1.2 0.1 -0.9
v -1.1 0 -0.5
v -1.1 0 -0.7
v -1.1 0.1 -0.5
v -1.1 0.1 -0.7
v -1 0 -0.4
v -1 0 -0.5
v -1 0.1 -0.4
v -1 0.1 -0.5
v -0.9 0 -0.2
v -0.9 0 -0.4
v -0.9 0.1 -0.2
v -0.9 0.1 -0.4
v -0.8 0 -2.38419e-07
v -0.8 0 -0.1
v -0.8 0 -0.2
v -0.8 0.1 -2.38419e-07
v -0.8 0.1 -0.1
v -0.8 0.1 -0.2
v -0.7 0 0.2
v -0.7 0 0.0999999
v -0.7 0 -2.38419e-07
v -0.7 0 -1.8
v -0.7 0 -2
v -0.7 0.1 0.2
v -0.7 0.1 0.0999999
v -0.7 0.1 -2.38419e-07
v -0.7 0.1 -1.8
v -0.7 0.1 -2
v -0.6 0 0.4
v -0.6 0 0.2
v -0.6 0 -1.6
v -0.6 0 -1.8
v -0.6 0.1 0.4
v -0.6 0.1 0.2
v -0.6 0.1 -1.6
v -0.6 0.1 -1.8
v -0.5 0 0.6
v -0.5 0 0.4
v -0.5 0 -1.4
v -0.5 0 -1.6
v -0.5 0.1 0.6
v -0.5 0.1 0.4
v -0.5 0.1 -1.4
v -0.5 0.1 -1.6
v -0.4 0 0.8
v -0.4 0 0.6
v -0.4 0 -1.1
v -0.4 0 -1.4
v -0.4 0.1 0.8
v -0.4 0.1 0.6
v -0.4 0.1 -1.1
v -0.4 0.1 -1.4
v -0.3 0 1
v -0.3 0 0.8
v -0.3 0 -0.9
v -0.3 0 -1.1
v -0.3 0.1 1
v -0.3 0.1 0.8
v -0.3 0.1 -0.9
v -0.3 0.1 -1.1
v -0.2 0 1.2
v -0.2 0 1
v -0.2 0 -0.6
v -0.2 0 -0.9
v -0.2 0.1 1.2
v -0.2 0.1 1
v -0.2 0.1 -0.6
v -0.2 0.1 -0.9
v -0.0999999 0 2
v -0.0999999 0 1.8
v -0.0999999 0 1.3
v -0.0999999 0 1.2
v -0.0999999 0 -0.4
v -0.0999999 0 -0.6
v -0.0999999 0.1 2
v -0.0999999 0.1 1.8
v -0.0999999 0.1 1.3
v -0.0999999 0.1 1.2
v -0.0999999 0.1 -0.4
v -0.0999999 0.1 -0.6
v 2.38419e-07 0 1.8
v 2.38419e-07 0 1.5
v 2.38419e-07 0 -0.2
v 2.38419e-07 0 -0.4
v 2.38419e-07 0.1 1.8
v 2.38419e-07 0.1 1.5
v 2.38419e-07 0.1 -0.2
v 2.38419e-07 0.1 -0.4
v 0.1 0 1.5
v 0.1 0 1.2
v 0.1 0 0.0999999
v 0.1 0 -0.1
v 0.1 0 -0.2
v 0.1 0.1 1.5
v 0.1 0.1 1.2
v 0.1 0.1 0.0999999
v 0.1 0.1 -0.1
v 0.1 0.1 -0.2
v 0.2 0 1.2
v 0.2 0 0.9
v 0.2 0 0.3
v 0.2 0 0.0999999
v 0.2 0.1 1.2
v 0.2 0.1 0.9
v 0.2 0.1 0.3
v 0.2 0.1 0.0999999
v 0.3 0 0.9
v 0.3 0 0.6
v 0.3 0.1 0.9
v 0.3 0.1 0.6
v 0.4 0 0.6
v 0.4 0 0.3
v 0.4 0.1 0.6
v 0.4 0.1 0.3
v 0.5 0 0.3
v 0.5 0 0.0999999
v 0.5 0 -2.38419e-07
v 0.5 0.1 0.3
v 0.5 0.1 0.0999999
v 0.5 0.1 -2.38419e-07
v 0.6 0 -2.38419e-07
v 0.6 0 -0.1
v 0.6 0 -0.3
v 0.6 0.1 -2.38419e-07
v 0.6 0.1 -0.1
v 0.6 0.1 -0.3
v 0.7 0 -0.3
v 0.7 0 -0.6
v 0.7 0.1 -0.3
v 0.7 0.1 -0.6
v 0.8 0 -0.6
v 0.8 0 -0.9
v 0.8 0.1 -0.6
v 0.8 0.1 -0.9
v 0.9 0 -0.9
v 0.9 0 -1.2
v 0.9 0.1 -0.9
v 0.9 0.1 -1.2
v 1 0 2
v 1 0 1.9
v 1 0 -1.2
v 1 0 -1.5
v 1 0.1 2
v 1 0.1 1.9
v 1 0.1 -1.2
v 1 0.1 -1.5
v 1.1 0 1.9
v 1.1 0 1.8
v 1.1 0 -1.5
v 1.1 0 -1.7
v 1.1 0.1 1.9
v 1.1 0.1 1.8
v 1.1 0.1 -1.5
v 1.1 0.1 -1.7
v 1.2 0 1.8
v 1.2 0 1.7
v 1.2 0.1 1.8
v 1.2 0.1 1.7
v 1.3 0 1.7
v 1.3 0 1.6
v 1.3 0.1 1.7
v 1.3 0.1 1.6
v 1.4 0 1.6
v 1.4 0 1.5
v 1.4 0.1 1.6
v 1.4 0.1 1.5
v 1.5 0 1.5
v 1.5 0 1.3
v 1.5 0.1 1.5
v 1.5 0.1 1.3
v 1.6 0 1.3
v 1.6 0 1.2
v 1.6 0.1 1.3
v 1.6 0.1 1.2
v 1.7 0 1.2
v 1.7 0 1.1
v 1.7 0.1 1.2
v 1.7 0.1 1.1
v 1.8 0 1.1
v 1.8 0 1
v 1.8 0.1 1.1
v 1.8 0.1 1
v 1.9 0 1
v 1.9 0 0.9
v 1.9 0.1 1
v 1.9 0.1 0.9
v -1.9 0 -1.9
v -1.9 0 -2
v -1.9 0.1 -1.9
v -1.9 0.1 -2
v -1.8 0 -1.7
v -1.8 0 -1.9
v -1.8 0.1 -1.7
v -1.8 0.1 -1.9
v -1.7 0 -1.5
v -1.7 0 -1.7
v -1.7 0.1 -1.5
v -1.7 0.1 -1.7
v -1.6 0 -1.3
v -1.6 0 -1.5
v -1.6 0.1 -1.3
v -1.6 0.1 -1.5
v -1.5 0 -1.1
v -1.5 0 -1.3
v -1.5 0.1 -1.1
v -1.5 0.1 -1.3
v -1.4 0 -0.9
v -1.4 0 -1.1
v -1.4 0.1 -0.9
v -1.4 0.1 -1.1
v -1.3 0 -0.7
v -1.3 0 -0.9
v -1.3 0.1 -0.7
v -1.3 0.1 -0.9
v -1.2 0 -0.5
v -1.2 0 -0.7
v -1.2 0.1 -0.5
v -1.2 0.1 -0.7
v -1.1 0 -0.4
v -1.1 0 -0.5
v -1.1 0.1 -0.4
v -1.1 0.1 -0.5
v -1 0 -0.2
v -1 0 -0.4
v -1 0.1 -0.2
v -1 0.1 -0.4
v -0.9 0 -2.38419e-07
v -0.9 0 -0.1
v -0.9 0 -0.2
v -0.9 0.1 -2.38419e-07
v -0.9 0.1 -0.1
v -0.9 0.1 -0.2
v -0.8 0 0.2
v -0.8 0 0.0999999
v -0.8 0 -2.38419e-07
v -0.8 0 -1.8
v -0.8 0 -2
v -0.8 0.1 0.2
v -0.8 0.1 0.0999999
v -0.8 0.1 -2.38419e-07
v -0.8 0.1 -1.8
v -0.8 0.1 -2
v -0.7 0 0.4
v -0.7 0 0.2
v -0.7 0 -1.6
v -0.7 0 -1.8
v -0.7 0.1 0.4
v -0.7 0.1 0.2
v -0.7 0.1 -1.6
v -0.7 0.1 -1.8
v -0.6 0 0.6
v -0.6 0 0.4
v -0.6 0 -1.4
v -0.6 0 -1.6
v -0.6 0.1 0.6
v -0.6 0.1 0.4
v -0.6 0.1 -1.4
v -0.6 0.1 -1.6
v -0.5 0 0.8
v -0.5 0 0.6
v -0.5 0 -1.1
v -0.5 0 -1.4
v -0.5 0.1 0.8
v -0.5 0.1 0.6
v -0.5 0.1 -1.1
v -0.5 0.1 -1.4
v -0.4 0 1
v -0.4 0 0.8
v -0.4 0 -0.9
v -0.4 0 -1.1
v -0.4 0.1 1
v -0.4 0.1 0.8
v -0.4 0.1 -0.9
v -0.4 0.1 -1.1
v -0.3 0 1.2
v -0.3 0 1
v -0.3 0 -0.6
v -0.3 0 -0.9
v -0.3 0.1 1.2
v -0.3 0.1 1
v -0.3 0.1 -0.6
v -0.3 0.1 -0.9
v -0.2 0 2
v -0.2 0 1.8
v -0.2 0 1.3
v -0.2 0 1.2
v -0.2 0 -0.4
v -0.2 0 -0.6
v -0.2 0.1 2
v -0.2 0.1 1.8
v -0.2 0.1 1.3
v -0.2 0.1 1.2
v -0.2 0.1 -0.4
v -0.2 0.1 -0.6
v -0.0999999 0 1.8
v -0.0999999 0 1.5
v -0.0999999 0 -0.2
v -0.0999999 0 -0.4
v -0.0999999 0.1 1.8
v -0.0999999 0.1 1.5
v -0.0999999 0.1 -0.2
v -0.0999999 0.1 -0.4
v 2.38419e-07 0 1.5
v 2.38419e-07 0 1.2
v 2.38419e-07 0 0.0999999
v 2.38419e-07 0 -0.2
v 2.38419e-07 0.1 1.5
v 2.38419e-07 0.1 1.2
v 2.38419e-07 0.1 0.0999999
v 2.38419e-07 0.1 -0.2
v 0.1 0 1.2
v 0.1 0 0.9
v 0.1 0 0.3
v 0.1 0 0.0999999
v 0.1 0.1 1.2
v 0.1 0.1 0.9
v 0.1 0.1 0.3
v 0.1 0.1 0.0999999
v 0.2 0 0.9
v 0.2 0 0.6
v 0.2 0 0.5
v 0.2 0 0.3
v 0.2 0.1 0.9
v 0.2 0.1 0.6
v 0.2 0.1 0.5
v 0.2 0.1 0.3
v 0.3 0 0.6
v 0.3 0 0.5
v 0.3 0.1 0.6
v 0.3 0.1 0.5
v 0.4 0 0.3
v 0.4 0 0.0999999
v 0.4 0 -2.38419e-07
v 0.4 0.1 0.3
v 0.4 0.1 0.0999999
v 0.4 0.1 -2.38419e-07
v 0.5 0 -2.38419e-07
v 0.5 0 -0.1
v 0.5 0 -0.3
v 0.5 0.1 -2.38419e-07
v 0.5 0.1 -0.1
v 0.5 0.1 -0.3
v 0.6 0 -0.3
v 0.6 0 -0.6
v 0.6 0.1 -0.3
v 0.6 0.1 -0.6
v 0.7 0 -0.6
v 0.7 0 -0.9
v 0.7 0.1 -0.6
v 0.7 0.1 -0.9
v 0.8 0 2
v 0.8 0 1.9
v 0.8 0 -0.9
v 0.8 0 -1.2
v 0.8 0.1 2
v 0.8 0.1 1.9
v 0.8 0.1 -0.9
v 0.8 0.1 -1.2
v 0.9 0 -1.2
v 0.9 0 -1.5
v 0.9 0.1 -1.2
v 0.9 0.1 -1.5
v 1 0 1.9
v 1 0 1.8
v 1 0 -1.5
v 1 0 -1.7
v 1 0.1 1.9
v 1 0.1 1.8
v 1 0.1 -1.5
v 1 0.1 -1.7
v 1.1 0 1.8
v 1.1 0 1.7
v 1.1 0.1 1.8
v 1.1 0.1 1.7
v 1.2 0 1.7
v 1.2 0 1.6
v 1.2 0.1 1.7
v 1.2 0.1 1.6
v 1.3 0 1.6
v 1.3 0 1.5
v 1.3 0.1 1.6
v 1.3 0.1 1.5
v 1.4 0 1.5
v 1.4 0 1.3
v 1.4 0.1 1.5
v 1.4 0.1 1.3
v 1.5 0 1.3
v 1.5 0 1.2
v 1.5 0.1 1.3
v 1.5 0.1 1.2
v 1.6 0 1.2
v 1.6 0 1.1
v 1.6 0.1 1.2
v 1.6 0.1 1.1
v 1.7 0 1.1
v 1.7 0 1
v 1.7 0.1 1.1
v 1.7 0.1 1
v 1.8 0 1
v 1.8 0 0.9
v 1.8 0.1 1
v 1.8 0.1 0.9
v 1.9 0 0.9
v 1.9 0 0.8
v 1.9 0.1 0.9
v 1.9 0.1 0.8
v 2 0 2
v 2 0 1.5
v 2 0 0.9
v 2 0 0.8
v 2 0 0.0999999
v 2 0 -0.1
v 2 0 -1.5
v 2 0 -2
v 2 0.1 2
v 2 0.1 1.5
v 2 0.1 0.9
v 2 0.1 0.8
v 2 0.1 0.0999999
v 2 0.1 -0.1
v 2 0.1 -1.5
v 2 0.1 -2
v -2 0 2
v -2 0.1 2
v -1.5 0 2
v -1.5 0.1 2
v -0.2 0 2
v -0.2 0.1 2
v -0.0999999 0 2
v -0.0999999 0.1 2
v 0.1 0 2
v 0.1 0.1 2
v 0.8 0 2
v 0.8 0.1 2
v 1 0 2
v 1 0.1 2
v 1.5 0 2
v 1.5 0.1 2
v 2 0 2
v 2 0.1 2
v 0.8 0 1.9
v 0.8 0.1 1.9
v 1 0 1.9
v 1 0.1 1.9
v -0.2 0 1.8
v -0.2 0.1 1.8
v -0.0999999 0 1.8
v -0.0999999 0.1 1.8
v 1 0 1.8
v 1 0.1 1.8
v 1.1 0 1.8
v 1.1 0.1 1.8
v 1.1 0 1.7
v 1.1 0.1 1.7
v 1.2 0 1.7
v 1.2 0.1 1.7
v 1.2 0 1.6
v 1.2 0.1 1.6
v 1.3 0 1.6
v 1.3 0.1 1.6
v -0.0999999 0 1.5
v -0.0999999 0.1 1.5
v 2.38419e-07 0 1.5
v 2.38419e-07 0.1 1.5
v 1.3 0 1.5
v 1.3 0.1 1.5
v 1.4 0 1.5
v 1.4 0.1 1.5
v 1.4 0 1.3
v 1.4 0.1 1.3
v 1.5 0 1.3
v 1.5 0.1 1.3
v -0.2 0 1.2
v -0.2 0.1 1.2
v -0.0999999 0 1.2
v -0.0999999 0.1 1.2
v 2.38419e-07 0 1.2
v 2.38419e-07 0.1 1.2
v 0.1 0 1.2
v 0.1 0.1 1.2
v 1.5 0 1.2
v 1.5 0.1 1.2
v 1.6 0 1.2
v 1.6 0.1 1.2
v 1.6 0 1.1
v 1.6 0.1 1.1
v 1.7 0 1.1
v 1.7 0.1 1.1
v -0.3 0 1
v -0.3 0.1 1
v -0.2 0 1
v -0.2 0.1 1
v 1.7 0 1
v 1.7 0.1 1
v 1.8 0 1
v 1.8 0.1 1
v 0.1 0 0.9
v 0.1 0.1 0.9
v 0.2 0 0.9
v 0.2 0.1 0.9
v 1.8 0 0.9
v 1.8 0.1 0.9
v 1.9 0 0.9
v 1.9 0.1 0.9
v -0.4 0 0.8
v -0.4 0.1 0.8
v -0.3 0 0.8
v -0.3 0.1 0.8
v 1.9 0 0.8
v 1.9 0.1 0.8
v 2 0 0.8
v 2 0.1 0.8
v -0.5 0 0.6
v -0.5 0.1 0.6
v -0.4 0 0.6
v -0.4 0.1 0.6
v 0.2 0 0.6
v 0.2 0.1 0.6
v 0.3 0 0.6
v 0.3 0.1 0.6
v -0.6 0 0.4
v -0.6 0.1 0.4
v -0.5 0 0.4
v -0.5 0.1 0.4
v 0.2 0 0.3
v 0.2 0.1 0.3
v 0.4 0 0.3
v 0.4 0.1 0.3
v -0.7 0 0.2
v -0.7 0.1 0.2
v -0.6 0 0.2
v -0.6 0.1 0.2
v 0.1 0 0.0999999
v 0.1 0.1 0.0999999
v 0.2 0 0.0999999
v 0.2 0.1 0.0999999
v -0.8 0 -2.38419e-07
v -0.8 0.1 -2.38419e-07
v -0.7 0 -2.38419e-07
v -0.7 0.1 -2.38419e-07
v 0.4 0 -2.38419e-07
v 0.4 0.1 -2.38419e-07
v 0.5 0 -2.38419e-07
v 0.5 0.1 -2.38419e-07
v -0.9 0 -0.2
v -0.9 0.1 -0.2
v -0.8 0 -0.2
v -0.8 0.1 -0.2
v 2.38419e-07 0 -0.2
v 2.38419e-07 0.1 -0.2
v 0.1 0 -0.2
v 0.1 0.1 -0.2
v 0.5 0 -0.3
v 0.5 0.1 -0.3
v 0.6 0 -0.3
v 0.6 0.1 -0.3
v -1 0 -0.4
v -1 0.1 -0.4
v -0.9 0 -0.4
v -0.9 0.1 -0.4
v -0.0999999 0 -0.4
v -0.0999999 0.1 -0.4
v 2.38419e-07 0 -0.4
v 2.38419e-07 0.1 -0.4
v -1.1 0 -0.5
v -1.1 0.1 -0.5
v -1 0 -0.5
v -1 0.1 -0.5
v -0.2 0 -0.6
v -0.2 0.1 -0.6
v -0.0999999 0 -0.6
v -0.0999999 0.1 -0.6
v 0.6 0 -0.6
v 0.6 0.1 -0.6
v 0.7 0 -0.6
v 0.7 0.1 -0.6
v -1.2 0 -0.7
v -1.2 0.1 -0.7
v -1.1 0 -0.7
v -1.1 0.1 -0.7
v -1.3 0 -0.9
v -1.3 0.1 -0.9
v -1.2 0 -0.9
v -1.2 0.1 -0.9
v -0.3 0 -0.9
v -0.3 0.1 -0.9
v -0.2 0 -0.9
v -0.2 0.1 -0.9
v 0.7 0 -0.9
v 0.7 0.1 -0.9
v 0.8 0 -0.9
v 0.8 0.1 -0.9
v -1.4 0 -1.1
v -1.4 0.1 -1.1
v -1.3 0 -1.1
v -1.3 0.1 -1.1
v -0.4 0 -1.1
v -0.4 0.1 -1.1
v -0.3 0 -1.1
v -0.3 0.1 -1.1
v 0.8 0 -1.2
v 0.8 0.1 -1.2
v 0.9 0 -1.2
v 0.9 0.1 -1.2
v -1.5 0 -1.3
v -1.5 0.1 -1.3
v -1.4 0 -1.3
v -1.4 0.1 -1.3
v -0.5 0 -1.4
v -0.5 0.1 -1.4
v -0.4 0 -1.4
v -0.4 0.1 -1.4
v -1.6 0 -1.5
v -1.6 0.1 -1.5
v -1.5 0 -1.5
v -1.5 0.1 -1.5
v 0.9 0 -1.5
v 0.9 0.1 -1.5
v 1 0 -1.5
v 1 0.1 -1.5
v -0.6 0 -1.6
v -0.6 0.1 -1.6
v -0.5 0 -1.6
v -0.5 0.1 -1.6
v -1.7 0 -1.7
v -1.7 0.1 -1.7
v -1.6 0 -1.7
v -1.6 0.1 -1.7
v 1 0 -1.7
v 1 0.1 -1.7
v 1.1 0 -1.7
v 1.1 0.1 -1.7
v -0.7 0 -1.8
v -0.7 0.1 -1.8
v -0.6 0 -1.8
v -0.6 0.1 -1.8
v -1.8 0 -1.9
v -1.8 0.1 -1.9
v -1.7 0 -1.9
v -1.7 0.1 -1.9
v 1 0 1.9
v 1 0.1 1.9
v 1.1 0 1.9
v 1.1 0.1 1.9
v -0.0999999 0 1.8
v -0.0999999 0.1 1.8
v 2.38419e-07 0 1.8
v 2.38419e-07 0.1 1.8
v 1.1 0 1.8
v 1.1 0.1 1.8
v 1.2 0 1.8
v 1.2 0.1 1.8
v 1.2 0 1.7
v 1.2 0.1 1.7
v 1.3 0 1.7
v 1.3 0.1 1.7
v 1.3 0 1.6
v 1.3 0.1 1.6
v 1.4 0 1.6
v 1.4 0.1 1.6
v 2.38419e-07 0 1.5
v 2.38419e-07 0.1 1.5
v 0.1 0 1.5
v 0.1 0.1 1.5
v 1.4 0 1.5
v 1.4 0.1 1.5
v 1.5 0 1.5
v 1.5 0.1 1.5
v -0.2 0 1.3
v -0.2 0.1 1.3
v -0.0999999 0 1.3
v -0.0999999 0.1 1.3
v 1.5 0 1.3
v 1.5 0.1 1.3
v 1.6 0 1.3
v 1.6 0.1 1.3
v -0.3 0 1.2
v -0.3 0.1 1.2
v -0.2 0 1.2
v -0.2 0.1 1.2
v 0.1 0 1.2
v 0.1 0.1 1.2
v 0.2 0 1.2
v 0.2 0.1 1.2
v 1.6 0 1.2
v 1.6 0.1 1.2
v 1.7 0 1.2
v 1.7 0.1 1.2
v 1.7 0 1.1
v 1.7 0.1 1.1
v 1.8 0 1.1
v 1.8 0.1 1.1
v -0.4 0 1
v -0.4 0.1 1
v -0.3 0 1
v -0.3 0.1 1
v 1.8 0 1
v 1.8 0.1 1
v 1.9 0 1
v 1.9 0.1 1
v 0.2 0 0.9
v 0.2 0.1 0.9
v 0.3 0 0.9
v 0.3 0.1 0.9
v 1.9 0 0.9
v 1.9 0.1 0.9
v 2 0 0.9
v 2 0.1 0.9
v -0.5 0 0.8
v -0.5 0.1 0.8
v -0.4 0 0.8
v -0.4 0.1 0.8
v -0.6 0 0.6
v -0.6 0.1 0.6
v -0.5 0 0.6
v -0.5 0.1 0.6
v 0.3 0 0.6
v 0.3 0.1 0.6
v 0.4 0 0.6
v 0.4 0.1 0.6
v 0.2 0 0.5
v 0.2 0.1 0.5
v 0.3 0 0.5
v 0.3 0.1 0.5
v -0.7 0 0.4
v -0.7 0.1 0.4
v -0.6 0 0.4
v -0.6 0.1 0.4
v 0.1 0 0.3
v 0.1 0.1 0.3
v 0.2 0 0.3
v 0.2 0.1 0.3
v 0.4 0 0.3
v 0.4 0.1 0.3
v 0.5 0 0.3
v 0.5 0.1 0.3
v -0.8 0 0.2
v -0.8 0.1 0.2
v -0.7 0 0.2
v -0.7 0.1 0.2
v 2.38419e-07 0 0.0999999
v 2.38419e-07 0.1 0.0999999
v 0.1 0 0.0999999
v 0.1 0.1 0.0999999
v -0.9 0 -2.38419e-07
v -0.9 0.1 -2.38419e-07
v -0.8 0 -2.38419e-07
v -0.8 0.1 -2.38419e-07
v 0.5 0 -2.38419e-07
v 0.5 0.1 -2.38419e-07
v 0.6 0 -2.38419e-07
v 0.6 0.1 -2.38419e-07
v -1 0 -0.2
v -1 0.1 -0.2
v -0.9 0 -0.2
v -0.9 0.1 -0.2
v -0.0999999 0 -0.2
v -0.0999999 0.1 -0.2
v 2.38419e-07 0 -0.2
v 2.38419e-07 0.1 -0.2
v 0.6 0 -0.3
v 0.6 0.1 -0.3
v 0.7 0 -0.3
v 0.7 0.1 -0.3
v -1.1 0 -0.4
v -1.1 0.1 -0.4
v -1 0 -0.4
v -1 0.1 -0.4
v -0.2 0 -0.4
v -0.2 0.1 -0.4
v -0.0999999 0 -0.4
v -0.0999999 0.1 -0.4
v -1.2 0 -0.5
v -1.2 0.1 -0.5
v -1.1 0 -0.5
v -1.1 0.1 -0.5
v -0.3 0 -0.6
v -0.3 0.1 -0.6
v -0.2 0 -0.6
v -0.2 0.1 -0.6
v 0.7 0 -0.6
v 0.7 0.1 -0.6
v 0.8 0 -0.6
v 0.8 0.1 -0.6
v -1.3 0 -0.7
v -1.3 0.1 -0.7
v -1.2 0 -0.7
v -1.2 0.1 -0.7
v -1.4 0 -0.9
v -1.4 0.1 -0.9
v -1.3 0 -0.9
v -1.3 0.1 -0.9
v -0.4 0 -0.9
v -0.4 0.1 -0.9
v -0.3 0 -0.9
v -0.3 0.1 -0.9
v 0.8 0 -0.9
v 0.8 0.1 -0.9
v 0.9 0 -0.9
v 0.9 0.1 -0.9
v -1.5 0 -1.1
v -1.5 0.1 -1.1
v -1.4 0 -1.1
v -1.4 0.1 -1.1
v -0.5 0 -1.1
v -0.5 0.1 -1.1
v -0.4 0 -1.1
v -0.4 0.1 -1.1
v 0.9 0 -1.2
v 0.9 0.1 -1.2
v 1 0 -1.2
v 1 0.1 -1.2
v -1.6 0 -1.3
v -1.6 0.1 -1.3
v -1.5 0 -1.3
v -1.5 0.1 -1.3
v -0.6 0 -1.4
v -0.6 0.1 -1.4
v -0.5 0 -1.4
v -0.5 0.1 -1.4
v -1.7 0 -1.5
v -1.7 0.1 -1.5
v -1.6 0 -1.5
v -1.6 0.1 -1.5
v 1 0 -1.5
v 1 0.1 -1.5
v 1.1 0 -1.5
v 1.1 0.1 -1.5
v -0.7 0 -1.6
v -0.7 0.1 -1.6
v -0.6 0 -1.6
v -0.6 0.1 -1.6
v -1.8 0 -1.7
v -1.8 0.1 -1.7
v -1.7 0 -1.7
v -1.7 0.1 -1.7
v -0.8 0 -1.8
v -0.8 0.1 -1.8
v -0.7 0 -1.8
v -0.7 0.1 -1.8
v -1.9 0 -1.9
v -1.9 0.1 -1.9
v -1.8 0 -1.9
v -1.8 0.1 -1.9
v -2 0 -2
v -2 0.1 -2
v -1.9 0 -2
v -1.9 0.1 -2
v -1.8 0 -2
v -1.8 0.1 -2
v -1.5 0 -2
v -1.5 0.1 -2
v -0.8 0 -2
v -0.8 0.1 -2
v -0.7 0 -2
v -0.7 0.1 -2
v -0.0999999 0 -2
v -0.0999999 0.1 -2
v 0.1 0 -2
v 0.1 0.1 -2
v 1.5 0 -2
v 1.5 0.1 -2
v 2 0 -2
v 2 0.1 -2
v -2 0 2
v -1.5 0 2
v -0.2 0 2
v -0.0999999 0 2
v 0.1 0 2
v 0.8 0 2
v 1 0 2
v 1.5 0 2
v 2 0 2
v 0.8 0 1.9
v 1 0 1.9
v 1.1 0 1.9
v -0.2 0 1.8
v -0.0999999 0 1.8
v 2.38419e-07 0 1.8
v 1 0 1.8
v 1.1 0 1.8
v 1.2 0 1.8
v 1.1 0 1.7
v 1.2 0 1.7
v 1.3 0 1.7
v 1.2 0 1.6
v 1.3 0 1.6
v 1.4 0 1.6
v -2 0 1.5
v -1.5 0 1.5
v -0.0999999 0 1.5
v 2.38419e-07 0 1.5
v 0.1 0 1.5
v 1.3 0 1.5
v 1.4 0 1.5
v 1.5 0 1.5
v 2 0 1.5
v -0.2 0 1.3
v -0.0999999 0 1.3
v 1.4 0 1.3
v 1.5 0 1.3
v 1.6 0 1.3
v -0.3 0 1.2
v -0.2 0 1.2
v -0.0999999 0 1.2
v 2.38419e-07 0 1.2
v 0.1 0 1.2
v 0.2 0 1.2
v 1.5 0 1.2
v 1.6 0 1.2
v 1.7 0 1.2
v 1.6 0 1.1
v 1.7 0 1.1
v 1.8 0 1.1
v -0.4 0 1
v -0.3 0 1
v -0.2 0 1
v 1.7 0 1
v 1.8 0 1
v 1.9 0 1
v 0.1 0 0.9
v 0.2 0 0.9
v 0.3 0 0.9
v 1.8 0 0.9
v 1.9 0 0.9
v 2 0 0.9
v -0.5 0 0.8
v -0.4 0 0.8
v -0.3 0 0.8
v 1.9 0 0.8
v 2 0 0.8
v -0.6 0 0.6
v -0.5 0 0.6
v -0.4 0 0.6
v 0.2 0 0.6
v 0.3 0 0.6
v 0.4 0 0.6
v 0.2 0 0.5
v 0.3 0 0.5
v -0.7 0 0.4
v -0.6 0 0.4
v -0.5 0 0.4
v 0.1 0 0.3
v 0.2 0 0.3
v 0.4 0 0.3
v 0.5 0 0.3
v -0.8 0 0.2
v -0.7 0 0.2
v -0.6 0 0.2
v -2 0 0.0999999
v -0.8 0 0.0999999
v -0.7 0 0.0999999
v -0.0999999 0 0.0999999
v 2.38419e-07 0 0.0999999
v 0.1 0 0.0999999
v 0.2 0 0.0999999
v 0.4 0 0.0999999
v 0.5 0 0.0999999
v 2 0 0.0999999
v -0.9 0 -2.38419e-07
v -0.8 0 -2.38419e-07
v -0.7 0 -2.38419e-07
v 0.4 0 -2.38419e-07
v 0.5 0 -2.38419e-07
v 0.6 0 -2.38419e-07
v -2 0 -0.1
v -0.9 0 -0.1
v -0.8 0 -0.1
v -0.0999999 0 -0.1
v 0.1 0 -0.1
v 0.5 0 -0.1
v 0.6 0 -0.1
v 2 0 -0.1
v -1 0 -0.2
v -0.9 0 -0.2
v -0.8 0 -0.2
v -0.0999999 0 -0.2
v 2.38419e-07 0 -0.2
v 0.1 0 -0.2
v 0.5 0 -0.3
v 0.6 0 -0.3
v 0.7 0 -0.3
v -1.1 0 -0.4
v -1 0 -0.4
v -0.9 0 -0.4
v -0.2 0 -0.4
v -0.0999999 0 -0.4
v 2.38419e-07 0 -0.4
v -1.2 0 -0.5
v -1.1 0 -0.5
v -1 0 -0.5
v -0.3 0 -0.6
v -0.2 0 -0.6
v -0.0999999 0 -0.6
v 0.6 0 -0.6
v 0.7 0 -0.6
v 0.8 0 -0.6
v -1.3 0 -0.7
v -1.2 0 -0.7
v -1.1 0 -0.7
v -1.4 0 -0.9
v -1.3 0 -0.9
v -1.2 0 -0.9
v -0.4 0 -0.9
v -0.3 0 -0.9
v -0.2 0 -0.9
v 0.7 0 -0.9
v 0.8 0 -0.9
v 0.9 0 -0.9
v -1.5 0 -1.1
v -1.4 0 -1.1
v -1.3 0 -1.1
v -0.5 0 -1.1
v -0.4 0 -1.1
v -0.3 0 -1.1
v 0.8 0 -1.2
v 0.9 0 -1.2
v 1 0 -1.2
v -1.6 0 -1.3
v -1.5 0 -1.3
v -1.4 0 -1.3
v -0.6 0 -1.4
v -0.5 0 -1.4
v -0.4 0 -1.4
v -2 0 -1.5
v -1.7 0 -1.5
v -1.6 0 -1.5
v -1.5 0 -1.5
v 0.9 0 -1.5
v 1 0 -1.5
v 1.1 0 -1.5
v 1.5 0 -1.5
v 2 0 -1.5
v -0.7 0 -1.6
v -0.6 0 -1.6
v -0.5 0 -1.6
v -1.8 0 -1.7
v -1.7 0 -1.7
v -1.6 0 -1.7
v 1 0 -1.7
v 1.1 0 -1.7
v -0.8 0 -1.8
v -0.7 0 -1.8
v -0.6 0 -1.8
v -1.9 0 -1.9
v -1.8 0 -1.9
v -1.7 0 -1.9
v -2 0 -2
v -1.9 0 -2
v -1.8 0 -2
v -1.5 0 -2
v -0.8 0 -2
v -0.7 0 -2
v -0.0999999 0 -2
v 0.1 0 -2
v 1.5 0 -2
v 2 0 -2
v -2 0.1 2
v -1.5 0.1 2
v -0.2 0.1 2
v -0.0999999 0.1 2
v 0.1 0.1 2
v 0.8 0.1 2
v 1 0.1 2
v 1.5 0.1 2
v 2 0.1 2
v 0.8 0.1 1.9
v 1 0.1 1.9
v 1.1 0.1 1.9
v -0.2 0.1 1.8
v -0.0999999 0.1 1.8
v 2.38419e-07 0.1 1.8
v 1 0.1 1.8
v 1.1 0.1 1.8
v 1.2 0.1 1.8
v 1.1 0.1 1.7
v 1.2 0.1 1.7
v 1.3 0.1 1.7
v 1.2 0.1 1.6
v 1.3 0.1 1.6
v 1.4 0.1 1.6
v -2 0.1 1.5
v -1.5 0.1 1.5
v -0.0999999 0.1 1.5
v 2.38419e-07 0.1 1.5
v 0.1 0.1 1.5
v 1.3 0.1 1.5
v 1.4 0.1 1.5
v 1.5 0.1 1.5
v 2 0.1 1.5
v -0.2 0.1 1.3
v -0.0999999 0.1 1.3
v 1.4 0.1 1.3
v 1.5 0.1 1.3
v 1.6 0.1 1.3
v -0.3 0.1 1.2
v -0.2 0.1 1.2
v -0.0999999 0.1 1.2
v 2.38419e-07 0.1 1.2
v 0.1 0.1 1.2
v 0.2 0.1 1.2
v 1.5 0.1 1.2
v 1.6 0.1 1.2
v 1.7 0.1 1.2
v 1.6 0.1 1.1
v 1.7 0.1 1.1
v 1.8 0.1 1.1
v -0.4 0.1 1
v -0.3 0.1 1
v -0.2 0.1 1
v 1.7 0.1 1
v 1.8 0.1 1
v 1.9 0.1 1
v 0.1 0.1 0.9
v 0.2 0.1 0.9
v 0.3 0.1 0.9
v 1.8 0.1 0.9
v 1.9 0.1 0.9
v 2 0.1 0.9
v -0.5 0.1 0.8
v -0.4 0.1 0.8
v -0.3 0.1 0.8
v 1.9 0.1 0.8
v 2 0.1 0.8
v -0.6 0.1 0.6
v -0.5 0.1 0.6
v -0.4 0.1 0.6
v 0.2 0.1 0.6
v 0.3 0.1 0.6
v 0.4 0.1 0.6
v 0.2 0.1 0.5
v 0.3 0.1 0.5
v -0.7 0.1 0.4
v -0.6 0.1 0.4
v -0.5 0.1 0.4
v 0.1 0.1 0.3
v 0.2 0.1 0.3
v 0.4 0.1 0.3
v 0.5 0.1 0.3
v -0.8 0.1 0.2
v -0.7 0.1 0.2
v -0.6 0.1 0.2
v -2 0.1 0.0999999
v -0.8 0.1 0.0999999
v -0.7 0.1 0.0999999
v -0.0999999 0.1 0.0999999
v 2.38419e-07 0.1 0.0999999
v 0.1 0.1 0.0999999
v 0.2 0.1 0.0999999
v 0.4 0.1 0.0999999
v 0.5 0.1 0.0999999
v 2 0.1 0.0999999
v -0.9 0.1 -2.38419e-07
v -0.8 0.1 -2.38419e-07
v -0.7 0.1 -2.38419e-07
v 0.4 0.1 -2.38419e-07
v 0.5 0.1 -2.38419e-07
v 0.6 0.1 -2.38419e-07
v -2 0.1 -0.1
v -0.9 0.1 -0.1
v -0.8 0.1 -0.1
v -0.0999999 0.1 -0.1
v 0.1 0.1 -0.1
v 0.5 0.1 -0.1
v 0.6 0.1 -0.1
v 2 0.1 -0.1
v -1 0.1 -0.2
v -0.9 0.1 -0.2
v -0.8 0.1 -0.2
v -0.0999999 0.1 -0.2
v 2.38419e-07 0.1 -0.2
v 0.1 0.1 -0.2
v 0.5 0.1 -0.3
v 0.6 0.1 -0.3
v 0.7 0.1 -0.3
v -1.1 0.1 -0.4
v -1 0.1 -0.4
v -0.9 0.1 -0.4
v -0.2 0.1 -0.4
v -0.0999999 0.1 -0.4
v 2.38419e-07 0.1 -0.4
v -1.2 0.1 -0.5
v -1.1 0.1 -0.5
v -1 0.1 -0.5
v -0.3 0.1 -0.6
v -0.2 0.1 -0.6
v -0.0999999 0.1 -0.6
v 0.6 0.1 -0.6
v 0.7 0.1 -0.6
v 0.8 0.1 -0.6
v -1.3 0.1 -0.7
v -1.2 0.1 -0.7
v -1.1 0.1 -0.7
v -1.4 0.1 -0.9
v -1.3 0.1 -0.9
v -1.2 0.1 -0.9
v -0.4 0.1 -0.9
v -0.3 0.1 -0.9
v -0.2 0.1 -0.9
v 0.7 0.1 -0.9
v 0.8 0.1 -0.9
v 0.9 0.1 -0.9
v -1.5 0.1 -1.1
v -1.4 0.1 -1.1
v -1.3 0.1 -1.1
v -0.5 0.1 -1.1
v -0.4 0.1 -1.1
v -0.3 0.1 -1.1
v 0.8 0.1 -1.2
v 0.9 0.1 -1.2
v 1 0.1 -1.2
v -1.6 0.1 -1.3
v -1.5 0.1 -1.3
v -1.4 0.1 -1.3
v -0.6 0.1 -1.4
v -0.5 0.1 -1.4
v -0.4 0.1 -1.4
v -2 0.1 -1.5
v -1.7 0.1 -1.5
v -1.6 0.1 -1.5
v -1.5 0.1 -1.5
v 0.9 0.1 -1.5
v 1 0.1 -1.5
v 1.1 0.1 -1.5
v 1.5 0.1 -1.5
v 2 0.1 -1.5
v -0.7 0.1 -1.6
v -0.6 0.1 -1.6
v -0.5 0.1 -1.6
v -1.8 0.1 -1.7
v -1.7 0.1 -1.7
v -1.6 0.1 -1.7
v 1 0.1 -1.7
v 1.1 0.1 -1.7
v -0.8 0.1 -1.8
v -0.7 0.1 -1.8
v -0.6 0.1 -1.8
v -1.9 0.1 -1.9
v -1.8 0.1 -1.9
v -1.7 0.1 -1.9
v -2 0.1 -2
v -1.9 0.1 -2
v -1.8 0.1 -2
v -1.5 0.1 -2
v -0.8 0.1 -2
v -0.7 0.1 -2
v -0.0999999 0.1 -2
v 0.1 0.1 -2
v 1.5 0.1 -2
v 2 0.1 -2

# faces
f 7/1/1 2/1/1 1/1/1
f 8/3/1 3/3/1 2/3/1
f 8/1/1 2/1/1 7/1/1
f 9/2/1 4/2/1 3/2/1
f 9/3/1 3/3/1 8/3/1
f 10/3/1 5/3/1 4/3/1
f 10/2/1 4/2/1 9/2/1
f 11/1/1 6/1/1 5/1/1
f 11/3/1 5/3/1 10/3/1
f 12/1/1 6/1/1 11/1/1
f 15/1/1 14/1/1 13/1/1
f 16/1/1 14/1/1 15/1/1
f 19/1/1 18/1/1 17/1/1
f 20/1/1 18/1/1 19/1/1
f 23/1/1 22/1/1 21/1/1
f 24/1/1 22/1/1 23/1/1
f 27/3/1 26/3/1 25/3/1
f 28/3/1 26/3/1 27/3/1
f 31/3/1 30/3/1 29/3/1
f 32/3/1 30/3/1 31/3/1
f 35/3/1 34/3/1 33/3/1
f 36/3/1 34/3/1 35/3/1
f 39/3/1 38/3/1 37/3/1
f 40/3/1 38/3/1 39/3/1
f 43/3/1 42/3/1 41/3/1
f 44/3/1 42/3/1 43/3/1
f 47/3/1 46/3/1 45/3/1
f 48/3/1 46/3/1 47/3/1
f 51/3/1 50/3/1 49/3/1
f 52/3/1 50/3/1 51/3/1
f 56/2/1 54/2/1 53/2/1
f 57/3/1 55/3/1 54/3/1
f 57/2/1 54/2/1 56/2/1
f 58/3/1 55/3/1 57/3/1
f 64/3/1 60/3/1 59/3/1
f 65/2/1 61/2/1 60/2/1
f 65/3/1 60/3/1 64/3/1
f 66/2/1 61/2/1 65/2/1
f 67/3/1 63/3/1 62/3/1
f 68/3/1 63/3/1 67/3/1
f 73/3/1 70/3/1 69/3/1
f 74/3/1 70/3/1 73/3/1
f 75/3/1 72/3/1 71/3/1
f 76/3/1 72/3/1 75/3/1
f 81/3/1 78/3/1 77/3/1
f 82/3/1 78/3/1 81/3/1
f 83/3/1 80/3/1 79/3/1
f 84/3/1 80/3/1 83/3/1
f 89/3/1 86/3/1 85/3/1
f 90/3/1 86/3/1 89/3/1
f 91/3/1 88/3/1 87/3/1
f 92/3/1 88/3/1 91/3/1
f 97/3/1 94/3/1 93/3/1
f 98/3/1 94/3/1 97/3/1
f 99/3/1 96/3/1 95/3/1
f 100/3/1 96/3/1 99/3/1
f 105/3/1 102/3/1 101/3/1
f 106/3/1 102/3/1 105/3/1
f 107/3/1 104/3/1 103/3/1
f 108/3/1 104/3/1 107/3/1
f 115/2/1 110/2/1 109/2/1
f 116/2/1 110/2/1 115/2/1
f 117/2/1 112/2/1 111/2/1
f 118/2/1 112/2/1 117/2/1
f 119/2/1 114/2/1 113/2/1
f 120/2/1 114/2/1 119/2/1
f 125/2/1 122/2/1 121/2/1
f 126/2/1 122/2/1 125/2/1
f 127/2/1 124/2/1 123/2/1
f 128/2/1 124/2/1 127/2/1
f 134/3/1 130/3/1 129/3/1
f 135/3/1 130/3/1 134/3/1
f 136/2/1 132/2/1 131/2/1
f 137/3/1 133/3/1 132/3/1
f 137/2/1 132/2/1 136/2/1
f 138/3/1 133/3/1 137/3/1
f 143/3/1 140/3/1 139/3/1
f 144/3/1 140/3/1 143/3/1
f 145/3/1 142/3/1 141/3/1
f 146/3/1 142/3/1 145/3/1
f 149/3/1 148/3/1 147/3/1
f 150/3/1 148/3/1 149/3/1
f 153/3/1 152/3/1 151/3/1
f 154/3/1 152/3/1 153/3/1
f 158/3/1 156/3/1 155/3/1
f 159/2/1 157/2/1 156/2/1
f 159/3/1 156/3/1 158/3/1
f 160/2/1 157/2/1 159/2/1
f 164/2/1 162/2/1 161/2/1
f 165/3/1 163/3/1 162/3/1
f 165/2/1 162/2/1 164/2/1
f 166/3/1 163/3/1 165/3/1
f 169/3/1 168/3/1 167/3/1
f 170/3/1 168/3/1 169/3/1
f 173/3/1 172/3/1 171/3/1
f 174/3/1 172/3/1 173/3/1
f 177/3/1 176/3/1 175/3/1
f 178/3/1 176/3/1 177/3/1
f 183/3/1 180/3/1 179/3/1
f 184/3/1 180/3/1 183/3/1
f 185/3/1 182/3/1 181/3/1
f 186/3/1 182/3/1 185/3/1
f 191/3/1 188/3/1 187/3/1
f 192/3/1 188/3/1 191/3/1
f 193/3/1 190/3/1 189/3/1
f 194/3/1 190/3/1 193/3/1
f 197/3/1 196/3/1 195/3/1
f 198/3/1 196/3/1 197/3/1
f 201/3/1 200/3/1 199/3/1
f 202/3/1 200/3/1 201/3/1
f 205/3/1 204/3/1 203/3/1
f 206/3/1 204/3/1 205/3/1
f 209/3/1 208/3/1 207/3/1
f 210/3/1 208/3/1 209/3/1
f 213/3/1 212/3/1 211/3/1
f 214/3/1 212/3/1 213/3/1
f 217/3/1 216/3/1 215/3/1
f 218/3/1 216/3/1 217/3/1
f 221/3/1 220/3/1 219/3/1
f 222/3/1 220/3/1 221/3/1
f 225/3/1 224/3/1 223/3/1
f 226/3/1 224/3/1 225/3/1
f 227/1/2 228/1/2 229/1/2
f 229/1/2 228/1/2 230/1/2
f 231/1/2 232/1/2 233/1/2
f 233/1/2 232/1/2 234/1/2
f 235/1/2 236/1/2 237/1/2
f 237/1/2 236/1/2 238/1/2
f 239/3/2 240/3/2 241/3/2
f 241/3/2 240/3/2 242/3/2
f 243/3/2 244/3/2 245/3/2
f 245/3/2 244/3/2 246/3/2
f 247/3/2 248/3/2 249/3/2
f 249/3/2 248/3/2 250/3/2
f 251/3/2 252/3/2 253/3/2
f 253/3/2 252/3/2 254/3/2
f 255/3/2 256/3/2 257/3/2
f 257/3/2 256/3/2 258/3/2
f 259/3/2 260/3/2 261/3/2
f 261/3/2 260/3/2 262/3/2
f 263/3/2 264/3/2 265/3/2
f 265/3/2 264/3/2 266/3/2
f 267/2/2 268/2/2 270/2/2
f 268/3/2 269/3/2 271/3/2
f 270/2/2 268/2/2 271/2/2
f 271/3/2 269/3/2 272/3/2
f 273/3/2 274/3/2 278/3/2
f 274/2/2 275/2/2 279/2/2
f 278/3/2 274/3/2 279/3/2
f 279/2/2 275/2/2 280/2/2
f 276/3/2 277/3/2 281/3/2
f 281/3/2 277/3/2 282/3/2
f 283/3/2 284/3/2 287/3/2
f 287/3/2 284/3/2 288/3/2
f 285/3/2 286/3/2 289/3/2
f 289/3/2 286/3/2 290/3/2
f 291/3/2 292/3/2 295/3/2
f 295/3/2 292/3/2 296/3/2
f 293/3/2 294/3/2 297/3/2
f 297/3/2 294/3/2 298/3/2
f 299/3/2 300/3/2 303/3/2
f 303/3/2 300/3/2 304/3/2
f 301/3/2 302/3/2 305/3/2
f 305/3/2 302/3/2 306/3/2
f 307/3/2 308/3/2 311/3/2
f 311/3/2 308/3/2 312/3/2
f 309/3/2 310/3/2 313/3/2
f 313/3/2 310/3/2 314/3/2
f 315/3/2 316/3/2 319/3/2
f 319/3/2 316/3/2 320/3/2
f 317/3/2 318/3/2 321/3/2
f 321/3/2 318/3/2 322/3/2
f 323/3/2 324/3/2 329/3/2
f 329/3/2 324/3/2 330/3/2
f 325/3/2 326/3/2 331/3/2
f 331/3/2 326/3/2 332/3/2
f 327/3/2 328/3/2 333/3/2
f 333/3/2 328/3/2 334/3/2
f 335/3/2 336/3/2 339/3/2
f 339/3/2 336/3/2 340/3/2
f 337/3/2 338/3/2 341/3/2
f 341/3/2 338/3/2 342/3/2
f 343/2/2 344/2/2 347/2/2
f 347/2/2 344/2/2 348/2/2
f 345/2/2 346/2/2 349/2/2
f 349/2/2 346/2/2 350/2/2
f 351/2/2 352/2/2 355/2/2
f 355/2/2 352/2/2 356/2/2
f 353/2/2 354/2/2 357/2/2
f 357/2/2 354/2/2 358/2/2
f 359/3/2 360/3/2 363/3/2
f 363/3/2 360/3/2 364/3/2
f 361/3/2 362/3/2 365/3/2
f 365/3/2 362/3/2 366/3/2
f 367/3/2 368/3/2 369/3/2
f 369/3/2 368/3/2 370/3/2
f 371/3/2 372/3/2 374/3/2
f 372/2/2 373/2/2 375/2/2
f 374/3/2 372/3/2 375/3/2
f 375/2/2 373/2/2 376/2/2
f 377/2/2 378/2/2 380/2/2
f 378/3/2 379/3/2 381/3/2
f 380/2/2 378/2/2 381/2/2
f 381/3/2 379/3/2 382/3/2
f 383/3/2 384/3/2 385/3/2
f 385/3/2 384/3/2 386/3/2
f 387/3/2 388/3/2 389/3/2
f 389/3/2 388/3/2 390/3/2
f 391/3/2 392/3/2 395/3/2
f 395/3/2 392/3/2 396/3/2
f 393/3/2 394/3/2 397/3/2
f 397/3/2 394/3/2 398/3/2
f 399/3/2 400/3/2 401/3/2
f 401/3/2 400/3/2 402/3/2
f 403/3/2 404/3/2 407/3/2
f 407/3/2 404/3/2 408/3/2
f 405/3/2 406/3/2 409/3/2
f 409/3/2 406/3/2 410/3/2
f 411/3/2 412/3/2 413/3/2
f 413/3/2 412/3/2 414/3/2
f 415/3/2 416/3/2 417/3/2
f 417/3/2 416/3/2 418/3/2
f 419/3/2 420/3/2 421/3/2
f 421/3/2 420/3/2 422/3/2
f 423/3/2 424/3/2 425/3/2
f 425/3/2 424/3/2 426/3/2
f 427/3/2 428/3/2 429/3/2
f 429/3/2 428/3/2 430/3/2
f 431/3/2 432/3/2 433/3/2
f 433/3/2 432/3/2 434/3/2
f 435/3/2 436/3/2 437/3/2
f 437/3/2 436/3/2 438/3/2
f 439/3/2 440/3/2 441/3/2
f 441/3/2 440/3/2 442/3/2
f 443/3/2 444/3/2 445/3/2
f 445/3/2 444/3/2 446/3/2
f 447/1/2 448/1/2 455/1/2
f 448/3/2 449/3/2 456/3/2
f 455/1/2 448/1/2 456/1/2
f 456/3/2 449/3/2 457/3/2
f 450/3/2 451/3/2 458/3/2
f 451/2/2 452/2/2 459/2/2
f 458/3/2 451/3/2 459/3/2
f 452/3/2 453/3/2 460/3/2
f 459/2/2 452/2/2 460/2/2
f 453/1/2 454/1/2 461/1/2
f 460/3/2 453/3/2 461/3/2
f 461/1/2 454/1/2 462/1/2
f 465/1/3 464/1/3 463/1/3
f 466/1/3 464/1/3 465/1/3
f 467/3/3 466/3/3 465/3/3
f 468/3/3 466/3/3 467/3/3
f 471/2/3 470/2/3 469/2/3
f 472/2/3 470/2/3 471/2/3
f 473/3/3 472/3/3 471/3/3
f 474/3/3 472/3/3 473/3/3
f 477/3/3 476/3/3 475/3/3
f 478/3/3 476/3/3 477/3/3
f 479/1/3 478/1/3 477/1/3
f 480/1/3 478/1/3 479/1/3
f 483/3/3 482/3/3 481/3/3
f 484/3/3 482/3/3 483/3/3
f 487/3/3 486/3/3 485/3/3
f 488/3/3 486/3/3 487/3/3
f 491/3/3 490/3/3 489/3/3
f 492/3/3 490/3/3 491/3/3
f 495/3/3 494/3/3 493/3/3
f 496/3/3 494/3/3 495/3/3
f 499/3/3 498/3/3 497/3/3
f 500/3/3 498/3/3 499/3/3
f 503/2/3 502/2/3 501/2/3
f 504/2/3 502/2/3 503/2/3
f 507/3/3 506/3/3 505/3/3
f 508/3/3 506/3/3 507/3/3
f 511/3/3 510/3/3 509/3/3
f 512/3/3 510/3/3 511/3/3
f 515/3/3 514/3/3 513/3/3
f 516/3/3 514/3/3 515/3/3
f 519/2/3 518/2/3 517/2/3
f 520/2/3 518/2/3 519/2/3
f 523/3/3 522/3/3 521/3/3
f 524/3/3 522/3/3 523/3/3
f 527/3/3 526/3/3 525/3/3
f 528/3/3 526/3/3 527/3/3
f 531/3/3 530/3/3 529/3/3
f 532/3/3 530/3/3 531/3/3
f 535/3/3 534/3/3 533/3/3
f 536/3/3 534/3/3 535/3/3
f 539/3/3 538/3/3 537/3/3
f 540/3/3 538/3/3 539/3/3
f 543/3/3 542/3/3 541/3/3
f 544/3/3 542/3/3 543/3/3
f 547/3/3 546/3/3 545/3/3
f 548/3/3 546/3/3 547/3/3
f 551/3/3 550/3/3 549/3/3
f 552/3/3 550/3/3 551/3/3
f 555/3/3 554/3/3 553/3/3
f 556/3/3 554/3/3 555/3/3
f 559/3/3 558/3/3 557/3/3
f 560/3/3 558/3/3 559/3/3
f 563/3/3 562/3/3 561/3/3
f 564/3/3 562/3/3 563/3/3
f 567/3/3 566/3/3 565/3/3
f 568/3/3 566/3/3 567/3/3
f 571/3/3 570/3/3 569/3/3
f 572/3/3 570/3/3 571/3/3
f 575/2/3 574/2/3 573/2/3
f 576/2/3 574/2/3 575/2/3
f 579/2/3 578/2/3 577/2/3
f 580/2/3 578/2/3 579/2/3
f 583/2/3 582/2/3 581/2/3
f 584/2/3 582/2/3 583/2/3
f 587/3/3 586/3/3 585/3/3
f 588/3/3 586/3/3 587/3/3
f 591/2/3 590/2/3 589/2/3
f 592/2/3 590/2/3 591/2/3
f 595/3/3 594/3/3 593/3/3
f 596/3/3 594/3/3 595/3/3
f 599/3/3 598/3/3 597/3/3
f 600/3/3 598/3/3 599/3/3
f 603/2/3 602/2/3 601/2/3
f 604/2/3 602/2/3 603/2/3
f 607/3/3 606/3/3 605/3/3
f 608/3/3 606/3/3 607/3/3
f 611/3/3 610/3/3 609/3/3
f 612/3/3 610/3/3 611/3/3
f 615/3/3 614/3/3 613/3/3
f 616/3/3 614/3/3 615/3/3
f 619/3/3 618/3/3 617/3/3
f 620/3/3 618/3/3 619/3/3
f 623/3/3 622/3/3 621/3/3
f 624/3/3 622/3/3 623/3/3
f 627/3/3 626/3/3 625/3/3
f 628/3/3 626/3/3 627/3/3
f 631/3/3 630/3/3 629/3/3
f 632/3/3 630/3/3 631/3/3
f 635/3/3 634/3/3 633/3/3
f 636/3/3 634/3/3 635/3/3
f 639/3/3 638/3/3 637/3/3
f 640/3/3 638/3/3 639/3/3
f 643/3/3 642/3/3 641/3/3
f 644/3/3 642/3/3 643/3/3
f 647/3/3 646/3/3 645/3/3
f 648/3/3 646/3/3 647/3/3
f 651/3/3 650/3/3 649/3/3
f 652/3/3 650/3/3 651/3/3
f 655/1/3 654/1/3 653/1/3
f 656/1/3 654/1/3 655/1/3
f 659/3/3 658/3/3 657/3/3
f 660/3/3 658/3/3 659/3/3
f 663/3/3 662/3/3 661/3/3
f 664/3/3 662/3/3 663/3/3
f 667/1/3 666/1/3 665/1/3
f 668/1/3 666/1/3 667/1/3
f 671/3/3 670/3/3 669/3/3
f 672/3/3 670/3/3 671/3/3
f 675/3/3 674/3/3 673/3/3
f 676/3/3 674/3/3 675/3/3
f 679/1/3 678/1/3 677/1/3
f 680/1/3 678/1/3 679/1/3
f 681/3/4 682/3/4 683/3/4
f 683/3/4 682/3/4 684/3/4
f 685/2/4 686/2/4 687/2/4
f 687/2/4 686/2/4 688/2/4
f 689/3/4 690/3/4 691/3/4
f 691/3/4 690/3/4 692/3/4
f 693/3/4 694/3/4 695/3/4
f 695/3/4 694/3/4 696/3/4
f 697/3/4 698/3/4 699/3/4
f 699/3/4 698/3/4 700/3/4
f 701/2/4 702/2/4 703/2/4
f 703/2/4 702/2/4 704/2/4
f 705/3/4 706/3/4 707/3/4
f 707/3/4 706/3/4 708/3/4
f 709/3/4 710/3/4 711/3/4
f 711/3/4 710/3/4 712/3/4
f 713/3/4 714/3/4 715/3/4
f 715/3/4 714/3/4 716/3/4
f 717/3/4 718/3/4 719/3/4
f 719/3/4 718/3/4 720/3/4
f 721/3/4 722/3/4 723/3/4
f 723/3/4 722/3/4 724/3/4
f 725/3/4 726/3/4 727/3/4
f 727/3/4 726/3/4 728/3/4
f 729/3/4 730/3/4 731/3/4
f 731/3/4 730/3/4 732/3/4
f 733/3/4 734/3/4 735/3/4
f 735/3/4 734/3/4 736/3/4
f 737/3/4 738/3/4 739/3/4
f 739/3/4 738/3/4 740/3/4
f 741/3/4 742/3/4 743/3/4
f 743/3/4 742/3/4 744/3/4
f 745/3/4 746/3/4 747/3/4
f 747/3/4 746/3/4 748/3/4
f 749/3/4 750/3/4 751/3/4
f 751/3/4 750/3/4 752/3/4
f 753/3/4 754/3/4 755/3/4
f 755/3/4 754/3/4 756/3/4
f 757/3/4 758/3/4 759/3/4
f 759/3/4 758/3/4 760/3/4
f 761/3/4 762/3/4 763/3/4
f 763/3/4 762/3/4 764/3/4
f 765/3/4 766/3/4 767/3/4
f 767/3/4 766/3/4 768/3/4
f 769/3/4 770/3/4 771/3/4
f 771/3/4 770/3/4 772/3/4
f 773/3/4 774/3/4 775/3/4
f 775/3/4 774/3/4 776/3/4
f 777/3/4 778/3/4 779/3/4
f 779/3/4 778/3/4 780/3/4
f 781/2/4 782/2/4 783/2/4
f 783/2/4 782/2/4 784/2/4
f 785/2/4 786/2/4 787/2/4
f 787/2/4 786/2/4 788/2/4
f 789/2/4 790/2/4 791/2/4
f 791/2/4 790/2/4 792/2/4
f 793/3/4 794/3/4 795/3/4
f 795/3/4 794/3/4 796/3/4
f 797/2/4 798/2/4 799/2/4
f 799/2/4 798/2/4 800/2/4
f 801/3/4 802/3/4 803/3/4
f 803/3/4 802/3/4 804/3/4
f 805/3/4 806/3/4 807/3/4
f 807/3/4 806/3/4 808/3/4
f 809/3/4 810/3/4 811/3/4
f 811/3/4 810/3/4 812/3/4
f 813/3/4 814/3/4 815/3/4
f 815/3/4 814/3/4 816/3/4
f 817/3/4 818/3/4 819/3/4
f 819/3/4 818/3/4 820/3/4
f 821/3/4 822/3/4 823/3/4
f 823/3/4 822/3/4 824/3/4
f 825/3/4 826/3/4 827/3/4
f 827/3/4 826/3/4 828/3/4
f 829/3/4 830/3/4 831/3/4
f 831/3/4 830/3/4 832/3/4
f 833/3/4 834/3/4 835/3/4
f 835/3/4 834/3/4 836/3/4
f 837/3/4 838/3/4 839/3/4
f 839/3/4 838/3/4 840/3/4
f 841/3/4 842/3/4 843/3/4
f 843/3/4 842/3/4 844/3/4
f 845/3/4 846/3/4 847/3/4
f 847/3/4 846/3/4 848/3/4
f 849/3/4 850/3/4 851/3/4
f 851/3/4 850/3/4 852/3/4
f 853/3/4 854/3/4 855/3/4
f 855/3/4 854/3/4 856/3/4
f 857/3/4 858/3/4 859/3/4
f 859/3/4 858/3/4 860/3/4
f 861/3/4 862/3/4 863/3/4
f 863/3/4 862/3/4 864/3/4
f 865/3/4 866/3/4 867/3/4
f 867/3/4 866/3/4 868/3/4
f 869/3/4 870/3/4 871/3/4
f 871/3/4 870/3/4 872/3/4
f 873/1/4 874/1/4 875/1/4
f 875/1/4 874/1/4 876/1/4
f 877/3/4 878/3/4 879/3/4
f 879/3/4 878/3/4 880/3/4
f 881/1/4 882/1/4 883/1/4
f 883/1/4 882/1/4 884/1/4
f 885/1/4 886/1/4 887/1/4
f 887/1/4 886/1/4 888/1/4
f 889/1/4 890/1/4 891/1/4
f 891/1/4 890/1/4 892/1/4
f 891/3/4 892/3/4 893/3/4
f 893/3/4 892/3/4 894/3/4
f 895/3/4 896/3/4 897/3/4
f 897/3/4 896/3/4 898/3/4
f 897/2/4 898/2/4 899/2/4
f 899/2/4 898/2/4 900/2/4
f 899/3/4 900/3/4 901/3/4
f 901/3/4 900/3/4 902/3/4
f 901/1/4 902/1/4 903/1/4
f 903/1/4 902/1/4 904/1/4
f 914/3/5 910/3/5 909/3/5
f 915/3/5 912/3/5 911/3/5
f 916/3/5 912/3/5 915/3/5
f 917/3/5 907/3/5 906/3/5
f 918/2/5 909/2/5 908/2/5
f 919/2/5 909/2/5 918/2/5
f 920/3/5 915/3/5 914/3/5
f 921/3/5 912/3/5 916/3/5
f 922/3/5 912/3/5 921/3/5
f 923/3/5 921/3/5 920/3/5
f 924/3/5 912/3/5 922/3/5
f 925/3/5 912/3/5 924/3/5
f 926/3/5 924/3/5 923/3/5
f 927/3/5 912/3/5 925/3/5
f 928/3/5 912/3/5 927/3/5
f 929/1/5 906/1/5 905/1/5
f 930/3/5 917/3/5 906/3/5
f 930/1/5 906/1/5 929/1/5
f 930/3/5 918/3/5 917/3/5
f 931/3/5 918/3/5 930/3/5
f 932/2/5 909/2/5 919/2/5
f 933/3/5 920/3/5 914/3/5
f 933/3/5 914/3/5 909/3/5
f 933/2/5 909/2/5 932/2/5
f 933/3/5 927/3/5 926/3/5
f 933/3/5 923/3/5 920/3/5
f 933/3/5 926/3/5 923/3/5
f 934/3/5 927/3/5 933/3/5
f 935/3/5 912/3/5 928/3/5
f 936/1/5 913/1/5 912/1/5
f 936/3/5 912/3/5 935/3/5
f 937/1/5 913/1/5 936/1/5
f 938/3/5 931/3/5 930/3/5
f 938/3/5 930/3/5 929/3/5
f 939/2/5 932/2/5 931/2/5
f 939/3/5 931/3/5 938/3/5
f 940/3/5 934/3/5 933/3/5
f 940/3/5 935/3/5 934/3/5
f 941/3/5 937/3/5 936/3/5
f 942/3/5 937/3/5 941/3/5
f 943/3/5 938/3/5 929/3/5
f 944/3/5 938/3/5 943/3/5
f 945/2/5 932/2/5 939/2/5
f 946/2/5 932/2/5 945/2/5
f 947/3/5 941/3/5 940/3/5
f 947/3/5 940/3/5 933/3/5
f 948/3/5 941/3/5 947/3/5
f 949/3/5 941/3/5 948/3/5
f 950/3/5 937/3/5 942/3/5
f 951/3/5 937/3/5 950/3/5
f 952/3/5 949/3/5 948/3/5
f 952/3/5 950/3/5 949/3/5
f 953/3/5 937/3/5 951/3/5
f 954/3/5 937/3/5 953/3/5
f 955/3/5 943/3/5 929/3/5
f 956/3/5 943/3/5 955/3/5
f 957/3/5 945/3/5 944/3/5
f 958/3/5 953/3/5 952/3/5
f 959/3/5 937/3/5 954/3/5
f 960/3/5 937/3/5 959/3/5
f 961/2/5 946/2/5 945/2/5
f 961/2/5 947/2/5 946/2/5
f 962/3/5 952/3/5 948/3/5
f 962/3/5 959/3/5 958/3/5
f 962/3/5 958/3/5 952/3/5
f 963/3/5 959/3/5 962/3/5
f 964/3/5 959/3/5 963/3/5
f 965/3/5 937/3/5 960/3/5
f 966/3/5 937/3/5 965/3/5
f 967/3/5 955/3/5 929/3/5
f 968/3/5 955/3/5 967/3/5
f 969/3/5 957/3/5 956/3/5
f 970/3/5 964/3/5 963/3/5
f 970/3/5 965/3/5 964/3/5
f 972/3/5 967/3/5 929/3/5
f 973/3/5 967/3/5 972/3/5
f 974/3/5 969/3/5 968/3/5
f 975/3/5 962/3/5 961/3/5
f 976/3/5 971/3/5 970/3/5
f 976/3/5 970/3/5 963/3/5
f 977/3/5 971/3/5 976/3/5
f 978/3/5 975/3/5 961/3/5
f 978/3/5 976/3/5 975/3/5
f 979/3/5 976/3/5 978/3/5
f 980/3/5 972/3/5 929/3/5
f 981/3/5 972/3/5 980/3/5
f 982/3/5 974/3/5 973/3/5
f 983/2/5 961/2/5 945/2/5
f 983/3/5 978/3/5 961/3/5
f 984/3/5 978/3/5 983/3/5
f 985/3/5 971/3/5 977/3/5
f 986/3/5 971/3/5 985/3/5
f 987/3/5 980/3/5 929/3/5
f 988/3/5 980/3/5 987/3/5
f 989/3/5 982/3/5 981/3/5
f 990/3/5 987/3/5 929/3/5
f 991/3/5 987/3/5 990/3/5
f 992/3/5 989/3/5 988/3/5
f 993/3/5 945/3/5 957/3/5
f 993/3/5 989/3/5 992/3/5
f 993/3/5 974/3/5 982/3/5
f 993/3/5 957/3/5 969/3/5
f 993/3/5 969/3/5 974/3/5
f 993/3/5 982/3/5 989/3/5
f 993/2/5 983/2/5 945/2/5
f 994/2/5 983/2/5 993/2/5
f 995/2/5 983/2/5 994/2/5
f 996/3/5 985/3/5 984/3/5
f 997/3/5 985/3/5 996/3/5
f 998/3/5 971/3/5 986/3/5
f 999/3/5 971/3/5 998/3/5
f 1000/2/5 991/2/5 990/2/5
f 1001/2/5 991/2/5 1000/2/5
f 1002/2/5 993/2/5 992/2/5
f 1002/2/5 994/2/5 993/2/5
f 1003/2/5 997/2/5 996/2/5
f 1003/2/5 996/2/5 995/2/5
f 1004/2/5 999/2/5 998/2/5
f 1005/2/5 999/2/5 1004/2/5
f 1006/2/5 1000/2/5 990/2/5
f 1007/2/5 1000/2/5 1006/2/5
f 1008/2/5 1002/2/5 1001/2/5
f 1009/2/5 994/2/5 1002/2/5
f 1009/2/5 1002/2/5 1008/2/5
f 1010/2/5 1003/2/5 995/2/5
f 1010/2/5 1004/2/5 1003/2/5
f 1011/2/5 1004/2/5 1010/2/5
f 1012/2/5 999/2/5 1005/2/5
f 1013/2/5 999/2/5 1012/2/5
f 1014/3/5 1007/3/5 1006/3/5
f 1015/3/5 1007/3/5 1014/3/5
f 1016/3/5 1009/3/5 1008/3/5
f 1017/2/5 994/2/5 1009/2/5
f 1017/3/5 1009/3/5 1016/3/5
f 1018/2/5 994/2/5 1017/2/5
f 1019/3/5 1011/3/5 1010/3/5
f 1020/3/5 1011/3/5 1019/3/5
f 1021/3/5 1013/3/5 1012/3/5
f 1022/3/5 1013/3/5 1021/3/5
f 1023/3/5 1014/3/5 1006/3/5
f 1024/3/5 1014/3/5 1023/3/5
f 1025/3/5 1016/3/5 1015/3/5
f 1025/3/5 1017/3/5 1016/3/5
f 1026/3/5 1017/3/5 1025/3/5
f 1027/3/5 1017/3/5 1026/3/5
f 1028/2/5 1019/2/5 1018/2/5
f 1029/3/5 1023/3/5 1006/3/5
f 1030/3/5 1023/3/5 1029/3/5
f 1031/3/5 1025/3/5 1024/3/5
f 1031/3/5 1026/3/5 1025/3/5
f 1032/3/5 1031/3/5 1030/3/5
f 1032/3/5 1026/3/5 1031/3/5
f 1033/3/5 1026/3/5 1032/3/5
f 1034/2/5 1028/2/5 1027/2/5
f 1035/3/5 1021/3/5 1020/3/5
f 1036/3/5 1013/3/5 1022/3/5
f 1037/3/5 1013/3/5 1036/3/5
f 1038/3/5 1029/3/5 1006/3/5
f 1039/3/5 1029/3/5 1038/3/5
f 1040/3/5 1032/3/5 1030/3/5
f 1041/3/5 1038/3/5 1006/3/5
f 1042/3/5 1038/3/5 1041/3/5
f 1043/3/5 1040/3/5 1039/3/5
f 1044/3/5 1032/3/5 1040/3/5
f 1044/3/5 1040/3/5 1043/3/5
f 1045/3/5 1032/3/5 1044/3/5
f 1046/3/5 1034/3/5 1033/3/5
f 1047/3/5 1036/3/5 1035/3/5
f 1048/3/5 1013/3/5 1037/3/5
f 1049/3/5 1013/3/5 1048/3/5
f 1050/3/5 1041/3/5 1006/3/5
f 1051/3/5 1041/3/5 1050/3/5
f 1052/3/5 1043/3/5 1042/3/5
f 1052/3/5 1044/3/5 1043/3/5
f 1053/3/5 1044/3/5 1052/3/5
f 1054/3/5 1044/3/5 1053/3/5
f 1055/3/5 1046/3/5 1045/3/5
f 1056/3/5 1048/3/5 1047/3/5
f 1057/3/5 1013/3/5 1049/3/5
f 1058/3/5 1013/3/5 1057/3/5
f 1059/3/5 1050/3/5 1006/3/5
f 1060/3/5 1050/3/5 1059/3/5
f 1061/3/5 1052/3/5 1051/3/5
f 1061/3/5 1053/3/5 1052/3/5
f 1062/3/5 1061/3/5 1060/3/5
f 1062/3/5 1053/3/5 1061/3/5
f 1063/3/5 1053/3/5 1062/3/5
f 1064/3/5 1055/3/5 1054/3/5
f 1065/3/5 1059/3/5 1006/3/5
f 1066/3/5 1059/3/5 1065/3/5
f 1067/3/5 1059/3/5 1066/3/5
f 1068/3/5 1062/3/5 1060/3/5
f 1069/3/5 1057/3/5 1056/3/5
f 1070/3/5 1013/3/5 1058/3/5
f 1071/3/5 1013/3/5 1070/3/5
f 1072/3/5 1013/3/5 1071/3/5
f 1073/3/5 1013/3/5 1072/3/5
f 1074/3/5 1062/3/5 1068/3/5
f 1075/3/5 1062/3/5 1074/3/5
f 1076/3/5 1064/3/5 1063/3/5
f 1077/1/5 1066/1/5 1065/1/5
f 1078/1/5 1066/1/5 1077/1/5
f 1079/1/5 1068/1/5 1067/1/5
f 1080/3/5 1070/3/5 1069/3/5
f 1081/3/5 1072/3/5 1071/3/5
f 1082/3/5 1074/3/5 1068/3/5
f 1083/3/5 1074/3/5 1082/3/5
f 1084/3/5 1076/3/5 1075/3/5
f 1085/1/5 1077/1/5 1065/1/5
f 1086/1/5 1077/1/5 1085/1/5
f 1087/1/5 1079/1/5 1078/1/5
f 1088/1/5 1085/1/5 1065/1/5
f 1089/1/5 1085/1/5 1088/1/5
f 1090/1/5 1087/1/5 1086/1/5
f 1091/1/5 1068/1/5 1079/1/5
f 1091/1/5 1087/1/5 1090/1/5
f 1091/3/5 1082/3/5 1068/3/5
f 1091/1/5 1079/1/5 1087/1/5
f 1092/3/5 1082/3/5 1091/3/5
f 1093/3/5 1084/3/5 1083/3/5
f 1094/3/5 1046/3/5 1055/3/5
f 1094/3/5 1084/3/5 1093/3/5
f 1094/2/5 1028/2/5 1034/2/5
f 1094/3/5 1034/3/5 1046/3/5
f 1094/3/5 1055/3/5 1064/3/5
f 1094/3/5 1064/3/5 1076/3/5
f 1094/3/5 1076/3/5 1084/3/5
f 1095/3/5 1047/3/5 1035/3/5
f 1095/2/5 1028/2/5 1094/2/5
f 1095/2/5 1019/2/5 1028/2/5
f 1095/3/5 1020/3/5 1019/3/5
f 1095/3/5 1035/3/5 1020/3/5
f 1095/3/5 1056/3/5 1047/3/5
f 1095/3/5 1069/3/5 1056/3/5
f 1095/3/5 1081/3/5 1080/3/5
f 1095/3/5 1080/3/5 1069/3/5
f 1096/3/5 1072/3/5 1081/3/5
f 1096/3/5 1081/3/5 1095/3/5
f 1096/1/5 1073/1/5 1072/1/5
f 1097/1/5 1073/1/5 1096/1/5
f 1102/3/6 1103/3/6 1107/3/6
f 1104/3/6 1105/3/6 1108/3/6
f 1108/3/6 1105/3/6 1109/3/6
f 1099/3/6 1100/3/6 1110/3/6
f 1101/2/6 1102/2/6 1111/2/6
f 1111/2/6 1102/2/6 1112/2/6
f 1107/3/6 1108/3/6 1113/3/6
f 1109/3/6 1105/3/6 1114/3/6
f 1114/3/6 1105/3/6 1115/3/6
f 1113/3/6 1114/3/6 1116/3/6
f 1115/3/6 1105/3/6 1117/3/6
f 1117/3/6 1105/3/6 1118/3/6
f 1116/3/6 1117/3/6 1119/3/6
f 1118/3/6 1105/3/6 1120/3/6
f 1120/3/6 1105/3/6 1121/3/6
f 1098/1/6 1099/1/6 1122/1/6
f 1099/3/6 1110/3/6 1123/3/6
f 1122/1/6 1099/1/6 1123/1/6
f 1110/3/6 1111/3/6 1123/3/6
f 1123/3/6 1111/3/6 1124/3/6
f 1112/2/6 1102/2/6 1125/2/6
f 1107/3/6 1113/3/6 1126/3/6
f 1102/3/6 1107/3/6 1126/3/6
f 1125/2/6 1102/2/6 1126/2/6
f 1119/3/6 1120/3/6 1126/3/6
f 1113/3/6 1116/3/6 1126/3/6
f 1116/3/6 1119/3/6 1126/3/6
f 1126/3/6 1120/3/6 1127/3/6
f 1121/3/6 1105/3/6 1128/3/6
f 1105/1/6 1106/1/6 1129/1/6
f 1128/3/6 1105/3/6 1129/3/6
f 1129/1/6 1106/1/6 1130/1/6
f 1123/3/6 1124/3/6 1131/3/6
f 1122/3/6 1123/3/6 1131/3/6
f 1124/2/6 1125/2/6 1132/2/6
f 1131/3/6 1124/3/6 1132/3/6
f 1126/3/6 1127/3/6 1133/3/6
f 1127/3/6 1128/3/6 1133/3/6
f 1129/3/6 1130/3/6 1134/3/6
f 1134/3/6 1130/3/6 1135/3/6
f 1122/3/6 1131/3/6 1136/3/6
f 1136/3/6 1131/3/6 1137/3/6
f 1132/2/6 1125/2/6 1138/2/6
f 1138/2/6 1125/2/6 1139/2/6
f 1133/3/6 1134/3/6 1140/3/6
f 1126/3/6 1133/3/6 1140/3/6
f 1140/3/6 1134/3/6 1141/3/6
f 1141/3/6 1134/3/6 1142/3/6
f 1135/3/6 1130/3/6 1143/3/6
f 1143/3/6 1130/3/6 1144/3/6
f 1141/3/6 1142/3/6 1145/3/6
f 1142/3/6 1143/3/6 1145/3/6
f 1144/3/6 1130/3/6 1146/3/6
f 1146/3/6 1130/3/6 1147/3/6
f 1122/3/6 1136/3/6 1148/3/6
f 1148/3/6 1136/3/6 1149/3/6
f 1137/3/6 1138/3/6 1150/3/6
f 1145/3/6 1146/3/6 1151/3/6
f 1147/3/6 1130/3/6 1152/3/6
f 1152/3/6 1130/3/6 1153/3/6
f 1138/2/6 1139/2/6 1154/2/6
f 1139/2/6 1140/2/6 1154/2/6
f 1141/3/6 1145/3/6 1155/3/6
f 1151/3/6 1152/3/6 1155/3/6
f 1145/3/6 1151/3/6 1155/3/6
f 1155/3/6 1152/3/6 1156/3/6
f 1156/3/6 1152/3/6 1157/3/6
f 1153/3/6 1130/3/6 1158/3/6
f 1158/3/6 1130/3/6 1159/3/6
f 1122/3/6 1148/3/6 1160/3/6
f 1160/3/6 1148/3/6 1161/3/6
f 1149/3/6 1150/3/6 1162/3/6
f 1156/3/6 1157/3/6 1163/3/6
f 1157/3/6 1158/3/6 1163/3/6
f 1122/3/6 1160/3/6 1165/3/6
f 1165/3/6 1160/3/6 1166/3/6
f 1161/3/6 1162/3/6 1167/3/6
f 1154/3/6 1155/3/6 1168/3/6
f 1163/3/6 1164/3/6 1169/3/6
f 1156/3/6 1163/3/6 1169/3/6
f 1169/3/6 1164/3/6 1170/3/6
f 1154/3/6 1168/3/6 1171/3/6
f 1168/3/6 1169/3/6 1171/3/6
f 1171/3/6 1169/3/6 1172/3/6
f 1122/3/6 1165/3/6 1173/3/6
f 1173/3/6 1165/3/6 1174/3/6
f 1166/3/6 1167/3/6 1175/3/6
f 1138/2/6 1154/2/6 1176/2/6
f 1154/3/6 1171/3/6 1176/3/6
f 1176/3/6 1171/3/6 1177/3/6
f 1170/3/6 1164/3/6 1178/3/6
f 1178/3/6 1164/3/6 1179/3/6
f 1122/3/6 1173/3/6 1180/3/6
f 1180/3/6 1173/3/6 1181/3/6
f 1174/3/6 1175/3/6 1182/3/6
f 1122/3/6 1180/3/6 1183/3/6
f 1183/3/6 1180/3/6 1184/3/6
f 1181/3/6 1182/3/6 1185/3/6
f 1150/3/6 1138/3/6 1186/3/6
f 1185/3/6 1182/3/6 1186/3/6
f 1175/3/6 1167/3/6 1186/3/6
f 1162/3/6 1150/3/6 1186/3/6
f 1167/3/6 1162/3/6 1186/3/6
f 1182/3/6 1175/3/6 1186/3/6
f 1138/2/6 1176/2/6 1186/2/6
f 1186/2/6 1176/2/6 1187/2/6
f 1187/2/6 1176/2/6 1188/2/6
f 1177/3/6 1178/3/6 1189/3/6
f 1189/3/6 1178/3/6 1190/3/6
f 1179/3/6 1164/3/6 1191/3/6
f 1191/3/6 1164/3/6 1192/3/6
f 1183/2/6 1184/2/6 1193/2/6
f 1193/2/6 1184/2/6 1194/2/6
f 1185/2/6 1186/2/6 1195/2/6
f 1186/2/6 1187/2/6 1195/2/6
f 1189/2/6 1190/2/6 1196/2/6
f 1188/2/6 1189/2/6 1196/2/6
f 1191/2/6 1192/2/6 1197/2/6
f 1197/2/6 1192/2/6 1198/2/6
f 1183/2/6 1193/2/6 1199/2/6
f 1199/2/6 1193/2/6 1200/2/6
f 1194/2/6 1195/2/6 1201/2/6
f 1195/2/6 1187/2/6 1202/2/6
f 1201/2/6 1195/2/6 1202/2/6
f 1188/2/6 1196/2/6 1203/2/6
f 1196/2/6 1197/2/6 1203/2/6
f 1203/2/6 1197/2/6 1204/2/6
f 1198/2/6 1192/2/6 1205/2/6
f 1205/2/6 1192/2/6 1206/2/6
f 1199/3/6 1200/3/6 1207/3/6
f 1207/3/6 1200/3/6 1208/3/6
f 1201/3/6 1202/3/6 1209/3/6
f 1202/2/6 1187/2/6 1210/2/6
f 1209/3/6 1202/3/6 1210/3/6
f 1210/2/6 1187/2/6 1211/2/6
f 1203/3/6 1204/3/6 1212/3/6
f 1212/3/6 1204/3/6 1213/3/6
f 1205/3/6 1206/3/6 1214/3/6
f 1214/3/6 1206/3/6 1215/3/6
f 1199/3/6 1207/3/6 1216/3/6
f 1216/3/6 1207/3/6 1217/3/6
f 1208/3/6 1209/3/6 1218/3/6
f 1209/3/6 1210/3/6 1218/3/6
f 1218/3/6 1210/3/6 1219/3/6
f 1219/3/6 1210/3/6 1220/3/6
f 1211/2/6 1212/2/6 1221/2/6
f 1199/3/6 1216/3/6 1222/3/6
f 1222/3/6 1216/3/6 1223/3/6
f 1217/3/6 1218/3/6 1224/3/6
f 1218/3/6 1219/3/6 1224/3/6
f 1223/3/6 1224/3/6 1225/3/6
f 1224/3/6 1219/3/6 1225/3/6
f 1225/3/6 1219/3/6 1226/3/6
f 1220/2/6 1221/2/6 1227/2/6
f 1213/3/6 1214/3/6 1228/3/6
f 1215/3/6 1206/3/6 1229/3/6
f 1229/3/6 1206/3/6 1230/3/6
f 1199/3/6 1222/3/6 1231/3/6
f 1231/3/6 1222/3/6 1232/3/6
f 1223/3/6 1225/3/6 1233/3/6
f 1199/3/6 1231/3/6 1234/3/6
f 1234/3/6 1231/3/6 1235/3/6
f 1232/3/6 1233/3/6 1236/3/6
f 1233/3/6 1225/3/6 1237/3/6
f 1236/3/6 1233/3/6 1237/3/6
f 1237/3/6 1225/3/6 1238/3/6
f 1226/3/6 1227/3/6 1239/3/6
f 1228/3/6 1229/3/6 1240/3/6
f 1230/3/6 1206/3/6 1241/3/6
f 1241/3/6 1206/3/6 1242/3/6
f 1199/3/6 1234/3/6 1243/3/6
f 1243/3/6 1234/3/6 1244/3/6
f 1235/3/6 1236/3/6 1245/3/6
f 1236/3/6 1237/3/6 1245/3/6
f 1245/3/6 1237/3/6 1246/3/6
f 1246/3/6 1237/3/6 1247/3/6
f 1238/3/6 1239/3/6 1248/3/6
f 1240/3/6 1241/3/6 1249/3/6
f 1242/3/6 1206/3/6 1250/3/6
f 1250/3/6 1206/3/6 1251/3/6
f 1199/3/6 1243/3/6 1252/3/6
f 1252/3/6 1243/3/6 1253/3/6
f 1244/3/6 1245/3/6 1254/3/6
f 1245/3/6 1246/3/6 1254/3/6
f 1253/3/6 1254/3/6 1255/3/6
f 1254/3/6 1246/3/6 1255/3/6
f 1255/3/6 1246/3/6 1256/3/6
f 1247/3/6 1248/3/6 1257/3/6
f 1199/3/6 1252/3/6 1258/3/6
f 1258/3/6 1252/3/6 1259/3/6
f 1259/3/6 1252/3/6 1260/3/6
f 1253/3/6 1255/3/6 1261/3/6
f 1249/3/6 1250/3/6 1262/3/6
f 1251/3/6 1206/3/6 1263/3/6
f 1263/3/6 1206/3/6 1264/3/6
f 1264/3/6 1206/3/6 1265/3/6
f 1265/3/6 1206/3/6 1266/3/6
f 1261/3/6 1255/3/6 1267/3/6
f 1267/3/6 1255/3/6 1268/3/6
f 1256/3/6 1257/3/6 1269/3/6
f 1258/1/6 1259/1/6 1270/1/6
f 1270/1/6 1259/1/6 1271/1/6
f 1260/1/6 1261/1/6 1272/1/6
f 1262/3/6 1263/3/6 1273/3/6
f 1264/3/6 1265/3/6 1274/3/6
f 1261/3/6 1267/3/6 1275/3/6
f 1275/3/6 1267/3/6 1276/3/6
f 1268/3/6 1269/3/6 1277/3/6
f 1258/1/6 1270/1/6 1278/1/6
f 1278/1/6 1270/1/6 1279/1/6
f 1271/1/6 1272/1/6 1280/1/6
f 1258/1/6 1278/1/6 1281/1/6
f 1281/1/6 1278/1/6 1282/1/6
f 1279/1/6 1280/1/6 1283/1/6
f 1272/1/6 1261/1/6 1284/1/6
f 1283/1/6 1280/1/6 1284/1/6
f 1261/3/6 1275/3/6 1284/3/6
f 1280/1/6 1272/1/6 1284/1/6
f 1284/3/6 1275/3/6 1285/3/6
f 1276/3/6 1277/3/6 1286/3/6
f 1248/3/6 1239/3/6 1287/3/6
f 1286/3/6 1277/3/6 1287/3/6
f 1227/2/6 1221/2/6 1287/2/6
f 1239/3/6 1227/3/6 1287/3/6
f 1257/3/6 1248/3/6 1287/3/6
f 1269/3/6 1257/3/6 1287/3/6
f 1277/3/6 1269/3/6 1287/3/6
f 1228/3/6 1240/3/6 1288/3/6
f 1287/2/6 1221/2/6 1288/2/6
f 1221/2/6 1212/2/6 1288/2/6
f 1212/3/6 1213/3/6 1288/3/6
f 1213/3/6 1228/3/6 1288/3/6
f 1240/3/6 1249/3/6 1288/3/6
f 1249/3/6 1262/3/6 1288/3/6
f 1273/3/6 1274/3/6 1288/3/6
f 1262/3/6 1273/3/6 1288/3/6
f 1274/3/6 1265/3/6 1289/3/6
f 1288/3/6 1274/3/6 1289/3/6
f 1265/1/6 1266/1/6 1289/1/6
f 1289/1/6 1266/1/6 1290/1/6
