# MagicaVoxel @ Ephtracy

# group
o 

# material
mtllib RoadTurnHasarli.mtl
usemtl palette

# normals
vn -1 0 0
vn 1 0 0
vn 0 0 1
vn 0 0 -1
vn 0 -1 0
vn 0 1 0

# texcoords
vt 0.447266 0.5
vt 0.958984 0.5
vt 0.990234 0.5

# verts
v -2 0 2
v -2 0 -2
v -2 0.1 2
v -2 0.1 -2
v -1.6 0 -0.9
v -1.6 0 -1.1
v -1.6 0.1 -0.9
v -1.6 0.1 -1.1
v -1.5 0 -0.3
v -1.5 0 -0.6
v -1.5 0 -0.7
v -1.5 0 -0.9
v -1.5 0.1 -0.3
v -1.5 0.1 -0.6
v -1.5 0.1 -0.7
v -1.5 0.1 -0.9
v -1.4 0 0.3
v -1.4 0 -0.3
v -1.4 0 -0.6
v -1.4 0 -0.7
v -1.4 0.1 0.3
v -1.4 0.1 -0.3
v -1.4 0.1 -0.6
v -1.4 0.1 -0.7
v -1.3 0 0.9
v -1.3 0 0.3
v -1.3 0 -0.5
v -1.3 0 -0.6
v -1.3 0.1 0.9
v -1.3 0.1 0.3
v -1.3 0.1 -0.5
v -1.3 0.1 -0.6
v -1.2 0 1.5
v -1.2 0 0.9
v -1.2 0 -0.3
v -1.2 0 -0.5
v -1.2 0.1 1.5
v -1.2 0.1 0.9
v -1.2 0.1 -0.3
v -1.2 0.1 -0.5
v -1.1 0 1.9
v -1.1 0 1.5
v -1.1 0 -0.2
v -1.1 0 -0.3
v -1.1 0.1 1.9
v -1.1 0.1 1.5
v -1.1 0.1 -0.2
v -1.1 0.1 -0.3
v -1 0 -2.38419e-07
v -1 0 -0.2
v -1 0.1 -2.38419e-07
v -1 0.1 -0.2
v -0.9 0 0.0999999
v -0.9 0 -2.38419e-07
v -0.9 0.1 0.0999999
v -0.9 0.1 -2.38419e-07
v -0.8 0 0.3
v -0.8 0 0.0999999
v -0.8 0.1 0.3
v -0.8 0.1 0.0999999
v -0.7 0 0.4
v -0.7 0 0.3
v -0.7 0.1 0.4
v -0.7 0.1 0.3
v -0.6 0 0.5
v -0.6 0 0.4
v -0.6 0.1 0.5
v -0.6 0.1 0.4
v -0.5 0 0.7
v -0.5 0 0.5
v -0.5 0.1 0.7
v -0.5 0.1 0.5
v -0.4 0 0.8
v -0.4 0 0.7
v -0.4 0.1 0.8
v -0.4 0.1 0.7
v -0.3 0 1
v -0.3 0 0.8
v -0.3 0.1 1
v -0.3 0.1 0.8
v -0.2 0 1.1
v -0.2 0 1
v -0.2 0.1 1.1
v -0.2 0.1 1
v -0.0999999 0 1.3
v -0.0999999 0 1.1
v -0.0999999 0.1 1.3
v -0.0999999 0.1 1.1
v 2.38419e-07 0 1.4
v 2.38419e-07 0 1.3
v 2.38419e-07 0.1 1.4
v 2.38419e-07 0.1 1.3
v 0.1 0 1.5
v 0.1 0 1.4
v 0.1 0.1 1.5
v 0.1 0.1 1.4
v 0.2 0 1.7
v 0.2 0 1.5
v 0.2 0.1 1.7
v 0.2 0.1 1.5
v 0.3 0 1.8
v 0.3 0 1.7
v 0.3 0.1 1.8
v 0.3 0.1 1.7
v 1 0 -0.7
v 1 0 -0.9
v 1 0.1 -0.7
v 1 0.1 -0.9
v 1.1 0 -0.3
v 1.1 0 -0.7
v 1.1 0.1 -0.3
v 1.1 0.1 -0.7
v 1.2 0 0.0999999
v 1.2 0 -0.1
v 1.2 0 -0.3
v 1.2 0.1 0.0999999
v 1.2 0.1 -0.1
v 1.2 0.1 -0.3
v 1.3 0 0.4
v 1.3 0 0.0999999
v 1.3 0.1 0.4
v 1.3 0.1 0.0999999
v 1.4 0 0.8
v 1.4 0 0.4
v 1.4 0.1 0.8
v 1.4 0.1 0.4
v 1.5 0 1.2
v 1.5 0 0.8
v 1.5 0.1 1.2
v 1.5 0.1 0.8
v 1.7 0 1.8
v 1.7 0 1.5
v 1.7 0 1.1
v 1.7 0.1 1.8
v 1.7 0.1 1.5
v 1.7 0.1 1.1
v 1.8 0 1.1
v 1.8 0 0.0999999
v 1.8 0.1 1.1
v 1.8 0.1 0.0999999
v 1.9 0 0.0999999
v 1.9 0 -0.1
v 1.9 0 -0.9
v 1.9 0.1 0.0999999
v 1.9 0.1 -0.1
v 1.9 0.1 -0.9
v -1.7 0 -0.7
v -1.7 0 -1.1
v -1.7 0.1 -0.7
v -1.7 0.1 -1.1
v -1.6 0 -0.3
v -1.6 0 -0.7
v -1.6 0.1 -0.3
v -1.6 0.1 -0.7
v -1.5 0 0.3
v -1.5 0 -0.3
v -1.5 0.1 0.3
v -1.5 0.1 -0.3
v -1.4 0 0.9
v -1.4 0 0.3
v -1.4 0 -0.5
v -1.4 0 -0.6
v -1.4 0.1 0.9
v -1.4 0.1 0.3
v -1.4 0.1 -0.5
v -1.4 0.1 -0.6
v -1.3 0 1.5
v -1.3 0 0.9
v -1.3 0 -0.3
v -1.3 0 -0.5
v -1.3 0.1 1.5
v -1.3 0.1 0.9
v -1.3 0.1 -0.3
v -1.3 0.1 -0.5
v -1.2 0 1.9
v -1.2 0 1.5
v -1.2 0 -0.2
v -1.2 0 -0.3
v -1.2 0.1 1.9
v -1.2 0.1 1.5
v -1.2 0.1 -0.2
v -1.2 0.1 -0.3
v -1.1 0 -2.38419e-07
v -1.1 0 -0.2
v -1.1 0.1 -2.38419e-07
v -1.1 0.1 -0.2
v -1 0 0.0999999
v -1 0 -2.38419e-07
v -1 0.1 0.0999999
v -1 0.1 -2.38419e-07
v -0.9 0 0.3
v -0.9 0 0.0999999
v -0.9 0.1 0.3
v -0.9 0.1 0.0999999
v -0.8 0 0.4
v -0.8 0 0.3
v -0.8 0.1 0.4
v -0.8 0.1 0.3
v -0.7 0 0.5
v -0.7 0 0.4
v -0.7 0.1 0.5
v -0.7 0.1 0.4
v -0.6 0 0.7
v -0.6 0 0.5
v -0.6 0.1 0.7
v -0.6 0.1 0.5
v -0.5 0 0.8
v -0.5 0 0.7
v -0.5 0.1 0.8
v -0.5 0.1 0.7
v -0.4 0 1
v -0.4 0 0.8
v -0.4 0.1 1
v -0.4 0.1 0.8
v -0.3 0 1.1
v -0.3 0 1
v -0.3 0.1 1.1
v -0.3 0.1 1
v -0.2 0 1.3
v -0.2 0 1.1
v -0.2 0.1 1.3
v -0.2 0.1 1.1
v -0.0999999 0 1.4
v -0.0999999 0 1.3
v -0.0999999 0.1 1.4
v -0.0999999 0.1 1.3
v 2.38419e-07 0 1.5
v 2.38419e-07 0 1.4
v 2.38419e-07 0.1 1.5
v 2.38419e-07 0.1 1.4
v 0.1 0 1.7
v 0.1 0 1.5
v 0.1 0.1 1.7
v 0.1 0.1 1.5
v 0.2 0 1.8
v 0.2 0 1.7
v 0.2 0.1 1.8
v 0.2 0.1 1.7
v 0.9 0 -0.7
v 0.9 0 -0.9
v 0.9 0.1 -0.7
v 0.9 0.1 -0.9
v 1 0 -0.3
v 1 0 -0.7
v 1 0.1 -0.3
v 1 0.1 -0.7
v 1.1 0 0.0999999
v 1.1 0 -0.1
v 1.1 0 -0.3
v 1.1 0.1 0.0999999
v 1.1 0.1 -0.1
v 1.1 0.1 -0.3
v 1.2 0 0.4
v 1.2 0 0.0999999
v 1.2 0.1 0.4
v 1.2 0.1 0.0999999
v 1.3 0 0.8
v 1.3 0 0.4
v 1.3 0.1 0.8
v 1.3 0.1 0.4
v 1.4 0 1.2
v 1.4 0 0.8
v 1.4 0.1 1.2
v 1.4 0.1 0.8
v 1.5 0 1.6
v 1.5 0 1.2
v 1.5 0.1 1.6
v 1.5 0.1 1.2
v 1.6 0 1.8
v 1.6 0 1.6
v 1.6 0 1.2
v 1.6 0 1.1
v 1.6 0.1 1.8
v 1.6 0.1 1.6
v 1.6 0.1 1.2
v 1.6 0.1 1.1
v 1.7 0 1.1
v 1.7 0 0.0999999
v 1.7 0.1 1.1
v 1.7 0.1 0.0999999
v 1.8 0 0.0999999
v 1.8 0 -0.1
v 1.8 0 -0.9
v 1.8 0.1 0.0999999
v 1.8 0.1 -0.1
v 1.8 0.1 -0.9
v 1.9 0 -0.9
v 1.9 0 -1.4
v 1.9 0.1 -0.9
v 1.9 0.1 -1.4
v 2 0 2
v 2 0 1.5
v 2 0 0.0999999
v 2 0 -0.1
v 2 0 -0.9
v 2 0 -1.4
v 2 0 -1.5
v 2 0 -2
v 2 0.1 2
v 2 0.1 1.5
v 2 0.1 0.0999999
v 2 0.1 -0.1
v 2 0.1 -0.9
v 2 0.1 -1.4
v 2 0.1 -1.5
v 2 0.1 -2
v -2 0 2
v -2 0.1 2
v -1.5 0 2
v -1.5 0.1 2
v -0.0999999 0 2
v -0.0999999 0.1 2
v 0.1 0 2
v 0.1 0.1 2
v 1.5 0 2
v 1.5 0.1 2
v 2 0 2
v 2 0.1 2
v 0.2 0 1.7
v 0.2 0.1 1.7
v 0.3 0 1.7
v 0.3 0.1 1.7
v -1.2 0 1.5
v -1.2 0.1 1.5
v -1.1 0 1.5
v -1.1 0.1 1.5
v 0.1 0 1.5
v 0.1 0.1 1.5
v 0.2 0 1.5
v 0.2 0.1 1.5
v 2.38419e-07 0 1.4
v 2.38419e-07 0.1 1.4
v 0.1 0 1.4
v 0.1 0.1 1.4
v -0.0999999 0 1.3
v -0.0999999 0.1 1.3
v 2.38419e-07 0 1.3
v 2.38419e-07 0.1 1.3
v 1.5 0 1.2
v 1.5 0.1 1.2
v 1.6 0 1.2
v 1.6 0.1 1.2
v -0.2 0 1.1
v -0.2 0.1 1.1
v -0.0999999 0 1.1
v -0.0999999 0.1 1.1
v 1.6 0 1.1
v 1.6 0.1 1.1
v 1.7 0 1.1
v 1.7 0.1 1.1
v -0.3 0 1
v -0.3 0.1 1
v -0.2 0 1
v -0.2 0.1 1
v -1.3 0 0.9
v -1.3 0.1 0.9
v -1.2 0 0.9
v -1.2 0.1 0.9
v -0.4 0 0.8
v -0.4 0.1 0.8
v -0.3 0 0.8
v -0.3 0.1 0.8
v 1.4 0 0.8
v 1.4 0.1 0.8
v 1.5 0 0.8
v 1.5 0.1 0.8
v -0.5 0 0.7
v -0.5 0.1 0.7
v -0.4 0 0.7
v -0.4 0.1 0.7
v -0.6 0 0.5
v -0.6 0.1 0.5
v -0.5 0 0.5
v -0.5 0.1 0.5
v -0.7 0 0.4
v -0.7 0.1 0.4
v -0.6 0 0.4
v -0.6 0.1 0.4
v 1.3 0 0.4
v 1.3 0.1 0.4
v 1.4 0 0.4
v 1.4 0.1 0.4
v -1.4 0 0.3
v -1.4 0.1 0.3
v -1.3 0 0.3
v -1.3 0.1 0.3
v -0.8 0 0.3
v -0.8 0.1 0.3
v -0.7 0 0.3
v -0.7 0.1 0.3
v -0.9 0 0.0999999
v -0.9 0.1 0.0999999
v -0.8 0 0.0999999
v -0.8 0.1 0.0999999
v 1.2 0 0.0999999
v 1.2 0.1 0.0999999
v 1.3 0 0.0999999
v 1.3 0.1 0.0999999
v 1.7 0 0.0999999
v 1.7 0.1 0.0999999
v 1.8 0 0.0999999
v 1.8 0.1 0.0999999
v -1 0 -2.38419e-07
v -1 0.1 -2.38419e-07
v -0.9 0 -2.38419e-07
v -0.9 0.1 -2.38419e-07
v -1.1 0 -0.2
v -1.1 0.1 -0.2
v -1 0 -0.2
v -1 0.1 -0.2
v -1.5 0 -0.3
v -1.5 0.1 -0.3
v -1.4 0 -0.3
v -1.4 0.1 -0.3
v -1.2 0 -0.3
v -1.2 0.1 -0.3
v -1.1 0 -0.3
v -1.1 0.1 -0.3
v 1.1 0 -0.3
v 1.1 0.1 -0.3
v 1.2 0 -0.3
v 1.2 0.1 -0.3
v -1.3 0 -0.5
v -1.3 0.1 -0.5
v -1.2 0 -0.5
v -1.2 0.1 -0.5
v -1.4 0 -0.6
v -1.4 0.1 -0.6
v -1.3 0 -0.6
v -1.3 0.1 -0.6
v -1.5 0 -0.7
v -1.5 0.1 -0.7
v -1.4 0 -0.7
v -1.4 0.1 -0.7
v 1 0 -0.7
v 1 0.1 -0.7
v 1.1 0 -0.7
v 1.1 0.1 -0.7
v -1.6 0 -0.9
v -1.6 0.1 -0.9
v -1.5 0 -0.9
v -1.5 0.1 -0.9
v 0.9 0 -0.9
v 0.9 0.1 -0.9
v 1 0 -0.9
v 1 0.1 -0.9
v 1.8 0 -0.9
v 1.8 0.1 -0.9
v 1.9 0 -0.9
v 1.9 0.1 -0.9
v -1.7 0 -1.1
v -1.7 0.1 -1.1
v -1.6 0 -1.1
v -1.6 0.1 -1.1
v 1.9 0 -1.4
v 1.9 0.1 -1.4
v 2 0 -1.4
v 2 0.1 -1.4
v -1.2 0 1.9
v -1.2 0.1 1.9
v -1.1 0 1.9
v -1.1 0.1 1.9
v 0.2 0 1.8
v 0.2 0.1 1.8
v 0.3 0 1.8
v 0.3 0.1 1.8
v 1.6 0 1.8
v 1.6 0.1 1.8
v 1.7 0 1.8
v 1.7 0.1 1.8
v 0.1 0 1.7
v 0.1 0.1 1.7
v 0.2 0 1.7
v 0.2 0.1 1.7
v 1.5 0 1.6
v 1.5 0.1 1.6
v 1.6 0 1.6
v 1.6 0.1 1.6
v -1.3 0 1.5
v -1.3 0.1 1.5
v -1.2 0 1.5
v -1.2 0.1 1.5
v 2.38419e-07 0 1.5
v 2.38419e-07 0.1 1.5
v 0.1 0 1.5
v 0.1 0.1 1.5
v -0.0999999 0 1.4
v -0.0999999 0.1 1.4
v 2.38419e-07 0 1.4
v 2.38419e-07 0.1 1.4
v -0.2 0 1.3
v -0.2 0.1 1.3
v -0.0999999 0 1.3
v -0.0999999 0.1 1.3
v 1.4 0 1.2
v 1.4 0.1 1.2
v 1.5 0 1.2
v 1.5 0.1 1.2
v -0.3 0 1.1
v -0.3 0.1 1.1
v -0.2 0 1.1
v -0.2 0.1 1.1
v 1.7 0 1.1
v 1.7 0.1 1.1
v 1.8 0 1.1
v 1.8 0.1 1.1
v -0.4 0 1
v -0.4 0.1 1
v -0.3 0 1
v -0.3 0.1 1
v -1.4 0 0.9
v -1.4 0.1 0.9
v -1.3 0 0.9
v -1.3 0.1 0.9
v -0.5 0 0.8
v -0.5 0.1 0.8
v -0.4 0 0.8
v -0.4 0.1 0.8
v 1.3 0 0.8
v 1.3 0.1 0.8
v 1.4 0 0.8
v 1.4 0.1 0.8
v -0.6 0 0.7
v -0.6 0.1 0.7
v -0.5 0 0.7
v -0.5 0.1 0.7
v -0.7 0 0.5
v -0.7 0.1 0.5
v -0.6 0 0.5
v -0.6 0.1 0.5
v -0.8 0 0.4
v -0.8 0.1 0.4
v -0.7 0 0.4
v -0.7 0.1 0.4
v 1.2 0 0.4
v 1.2 0.1 0.4
v 1.3 0 0.4
v 1.3 0.1 0.4
v -1.5 0 0.3
v -1.5 0.1 0.3
v -1.4 0 0.3
v -1.4 0.1 0.3
v -0.9 0 0.3
v -0.9 0.1 0.3
v -0.8 0 0.3
v -0.8 0.1 0.3
v -1 0 0.0999999
v -1 0.1 0.0999999
v -0.9 0 0.0999999
v -0.9 0.1 0.0999999
v 1.1 0 0.0999999
v 1.1 0.1 0.0999999
v 1.2 0 0.0999999
v 1.2 0.1 0.0999999
v 1.8 0 0.0999999
v 1.8 0.1 0.0999999
v 1.9 0 0.0999999
v 1.9 0.1 0.0999999
v -1.1 0 -2.38419e-07
v -1.1 0.1 -2.38419e-07
v -1 0 -2.38419e-07
v -1 0.1 -2.38419e-07
v -1.2 0 -0.2
v -1.2 0.1 -0.2
v -1.1 0 -0.2
v -1.1 0.1 -0.2
v -1.6 0 -0.3
v -1.6 0.1 -0.3
v -1.5 0 -0.3
v -1.5 0.1 -0.3
v -1.3 0 -0.3
v -1.3 0.1 -0.3
v -1.2 0 -0.3
v -1.2 0.1 -0.3
v 1 0 -0.3
v 1 0.1 -0.3
v 1.1 0 -0.3
v 1.1 0.1 -0.3
v -1.4 0 -0.5
v -1.4 0.1 -0.5
v -1.3 0 -0.5
v -1.3 0.1 -0.5
v -1.5 0 -0.6
v -1.5 0.1 -0.6
v -1.4 0 -0.6
v -1.4 0.1 -0.6
v -1.7 0 -0.7
v -1.7 0.1 -0.7
v -1.6 0 -0.7
v -1.6 0.1 -0.7
v 0.9 0 -0.7
v 0.9 0.1 -0.7
v 1 0 -0.7
v 1 0.1 -0.7
v 1.9 0 -0.9
v 1.9 0.1 -0.9
v 2 0 -0.9
v 2 0.1 -0.9
v -2 0 -2
v -2 0.1 -2
v 2 0 -2
v 2 0.1 -2
v -2 0 2
v -1.5 0 2
v -0.0999999 0 2
v 0.1 0 2
v 1.5 0 2
v 2 0 2
v -1.2 0 1.9
v -1.1 0 1.9
v 0.2 0 1.8
v 0.3 0 1.8
v 1.6 0 1.8
v 1.7 0 1.8
v 0.1 0 1.7
v 0.2 0 1.7
v 0.3 0 1.7
v 1.5 0 1.6
v 1.6 0 1.6
v -1.3 0 1.5
v -1.2 0 1.5
v -1.1 0 1.5
v 2.38419e-07 0 1.5
v 0.1 0 1.5
v 0.2 0 1.5
v 1.7 0 1.5
v 2 0 1.5
v -0.0999999 0 1.4
v 2.38419e-07 0 1.4
v 0.1 0 1.4
v -0.2 0 1.3
v -0.0999999 0 1.3
v 2.38419e-07 0 1.3
v 1.4 0 1.2
v 1.5 0 1.2
v 1.6 0 1.2
v -0.3 0 1.1
v -0.2 0 1.1
v -0.0999999 0 1.1
v 1.6 0 1.1
v 1.7 0 1.1
v 1.8 0 1.1
v -0.4 0 1
v -0.3 0 1
v -0.2 0 1
v -1.4 0 0.9
v -1.3 0 0.9
v -1.2 0 0.9
v -0.5 0 0.8
v -0.4 0 0.8
v -0.3 0 0.8
v 1.3 0 0.8
v 1.4 0 0.8
v 1.5 0 0.8
v -0.6 0 0.7
v -0.5 0 0.7
v -0.4 0 0.7
v -0.7 0 0.5
v -0.6 0 0.5
v -0.5 0 0.5
v -0.8 0 0.4
v -0.7 0 0.4
v -0.6 0 0.4
v 1.2 0 0.4
v 1.3 0 0.4
v 1.4 0 0.4
v -1.5 0 0.3
v -1.4 0 0.3
v -1.3 0 0.3
v -0.9 0 0.3
v -0.8 0 0.3
v -0.7 0 0.3
v -1 0 0.0999999
v -0.9 0 0.0999999
v -0.8 0 0.0999999
v 0.1 0 0.0999999
v 1.1 0 0.0999999
v 1.2 0 0.0999999
v 1.3 0 0.0999999
v 1.7 0 0.0999999
v 1.8 0 0.0999999
v 1.9 0 0.0999999
v 2 0 0.0999999
v -1.1 0 -2.38419e-07
v -1 0 -2.38419e-07
v -0.9 0 -2.38419e-07
v -0.0999999 0 -0.1
v 1.1 0 -0.1
v 1.2 0 -0.1
v 1.8 0 -0.1
v 1.9 0 -0.1
v 2 0 -0.1
v -1.2 0 -0.2
v -1.1 0 -0.2
v -1 0 -0.2
v -1.6 0 -0.3
v -1.5 0 -0.3
v -1.4 0 -0.3
v -1.3 0 -0.3
v -1.2 0 -0.3
v -1.1 0 -0.3
v 1 0 -0.3
v 1.1 0 -0.3
v 1.2 0 -0.3
v -1.4 0 -0.5
v -1.3 0 -0.5
v -1.2 0 -0.5
v -1.5 0 -0.6
v -1.4 0 -0.6
v -1.3 0 -0.6
v -1.7 0 -0.7
v -1.6 0 -0.7
v -1.5 0 -0.7
v -1.4 0 -0.7
v 0.9 0 -0.7
v 1 0 -0.7
v 1.1 0 -0.7
v -1.6 0 -0.9
v -1.5 0 -0.9
v 0.9 0 -0.9
v 1 0 -0.9
v 1.8 0 -0.9
v 1.9 0 -0.9
v 2 0 -0.9
v -1.7 0 -1.1
v -1.6 0 -1.1
v 1.9 0 -1.4
v 2 0 -1.4
v -1.5 0 -1.5
v 2 0 -1.5
v -2 0 -2
v 2 0 -2
v -2 0.1 2
v -1.5 0.1 2
v -0.0999999 0.1 2
v 0.1 0.1 2
v 1.5 0.1 2
v 2 0.1 2
v -1.2 0.1 1.9
v -1.1 0.1 1.9
v 0.2 0.1 1.8
v 0.3 0.1 1.8
v 1.6 0.1 1.8
v 1.7 0.1 1.8
v 0.1 0.1 1.7
v 0.2 0.1 1.7
v 0.3 0.1 1.7
v 1.5 0.1 1.6
v 1.6 0.1 1.6
v -1.3 0.1 1.5
v -1.2 0.1 1.5
v -1.1 0.1 1.5
v 2.38419e-07 0.1 1.5
v 0.1 0.1 1.5
v 0.2 0.1 1.5
v 1.7 0.1 1.5
v 2 0.1 1.5
v -0.0999999 0.1 1.4
v 2.38419e-07 0.1 1.4
v 0.1 0.1 1.4
v -0.2 0.1 1.3
v -0.0999999 0.1 1.3
v 2.38419e-07 0.1 1.3
v 1.4 0.1 1.2
v 1.5 0.1 1.2
v 1.6 0.1 1.2
v -0.3 0.1 1.1
v -0.2 0.1 1.1
v -0.0999999 0.1 1.1
v 1.6 0.1 1.1
v 1.7 0.1 1.1
v 1.8 0.1 1.1
v -0.4 0.1 1
v -0.3 0.1 1
v -0.2 0.1 1
v -1.4 0.1 0.9
v -1.3 0.1 0.9
v -1.2 0.1 0.9
v -0.5 0.1 0.8
v -0.4 0.1 0.8
v -0.3 0.1 0.8
v 1.3 0.1 0.8
v 1.4 0.1 0.8
v 1.5 0.1 0.8
v -0.6 0.1 0.7
v -0.5 0.1 0.7
v -0.4 0.1 0.7
v -0.7 0.1 0.5
v -0.6 0.1 0.5
v -0.5 0.1 0.5
v -0.8 0.1 0.4
v -0.7 0.1 0.4
v -0.6 0.1 0.4
v 1.2 0.1 0.4
v 1.3 0.1 0.4
v 1.4 0.1 0.4
v -1.5 0.1 0.3
v -1.4 0.1 0.3
v -1.3 0.1 0.3
v -0.9 0.1 0.3
v -0.8 0.1 0.3
v -0.7 0.1 0.3
v -1 0.1 0.0999999
v -0.9 0.1 0.0999999
v -0.8 0.1 0.0999999
v 0.1 0.1 0.0999999
v 1.1 0.1 0.0999999
v 1.2 0.1 0.0999999
v 1.3 0.1 0.0999999
v 1.7 0.1 0.0999999
v 1.8 0.1 0.0999999
v 1.9 0.1 0.0999999
v 2 0.1 0.0999999
v -1.1 0.1 -2.38419e-07
v -1 0.1 -2.38419e-07
v -0.9 0.1 -2.38419e-07
v -0.0999999 0.1 -0.1
v 1.1 0.1 -0.1
v 1.2 0.1 -0.1
v 1.8 0.1 -0.1
v 1.9 0.1 -0.1
v 2 0.1 -0.1
v -1.2 0.1 -0.2
v -1.1 0.1 -0.2
v -1 0.1 -0.2
v -1.6 0.1 -0.3
v -1.5 0.1 -0.3
v -1.4 0.1 -0.3
v -1.3 0.1 -0.3
v -1.2 0.1 -0.3
v -1.1 0.1 -0.3
v 1 0.1 -0.3
v 1.1 0.1 -0.3
v 1.2 0.1 -0.3
v -1.4 0.1 -0.5
v -1.3 0.1 -0.5
v -1.2 0.1 -0.5
v -1.5 0.1 -0.6
v -1.4 0.1 -0.6
v -1.3 0.1 -0.6
v -1.7 0.1 -0.7
v -1.6 0.1 -0.7
v -1.5 0.1 -0.7
v -1.4 0.1 -0.7
v 0.9 0.1 -0.7
v 1 0.1 -0.7
v 1.1 0.1 -0.7
v -1.6 0.1 -0.9
v -1.5 0.1 -0.9
v 0.9 0.1 -0.9
v 1 0.1 -0.9
v 1.8 0.1 -0.9
v 1.9 0.1 -0.9
v 2 0.1 -0.9
v -1.7 0.1 -1.1
v -1.6 0.1 -1.1
v 1.9 0.1 -1.4
v 2 0.1 -1.4
v -1.5 0.1 -1.5
v 2 0.1 -1.5
v -2 0.1 -2
v 2 0.1 -2

# faces
f 3/1/1 2/1/1 1/1/1
f 4/1/1 2/1/1 3/1/1
f 7/1/1 6/1/1 5/1/1
f 8/1/1 6/1/1 7/1/1
f 13/3/1 10/3/1 9/3/1
f 14/3/1 10/3/1 13/3/1
f 15/3/1 12/3/1 11/3/1
f 16/3/1 12/3/1 15/3/1
f 21/3/1 18/3/1 17/3/1
f 22/3/1 18/3/1 21/3/1
f 23/3/1 20/3/1 19/3/1
f 24/3/1 20/3/1 23/3/1
f 29/3/1 26/3/1 25/3/1
f 30/3/1 26/3/1 29/3/1
f 31/3/1 28/3/1 27/3/1
f 32/3/1 28/3/1 31/3/1
f 37/3/1 34/3/1 33/3/1
f 38/3/1 34/3/1 37/3/1
f 39/3/1 36/3/1 35/3/1
f 40/3/1 36/3/1 39/3/1
f 45/3/1 42/3/1 41/3/1
f 46/3/1 42/3/1 45/3/1
f 47/3/1 44/3/1 43/3/1
f 48/3/1 44/3/1 47/3/1
f 51/3/1 50/3/1 49/3/1
f 52/3/1 50/3/1 51/3/1
f 55/3/1 54/3/1 53/3/1
f 56/3/1 54/3/1 55/3/1
f 59/3/1 58/3/1 57/3/1
f 60/3/1 58/3/1 59/3/1
f 63/3/1 62/3/1 61/3/1
f 64/3/1 62/3/1 63/3/1
f 67/3/1 66/3/1 65/3/1
f 68/3/1 66/3/1 67/3/1
f 71/3/1 70/3/1 69/3/1
f 72/3/1 70/3/1 71/3/1
f 75/3/1 74/3/1 73/3/1
f 76/3/1 74/3/1 75/3/1
f 79/3/1 78/3/1 77/3/1
f 80/3/1 78/3/1 79/3/1
f 83/3/1 82/3/1 81/3/1
f 84/3/1 82/3/1 83/3/1
f 87/2/1 86/2/1 85/2/1
f 88/2/1 86/2/1 87/2/1
f 91/2/1 90/2/1 89/2/1
f 92/2/1 90/2/1 91/2/1
f 95/3/1 94/3/1 93/3/1
f 96/3/1 94/3/1 95/3/1
f 99/3/1 98/3/1 97/3/1
f 100/3/1 98/3/1 99/3/1
f 103/3/1 102/3/1 101/3/1
f 104/3/1 102/3/1 103/3/1
f 107/3/1 106/3/1 105/3/1
f 108/3/1 106/3/1 107/3/1
f 111/3/1 110/3/1 109/3/1
f 112/3/1 110/3/1 111/3/1
f 116/2/1 114/2/1 113/2/1
f 117/3/1 115/3/1 114/3/1
f 117/2/1 114/2/1 116/2/1
f 118/3/1 115/3/1 117/3/1
f 121/3/1 120/3/1 119/3/1
f 122/3/1 120/3/1 121/3/1
f 125/3/1 124/3/1 123/3/1
f 126/3/1 124/3/1 125/3/1
f 129/3/1 128/3/1 127/3/1
f 130/3/1 128/3/1 129/3/1
f 134/1/1 132/1/1 131/1/1
f 135/3/1 133/3/1 132/3/1
f 135/1/1 132/1/1 134/1/1
f 136/3/1 133/3/1 135/3/1
f 139/3/1 138/3/1 137/3/1
f 140/3/1 138/3/1 139/3/1
f 144/2/1 142/2/1 141/2/1
f 145/3/1 143/3/1 142/3/1
f 145/2/1 142/2/1 144/2/1
f 146/3/1 143/3/1 145/3/1
f 147/1/2 148/1/2 149/1/2
f 149/1/2 148/1/2 150/1/2
f 151/1/2 152/1/2 153/1/2
f 153/1/2 152/1/2 154/1/2
f 155/1/2 156/1/2 157/1/2
f 157/1/2 156/1/2 158/1/2
f 159/3/2 160/3/2 163/3/2
f 163/3/2 160/3/2 164/3/2
f 161/3/2 162/3/2 165/3/2
f 165/3/2 162/3/2 166/3/2
f 167/3/2 168/3/2 171/3/2
f 171/3/2 168/3/2 172/3/2
f 169/3/2 170/3/2 173/3/2
f 173/3/2 170/3/2 174/3/2
f 175/3/2 176/3/2 179/3/2
f 179/3/2 176/3/2 180/3/2
f 177/3/2 178/3/2 181/3/2
f 181/3/2 178/3/2 182/3/2
f 183/3/2 184/3/2 185/3/2
f 185/3/2 184/3/2 186/3/2
f 187/3/2 188/3/2 189/3/2
f 189/3/2 188/3/2 190/3/2
f 191/3/2 192/3/2 193/3/2
f 193/3/2 192/3/2 194/3/2
f 195/3/2 196/3/2 197/3/2
f 197/3/2 196/3/2 198/3/2
f 199/3/2 200/3/2 201/3/2
f 201/3/2 200/3/2 202/3/2
f 203/3/2 204/3/2 205/3/2
f 205/3/2 204/3/2 206/3/2
f 207/3/2 208/3/2 209/3/2
f 209/3/2 208/3/2 210/3/2
f 211/3/2 212/3/2 213/3/2
f 213/3/2 212/3/2 214/3/2
f 215/3/2 216/3/2 217/3/2
f 217/3/2 216/3/2 218/3/2
f 219/3/2 220/3/2 221/3/2
f 221/3/2 220/3/2 222/3/2
f 223/3/2 224/3/2 225/3/2
f 225/3/2 224/3/2 226/3/2
f 227/2/2 228/2/2 229/2/2
f 229/2/2 228/2/2 230/2/2
f 231/2/2 232/2/2 233/2/2
f 233/2/2 232/2/2 234/2/2
f 235/3/2 236/3/2 237/3/2
f 237/3/2 236/3/2 238/3/2
f 239/3/2 240/3/2 241/3/2
f 241/3/2 240/3/2 242/3/2
f 243/3/2 244/3/2 245/3/2
f 245/3/2 244/3/2 246/3/2
f 247/2/2 248/2/2 250/2/2
f 248/3/2 249/3/2 251/3/2
f 250/2/2 248/2/2 251/2/2
f 251/3/2 249/3/2 252/3/2
f 253/3/2 254/3/2 255/3/2
f 255/3/2 254/3/2 256/3/2
f 257/3/2 258/3/2 259/3/2
f 259/3/2 258/3/2 260/3/2
f 261/3/2 262/3/2 263/3/2
f 263/3/2 262/3/2 264/3/2
f 265/3/2 266/3/2 267/3/2
f 267/3/2 266/3/2 268/3/2
f 269/1/2 270/1/2 273/1/2
f 273/1/2 270/1/2 274/1/2
f 271/3/2 272/3/2 275/3/2
f 275/3/2 272/3/2 276/3/2
f 277/3/2 278/3/2 279/3/2
f 279/3/2 278/3/2 280/3/2
f 281/2/2 282/2/2 284/2/2
f 282/3/2 283/3/2 285/3/2
f 284/2/2 282/2/2 285/2/2
f 285/3/2 283/3/2 286/3/2
f 287/3/2 288/3/2 289/3/2
f 289/3/2 288/3/2 290/3/2
f 291/1/2 292/1/2 299/1/2
f 292/3/2 293/3/2 300/3/2
f 299/1/2 292/1/2 300/1/2
f 293/2/2 294/2/2 301/2/2
f 300/3/2 293/3/2 301/3/2
f 294/3/2 295/3/2 302/3/2
f 301/2/2 294/2/2 302/2/2
f 302/3/2 295/3/2 303/3/2
f 296/3/2 297/3/2 304/3/2
f 297/1/2 298/1/2 305/1/2
f 304/3/2 297/3/2 305/3/2
f 305/1/2 298/1/2 306/1/2
f 309/1/3 308/1/3 307/1/3
f 310/1/3 308/1/3 309/1/3
f 311/3/3 310/3/3 309/3/3
f 312/3/3 310/3/3 311/3/3
f 313/2/3 312/2/3 311/2/3
f 314/2/3 312/2/3 313/2/3
f 315/3/3 314/3/3 313/3/3
f 316/3/3 314/3/3 315/3/3
f 317/1/3 316/1/3 315/1/3
f 318/1/3 316/1/3 317/1/3
f 321/3/3 320/3/3 319/3/3
f 322/3/3 320/3/3 321/3/3
f 325/3/3 324/3/3 323/3/3
f 326/3/3 324/3/3 325/3/3
f 329/3/3 328/3/3 327/3/3
f 330/3/3 328/3/3 329/3/3
f 333/2/3 332/2/3 331/2/3
f 334/2/3 332/2/3 333/2/3
f 337/2/3 336/2/3 335/2/3
f 338/2/3 336/2/3 337/2/3
f 341/3/3 340/3/3 339/3/3
f 342/3/3 340/3/3 341/3/3
f 345/3/3 344/3/3 343/3/3
f 346/3/3 344/3/3 345/3/3
f 349/3/3 348/3/3 347/3/3
f 350/3/3 348/3/3 349/3/3
f 353/3/3 352/3/3 351/3/3
f 354/3/3 352/3/3 353/3/3
f 357/3/3 356/3/3 355/3/3
f 358/3/3 356/3/3 357/3/3
f 361/3/3 360/3/3 359/3/3
f 362/3/3 360/3/3 361/3/3
f 365/3/3 364/3/3 363/3/3
f 366/3/3 364/3/3 365/3/3
f 369/3/3 368/3/3 367/3/3
f 370/3/3 368/3/3 369/3/3
f 373/3/3 372/3/3 371/3/3
f 374/3/3 372/3/3 373/3/3
f 377/3/3 376/3/3 375/3/3
f 378/3/3 376/3/3 377/3/3
f 381/3/3 380/3/3 379/3/3
f 382/3/3 380/3/3 381/3/3
f 385/3/3 384/3/3 383/3/3
f 386/3/3 384/3/3 385/3/3
f 389/3/3 388/3/3 387/3/3
f 390/3/3 388/3/3 389/3/3
f 393/3/3 392/3/3 391/3/3
f 394/3/3 392/3/3 393/3/3
f 397/2/3 396/2/3 395/2/3
f 398/2/3 396/2/3 397/2/3
f 401/2/3 400/2/3 399/2/3
f 402/2/3 400/2/3 401/2/3
f 405/3/3 404/3/3 403/3/3
f 406/3/3 404/3/3 405/3/3
f 409/3/3 408/3/3 407/3/3
f 410/3/3 408/3/3 409/3/3
f 413/3/3 412/3/3 411/3/3
f 414/3/3 412/3/3 413/3/3
f 417/3/3 416/3/3 415/3/3
f 418/3/3 416/3/3 417/3/3
f 421/3/3 420/3/3 419/3/3
f 422/3/3 420/3/3 421/3/3
f 425/3/3 424/3/3 423/3/3
f 426/3/3 424/3/3 425/3/3
f 429/3/3 428/3/3 427/3/3
f 430/3/3 428/3/3 429/3/3
f 433/3/3 432/3/3 431/3/3
f 434/3/3 432/3/3 433/3/3
f 437/3/3 436/3/3 435/3/3
f 438/3/3 436/3/3 437/3/3
f 441/1/3 440/1/3 439/1/3
f 442/1/3 440/1/3 441/1/3
f 445/3/3 444/3/3 443/3/3
f 446/3/3 444/3/3 445/3/3
f 449/3/3 448/3/3 447/3/3
f 450/3/3 448/3/3 449/3/3
f 453/1/3 452/1/3 451/1/3
f 454/1/3 452/1/3 453/1/3
f 457/3/3 456/3/3 455/3/3
f 458/3/3 456/3/3 457/3/3
f 459/3/4 460/3/4 461/3/4
f 461/3/4 460/3/4 462/3/4
f 463/3/4 464/3/4 465/3/4
f 465/3/4 464/3/4 466/3/4
f 467/1/4 468/1/4 469/1/4
f 469/1/4 468/1/4 470/1/4
f 471/3/4 472/3/4 473/3/4
f 473/3/4 472/3/4 474/3/4
f 475/1/4 476/1/4 477/1/4
f 477/1/4 476/1/4 478/1/4
f 479/3/4 480/3/4 481/3/4
f 481/3/4 480/3/4 482/3/4
f 483/2/4 484/2/4 485/2/4
f 485/2/4 484/2/4 486/2/4
f 487/2/4 488/2/4 489/2/4
f 489/2/4 488/2/4 490/2/4
f 491/3/4 492/3/4 493/3/4
f 493/3/4 492/3/4 494/3/4
f 495/3/4 496/3/4 497/3/4
f 497/3/4 496/3/4 498/3/4
f 499/3/4 500/3/4 501/3/4
f 501/3/4 500/3/4 502/3/4
f 503/3/4 504/3/4 505/3/4
f 505/3/4 504/3/4 506/3/4
f 507/3/4 508/3/4 509/3/4
f 509/3/4 508/3/4 510/3/4
f 511/3/4 512/3/4 513/3/4
f 513/3/4 512/3/4 514/3/4
f 515/3/4 516/3/4 517/3/4
f 517/3/4 516/3/4 518/3/4
f 519/3/4 520/3/4 521/3/4
f 521/3/4 520/3/4 522/3/4
f 523/3/4 524/3/4 525/3/4
f 525/3/4 524/3/4 526/3/4
f 527/3/4 528/3/4 529/3/4
f 529/3/4 528/3/4 530/3/4
f 531/3/4 532/3/4 533/3/4
f 533/3/4 532/3/4 534/3/4
f 535/3/4 536/3/4 537/3/4
f 537/3/4 536/3/4 538/3/4
f 539/3/4 540/3/4 541/3/4
f 541/3/4 540/3/4 542/3/4
f 543/3/4 544/3/4 545/3/4
f 545/3/4 544/3/4 546/3/4
f 547/3/4 548/3/4 549/3/4
f 549/3/4 548/3/4 550/3/4
f 551/3/4 552/3/4 553/3/4
f 553/3/4 552/3/4 554/3/4
f 555/3/4 556/3/4 557/3/4
f 557/3/4 556/3/4 558/3/4
f 559/3/4 560/3/4 561/3/4
f 561/3/4 560/3/4 562/3/4
f 563/3/4 564/3/4 565/3/4
f 565/3/4 564/3/4 566/3/4
f 567/1/4 568/1/4 569/1/4
f 569/1/4 568/1/4 570/1/4
f 571/3/4 572/3/4 573/3/4
f 573/3/4 572/3/4 574/3/4
f 575/3/4 576/3/4 577/3/4
f 577/3/4 576/3/4 578/3/4
f 579/3/4 580/3/4 581/3/4
f 581/3/4 580/3/4 582/3/4
f 583/3/4 584/3/4 585/3/4
f 585/3/4 584/3/4 586/3/4
f 587/1/4 588/1/4 589/1/4
f 589/1/4 588/1/4 590/1/4
f 591/3/4 592/3/4 593/3/4
f 593/3/4 592/3/4 594/3/4
f 595/3/4 596/3/4 597/3/4
f 597/3/4 596/3/4 598/3/4
f 599/1/4 600/1/4 601/1/4
f 601/1/4 600/1/4 602/1/4
f 609/3/5 605/3/5 604/3/5
f 610/3/5 605/3/5 609/3/5
f 611/3/5 607/3/5 606/3/5
f 612/3/5 607/3/5 611/3/5
f 613/1/5 608/1/5 607/1/5
f 614/1/5 608/1/5 613/1/5
f 615/2/5 606/2/5 605/2/5
f 615/3/5 611/3/5 606/3/5
f 616/3/5 611/3/5 615/3/5
f 617/3/5 607/3/5 612/3/5
f 618/3/5 617/3/5 616/3/5
f 618/3/5 607/3/5 617/3/5
f 618/1/5 613/1/5 607/1/5
f 619/1/5 613/1/5 618/1/5
f 620/3/5 609/3/5 604/3/5
f 621/3/5 609/3/5 620/3/5
f 622/3/5 605/3/5 610/3/5
f 623/2/5 615/2/5 605/2/5
f 624/2/5 615/2/5 623/2/5
f 625/3/5 618/3/5 616/3/5
f 626/1/5 608/1/5 614/1/5
f 627/1/5 608/1/5 626/1/5
f 628/3/5 622/3/5 621/3/5
f 628/3/5 605/3/5 622/3/5
f 628/2/5 623/2/5 605/2/5
f 629/2/5 623/2/5 628/2/5
f 630/3/5 625/3/5 624/3/5
f 631/3/5 628/3/5 621/3/5
f 632/3/5 628/3/5 631/3/5
f 633/2/5 630/2/5 629/2/5
f 634/3/5 618/3/5 625/3/5
f 634/3/5 625/3/5 630/3/5
f 635/3/5 618/3/5 634/3/5
f 637/3/5 631/3/5 621/3/5
f 638/3/5 631/3/5 637/3/5
f 639/2/5 633/2/5 632/2/5
f 640/3/5 636/3/5 635/3/5
f 641/3/5 627/3/5 626/3/5
f 642/3/5 627/3/5 641/3/5
f 643/3/5 637/3/5 621/3/5
f 644/3/5 637/3/5 643/3/5
f 645/3/5 639/3/5 638/3/5
f 646/3/5 620/3/5 604/3/5
f 647/3/5 620/3/5 646/3/5
f 648/3/5 643/3/5 621/3/5
f 649/3/5 648/3/5 647/3/5
f 649/3/5 643/3/5 648/3/5
f 650/3/5 643/3/5 649/3/5
f 651/3/5 645/3/5 644/3/5
f 652/3/5 634/3/5 630/3/5
f 653/3/5 634/3/5 652/3/5
f 654/3/5 640/3/5 635/3/5
f 654/3/5 641/3/5 640/3/5
f 655/3/5 649/3/5 647/3/5
f 656/3/5 649/3/5 655/3/5
f 657/3/5 651/3/5 650/3/5
f 658/3/5 655/3/5 647/3/5
f 659/3/5 655/3/5 658/3/5
f 660/3/5 657/3/5 656/3/5
f 661/3/5 658/3/5 647/3/5
f 662/3/5 658/3/5 661/3/5
f 663/3/5 660/3/5 659/3/5
f 664/3/5 652/3/5 630/3/5
f 665/3/5 652/3/5 664/3/5
f 666/3/5 654/3/5 653/3/5
f 667/1/5 604/1/5 603/1/5
f 667/3/5 646/3/5 604/3/5
f 668/3/5 646/3/5 667/3/5
f 669/3/5 661/3/5 647/3/5
f 670/3/5 661/3/5 669/3/5
f 671/3/5 661/3/5 670/3/5
f 672/3/5 663/3/5 662/3/5
f 673/3/5 669/3/5 668/3/5
f 673/3/5 670/3/5 669/3/5
f 674/3/5 670/3/5 673/3/5
f 675/3/5 672/3/5 671/3/5
f 676/2/5 630/2/5 633/2/5
f 676/2/5 633/2/5 639/2/5
f 676/3/5 664/3/5 630/3/5
f 677/3/5 664/3/5 676/3/5
f 678/3/5 664/3/5 677/3/5
f 679/3/5 666/3/5 665/3/5
f 680/3/5 654/3/5 666/3/5
f 680/3/5 641/3/5 654/3/5
f 680/3/5 666/3/5 679/3/5
f 681/3/5 627/3/5 642/3/5
f 682/3/5 627/3/5 681/3/5
f 683/3/5 627/3/5 682/3/5
f 684/3/5 673/3/5 668/3/5
f 685/3/5 673/3/5 684/3/5
f 686/3/5 675/3/5 674/3/5
f 687/3/5 686/3/5 685/3/5
f 687/3/5 675/3/5 686/3/5
f 687/3/5 639/3/5 645/3/5
f 687/3/5 672/3/5 675/3/5
f 687/3/5 645/3/5 651/3/5
f 687/2/5 677/2/5 676/2/5
f 687/2/5 676/2/5 639/2/5
f 687/3/5 651/3/5 657/3/5
f 687/3/5 657/3/5 660/3/5
f 687/3/5 663/3/5 672/3/5
f 687/3/5 660/3/5 663/3/5
f 688/2/5 677/2/5 687/2/5
f 689/2/5 680/2/5 679/2/5
f 689/2/5 679/2/5 678/2/5
f 689/2/5 681/2/5 680/2/5
f 690/2/5 681/2/5 689/2/5
f 691/2/5 683/2/5 682/2/5
f 692/2/5 683/2/5 691/2/5
f 693/3/5 684/3/5 668/3/5
f 694/3/5 684/3/5 693/3/5
f 695/3/5 688/3/5 687/3/5
f 695/3/5 687/3/5 685/3/5
f 696/1/5 667/1/5 603/1/5
f 697/1/5 667/1/5 696/1/5
f 698/3/5 693/3/5 668/3/5
f 699/3/5 693/3/5 698/3/5
f 700/3/5 693/3/5 699/3/5
f 701/3/5 695/3/5 694/3/5
f 702/3/5 688/3/5 695/3/5
f 702/3/5 695/3/5 701/3/5
f 703/3/5 688/3/5 702/3/5
f 704/3/5 690/3/5 689/3/5
f 705/3/5 698/3/5 697/3/5
f 705/3/5 699/3/5 698/3/5
f 706/3/5 699/3/5 705/3/5
f 707/3/5 701/3/5 700/3/5
f 707/3/5 702/3/5 701/3/5
f 708/3/5 705/3/5 697/3/5
f 709/3/5 705/3/5 708/3/5
f 710/3/5 707/3/5 706/3/5
f 711/1/5 696/1/5 603/1/5
f 712/1/5 696/1/5 711/1/5
f 714/3/5 710/3/5 709/3/5
f 715/3/5 707/3/5 710/3/5
f 715/3/5 702/3/5 707/3/5
f 715/3/5 710/3/5 714/3/5
f 716/3/5 702/3/5 715/3/5
f 717/3/5 704/3/5 703/3/5
f 719/3/5 714/3/5 713/3/5
f 719/3/5 715/3/5 714/3/5
f 720/3/5 715/3/5 719/3/5
f 721/3/5 717/3/5 716/3/5
f 722/3/5 690/3/5 704/3/5
f 722/3/5 704/3/5 717/3/5
f 722/3/5 717/3/5 721/3/5
f 723/3/5 692/3/5 691/3/5
f 724/3/5 692/3/5 723/3/5
f 725/1/5 711/1/5 603/1/5
f 726/1/5 719/1/5 718/1/5
f 727/3/5 720/3/5 719/3/5
f 727/3/5 721/3/5 720/3/5
f 727/3/5 722/3/5 721/3/5
f 727/3/5 723/3/5 722/3/5
f 729/1/5 726/1/5 725/1/5
f 729/3/5 728/3/5 727/3/5
f 729/3/5 727/3/5 719/3/5
f 729/1/5 719/1/5 726/1/5
f 730/3/5 728/3/5 729/3/5
f 731/1/5 725/1/5 603/1/5
f 731/1/5 729/1/5 725/1/5
f 731/1/5 730/1/5 729/1/5
f 732/1/5 730/1/5 731/1/5
f 734/3/6 735/3/6 739/3/6
f 739/3/6 735/3/6 740/3/6
f 736/3/6 737/3/6 741/3/6
f 741/3/6 737/3/6 742/3/6
f 737/1/6 738/1/6 743/1/6
f 743/1/6 738/1/6 744/1/6
f 735/2/6 736/2/6 745/2/6
f 736/3/6 741/3/6 745/3/6
f 745/3/6 741/3/6 746/3/6
f 742/3/6 737/3/6 747/3/6
f 746/3/6 747/3/6 748/3/6
f 747/3/6 737/3/6 748/3/6
f 737/1/6 743/1/6 748/1/6
f 748/1/6 743/1/6 749/1/6
f 734/3/6 739/3/6 750/3/6
f 750/3/6 739/3/6 751/3/6
f 740/3/6 735/3/6 752/3/6
f 735/2/6 745/2/6 753/2/6
f 753/2/6 745/2/6 754/2/6
f 746/3/6 748/3/6 755/3/6
f 744/1/6 738/1/6 756/1/6
f 756/1/6 738/1/6 757/1/6
f 751/3/6 752/3/6 758/3/6
f 752/3/6 735/3/6 758/3/6
f 735/2/6 753/2/6 758/2/6
f 758/2/6 753/2/6 759/2/6
f 754/3/6 755/3/6 760/3/6
f 751/3/6 758/3/6 761/3/6
f 761/3/6 758/3/6 762/3/6
f 759/2/6 760/2/6 763/2/6
f 755/3/6 748/3/6 764/3/6
f 760/3/6 755/3/6 764/3/6
f 764/3/6 748/3/6 765/3/6
f 751/3/6 761/3/6 767/3/6
f 767/3/6 761/3/6 768/3/6
f 762/2/6 763/2/6 769/2/6
f 765/3/6 766/3/6 770/3/6
f 756/3/6 757/3/6 771/3/6
f 771/3/6 757/3/6 772/3/6
f 751/3/6 767/3/6 773/3/6
f 773/3/6 767/3/6 774/3/6
f 768/3/6 769/3/6 775/3/6
f 734/3/6 750/3/6 776/3/6
f 776/3/6 750/3/6 777/3/6
f 751/3/6 773/3/6 778/3/6
f 777/3/6 778/3/6 779/3/6
f 778/3/6 773/3/6 779/3/6
f 779/3/6 773/3/6 780/3/6
f 774/3/6 775/3/6 781/3/6
f 760/3/6 764/3/6 782/3/6
f 782/3/6 764/3/6 783/3/6
f 765/3/6 770/3/6 784/3/6
f 770/3/6 771/3/6 784/3/6
f 777/3/6 779/3/6 785/3/6
f 785/3/6 779/3/6 786/3/6
f 780/3/6 781/3/6 787/3/6
f 777/3/6 785/3/6 788/3/6
f 788/3/6 785/3/6 789/3/6
f 786/3/6 787/3/6 790/3/6
f 777/3/6 788/3/6 791/3/6
f 791/3/6 788/3/6 792/3/6
f 789/3/6 790/3/6 793/3/6
f 760/3/6 782/3/6 794/3/6
f 794/3/6 782/3/6 795/3/6
f 783/3/6 784/3/6 796/3/6
f 733/1/6 734/1/6 797/1/6
f 734/3/6 776/3/6 797/3/6
f 797/3/6 776/3/6 798/3/6
f 777/3/6 791/3/6 799/3/6
f 799/3/6 791/3/6 800/3/6
f 800/3/6 791/3/6 801/3/6
f 792/3/6 793/3/6 802/3/6
f 798/3/6 799/3/6 803/3/6
f 799/3/6 800/3/6 803/3/6
f 803/3/6 800/3/6 804/3/6
f 801/3/6 802/3/6 805/3/6
f 763/2/6 760/2/6 806/2/6
f 769/2/6 763/2/6 806/2/6
f 760/3/6 794/3/6 806/3/6
f 806/3/6 794/3/6 807/3/6
f 807/3/6 794/3/6 808/3/6
f 795/3/6 796/3/6 809/3/6
f 796/3/6 784/3/6 810/3/6
f 784/3/6 771/3/6 810/3/6
f 809/3/6 796/3/6 810/3/6
f 772/3/6 757/3/6 811/3/6
f 811/3/6 757/3/6 812/3/6
f 812/3/6 757/3/6 813/3/6
f 798/3/6 803/3/6 814/3/6
f 814/3/6 803/3/6 815/3/6
f 804/3/6 805/3/6 816/3/6
f 815/3/6 816/3/6 817/3/6
f 816/3/6 805/3/6 817/3/6
f 775/3/6 769/3/6 817/3/6
f 805/3/6 802/3/6 817/3/6
f 781/3/6 775/3/6 817/3/6
f 806/2/6 807/2/6 817/2/6
f 769/2/6 806/2/6 817/2/6
f 787/3/6 781/3/6 817/3/6
f 790/3/6 787/3/6 817/3/6
f 802/3/6 793/3/6 817/3/6
f 793/3/6 790/3/6 817/3/6
f 817/2/6 807/2/6 818/2/6
f 809/2/6 810/2/6 819/2/6
f 808/2/6 809/2/6 819/2/6
f 810/2/6 811/2/6 819/2/6
f 819/2/6 811/2/6 820/2/6
f 812/2/6 813/2/6 821/2/6
f 821/2/6 813/2/6 822/2/6
f 798/3/6 814/3/6 823/3/6
f 823/3/6 814/3/6 824/3/6
f 817/3/6 818/3/6 825/3/6
f 815/3/6 817/3/6 825/3/6
f 733/1/6 797/1/6 826/1/6
f 826/1/6 797/1/6 827/1/6
f 798/3/6 823/3/6 828/3/6
f 828/3/6 823/3/6 829/3/6
f 829/3/6 823/3/6 830/3/6
f 824/3/6 825/3/6 831/3/6
f 825/3/6 818/3/6 832/3/6
f 831/3/6 825/3/6 832/3/6
f 832/3/6 818/3/6 833/3/6
f 819/3/6 820/3/6 834/3/6
f 827/3/6 828/3/6 835/3/6
f 828/3/6 829/3/6 835/3/6
f 835/3/6 829/3/6 836/3/6
f 830/3/6 831/3/6 837/3/6
f 831/3/6 832/3/6 837/3/6
f 827/3/6 835/3/6 838/3/6
f 838/3/6 835/3/6 839/3/6
f 836/3/6 837/3/6 840/3/6
f 733/1/6 826/1/6 841/1/6
f 841/1/6 826/1/6 842/1/6
f 839/3/6 840/3/6 844/3/6
f 840/3/6 837/3/6 845/3/6
f 837/3/6 832/3/6 845/3/6
f 844/3/6 840/3/6 845/3/6
f 845/3/6 832/3/6 846/3/6
f 833/3/6 834/3/6 847/3/6
f 843/3/6 844/3/6 849/3/6
f 844/3/6 845/3/6 849/3/6
f 849/3/6 845/3/6 850/3/6
f 846/3/6 847/3/6 851/3/6
f 834/3/6 820/3/6 852/3/6
f 847/3/6 834/3/6 852/3/6
f 851/3/6 847/3/6 852/3/6
f 821/3/6 822/3/6 853/3/6
f 853/3/6 822/3/6 854/3/6
f 733/1/6 841/1/6 855/1/6
f 848/1/6 849/1/6 856/1/6
f 849/3/6 850/3/6 857/3/6
f 850/3/6 851/3/6 857/3/6
f 851/3/6 852/3/6 857/3/6
f 852/3/6 853/3/6 857/3/6
f 855/1/6 856/1/6 859/1/6
f 857/3/6 858/3/6 859/3/6
f 849/3/6 857/3/6 859/3/6
f 856/1/6 849/1/6 859/1/6
f 859/3/6 858/3/6 860/3/6
f 733/1/6 855/1/6 861/1/6
f 855/1/6 859/1/6 861/1/6
f 859/1/6 860/1/6 861/1/6
f 861/1/6 860/1/6 862/1/6
