# MagicaVoxel @ Ephtracy

# group
o 

# material
mtllib Ambulance.mtl
usemtl palette

# normals
vn -1 0 0
vn 1 0 0
vn 0 0 1
vn 0 0 -1
vn 0 -1 0
vn 0 1 0

# texcoords
vt 0.0214844 0.5
vt 0.0683594 0.5
vt 0.0917969 0.5
vt 0.306641 0.5
vt 0.841797 0.5
vt 0.958984 0.5
vt 0.970703 0.5
vt 0.974609 0.5
vt 0.978516 0.5
vt 0.982422 0.5
vt 0.990234 0.5
vt 0.994141 0.5

# verts
v -0.9 0.3 0.9
v -0.9 0.3 -1
v -0.9 0.3 -1.5
v -0.9 0.3 -1.6
v -0.9 0.4 0.9
v -0.9 0.4 -0.9
v -0.9 0.5 -1
v -0.9 0.5 -1.1
v -0.9 0.5 -1.4
v -0.9 0.5 -1.5
v -0.9 0.6 -0.9
v -0.9 0.6 -1
v -0.9 0.6 -1.1
v -0.9 0.6 -1.4
v -0.9 0.6 -1.5
v -0.9 0.6 -1.6
v -0.9 0.7 -1
v -0.9 0.7 -1.5
v -0.9 1.9 0.3
v -0.9 1.9 0.0999999
v -0.9 1.9 0
v -0.9 1.9 -0.2
v -0.9 1.9 -0.9
v -0.9 1.9 -1.1
v -0.9 1.9 -1.2
v -0.9 1.9 -1.4
v -0.9 2 0.3
v -0.9 2 0.0999999
v -0.9 2 0
v -0.9 2 -0.2
v -0.9 2 -0.9
v -0.9 2 -1.1
v -0.9 2 -1.2
v -0.9 2 -1.4
v -0.8 0.1 -1.1
v -0.8 0.1 -1.4
v -0.8 0.2 -1
v -0.8 0.2 -1.1
v -0.8 0.2 -1.4
v -0.8 0.2 -1.5
v -0.8 0.3 2
v -0.8 0.3 1.5
v -0.8 0.3 1
v -0.8 0.3 0.9
v -0.8 0.3 -1
v -0.8 0.3 -1.5
v -0.8 0.3 -1.6
v -0.8 0.3 -1.9
v -0.8 0.4 1.8
v -0.8 0.4 1.6
v -0.8 0.4 0.9
v -0.8 0.4 0.4
v -0.8 0.4 -0.9
v -0.8 0.4 -1.8
v -0.8 0.4 -1.9
v -0.8 0.5 2
v -0.8 0.5 1.8
v -0.8 0.5 1.5
v -0.8 0.5 1.4
v -0.8 0.5 1.1
v -0.8 0.5 1
v -0.8 0.5 -1
v -0.8 0.5 -1.1
v -0.8 0.5 -1.4
v -0.8 0.5 -1.5
v -0.8 0.5 -1.7
v -0.8 0.5 -1.8
v -0.8 0.6 1.6
v -0.8 0.6 1.5
v -0.8 0.6 1.4
v -0.8 0.6 1.1
v -0.8 0.6 1
v -0.8 0.6 0.9
v -0.8 0.6 -0.9
v -0.8 0.6 -1
v -0.8 0.6 -1.1
v -0.8 0.6 -1.4
v -0.8 0.6 -1.5
v -0.8 0.6 -1.6
v -0.8 0.6 -1.7
v -0.8 0.7 1.5
v -0.8 0.7 1
v -0.8 0.7 0.4
v -0.8 0.7 -1
v -0.8 0.7 -1.5
v -0.8 0.7 -1.6
v -0.8 0.8 0.4
v -0.8 0.8 -1.6
v -0.8 0.9 -0.3
v -0.8 0.9 -0.7
v -0.8 1.2 0
v -0.8 1.2 -0.3
v -0.8 1.2 -0.7
v -0.8 1.2 -1
v -0.8 1.5 0
v -0.8 1.5 -0.3
v -0.8 1.5 -0.7
v -0.8 1.5 -1
v -0.8 1.8 -0.3
v -0.8 1.8 -0.7
v -0.8 1.9 0.3
v -0.8 1.9 0.0999999
v -0.8 1.9 0
v -0.8 1.9 -0.2
v -0.8 1.9 -0.9
v -0.8 1.9 -1.1
v -0.8 1.9 -1.2
v -0.8 1.9 -1.4
v -0.8 2 0.3
v -0.8 2 0.0999999
v -0.8 2 0
v -0.8 2 -0.2
v -0.8 2 -0.9
v -0.8 2 -1.1
v -0.8 2 -1.2
v -0.8 2 -1.4
v -0.8 2.1 -1.5
v -0.8 2.1 -1.6
v -0.8 2.2 0.4
v -0.8 2.2 -1.5
v -0.7 0.1 1.4
v -0.7 0.1 1.1
v -0.7 0.2 1.5
v -0.7 0.2 1.4
v -0.7 0.2 1.1
v -0.7 0.2 1
v -0.7 0.3 1.5
v -0.7 0.3 1
v -0.7 0.5 1.5
v -0.7 0.5 1.4
v -0.7 0.5 1.1
v -0.7 0.5 1
v -0.7 0.6 1.4
v -0.7 0.6 1.1
v -0.7 0.6 -1.6
v -0.7 0.6 -1.7
v -0.7 0.7 -1.6
v -0.7 0.7 -1.7
v -0.7 0.8 -1.6
v -0.7 0.8 -1.7
v -0.7 0.9 -1.6
v -0.7 0.9 -1.7
v -0.7 1.2 1.4
v -0.7 1.2 1.3
v -0.7 1.4 1.4
v -0.7 1.4 1.3
v -0.7 1.4 -1.6
v -0.7 1.4 -1.7
v -0.7 1.5 -1.6
v -0.7 1.5 -1.7
v -0.6 0.4 1.8
v -0.6 0.4 1.6
v -0.6 0.4 0.9
v -0.6 0.4 0.4
v -0.6 0.5 1.9
v -0.6 0.5 1.8
v -0.6 0.6 1.6
v -0.6 0.6 1.5
v -0.6 0.6 1
v -0.6 0.6 0.9
v -0.6 0.7 1.9
v -0.6 0.7 1.5
v -0.6 0.7 1
v -0.6 0.7 0.4
v -0.6 0.8 1.9
v -0.6 0.8 1.8
v -0.6 0.8 0.4
v -0.6 0.9 1.9
v -0.6 0.9 1.8
v -0.6 1 1.9
v -0.6 1 1.7
v -0.6 1 0.7
v -0.6 1 0.5
v -0.6 1.1 1.7
v -0.6 1.1 1.6
v -0.6 1.1 0.7
v -0.6 1.1 0.5
v -0.6 1.2 1.6
v -0.6 1.2 1.5
v -0.6 1.2 1.4
v -0.6 1.2 1.3
v -0.6 1.2 0.5
v -0.6 1.4 1.4
v -0.6 1.4 1.3
v -0.6 1.6 1.5
v -0.6 1.6 1.4
v -0.6 1.6 0.5
v -0.6 1.6 0.4
v -0.6 1.7 1.4
v -0.6 1.7 0.5
v -0.6 1.9 0.5
v -0.6 1.9 0.4
v -0.6 1.9 -1.6
v -0.6 1.9 -1.7
v -0.6 2 0.5
v -0.6 2 0.4
v -0.6 2 -1.6
v -0.6 2 -1.7
v -0.5 1.7 1.3
v -0.5 1.7 1.1
v -0.5 1.8 1.3
v -0.5 1.8 1.1
v -0.3 1.7 1.3
v -0.3 1.7 1.1
v -0.3 1.8 1.3
v -0.3 1.8 1.1
v -0.3 1.9 -1.6
v -0.3 1.9 -1.7
v -0.3 2 -1.6
v -0.3 2 -1.7
v -0.2 1.9 0.5
v -0.2 1.9 0.4
v -0.2 2 0.5
v -0.2 2 0.4
v -0.1 0.2 2
v -0.1 0.2 1.9
v -0.1 0.3 2
v -0.1 0.3 1.9
v 0 0.2 2.1
v 0 0.2 2
v 0 0.3 2.1
v 0 0.3 2
v 0 1.9 -1.6
v 0 1.9 -1.7
v 0 2 -1.6
v 0 2 -1.7
v 0.2 1.9 0.5
v 0.2 1.9 0.4
v 0.2 2 0.5
v 0.2 2 0.4
v 0.3 1.9 -1.6
v 0.3 1.9 -1.7
v 0.3 2 -1.6
v 0.3 2 -1.7
v 0.4 0.6 1.9
v 0.4 0.6 1.8
v 0.4 0.7 1.9
v 0.4 0.7 1.8
v 0.4 0.8 1.9
v 0.4 0.8 1.8
v 0.4 0.9 1.9
v 0.4 0.9 1.8
v 0.4 1.7 1.3
v 0.4 1.7 1.1
v 0.4 1.8 1.3
v 0.4 1.8 1.1
v 0.6 1.7 1.3
v 0.6 1.7 1.1
v 0.6 1.8 1.3
v 0.6 1.8 1.1
v 0.6 1.9 0.5
v 0.6 1.9 0.4
v 0.6 1.9 -1.6
v 0.6 1.9 -1.7
v 0.6 2 0.5
v 0.6 2 0.4
v 0.6 2 -1.6
v 0.6 2 -1.7
v 0.7 0.2 1.4
v 0.7 0.2 1.1
v 0.7 0.2 -1.1
v 0.7 0.2 -1.4
v 0.7 0.3 1.4
v 0.7 0.3 1.1
v 0.7 0.3 -1.1
v 0.7 0.3 -1.4
v 0.7 0.6 -1.6
v 0.7 0.6 -1.7
v 0.7 0.7 -1.6
v 0.7 0.7 -1.7
v 0.7 0.8 -1.6
v 0.7 0.8 -1.7
v 0.7 0.9 -1.6
v 0.7 0.9 -1.7
v 0.7 1.4 -1.6
v 0.7 1.4 -1.7
v 0.7 1.5 -1.6
v 0.7 1.5 -1.7
v 0.8 0.1 1.4
v 0.8 0.1 1.1
v 0.8 0.1 -1.1
v 0.8 0.1 -1.4
v 0.8 0.2 1.5
v 0.8 0.2 1.4
v 0.8 0.2 1.1
v 0.8 0.2 1
v 0.8 0.2 -1
v 0.8 0.2 -1.1
v 0.8 0.2 -1.4
v 0.8 0.2 -1.5
v 0.8 0.3 1.9
v 0.8 0.3 1.7
v 0.8 0.3 1.5
v 0.8 0.3 1.4
v 0.8 0.3 1.1
v 0.8 0.3 1
v 0.8 0.3 -1
v 0.8 0.3 -1.1
v 0.8 0.3 -1.4
v 0.8 0.3 -1.5
v 0.8 0.4 1.9
v 0.8 0.4 1.7
v 0.8 0.8 0.3
v 0.8 0.8 -1.5
v 0.8 0.9 -0.3
v 0.8 0.9 -0.7
v 0.8 1.2 0
v 0.8 1.2 -0.3
v 0.8 1.2 -0.7
v 0.8 1.2 -1
v 0.8 1.5 0
v 0.8 1.5 -0.3
v 0.8 1.5 -0.7
v 0.8 1.5 -1
v 0.8 1.8 -0.3
v 0.8 1.8 -0.7
v 0.8 2 0.3
v 0.8 2 -1.5
v -0.6 0.1 1.4
v -0.6 0.1 1.1
v -0.6 0.1 -1.1
v -0.6 0.1 -1.4
v -0.6 0.2 1.5
v -0.6 0.2 1.4
v -0.6 0.2 1.1
v -0.6 0.2 1
v -0.6 0.2 -1
v -0.6 0.2 -1.1
v -0.6 0.2 -1.4
v -0.6 0.2 -1.5
v -0.6 0.3 1.9
v -0.6 0.3 1.7
v -0.6 0.3 1.5
v -0.6 0.3 1.4
v -0.6 0.3 1.1
v -0.6 0.3 1
v -0.6 0.3 -1
v -0.6 0.3 -1.1
v -0.6 0.3 -1.4
v -0.6 0.3 -1.5
v -0.6 0.4 1.9
v -0.6 0.4 1.7
v -0.6 0.8 0.3
v -0.6 0.8 -1.5
v -0.6 0.9 -0.3
v -0.6 0.9 -0.7
v -0.6 1.2 0
v -0.6 1.2 -0.3
v -0.6 1.2 -0.7
v -0.6 1.2 -1
v -0.6 1.5 0
v -0.6 1.5 -0.3
v -0.6 1.5 -0.7
v -0.6 1.5 -1
v -0.6 1.8 -0.3
v -0.6 1.8 -0.7
v -0.6 2 0.3
v -0.6 2 -1.5
v -0.5 0.2 1.4
v -0.5 0.2 1.1
v -0.5 0.2 -1.1
v -0.5 0.2 -1.4
v -0.5 0.3 1.4
v -0.5 0.3 1.1
v -0.5 0.3 -1.1
v -0.5 0.3 -1.4
v -0.5 0.6 -1.6
v -0.5 0.6 -1.7
v -0.5 0.7 -1.6
v -0.5 0.7 -1.7
v -0.5 0.8 -1.6
v -0.5 0.8 -1.7
v -0.5 0.9 -1.6
v -0.5 0.9 -1.7
v -0.5 1.4 -1.6
v -0.5 1.4 -1.7
v -0.5 1.5 -1.6
v -0.5 1.5 -1.7
v -0.4 1.7 1.3
v -0.4 1.7 1.1
v -0.4 1.8 1.3
v -0.4 1.8 1.1
v -0.4 1.9 0.5
v -0.4 1.9 0.4
v -0.4 1.9 -1.6
v -0.4 1.9 -1.7
v -0.4 2 0.5
v -0.4 2 0.4
v -0.4 2 -1.6
v -0.4 2 -1.7
v -0.2 0.6 1.9
v -0.2 0.6 1.8
v -0.2 0.7 1.9
v -0.2 0.7 1.8
v -0.2 0.8 1.9
v -0.2 0.8 1.8
v -0.2 0.9 1.9
v -0.2 0.9 1.8
v -0.2 1.7 1.3
v -0.2 1.7 1.1
v -0.2 1.8 1.3
v -0.2 1.8 1.1
v -0.1 1.9 -1.6
v -0.1 1.9 -1.7
v -0.1 2 -1.6
v -0.1 2 -1.7
v 0 1.9 0.5
v 0 1.9 0.4
v 0 2 0.5
v 0 2 0.4
v 0.2 0.2 2.1
v 0.2 0.2 2
v 0.2 0.3 2.1
v 0.2 0.3 2
v 0.2 1.9 -1.6
v 0.2 1.9 -1.7
v 0.2 2 -1.6
v 0.2 2 -1.7
v 0.3 0.2 2
v 0.3 0.2 1.9
v 0.3 0.3 2
v 0.3 0.3 1.9
v 0.4 1.9 0.5
v 0.4 1.9 0.4
v 0.4 2 0.5
v 0.4 2 0.4
v 0.5 1.7 1.3
v 0.5 1.7 1.1
v 0.5 1.8 1.3
v 0.5 1.8 1.1
v 0.5 1.9 -1.6
v 0.5 1.9 -1.7
v 0.5 2 -1.6
v 0.5 2 -1.7
v 0.7 1.7 1.3
v 0.7 1.7 1.1
v 0.7 1.8 1.3
v 0.7 1.8 1.1
v 0.8 0.4 1.8
v 0.8 0.4 1.6
v 0.8 0.4 0.9
v 0.8 0.4 0.4
v 0.8 0.5 1.9
v 0.8 0.5 1.8
v 0.8 0.6 1.6
v 0.8 0.6 1.5
v 0.8 0.6 1
v 0.8 0.6 0.9
v 0.8 0.7 1.9
v 0.8 0.7 1.5
v 0.8 0.7 1
v 0.8 0.7 0.4
v 0.8 0.8 1.9
v 0.8 0.8 1.8
v 0.8 0.8 0.4
v 0.8 0.9 1.9
v 0.8 0.9 1.8
v 0.8 1 1.9
v 0.8 1 1.7
v 0.8 1 0.7
v 0.8 1 0.5
v 0.8 1.1 1.7
v 0.8 1.1 1.6
v 0.8 1.1 0.7
v 0.8 1.1 0.5
v 0.8 1.2 1.6
v 0.8 1.2 1.5
v 0.8 1.2 1.4
v 0.8 1.2 1.3
v 0.8 1.2 0.5
v 0.8 1.4 1.4
v 0.8 1.4 1.3
v 0.8 1.6 1.5
v 0.8 1.6 1.4
v 0.8 1.6 0.5
v 0.8 1.6 0.4
v 0.8 1.7 1.4
v 0.8 1.7 0.5
v 0.8 1.9 0.5
v 0.8 1.9 0.4
v 0.8 1.9 -1.6
v 0.8 1.9 -1.7
v 0.8 2 0.5
v 0.8 2 0.4
v 0.8 2 -1.6
v 0.8 2 -1.7
v 0.9 0.1 1.4
v 0.9 0.1 1.1
v 0.9 0.2 1.5
v 0.9 0.2 1.4
v 0.9 0.2 1.1
v 0.9 0.2 1
v 0.9 0.3 1.5
v 0.9 0.3 1
v 0.9 0.5 1.5
v 0.9 0.5 1.4
v 0.9 0.5 1.1
v 0.9 0.5 1
v 0.9 0.6 1.4
v 0.9 0.6 1.1
v 0.9 0.6 -1.6
v 0.9 0.6 -1.7
v 0.9 0.7 -1.6
v 0.9 0.7 -1.7
v 0.9 0.8 -1.6
v 0.9 0.8 -1.7
v 0.9 0.9 -1.6
v 0.9 0.9 -1.7
v 0.9 1.2 1.4
v 0.9 1.2 1.3
v 0.9 1.4 1.4
v 0.9 1.4 1.3
v 0.9 1.4 -1.6
v 0.9 1.4 -1.7
v 0.9 1.5 -1.6
v 0.9 1.5 -1.7
v 1 0.1 -1.1
v 1 0.1 -1.4
v 1 0.2 -1
v 1 0.2 -1.1
v 1 0.2 -1.4
v 1 0.2 -1.5
v 1 0.3 2
v 1 0.3 1.5
v 1 0.3 1
v 1 0.3 0.9
v 1 0.3 -1
v 1 0.3 -1.5
v 1 0.3 -1.6
v 1 0.3 -1.9
v 1 0.4 1.8
v 1 0.4 1.6
v 1 0.4 0.9
v 1 0.4 0.4
v 1 0.4 -0.9
v 1 0.4 -1.8
v 1 0.4 -1.9
v 1 0.5 2
v 1 0.5 1.8
v 1 0.5 1.5
v 1 0.5 1.4
v 1 0.5 1.1
v 1 0.5 1
v 1 0.5 -1
v 1 0.5 -1.1
v 1 0.5 -1.4
v 1 0.5 -1.5
v 1 0.5 -1.7
v 1 0.5 -1.8
v 1 0.6 1.6
v 1 0.6 1.5
v 1 0.6 1.4
v 1 0.6 1.1
v 1 0.6 1
v 1 0.6 0.9
v 1 0.6 -0.9
v 1 0.6 -1
v 1 0.6 -1.1
v 1 0.6 -1.4
v 1 0.6 -1.5
v 1 0.6 -1.6
v 1 0.6 -1.7
v 1 0.7 1.5
v 1 0.7 1
v 1 0.7 0.4
v 1 0.7 -1
v 1 0.7 -1.5
v 1 0.7 -1.6
v 1 0.8 0.4
v 1 0.8 -1.6
v 1 0.9 -0.3
v 1 0.9 -0.7
v 1 1.2 0
v 1 1.2 -0.3
v 1 1.2 -0.7
v 1 1.2 -1
v 1 1.5 0
v 1 1.5 -0.3
v 1 1.5 -0.7
v 1 1.5 -1
v 1 1.8 -0.3
v 1 1.8 -0.7
v 1 1.9 0.3
v 1 1.9 0.0999999
v 1 1.9 0
v 1 1.9 -0.2
v 1 1.9 -0.9
v 1 1.9 -1.1
v 1 1.9 -1.2
v 1 1.9 -1.4
v 1 2 0.3
v 1 2 0.0999999
v 1 2 0
v 1 2 -0.2
v 1 2 -0.9
v 1 2 -1.1
v 1 2 -1.2
v 1 2 -1.4
v 1 2.1 -1.5
v 1 2.1 -1.6
v 1 2.2 0.4
v 1 2.2 -1.5
v 1.1 0.3 0.9
v 1.1 0.3 -1
v 1.1 0.3 -1.5
v 1.1 0.3 -1.6
v 1.1 0.4 0.9
v 1.1 0.4 -0.9
v 1.1 0.5 -1
v 1.1 0.5 -1.1
v 1.1 0.5 -1.4
v 1.1 0.5 -1.5
v 1.1 0.6 -0.9
v 1.1 0.6 -1
v 1.1 0.6 -1.1
v 1.1 0.6 -1.4
v 1.1 0.6 -1.5
v 1.1 0.6 -1.6
v 1.1 0.7 -1
v 1.1 0.7 -1.5
v 1.1 1.9 0.3
v 1.1 1.9 0.0999999
v 1.1 1.9 0
v 1.1 1.9 -0.2
v 1.1 1.9 -0.9
v 1.1 1.9 -1.1
v 1.1 1.9 -1.2
v 1.1 1.9 -1.4
v 1.1 2 0.3
v 1.1 2 0.0999999
v 1.1 2 0
v 1.1 2 -0.2
v 1.1 2 -0.9
v 1.1 2 -1.1
v 1.1 2 -1.2
v 1.1 2 -1.4
v 0 0.2 2.1
v 0 0.3 2.1
v 0.2 0.2 2.1
v 0.2 0.3 2.1
v -0.8 0.3 2
v -0.8 0.5 2
v -0.1 0.2 2
v -0.1 0.3 2
v -0.1 0.4 2
v 0 0.2 2
v 0 0.3 2
v 0.2 0.2 2
v 0.2 0.3 2
v 0.3 0.2 2
v 0.3 0.3 2
v 0.3 0.4 2
v 1 0.3 2
v 1 0.5 2
v -0.6 0.5 1.9
v -0.6 0.7 1.9
v -0.6 0.8 1.9
v -0.6 0.9 1.9
v -0.6 1 1.9
v -0.4 0.8 1.9
v -0.4 0.9 1.9
v -0.2 0.6 1.9
v -0.2 0.7 1.9
v -0.2 0.8 1.9
v -0.2 0.9 1.9
v 0.4 0.6 1.9
v 0.4 0.7 1.9
v 0.4 0.8 1.9
v 0.4 0.9 1.9
v 0.6 0.8 1.9
v 0.6 0.9 1.9
v 0.8 0.5 1.9
v 0.8 0.7 1.9
v 0.8 0.8 1.9
v 0.8 0.9 1.9
v 0.8 1 1.9
v -0.2 0.6 1.8
v -0.2 0.7 1.8
v -0.2 0.8 1.8
v -0.2 0.9 1.8
v 0.4 0.6 1.8
v 0.4 0.7 1.8
v 0.4 0.8 1.8
v 0.4 0.9 1.8
v -0.6 0.3 1.7
v -0.6 0.4 1.7
v -0.6 1 1.7
v -0.6 1.1 1.7
v 0.8 0.3 1.7
v 0.8 0.4 1.7
v 0.8 1 1.7
v 0.8 1.1 1.7
v -0.8 0.4 1.6
v -0.8 0.6 1.6
v -0.6 0.4 1.6
v -0.6 0.6 1.6
v -0.6 1.1 1.6
v -0.6 1.2 1.6
v 0.8 0.4 1.6
v 0.8 0.6 1.6
v 0.8 1.1 1.6
v 0.8 1.2 1.6
v 1 0.4 1.6
v 1 0.6 1.6
v -0.8 0.6 1.5
v -0.8 0.7 1.5
v -0.7 0.2 1.5
v -0.7 0.3 1.5
v -0.6 0.2 1.5
v -0.6 0.3 1.5
v -0.6 0.6 1.5
v -0.6 0.7 1.5
v -0.6 1.2 1.5
v -0.6 1.6 1.5
v -0.5 1.2 1.5
v -0.5 1.5 1.5
v 0.7 1.2 1.5
v 0.7 1.5 1.5
v 0.8 0.2 1.5
v 0.8 0.3 1.5
v 0.8 0.6 1.5
v 0.8 0.7 1.5
v 0.8 1.2 1.5
v 0.8 1.6 1.5
v 0.9 0.2 1.5
v 0.9 0.3 1.5
v 1 0.6 1.5
v 1 0.7 1.5
v -0.7 0.1 1.4
v -0.7 0.2 1.4
v -0.7 1.2 1.4
v -0.7 1.4 1.4
v -0.6 0.1 1.4
v -0.6 0.2 1.4
v -0.6 0.3 1.4
v -0.6 1.2 1.4
v -0.6 1.4 1.4
v -0.6 1.6 1.4
v -0.6 1.7 1.4
v -0.5 0.2 1.4
v -0.5 0.3 1.4
v 0.7 0.2 1.4
v 0.7 0.3 1.4
v 0.8 0.1 1.4
v 0.8 0.2 1.4
v 0.8 0.3 1.4
v 0.8 1.2 1.4
v 0.8 1.4 1.4
v 0.8 1.6 1.4
v 0.8 1.7 1.4
v 0.9 0.1 1.4
v 0.9 0.2 1.4
v 0.9 1.2 1.4
v 0.9 1.4 1.4
v -0.5 1.7 1.3
v -0.5 1.8 1.3
v -0.4 1.7 1.3
v -0.4 1.8 1.3
v -0.3 1.7 1.3
v -0.3 1.8 1.3
v -0.2 1.7 1.3
v -0.2 1.8 1.3
v 0.4 1.7 1.3
v 0.4 1.8 1.3
v 0.5 1.7 1.3
v 0.5 1.8 1.3
v 0.6 1.7 1.3
v 0.6 1.8 1.3
v 0.7 1.7 1.3
v 0.7 1.8 1.3
v -0.8 0.5 1.1
v -0.8 0.6 1.1
v -0.7 0.5 1.1
v -0.7 0.6 1.1
v 0.9 0.5 1.1
v 0.9 0.6 1.1
v 1 0.5 1.1
v 1 0.6 1.1
v -0.8 0.3 1
v -0.8 0.5 1
v -0.7 0.3 1
v -0.7 0.5 1
v 0.9 0.3 1
v 0.9 0.5 1
v 1 0.3 1
v 1 0.5 1
v -0.9 0.3 0.9
v -0.9 0.4 0.9
v -0.8 0.3 0.9
v -0.8 0.4 0.9
v 1 0.3 0.9
v 1 0.4 0.9
v 1.1 0.3 0.9
v 1.1 0.4 0.9
v -0.6 1.9 0.5
v -0.6 2 0.5
v -0.4 1.9 0.5
v -0.4 2 0.5
v -0.2 1.9 0.5
v -0.2 2 0.5
v 0 1.9 0.5
v 0 2 0.5
v 0.2 1.9 0.5
v 0.2 2 0.5
v 0.4 1.9 0.5
v 0.4 2 0.5
v 0.6 1.9 0.5
v 0.6 2 0.5
v 0.8 1.9 0.5
v 0.8 2 0.5
v -0.8 0.4 0.4
v -0.8 0.7 0.4
v -0.8 0.8 0.4
v -0.8 2.2 0.4
v -0.6 0.4 0.4
v -0.6 0.7 0.4
v -0.6 0.8 0.4
v -0.6 1.6 0.4
v -0.6 1.9 0.4
v -0.6 2 0.4
v -0.4 1.9 0.4
v -0.4 2 0.4
v -0.2 1.9 0.4
v -0.2 2 0.4
v 0 1.9 0.4
v 0 2 0.4
v 0.2 1.9 0.4
v 0.2 2 0.4
v 0.4 1.9 0.4
v 0.4 2 0.4
v 0.6 1.9 0.4
v 0.6 2 0.4
v 0.8 0.4 0.4
v 0.8 0.7 0.4
v 0.8 0.8 0.4
v 0.8 1.6 0.4
v 0.8 1.9 0.4
v 0.8 2 0.4
v 1 0.4 0.4
v 1 0.7 0.4
v 1 0.8 0.4
v 1 2.2 0.4
v -0.9 1.9 0.3
v -0.9 2 0.3
v -0.8 1.9 0.3
v -0.8 2 0.3
v 1 1.9 0.3
v 1 2 0.3
v 1.1 1.9 0.3
v 1.1 2 0.3
v -0.9 1.9 0
v -0.9 2 0
v -0.8 1.9 0
v -0.8 2 0
v 1 1.9 0
v 1 2 0
v 1.1 1.9 0
v 1.1 2 0
v -0.9 0.4 -0.9
v -0.9 0.6 -0.9
v -0.9 1.9 -0.9
v -0.9 2 -0.9
v -0.8 0.4 -0.9
v -0.8 0.6 -0.9
v -0.8 1.9 -0.9
v -0.8 2 -0.9
v 1 0.4 -0.9
v 1 0.6 -0.9
v 1 1.9 -0.9
v 1 2 -0.9
v 1.1 0.4 -0.9
v 1.1 0.6 -0.9
v 1.1 1.9 -0.9
v 1.1 2 -0.9
v -0.9 0.6 -1
v -0.9 0.7 -1
v -0.8 0.2 -1
v -0.8 0.3 -1
v -0.8 0.6 -1
v -0.8 0.7 -1
v -0.6 0.2 -1
v -0.6 0.3 -1
v 0.8 0.2 -1
v 0.8 0.3 -1
v 1 0.2 -1
v 1 0.3 -1
v 1 0.6 -1
v 1 0.7 -1
v 1.1 0.6 -1
v 1.1 0.7 -1
v -0.8 0.1 -1.1
v -0.8 0.2 -1.1
v -0.6 0.1 -1.1
v -0.6 0.2 -1.1
v -0.6 0.3 -1.1
v -0.5 0.2 -1.1
v -0.5 0.3 -1.1
v 0.7 0.2 -1.1
v 0.7 0.3 -1.1
v 0.8 0.1 -1.1
v 0.8 0.2 -1.1
v 0.8 0.3 -1.1
v 1 0.1 -1.1
v 1 0.2 -1.1
v -0.9 1.9 -1.2
v -0.9 2 -1.2
v -0.8 1.9 -1.2
v -0.8 2 -1.2
v 1 1.9 -1.2
v 1 2 -1.2
v 1.1 1.9 -1.2
v 1.1 2 -1.2
v -0.9 0.5 -1.4
v -0.9 0.6 -1.4
v -0.8 0.5 -1.4
v -0.8 0.6 -1.4
v 1 0.5 -1.4
v 1 0.6 -1.4
v 1.1 0.5 -1.4
v 1.1 0.6 -1.4
v -0.9 0.3 -1.5
v -0.9 0.5 -1.5
v -0.8 0.3 -1.5
v -0.8 0.5 -1.5
v -0.6 0.8 -1.5
v -0.6 2 -1.5
v -0.5 0.8 -1.5
v -0.5 1.8 -1.5
v -0.4 0.8 -1.5
v -0.4 1.7 -1.5
v -0.3 1.3 -1.5
v -0.3 1.6 -1.5
v -0.1 1.1 -1.5
v -0.1 1.2 -1.5
v -0.1 1.3 -1.5
v -0.1 1.6 -1.5
v 0 0.8 -1.5
v 0 1.1 -1.5
v 0 1.2 -1.5
v 0 1.7 -1.5
v 0.2 0.8 -1.5
v 0.2 1.1 -1.5
v 0.2 1.2 -1.5
v 0.2 1.7 -1.5
v 0.3 1.1 -1.5
v 0.3 1.2 -1.5
v 0.3 1.3 -1.5
v 0.3 1.6 -1.5
v 0.5 1.3 -1.5
v 0.5 1.6 -1.5
v 0.6 0.8 -1.5
v 0.6 1.7 -1.5
v 0.7 0.8 -1.5
v 0.7 1.8 -1.5
v 0.8 0.8 -1.5
v 0.8 2 -1.5
v 1 0.3 -1.5
v 1 0.5 -1.5
v 1.1 0.3 -1.5
v 1.1 0.5 -1.5
v -0.6 0.3 1.9
v -0.6 0.4 1.9
v -0.1 0.2 1.9
v -0.1 0.3 1.9
v -0.1 0.4 1.9
v 0.3 0.2 1.9
v 0.3 0.3 1.9
v 0.3 0.4 1.9
v 0.8 0.3 1.9
v 0.8 0.4 1.9
v -0.8 0.4 1.8
v -0.8 0.5 1.8
v -0.6 0.4 1.8
v -0.6 0.5 1.8
v 0.8 0.4 1.8
v 0.8 0.5 1.8
v 1 0.4 1.8
v 1 0.5 1.8
v -0.8 0.3 1.5
v -0.8 0.5 1.5
v -0.7 0.3 1.5
v -0.7 0.5 1.5
v 0.9 0.3 1.5
v 0.9 0.5 1.5
v 1 0.3 1.5
v 1 0.5 1.5
v -0.8 0.5 1.4
v -0.8 0.6 1.4
v -0.7 0.5 1.4
v -0.7 0.6 1.4
v 0.9 0.5 1.4
v 0.9 0.6 1.4
v 1 0.5 1.4
v 1 0.6 1.4
v -0.7 1.2 1.3
v -0.7 1.4 1.3
v -0.6 1.2 1.3
v -0.6 1.4 1.3
v 0.8 1.2 1.3
v 0.8 1.4 1.3
v 0.9 1.2 1.3
v 0.9 1.4 1.3
v -0.7 0.1 1.1
v -0.7 0.2 1.1
v -0.6 0.1 1.1
v -0.6 0.2 1.1
v -0.6 0.3 1.1
v -0.5 0.2 1.1
v -0.5 0.3 1.1
v -0.5 1.7 1.1
v -0.5 1.8 1.1
v -0.4 1.7 1.1
v -0.4 1.8 1.1
v -0.3 1.7 1.1
v -0.3 1.8 1.1
v -0.2 1.7 1.1
v -0.2 1.8 1.1
v 0.4 1.7 1.1
v 0.4 1.8 1.1
v 0.5 1.7 1.1
v 0.5 1.8 1.1
v 0.6 1.7 1.1
v 0.6 1.8 1.1
v 0.7 0.2 1.1
v 0.7 0.3 1.1
v 0.7 1.7 1.1
v 0.7 1.8 1.1
v 0.8 0.1 1.1
v 0.8 0.2 1.1
v 0.8 0.3 1.1
v 0.9 0.1 1.1
v 0.9 0.2 1.1
v -0.8 0.6 1
v -0.8 0.7 1
v -0.7 0.2 1
v -0.7 0.3 1
v -0.6 0.2 1
v -0.6 0.3 1
v -0.6 0.6 1
v -0.6 0.7 1
v 0.8 0.2 1
v 0.8 0.3 1
v 0.8 0.6 1
v 0.8 0.7 1
v 0.9 0.2 1
v 0.9 0.3 1
v 1 0.6 1
v 1 0.7 1
v -0.8 0.4 0.9
v -0.8 0.6 0.9
v -0.6 0.4 0.9
v -0.6 0.6 0.9
v 0.8 0.4 0.9
v 0.8 0.6 0.9
v 1 0.4 0.9
v 1 0.6 0.9
v -0.6 1.6 0.5
v -0.6 1.7 0.5
v 0.8 1.6 0.5
v 0.8 1.7 0.5
v -0.6 0.8 0.3
v -0.6 2 0.3
v 0.8 0.8 0.3
v 0.8 2 0.3
v -0.9 1.9 0.0999999
v -0.9 2 0.0999999
v -0.8 1.9 0.0999999
v -0.8 2 0.0999999
v 1 1.9 0.0999999
v 1 2 0.0999999
v 1.1 1.9 0.0999999
v 1.1 2 0.0999999
v -0.9 1.9 -0.2
v -0.9 2 -0.2
v -0.8 1.9 -0.2
v -0.8 2 -0.2
v 1 1.9 -0.2
v 1 2 -0.2
v 1.1 1.9 -0.2
v 1.1 2 -0.2
v -0.9 0.3 -1
v -0.9 0.5 -1
v -0.8 0.3 -1
v -0.8 0.5 -1
v 1 0.3 -1
v 1 0.5 -1
v 1.1 0.3 -1
v 1.1 0.5 -1
v -0.9 0.5 -1.1
v -0.9 0.6 -1.1
v -0.9 1.9 -1.1
v -0.9 2 -1.1
v -0.8 0.5 -1.1
v -0.8 0.6 -1.1
v -0.8 1.9 -1.1
v -0.8 2 -1.1
v 1 0.5 -1.1
v 1 0.6 -1.1
v 1 1.9 -1.1
v 1 2 -1.1
v 1.1 0.5 -1.1
v 1.1 0.6 -1.1
v 1.1 1.9 -1.1
v 1.1 2 -1.1
v -0.9 1.9 -1.4
v -0.9 2 -1.4
v -0.8 0.1 -1.4
v -0.8 0.2 -1.4
v -0.8 1.9 -1.4
v -0.8 2 -1.4
v -0.6 0.1 -1.4
v -0.6 0.2 -1.4
v -0.6 0.3 -1.4
v -0.5 0.2 -1.4
v -0.5 0.3 -1.4
v 0.7 0.2 -1.4
v 0.7 0.3 -1.4
v 0.8 0.1 -1.4
v 0.8 0.2 -1.4
v 0.8 0.3 -1.4
v 1 0.1 -1.4
v 1 0.2 -1.4
v 1 1.9 -1.4
v 1 2 -1.4
v 1.1 1.9 -1.4
v 1.1 2 -1.4
v -0.9 0.6 -1.5
v -0.9 0.7 -1.5
v -0.8 0.2 -1.5
v -0.8 0.3 -1.5
v -0.8 0.6 -1.5
v -0.8 0.7 -1.5
v -0.8 2.1 -1.5
v -0.8 2.2 -1.5
v -0.7 0.3 -1.5
v -0.6 0.2 -1.5
v -0.6 0.3 -1.5
v 0.8 0.2 -1.5
v 0.8 0.3 -1.5
v 0.9 0.3 -1.5
v 1 0.2 -1.5
v 1 0.3 -1.5
v 1 0.6 -1.5
v 1 0.7 -1.5
v 1 2.1 -1.5
v 1 2.2 -1.5
v 1.1 0.6 -1.5
v 1.1 0.7 -1.5
v -0.9 0.3 -1.6
v -0.9 0.6 -1.6
v -0.8 0.3 -1.6
v -0.8 0.6 -1.6
v -0.8 0.7 -1.6
v -0.8 0.8 -1.6
v -0.8 2.1 -1.6
v -0.7 0.6 -1.6
v -0.7 0.7 -1.6
v -0.7 0.8 -1.6
v -0.7 0.9 -1.6
v -0.7 1.4 -1.6
v -0.7 1.5 -1.6
v -0.6 1.9 -1.6
v -0.6 2 -1.6
v -0.5 0.6 -1.6
v -0.5 0.7 -1.6
v -0.5 0.8 -1.6
v -0.5 0.9 -1.6
v -0.5 1.4 -1.6
v -0.5 1.5 -1.6
v -0.5 1.8 -1.6
v -0.4 0.8 -1.6
v -0.4 1.7 -1.6
v -0.4 1.9 -1.6
v -0.4 2 -1.6
v -0.3 1.3 -1.6
v -0.3 1.6 -1.6
v -0.3 1.9 -1.6
v -0.3 2 -1.6
v -0.1 1.1 -1.6
v -0.1 1.2 -1.6
v -0.1 1.3 -1.6
v -0.1 1.6 -1.6
v -0.1 1.9 -1.6
v -0.1 2 -1.6
v 0 0.8 -1.6
v 0 1.1 -1.6
v 0 1.2 -1.6
v 0 1.7 -1.6
v 0 1.9 -1.6
v 0 2 -1.6
v 0.2 0.8 -1.6
v 0.2 1.1 -1.6
v 0.2 1.2 -1.6
v 0.2 1.7 -1.6
v 0.2 1.9 -1.6
v 0.2 2 -1.6
v 0.3 1.1 -1.6
v 0.3 1.2 -1.6
v 0.3 1.3 -1.6
v 0.3 1.6 -1.6
v 0.3 1.9 -1.6
v 0.3 2 -1.6
v 0.5 1.3 -1.6
v 0.5 1.6 -1.6
v 0.5 1.9 -1.6
v 0.5 2 -1.6
v 0.6 0.8 -1.6
v 0.6 1.7 -1.6
v 0.6 1.9 -1.6
v 0.6 2 -1.6
v 0.7 0.6 -1.6
v 0.7 0.7 -1.6
v 0.7 0.8 -1.6
v 0.7 0.9 -1.6
v 0.7 1.4 -1.6
v 0.7 1.5 -1.6
v 0.7 1.8 -1.6
v 0.8 1.9 -1.6
v 0.8 2 -1.6
v 0.9 0.6 -1.6
v 0.9 0.7 -1.6
v 0.9 0.8 -1.6
v 0.9 0.9 -1.6
v 0.9 1.4 -1.6
v 0.9 1.5 -1.6
v 1 0.3 -1.6
v 1 0.6 -1.6
v 1 0.7 -1.6
v 1 0.8 -1.6
v 1 2.1 -1.6
v 1.1 0.3 -1.6
v 1.1 0.6 -1.6
v -0.8 0.5 -1.7
v -0.8 0.6 -1.7
v -0.7 0.6 -1.7
v -0.7 0.7 -1.7
v -0.7 0.8 -1.7
v -0.7 0.9 -1.7
v -0.7 1.4 -1.7
v -0.7 1.5 -1.7
v -0.6 1.9 -1.7
v -0.6 2 -1.7
v -0.5 0.6 -1.7
v -0.5 0.7 -1.7
v -0.5 0.8 -1.7
v -0.5 0.9 -1.7
v -0.5 1.4 -1.7
v -0.5 1.5 -1.7
v -0.4 1.9 -1.7
v -0.4 2 -1.7
v -0.3 1.9 -1.7
v -0.3 2 -1.7
v -0.1 1.9 -1.7
v -0.1 2 -1.7
v 0 1.9 -1.7
v 0 2 -1.7
v 0.2 1.9 -1.7
v 0.2 2 -1.7
v 0.3 1.9 -1.7
v 0.3 2 -1.7
v 0.5 1.9 -1.7
v 0.5 2 -1.7
v 0.6 1.9 -1.7
v 0.6 2 -1.7
v 0.7 0.6 -1.7
v 0.7 0.7 -1.7
v 0.7 0.8 -1.7
v 0.7 0.9 -1.7
v 0.7 1.4 -1.7
v 0.7 1.5 -1.7
v 0.8 1.9 -1.7
v 0.8 2 -1.7
v 0.9 0.6 -1.7
v 0.9 0.7 -1.7
v 0.9 0.8 -1.7
v 0.9 0.9 -1.7
v 0.9 1.4 -1.7
v 0.9 1.5 -1.7
v 1 0.5 -1.7
v 1 0.6 -1.7
v -0.8 0.4 -1.8
v -0.8 0.5 -1.8
v 1 0.4 -1.8
v 1 0.5 -1.8
v -0.8 0.3 -1.9
v -0.8 0.4 -1.9
v 1 0.3 -1.9
v 1 0.4 -1.9
v -0.7 0.1 1.4
v -0.6 0.1 1.4
v 0.8 0.1 1.4
v 0.9 0.1 1.4
v -0.7 0.1 1.1
v -0.6 0.1 1.1
v 0.8 0.1 1.1
v 0.9 0.1 1.1
v -0.8 0.1 -1.1
v -0.6 0.1 -1.1
v 0.8 0.1 -1.1
v 1 0.1 -1.1
v -0.8 0.1 -1.4
v -0.6 0.1 -1.4
v 0.8 0.1 -1.4
v 1 0.1 -1.4
v 0 0.2 2.1
v 0.2 0.2 2.1
v -0.1 0.2 2
v 0 0.2 2
v 0.2 0.2 2
v 0.3 0.2 2
v -0.1 0.2 1.9
v 0.3 0.2 1.9
v -0.7 0.2 1.5
v -0.6 0.2 1.5
v 0.8 0.2 1.5
v 0.9 0.2 1.5
v -0.7 0.2 1.4
v -0.6 0.2 1.4
v -0.5 0.2 1.4
v 0.7 0.2 1.4
v 0.8 0.2 1.4
v 0.9 0.2 1.4
v -0.7 0.2 1.1
v -0.6 0.2 1.1
v -0.5 0.2 1.1
v 0.7 0.2 1.1
v 0.8 0.2 1.1
v 0.9 0.2 1.1
v -0.7 0.2 1
v -0.6 0.2 1
v 0.8 0.2 1
v 0.9 0.2 1
v -0.8 0.2 -1
v -0.6 0.2 -1
v 0.8 0.2 -1
v 1 0.2 -1
v -0.8 0.2 -1.1
v -0.6 0.2 -1.1
v -0.5 0.2 -1.1
v 0.7 0.2 -1.1
v 0.8 0.2 -1.1
v 1 0.2 -1.1
v -0.8 0.2 -1.4
v -0.6 0.2 -1.4
v -0.5 0.2 -1.4
v 0.7 0.2 -1.4
v 0.8 0.2 -1.4
v 1 0.2 -1.4
v -0.8 0.2 -1.5
v -0.6 0.2 -1.5
v 0.8 0.2 -1.5
v 1 0.2 -1.5
v -0.8 0.3 2
v -0.1 0.3 2
v 0.3 0.3 2
v 1 0.3 2
v -0.6 0.3 1.9
v -0.1 0.3 1.9
v 0.3 0.3 1.9
v 0.8 0.3 1.9
v -0.6 0.3 1.7
v 0.8 0.3 1.7
v -0.8 0.3 1.5
v -0.7 0.3 1.5
v -0.6 0.3 1.5
v -0.5 0.3 1.5
v 0.7 0.3 1.5
v 0.8 0.3 1.5
v 0.9 0.3 1.5
v 1 0.3 1.5
v -0.6 0.3 1.4
v -0.5 0.3 1.4
v 0.7 0.3 1.4
v 0.8 0.3 1.4
v -0.6 0.3 1.1
v -0.5 0.3 1.1
v 0.7 0.3 1.1
v 0.8 0.3 1.1
v -0.8 0.3 1
v -0.7 0.3 1
v -0.6 0.3 1
v -0.5 0.3 1
v 0.7 0.3 1
v 0.8 0.3 1
v 0.9 0.3 1
v 1 0.3 1
v -0.9 0.3 0.9
v -0.8 0.3 0.9
v 1 0.3 0.9
v 1.1 0.3 0.9
v -0.8 0.3 0.4
v -0.6 0.3 0.4
v 0.8 0.3 0.4
v 1 0.3 0.4
v -0.9 0.3 -1
v -0.8 0.3 -1
v -0.6 0.3 -1
v -0.5 0.3 -1
v 0.7 0.3 -1
v 0.8 0.3 -1
v 1 0.3 -1
v 1.1 0.3 -1
v -0.6 0.3 -1.1
v -0.5 0.3 -1.1
v 0.7 0.3 -1.1
v 0.8 0.3 -1.1
v -0.6 0.3 -1.4
v -0.5 0.3 -1.4
v 0.7 0.3 -1.4
v 0.8 0.3 -1.4
v -0.9 0.3 -1.5
v -0.8 0.3 -1.5
v -0.7 0.3 -1.5
v -0.6 0.3 -1.5
v -0.5 0.3 -1.5
v 0.7 0.3 -1.5
v 0.8 0.3 -1.5
v 0.9 0.3 -1.5
v 1 0.3 -1.5
v 1.1 0.3 -1.5
v -0.9 0.3 -1.6
v -0.8 0.3 -1.6
v -0.7 0.3 -1.6
v 0.9 0.3 -1.6
v 1 0.3 -1.6
v 1.1 0.3 -1.6
v -0.8 0.3 -1.9
v 1 0.3 -1.9
v -0.6 0.4 1.9
v -0.1 0.4 1.9
v 0.3 0.4 1.9
v 0.8 0.4 1.9
v -0.6 0.4 1.7
v 0.8 0.4 1.7
v -0.8 0.5 1.5
v -0.7 0.5 1.5
v 0.9 0.5 1.5
v 1 0.5 1.5
v -0.8 0.5 1.4
v -0.7 0.5 1.4
v 0.9 0.5 1.4
v 1 0.5 1.4
v -0.8 0.5 1.1
v -0.7 0.5 1.1
v 0.9 0.5 1.1
v 1 0.5 1.1
v -0.8 0.5 1
v -0.7 0.5 1
v 0.9 0.5 1
v 1 0.5 1
v -0.9 0.5 -1
v -0.8 0.5 -1
v 1 0.5 -1
v 1.1 0.5 -1
v -0.9 0.5 -1.1
v -0.8 0.5 -1.1
v 1 0.5 -1.1
v 1.1 0.5 -1.1
v -0.9 0.5 -1.4
v -0.8 0.5 -1.4
v 1 0.5 -1.4
v 1.1 0.5 -1.4
v -0.9 0.5 -1.5
v -0.8 0.5 -1.5
v 1 0.5 -1.5
v 1.1 0.5 -1.5
v -0.8 0.6 1.4
v -0.7 0.6 1.4
v 0.9 0.6 1.4
v 1 0.6 1.4
v -0.8 0.6 1.1
v -0.7 0.6 1.1
v 0.9 0.6 1.1
v 1 0.6 1.1
v -0.9 0.6 -1.1
v -0.8 0.6 -1.1
v 1 0.6 -1.1
v 1.1 0.6 -1.1
v -0.9 0.6 -1.4
v -0.8 0.6 -1.4
v 1 0.6 -1.4
v 1.1 0.6 -1.4
v -0.2 0.9 1.9
v 0.4 0.9 1.9
v -0.2 0.9 1.8
v 0.4 0.9 1.8
v -0.7 1.2 1.4
v -0.6 1.2 1.4
v 0.8 1.2 1.4
v 0.9 1.2 1.4
v -0.7 1.2 1.3
v -0.6 1.2 1.3
v 0.8 1.2 1.3
v 0.9 1.2 1.3
v -0.7 1.4 -1.6
v -0.5 1.4 -1.6
v 0.7 1.4 -1.6
v 0.9 1.4 -1.6
v -0.7 1.4 -1.7
v -0.5 1.4 -1.7
v 0.7 1.4 -1.7
v 0.9 1.4 -1.7
v -0.6 1.9 0.5
v -0.4 1.9 0.5
v -0.2 1.9 0.5
v 0 1.9 0.5
v 0.2 1.9 0.5
v 0.4 1.9 0.5
v 0.6 1.9 0.5
v 0.8 1.9 0.5
v -0.6 1.9 0.4
v -0.4 1.9 0.4
v -0.2 1.9 0.4
v 0 1.9 0.4
v 0.2 1.9 0.4
v 0.4 1.9 0.4
v 0.6 1.9 0.4
v 0.8 1.9 0.4
v -0.9 1.9 0.3
v -0.8 1.9 0.3
v 1 1.9 0.3
v 1.1 1.9 0.3
v -0.9 1.9 0.0999999
v -0.8 1.9 0.0999999
v 1 1.9 0.0999999
v 1.1 1.9 0.0999999
v -0.9 1.9 0
v -0.8 1.9 0
v 1 1.9 0
v 1.1 1.9 0
v -0.9 1.9 -0.2
v -0.8 1.9 -0.2
v 1 1.9 -0.2
v 1.1 1.9 -0.2
v -0.9 1.9 -0.9
v -0.8 1.9 -0.9
v 1 1.9 -0.9
v 1.1 1.9 -0.9
v -0.9 1.9 -1.1
v -0.8 1.9 -1.1
v 1 1.9 -1.1
v 1.1 1.9 -1.1
v -0.9 1.9 -1.2
v -0.8 1.9 -1.2
v 1 1.9 -1.2
v 1.1 1.9 -1.2
v -0.9 1.9 -1.4
v -0.8 1.9 -1.4
v 1 1.9 -1.4
v 1.1 1.9 -1.4
v -0.6 1.9 -1.6
v -0.4 1.9 -1.6
v -0.3 1.9 -1.6
v -0.1 1.9 -1.6
v 0 1.9 -1.6
v 0.2 1.9 -1.6
v 0.3 1.9 -1.6
v 0.5 1.9 -1.6
v 0.6 1.9 -1.6
v 0.8 1.9 -1.6
v -0.6 1.9 -1.7
v -0.4 1.9 -1.7
v -0.3 1.9 -1.7
v -0.1 1.9 -1.7
v 0 1.9 -1.7
v 0.2 1.9 -1.7
v 0.3 1.9 -1.7
v 0.5 1.9 -1.7
v 0.6 1.9 -1.7
v 0.8 1.9 -1.7
v -0.6 2 0.3
v 0.8 2 0.3
v -0.6 2 -1.5
v 0.8 2 -1.5
v 0 0.3 2.1
v 0.2 0.3 2.1
v 0 0.3 2
v 0.2 0.3 2
v -0.8 0.4 1.8
v -0.6 0.4 1.8
v 0.8 0.4 1.8
v 1 0.4 1.8
v -0.8 0.4 1.6
v -0.6 0.4 1.6
v 0.8 0.4 1.6
v 1 0.4 1.6
v -0.9 0.4 0.9
v -0.8 0.4 0.9
v -0.6 0.4 0.9
v 0.8 0.4 0.9
v 1 0.4 0.9
v 1.1 0.4 0.9
v -0.8 0.4 0.4
v -0.6 0.4 0.4
v 0.8 0.4 0.4
v 1 0.4 0.4
v -0.9 0.4 -0.9
v -0.8 0.4 -0.9
v 1 0.4 -0.9
v 1.1 0.4 -0.9
v -0.8 0.4 -1.8
v 1 0.4 -1.8
v -0.8 0.4 -1.9
v 1 0.4 -1.9
v -0.8 0.5 2
v 1 0.5 2
v -0.6 0.5 1.9
v 0.8 0.5 1.9
v -0.8 0.5 1.8
v -0.6 0.5 1.8
v 0.8 0.5 1.8
v 1 0.5 1.8
v -0.8 0.5 -1.7
v 1 0.5 -1.7
v -0.8 0.5 -1.8
v 1 0.5 -1.8
v -0.2 0.6 1.9
v 0.4 0.6 1.9
v -0.2 0.6 1.8
v 0.4 0.6 1.8
v -0.8 0.6 1.6
v -0.6 0.6 1.6
v 0.8 0.6 1.6
v 1 0.6 1.6
v -0.8 0.6 1.5
v -0.6 0.6 1.5
v 0.8 0.6 1.5
v 1 0.6 1.5
v -0.8 0.6 1
v -0.6 0.6 1
v 0.8 0.6 1
v 1 0.6 1
v -0.8 0.6 0.9
v -0.6 0.6 0.9
v 0.8 0.6 0.9
v 1 0.6 0.9
v -0.9 0.6 -0.9
v -0.8 0.6 -0.9
v 1 0.6 -0.9
v 1.1 0.6 -0.9
v -0.9 0.6 -1
v -0.8 0.6 -1
v 1 0.6 -1
v 1.1 0.6 -1
v -0.9 0.6 -1.5
v -0.8 0.6 -1.5
v 1 0.6 -1.5
v 1.1 0.6 -1.5
v -0.9 0.6 -1.6
v -0.8 0.6 -1.6
v -0.7 0.6 -1.6
v -0.5 0.6 -1.6
v 0.7 0.6 -1.6
v 0.9 0.6 -1.6
v 1 0.6 -1.6
v 1.1 0.6 -1.6
v -0.8 0.6 -1.7
v -0.7 0.6 -1.7
v -0.5 0.6 -1.7
v 0.7 0.6 -1.7
v 0.9 0.6 -1.7
v 1 0.6 -1.7
v -0.8 0.7 1.5
v -0.6 0.7 1.5
v 0.8 0.7 1.5
v 1 0.7 1.5
v -0.8 0.7 1
v -0.6 0.7 1
v 0.8 0.7 1
v 1 0.7 1
v -0.9 0.7 -1
v -0.8 0.7 -1
v 1 0.7 -1
v 1.1 0.7 -1
v -0.9 0.7 -1.5
v -0.8 0.7 -1.5
v 1 0.7 -1.5
v 1.1 0.7 -1.5
v -0.6 0.8 0.3
v 0.8 0.8 0.3
v -0.6 0.8 -1.5
v -0.5 0.8 -1.5
v -0.4 0.8 -1.5
v 0 0.8 -1.5
v 0.2 0.8 -1.5
v 0.6 0.8 -1.5
v 0.7 0.8 -1.5
v 0.8 0.8 -1.5
v -0.7 0.9 -1.6
v -0.5 0.9 -1.6
v 0.7 0.9 -1.6
v 0.9 0.9 -1.6
v -0.7 0.9 -1.7
v -0.5 0.9 -1.7
v 0.7 0.9 -1.7
v 0.9 0.9 -1.7
v -0.6 1 1.9
v 0.8 1 1.9
v -0.6 1 1.7
v 0.8 1 1.7
v -0.6 1.1 1.7
v 0.8 1.1 1.7
v -0.6 1.1 1.6
v 0.8 1.1 1.6
v -0.6 1.2 1.6
v 0.8 1.2 1.6
v -0.6 1.2 1.5
v -0.5 1.2 1.5
v 0.7 1.2 1.5
v 0.8 1.2 1.5
v -0.7 1.4 1.4
v -0.6 1.4 1.4
v 0.8 1.4 1.4
v 0.9 1.4 1.4
v -0.7 1.4 1.3
v -0.6 1.4 1.3
v 0.8 1.4 1.3
v 0.9 1.4 1.3
v -0.7 1.5 -1.6
v -0.5 1.5 -1.6
v 0.7 1.5 -1.6
v 0.9 1.5 -1.6
v -0.7 1.5 -1.7
v -0.5 1.5 -1.7
v 0.7 1.5 -1.7
v 0.9 1.5 -1.7
v -0.6 1.6 1.5
v 0.8 1.6 1.5
v -0.6 1.6 1.4
v 0.8 1.6 1.4
v -0.6 1.6 0.5
v 0.8 1.6 0.5
v -0.6 1.6 0.4
v 0.8 1.6 0.4
v -0.6 1.7 1.4
v 0.8 1.7 1.4
v -0.5 1.7 1.3
v -0.4 1.7 1.3
v -0.3 1.7 1.3
v -0.2 1.7 1.3
v 0.4 1.7 1.3
v 0.5 1.7 1.3
v 0.6 1.7 1.3
v 0.7 1.7 1.3
v -0.5 1.7 1.1
v -0.4 1.7 1.1
v -0.3 1.7 1.1
v -0.2 1.7 1.1
v 0.4 1.7 1.1
v 0.5 1.7 1.1
v 0.6 1.7 1.1
v 0.7 1.7 1.1
v -0.6 1.7 0.5
v 0.8 1.7 0.5
v -0.5 1.8 1.3
v -0.4 1.8 1.3
v -0.3 1.8 1.3
v -0.2 1.8 1.3
v 0.4 1.8 1.3
v 0.5 1.8 1.3
v 0.6 1.8 1.3
v 0.7 1.8 1.3
v -0.5 1.8 1.1
v -0.4 1.8 1.1
v -0.3 1.8 1.1
v -0.2 1.8 1.1
v 0.4 1.8 1.1
v 0.5 1.8 1.1
v 0.6 1.8 1.1
v 0.7 1.8 1.1
v -0.6 2 0.5
v -0.4 2 0.5
v -0.2 2 0.5
v 0 2 0.5
v 0.2 2 0.5
v 0.4 2 0.5
v 0.6 2 0.5
v 0.8 2 0.5
v -0.6 2 0.4
v -0.4 2 0.4
v -0.2 2 0.4
v 0 2 0.4
v 0.2 2 0.4
v 0.4 2 0.4
v 0.6 2 0.4
v 0.8 2 0.4
v -0.9 2 0.3
v -0.8 2 0.3
v 1 2 0.3
v 1.1 2 0.3
v -0.9 2 0.0999999
v -0.8 2 0.0999999
v 1 2 0.0999999
v 1.1 2 0.0999999
v -0.9 2 0
v -0.8 2 0
v 1 2 0
v 1.1 2 0
v -0.9 2 -0.2
v -0.8 2 -0.2
v 1 2 -0.2
v 1.1 2 -0.2
v -0.9 2 -0.9
v -0.8 2 -0.9
v 1 2 -0.9
v 1.1 2 -0.9
v -0.9 2 -1.1
v -0.8 2 -1.1
v 1 2 -1.1
v 1.1 2 -1.1
v -0.9 2 -1.2
v -0.8 2 -1.2
v 1 2 -1.2
v 1.1 2 -1.2
v -0.9 2 -1.4
v -0.8 2 -1.4
v 1 2 -1.4
v 1.1 2 -1.4
v -0.6 2 -1.6
v -0.4 2 -1.6
v -0.3 2 -1.6
v -0.1 2 -1.6
v 0 2 -1.6
v 0.2 2 -1.6
v 0.3 2 -1.6
v 0.5 2 -1.6
v 0.6 2 -1.6
v 0.8 2 -1.6
v -0.6 2 -1.7
v -0.4 2 -1.7
v -0.3 2 -1.7
v -0.1 2 -1.7
v 0 2 -1.7
v 0.2 2 -1.7
v 0.3 2 -1.7
v 0.5 2 -1.7
v 0.6 2 -1.7
v 0.8 2 -1.7
v -0.8 2.1 -1.5
v 1 2.1 -1.5
v -0.8 2.1 -1.6
v 1 2.1 -1.6
v -0.8 2.2 0.4
v 1 2.2 0.4
v -0.8 2.2 -1.5
v 1 2.2 -1.5

# faces
f 5/7/1 2/7/1 1/7/1
f 6/7/1 2/7/1 5/7/1
f 7/7/1 2/7/1 6/7/1
f 10/7/1 4/7/1 3/7/1
f 11/7/1 8/7/1 7/7/1
f 11/7/1 7/7/1 6/7/1
f 12/7/1 8/7/1 11/7/1
f 13/7/1 8/7/1 12/7/1
f 14/7/1 10/7/1 9/7/1
f 15/7/1 4/7/1 10/7/1
f 15/7/1 10/7/1 14/7/1
f 16/7/1 4/7/1 15/7/1
f 17/7/1 13/7/1 12/7/1
f 17/7/1 14/7/1 13/7/1
f 17/7/1 15/7/1 14/7/1
f 18/7/1 15/7/1 17/7/1
f 27/3/1 20/3/1 19/3/1
f 28/3/1 20/3/1 27/3/1
f 29/9/1 22/9/1 21/9/1
f 30/9/1 22/9/1 29/9/1
f 31/9/1 24/9/1 23/9/1
f 32/9/1 24/9/1 31/9/1
f 33/3/1 26/3/1 25/3/1
f 34/3/1 26/3/1 33/3/1
f 38/8/1 36/8/1 35/8/1
f 39/8/1 36/8/1 38/8/1
f 45/8/1 38/8/1 37/8/1
f 46/8/1 40/8/1 39/8/1
f 49/7/1 42/7/1 41/7/1
f 50/7/1 42/7/1 49/7/1
f 51/7/1 44/7/1 43/7/1
f 54/9/1 48/9/1 47/9/1
f 55/9/1 48/9/1 54/9/1
f 56/7/1 49/7/1 41/7/1
f 57/7/1 49/7/1 56/7/1
f 58/7/1 42/7/1 50/7/1
f 61/7/1 51/7/1 43/7/1
f 62/8/1 38/8/1 45/8/1
f 63/7/1 39/7/1 38/7/1
f 63/8/1 38/8/1 62/8/1
f 64/8/1 46/8/1 39/8/1
f 64/7/1 39/7/1 63/7/1
f 65/8/1 46/8/1 64/8/1
f 66/9/1 54/9/1 47/9/1
f 67/9/1 54/9/1 66/9/1
f 68/7/1 59/7/1 58/7/1
f 68/7/1 58/7/1 50/7/1
f 69/7/1 59/7/1 68/7/1
f 70/7/1 59/7/1 69/7/1
f 71/7/1 61/7/1 60/7/1
f 72/7/1 51/7/1 61/7/1
f 72/7/1 61/7/1 71/7/1
f 73/7/1 51/7/1 72/7/1
f 74/6/1 53/6/1 52/6/1
f 76/8/1 64/8/1 63/8/1
f 77/8/1 64/8/1 76/8/1
f 79/9/1 66/9/1 47/9/1
f 80/9/1 66/9/1 79/9/1
f 81/7/1 70/7/1 69/7/1
f 81/7/1 71/7/1 70/7/1
f 81/7/1 72/7/1 71/7/1
f 82/7/1 72/7/1 81/7/1
f 83/6/1 75/6/1 74/6/1
f 83/6/1 74/6/1 52/6/1
f 84/6/1 75/6/1 83/6/1
f 85/6/1 79/6/1 78/6/1
f 86/6/1 79/6/1 85/6/1
f 87/5/1 84/5/1 83/5/1
f 87/5/1 86/5/1 85/5/1
f 87/5/1 85/5/1 84/5/1
f 88/5/1 86/5/1 87/5/1
f 89/6/1 88/6/1 87/6/1
f 90/6/1 88/6/1 89/6/1
f 91/6/1 89/6/1 87/6/1
f 92/5/1 90/5/1 89/5/1
f 92/6/1 89/6/1 91/6/1
f 93/6/1 88/6/1 90/6/1
f 93/5/1 90/5/1 92/5/1
f 94/6/1 88/6/1 93/6/1
f 95/5/1 92/5/1 91/5/1
f 95/6/1 91/6/1 87/6/1
f 95/5/1 94/5/1 93/5/1
f 95/5/1 93/5/1 92/5/1
f 96/5/1 94/5/1 95/5/1
f 97/5/1 94/5/1 96/5/1
f 98/6/1 88/6/1 94/6/1
f 98/5/1 94/5/1 97/5/1
f 99/5/1 97/5/1 96/5/1
f 99/6/1 96/6/1 95/6/1
f 100/6/1 98/6/1 97/6/1
f 100/5/1 97/5/1 99/5/1
f 101/6/1 95/6/1 87/6/1
f 101/6/1 99/6/1 95/6/1
f 101/6/1 100/6/1 99/6/1
f 102/6/1 100/6/1 101/6/1
f 103/6/1 100/6/1 102/6/1
f 104/6/1 100/6/1 103/6/1
f 105/6/1 98/6/1 100/6/1
f 105/6/1 100/6/1 104/6/1
f 106/6/1 88/6/1 98/6/1
f 106/6/1 98/6/1 105/6/1
f 107/6/1 88/6/1 106/6/1
f 108/6/1 88/6/1 107/6/1
f 109/6/1 101/6/1 87/6/1
f 110/6/1 103/6/1 102/6/1
f 111/6/1 103/6/1 110/6/1
f 112/6/1 105/6/1 104/6/1
f 113/6/1 105/6/1 112/6/1
f 114/6/1 107/6/1 106/6/1
f 115/6/1 107/6/1 114/6/1
f 116/6/1 88/6/1 108/6/1
f 117/6/1 111/6/1 110/6/1
f 117/6/1 116/6/1 115/6/1
f 117/6/1 88/6/1 116/6/1
f 117/6/1 115/6/1 114/6/1
f 117/6/1 114/6/1 113/6/1
f 117/6/1 113/6/1 112/6/1
f 117/6/1 112/6/1 111/6/1
f 117/6/1 110/6/1 109/6/1
f 118/6/1 88/6/1 117/6/1
f 119/6/1 109/6/1 87/6/1
f 119/6/1 117/6/1 109/6/1
f 120/6/1 117/6/1 119/6/1
f 124/8/1 122/8/1 121/8/1
f 125/8/1 122/8/1 124/8/1
f 127/8/1 124/8/1 123/8/1
f 128/8/1 126/8/1 125/8/1
f 129/8/1 124/8/1 127/8/1
f 130/7/1 125/7/1 124/7/1
f 130/8/1 124/8/1 129/8/1
f 131/8/1 128/8/1 125/8/1
f 131/7/1 125/7/1 130/7/1
f 132/8/1 128/8/1 131/8/1
f 133/8/1 131/8/1 130/8/1
f 134/8/1 131/8/1 133/8/1
f 137/8/1 136/8/1 135/8/1
f 138/8/1 136/8/1 137/8/1
f 139/1/1 138/1/1 137/1/1
f 140/1/1 138/1/1 139/1/1
f 141/5/1 140/5/1 139/5/1
f 142/5/1 140/5/1 141/5/1
f 145/6/1 144/6/1 143/6/1
f 146/6/1 144/6/1 145/6/1
f 149/1/1 148/1/1 147/1/1
f 150/1/1 148/1/1 149/1/1
f 156/6/1 152/6/1 151/6/1
f 157/6/1 152/6/1 156/6/1
f 157/6/1 156/6/1 155/6/1
f 160/6/1 154/6/1 153/6/1
f 161/6/1 158/6/1 157/6/1
f 161/6/1 157/6/1 155/6/1
f 162/6/1 158/6/1 161/6/1
f 163/6/1 160/6/1 159/6/1
f 164/6/1 154/6/1 160/6/1
f 164/6/1 160/6/1 163/6/1
f 165/5/1 162/5/1 161/5/1
f 165/5/1 163/5/1 162/5/1
f 165/5/1 164/5/1 163/5/1
f 166/5/1 164/5/1 165/5/1
f 167/5/1 164/5/1 166/5/1
f 168/1/1 166/1/1 165/1/1
f 169/6/1 167/6/1 166/6/1
f 169/1/1 166/1/1 168/1/1
f 170/6/1 169/6/1 168/6/1
f 171/6/1 167/6/1 169/6/1
f 171/6/1 169/6/1 170/6/1
f 172/6/1 167/6/1 171/6/1
f 173/6/1 167/6/1 172/6/1
f 174/6/1 172/6/1 171/6/1
f 175/6/1 172/6/1 174/6/1
f 176/12/1 173/12/1 172/12/1
f 176/6/1 172/6/1 175/6/1
f 177/6/1 167/6/1 173/6/1
f 177/12/1 173/12/1 176/12/1
f 178/6/1 176/6/1 175/6/1
f 178/6/1 177/6/1 176/6/1
f 179/6/1 177/6/1 178/6/1
f 180/6/1 177/6/1 179/6/1
f 181/6/1 177/6/1 180/6/1
f 182/6/1 167/6/1 177/6/1
f 182/6/1 177/6/1 181/6/1
f 183/6/1 180/6/1 179/6/1
f 184/12/1 182/12/1 181/12/1
f 185/6/1 183/6/1 179/6/1
f 186/12/1 184/12/1 183/12/1
f 186/6/1 183/6/1 185/6/1
f 187/6/1 167/6/1 182/6/1
f 187/12/1 184/12/1 186/12/1
f 187/12/1 182/12/1 184/12/1
f 188/6/1 167/6/1 187/6/1
f 189/6/1 187/6/1 186/6/1
f 190/6/1 187/6/1 189/6/1
f 195/3/1 192/3/1 191/3/1
f 196/3/1 192/3/1 195/3/1
f 197/3/1 194/3/1 193/3/1
f 198/3/1 194/3/1 197/3/1
f 201/2/1 200/2/1 199/2/1
f 202/2/1 200/2/1 201/2/1
f 205/2/1 204/2/1 203/2/1
f 206/2/1 204/2/1 205/2/1
f 209/9/1 208/9/1 207/9/1
f 210/9/1 208/9/1 209/9/1
f 213/3/1 212/3/1 211/3/1
f 214/3/1 212/3/1 213/3/1
f 217/10/1 216/10/1 215/10/1
f 218/10/1 216/10/1 217/10/1
f 221/10/1 220/10/1 219/10/1
f 222/10/1 220/10/1 221/10/1
f 225/1/1 224/1/1 223/1/1
f 226/1/1 224/1/1 225/1/1
f 229/3/1 228/3/1 227/3/1
f 230/3/1 228/3/1 229/3/1
f 233/9/1 232/9/1 231/9/1
f 234/9/1 232/9/1 233/9/1
f 237/6/1 236/6/1 235/6/1
f 238/6/1 236/6/1 237/6/1
f 239/5/1 238/5/1 237/5/1
f 240/5/1 238/5/1 239/5/1
f 241/6/1 240/6/1 239/6/1
f 242/6/1 240/6/1 241/6/1
f 245/2/1 244/2/1 243/2/1
f 246/2/1 244/2/1 245/2/1
f 249/2/1 248/2/1 247/2/1
f 250/2/1 248/2/1 249/2/1
f 255/3/1 252/3/1 251/3/1
f 256/3/1 252/3/1 255/3/1
f 257/3/1 254/3/1 253/3/1
f 258/3/1 254/3/1 257/3/1
f 263/8/1 260/8/1 259/8/1
f 264/8/1 260/8/1 263/8/1
f 265/8/1 262/8/1 261/8/1
f 266/8/1 262/8/1 265/8/1
f 269/8/1 268/8/1 267/8/1
f 270/8/1 268/8/1 269/8/1
f 271/1/1 270/1/1 269/1/1
f 272/1/1 270/1/1 271/1/1
f 273/5/1 272/5/1 271/5/1
f 274/5/1 272/5/1 273/5/1
f 277/1/1 276/1/1 275/1/1
f 278/1/1 276/1/1 277/1/1
f 284/8/1 280/8/1 279/8/1
f 285/8/1 280/8/1 284/8/1
f 288/8/1 282/8/1 281/8/1
f 289/8/1 282/8/1 288/8/1
f 293/8/1 284/8/1 283/8/1
f 294/8/1 284/8/1 293/8/1
f 295/8/1 286/8/1 285/8/1
f 296/8/1 286/8/1 295/8/1
f 297/8/1 288/8/1 287/8/1
f 298/8/1 288/8/1 297/8/1
f 299/8/1 290/8/1 289/8/1
f 300/8/1 290/8/1 299/8/1
f 301/7/1 292/7/1 291/7/1
f 302/7/1 292/7/1 301/7/1
f 305/6/1 304/6/1 303/6/1
f 306/6/1 304/6/1 305/6/1
f 307/6/1 305/6/1 303/6/1
f 308/5/1 306/5/1 305/5/1
f 308/6/1 305/6/1 307/6/1
f 309/6/1 304/6/1 306/6/1
f 309/5/1 306/5/1 308/5/1
f 310/6/1 304/6/1 309/6/1
f 311/5/1 308/5/1 307/5/1
f 311/6/1 307/6/1 303/6/1
f 311/5/1 310/5/1 309/5/1
f 311/5/1 309/5/1 308/5/1
f 312/5/1 310/5/1 311/5/1
f 313/5/1 310/5/1 312/5/1
f 314/6/1 304/6/1 310/6/1
f 314/5/1 310/5/1 313/5/1
f 315/5/1 313/5/1 312/5/1
f 315/6/1 312/6/1 311/6/1
f 316/6/1 314/6/1 313/6/1
f 316/5/1 313/5/1 315/5/1
f 317/6/1 311/6/1 303/6/1
f 317/6/1 315/6/1 311/6/1
f 317/6/1 316/6/1 315/6/1
f 318/6/1 304/6/1 314/6/1
f 318/6/1 316/6/1 317/6/1
f 318/6/1 314/6/1 316/6/1
f 319/8/2 320/8/2 324/8/2
f 324/8/2 320/8/2 325/8/2
f 321/8/2 322/8/2 328/8/2
f 328/8/2 322/8/2 329/8/2
f 323/8/2 324/8/2 333/8/2
f 333/8/2 324/8/2 334/8/2
f 325/8/2 326/8/2 335/8/2
f 335/8/2 326/8/2 336/8/2
f 327/8/2 328/8/2 337/8/2
f 337/8/2 328/8/2 338/8/2
f 329/8/2 330/8/2 339/8/2
f 339/8/2 330/8/2 340/8/2
f 331/7/2 332/7/2 341/7/2
f 341/7/2 332/7/2 342/7/2
f 343/6/2 344/6/2 345/6/2
f 345/6/2 344/6/2 346/6/2
f 343/6/2 345/6/2 347/6/2
f 345/5/2 346/5/2 348/5/2
f 347/6/2 345/6/2 348/6/2
f 346/6/2 344/6/2 349/6/2
f 348/5/2 346/5/2 349/5/2
f 349/6/2 344/6/2 350/6/2
f 347/5/2 348/5/2 351/5/2
f 343/6/2 347/6/2 351/6/2
f 349/5/2 350/5/2 351/5/2
f 348/5/2 349/5/2 351/5/2
f 351/5/2 350/5/2 352/5/2
f 352/5/2 350/5/2 353/5/2
f 350/6/2 344/6/2 354/6/2
f 353/5/2 350/5/2 354/5/2
f 352/5/2 353/5/2 355/5/2
f 351/6/2 352/6/2 355/6/2
f 353/6/2 354/6/2 356/6/2
f 355/5/2 353/5/2 356/5/2
f 343/6/2 351/6/2 357/6/2
f 351/6/2 355/6/2 357/6/2
f 355/6/2 356/6/2 357/6/2
f 354/6/2 344/6/2 358/6/2
f 357/6/2 356/6/2 358/6/2
f 356/6/2 354/6/2 358/6/2
f 359/8/2 360/8/2 363/8/2
f 363/8/2 360/8/2 364/8/2
f 361/8/2 362/8/2 365/8/2
f 365/8/2 362/8/2 366/8/2
f 367/8/2 368/8/2 369/8/2
f 369/8/2 368/8/2 370/8/2
f 369/1/2 370/1/2 371/1/2
f 371/1/2 370/1/2 372/1/2
f 371/5/2 372/5/2 373/5/2
f 373/5/2 372/5/2 374/5/2
f 375/1/2 376/1/2 377/1/2
f 377/1/2 376/1/2 378/1/2
f 379/2/2 380/2/2 381/2/2
f 381/2/2 380/2/2 382/2/2
f 383/3/2 384/3/2 387/3/2
f 387/3/2 384/3/2 388/3/2
f 385/3/2 386/3/2 389/3/2
f 389/3/2 386/3/2 390/3/2
f 391/6/2 392/6/2 393/6/2
f 393/6/2 392/6/2 394/6/2
f 393/5/2 394/5/2 395/5/2
f 395/5/2 394/5/2 396/5/2
f 395/6/2 396/6/2 397/6/2
f 397/6/2 396/6/2 398/6/2
f 399/2/2 400/2/2 401/2/2
f 401/2/2 400/2/2 402/2/2
f 403/9/2 404/9/2 405/9/2
f 405/9/2 404/9/2 406/9/2
f 407/3/2 408/3/2 409/3/2
f 409/3/2 408/3/2 410/3/2
f 411/10/2 412/10/2 413/10/2
f 413/10/2 412/10/2 414/10/2
f 415/1/2 416/1/2 417/1/2
f 417/1/2 416/1/2 418/1/2
f 419/10/2 420/10/2 421/10/2
f 421/10/2 420/10/2 422/10/2
f 423/3/2 424/3/2 425/3/2
f 425/3/2 424/3/2 426/3/2
f 427/2/2 428/2/2 429/2/2
f 429/2/2 428/2/2 430/2/2
f 431/9/2 432/9/2 433/9/2
f 433/9/2 432/9/2 434/9/2
f 435/2/2 436/2/2 437/2/2
f 437/2/2 436/2/2 438/2/2
f 439/6/2 440/6/2 444/6/2
f 444/6/2 440/6/2 445/6/2
f 443/6/2 444/6/2 445/6/2
f 441/6/2 442/6/2 448/6/2
f 445/6/2 446/6/2 449/6/2
f 443/6/2 445/6/2 449/6/2
f 449/6/2 446/6/2 450/6/2
f 447/6/2 448/6/2 451/6/2
f 448/6/2 442/6/2 452/6/2
f 451/6/2 448/6/2 452/6/2
f 449/5/2 450/5/2 453/5/2
f 450/5/2 451/5/2 453/5/2
f 451/5/2 452/5/2 453/5/2
f 453/5/2 452/5/2 454/5/2
f 454/5/2 452/5/2 455/5/2
f 453/1/2 454/1/2 456/1/2
f 454/6/2 455/6/2 457/6/2
f 456/1/2 454/1/2 457/1/2
f 456/6/2 457/6/2 458/6/2
f 457/6/2 455/6/2 459/6/2
f 458/6/2 457/6/2 459/6/2
f 459/6/2 455/6/2 460/6/2
f 460/6/2 455/6/2 461/6/2
f 459/6/2 460/6/2 462/6/2
f 462/6/2 460/6/2 463/6/2
f 460/12/2 461/12/2 464/12/2
f 463/6/2 460/6/2 464/6/2
f 461/6/2 455/6/2 465/6/2
f 464/12/2 461/12/2 465/12/2
f 463/6/2 464/6/2 466/6/2
f 464/6/2 465/6/2 466/6/2
f 466/6/2 465/6/2 467/6/2
f 467/6/2 465/6/2 468/6/2
f 468/6/2 465/6/2 469/6/2
f 465/6/2 455/6/2 470/6/2
f 469/6/2 465/6/2 470/6/2
f 467/6/2 468/6/2 471/6/2
f 469/12/2 470/12/2 472/12/2
f 467/6/2 471/6/2 473/6/2
f 471/12/2 472/12/2 474/12/2
f 473/6/2 471/6/2 474/6/2
f 470/6/2 455/6/2 475/6/2
f 474/12/2 472/12/2 475/12/2
f 472/12/2 470/12/2 475/12/2
f 475/6/2 455/6/2 476/6/2
f 474/6/2 475/6/2 477/6/2
f 477/6/2 475/6/2 478/6/2
f 479/3/2 480/3/2 483/3/2
f 483/3/2 480/3/2 484/3/2
f 481/3/2 482/3/2 485/3/2
f 485/3/2 482/3/2 486/3/2
f 487/8/2 488/8/2 490/8/2
f 490/8/2 488/8/2 491/8/2
f 489/8/2 490/8/2 493/8/2
f 491/8/2 492/8/2 494/8/2
f 493/8/2 490/8/2 495/8/2
f 490/7/2 491/7/2 496/7/2
f 495/8/2 490/8/2 496/8/2
f 491/8/2 494/8/2 497/8/2
f 496/7/2 491/7/2 497/7/2
f 497/8/2 494/8/2 498/8/2
f 496/8/2 497/8/2 499/8/2
f 499/8/2 497/8/2 500/8/2
f 501/8/2 502/8/2 503/8/2
f 503/8/2 502/8/2 504/8/2
f 503/1/2 504/1/2 505/1/2
f 505/1/2 504/1/2 506/1/2
f 505/5/2 506/5/2 507/5/2
f 507/5/2 506/5/2 508/5/2
f 509/6/2 510/6/2 511/6/2
f 511/6/2 510/6/2 512/6/2
f 513/1/2 514/1/2 515/1/2
f 515/1/2 514/1/2 516/1/2
f 517/8/2 518/8/2 520/8/2
f 520/8/2 518/8/2 521/8/2
f 519/8/2 520/8/2 527/8/2
f 521/8/2 522/8/2 528/8/2
f 523/7/2 524/7/2 531/7/2
f 531/7/2 524/7/2 532/7/2
f 525/7/2 526/7/2 533/7/2
f 529/9/2 530/9/2 536/9/2
f 536/9/2 530/9/2 537/9/2
f 523/7/2 531/7/2 538/7/2
f 538/7/2 531/7/2 539/7/2
f 532/7/2 524/7/2 540/7/2
f 525/7/2 533/7/2 543/7/2
f 527/8/2 520/8/2 544/8/2
f 520/7/2 521/7/2 545/7/2
f 544/8/2 520/8/2 545/8/2
f 521/8/2 528/8/2 546/8/2
f 545/7/2 521/7/2 546/7/2
f 546/8/2 528/8/2 547/8/2
f 529/9/2 536/9/2 548/9/2
f 548/9/2 536/9/2 549/9/2
f 540/7/2 541/7/2 550/7/2
f 532/7/2 540/7/2 550/7/2
f 550/7/2 541/7/2 551/7/2
f 551/7/2 541/7/2 552/7/2
f 542/7/2 543/7/2 553/7/2
f 543/7/2 533/7/2 554/7/2
f 553/7/2 543/7/2 554/7/2
f 554/7/2 533/7/2 555/7/2
f 534/6/2 535/6/2 556/6/2
f 545/8/2 546/8/2 558/8/2
f 558/8/2 546/8/2 559/8/2
f 529/9/2 548/9/2 561/9/2
f 561/9/2 548/9/2 562/9/2
f 551/7/2 552/7/2 563/7/2
f 552/7/2 553/7/2 563/7/2
f 553/7/2 554/7/2 563/7/2
f 563/7/2 554/7/2 564/7/2
f 556/6/2 557/6/2 565/6/2
f 534/6/2 556/6/2 565/6/2
f 565/6/2 557/6/2 566/6/2
f 560/6/2 561/6/2 567/6/2
f 567/6/2 561/6/2 568/6/2
f 565/5/2 566/5/2 569/5/2
f 567/5/2 568/5/2 569/5/2
f 566/5/2 567/5/2 569/5/2
f 569/5/2 568/5/2 570/5/2
f 569/6/2 570/6/2 571/6/2
f 571/6/2 570/6/2 572/6/2
f 569/6/2 571/6/2 573/6/2
f 571/5/2 572/5/2 574/5/2
f 573/6/2 571/6/2 574/6/2
f 572/6/2 570/6/2 575/6/2
f 574/5/2 572/5/2 575/5/2
f 575/6/2 570/6/2 576/6/2
f 573/5/2 574/5/2 577/5/2
f 569/6/2 573/6/2 577/6/2
f 575/5/2 576/5/2 577/5/2
f 574/5/2 575/5/2 577/5/2
f 577/5/2 576/5/2 578/5/2
f 578/5/2 576/5/2 579/5/2
f 576/6/2 570/6/2 580/6/2
f 579/5/2 576/5/2 580/5/2
f 578/5/2 579/5/2 581/5/2
f 577/6/2 578/6/2 581/6/2
f 579/6/2 580/6/2 582/6/2
f 581/5/2 579/5/2 582/5/2
f 569/6/2 577/6/2 583/6/2
f 577/6/2 581/6/2 583/6/2
f 581/6/2 582/6/2 583/6/2
f 583/6/2 582/6/2 584/6/2
f 584/6/2 582/6/2 585/6/2
f 585/6/2 582/6/2 586/6/2
f 582/6/2 580/6/2 587/6/2
f 586/6/2 582/6/2 587/6/2
f 580/6/2 570/6/2 588/6/2
f 587/6/2 580/6/2 588/6/2
f 588/6/2 570/6/2 589/6/2
f 589/6/2 570/6/2 590/6/2
f 569/6/2 583/6/2 591/6/2
f 584/6/2 585/6/2 592/6/2
f 592/6/2 585/6/2 593/6/2
f 586/6/2 587/6/2 594/6/2
f 594/6/2 587/6/2 595/6/2
f 588/6/2 589/6/2 596/6/2
f 596/6/2 589/6/2 597/6/2
f 590/6/2 570/6/2 598/6/2
f 592/6/2 593/6/2 599/6/2
f 597/6/2 598/6/2 599/6/2
f 598/6/2 570/6/2 599/6/2
f 596/6/2 597/6/2 599/6/2
f 595/6/2 596/6/2 599/6/2
f 594/6/2 595/6/2 599/6/2
f 593/6/2 594/6/2 599/6/2
f 591/6/2 592/6/2 599/6/2
f 599/6/2 570/6/2 600/6/2
f 569/6/2 591/6/2 601/6/2
f 591/6/2 599/6/2 601/6/2
f 601/6/2 599/6/2 602/6/2
f 603/7/2 604/7/2 607/7/2
f 607/7/2 604/7/2 608/7/2
f 608/7/2 604/7/2 609/7/2
f 605/7/2 606/7/2 612/7/2
f 609/7/2 610/7/2 613/7/2
f 608/7/2 609/7/2 613/7/2
f 613/7/2 610/7/2 614/7/2
f 614/7/2 610/7/2 615/7/2
f 611/7/2 612/7/2 616/7/2
f 612/7/2 606/7/2 617/7/2
f 616/7/2 612/7/2 617/7/2
f 617/7/2 606/7/2 618/7/2
f 614/7/2 615/7/2 619/7/2
f 615/7/2 616/7/2 619/7/2
f 616/7/2 617/7/2 619/7/2
f 619/7/2 617/7/2 620/7/2
f 621/3/2 622/3/2 629/3/2
f 629/3/2 622/3/2 630/3/2
f 623/9/2 624/9/2 631/9/2
f 631/9/2 624/9/2 632/9/2
f 625/9/2 626/9/2 633/9/2
f 633/9/2 626/9/2 634/9/2
f 627/3/2 628/3/2 635/3/2
f 635/3/2 628/3/2 636/3/2
f 639/10/3 638/10/3 637/10/3
f 640/10/3 638/10/3 639/10/3
f 644/7/3 642/7/3 641/7/3
f 645/7/3 642/7/3 644/7/3
f 646/10/3 644/10/3 643/10/3
f 646/10/3 645/10/3 644/10/3
f 647/10/3 645/10/3 646/10/3
f 649/10/3 645/10/3 647/10/3
f 650/10/3 649/10/3 648/10/3
f 651/10/3 645/10/3 649/10/3
f 651/10/3 649/10/3 650/10/3
f 652/7/3 642/7/3 645/7/3
f 652/10/3 645/10/3 651/10/3
f 653/7/3 652/7/3 651/7/3
f 654/7/3 642/7/3 652/7/3
f 654/7/3 652/7/3 653/7/3
f 660/5/3 657/5/3 656/5/3
f 660/1/3 658/1/3 657/1/3
f 661/6/3 659/6/3 658/6/3
f 661/1/3 658/1/3 660/1/3
f 662/6/3 656/6/3 655/6/3
f 663/5/3 660/5/3 656/5/3
f 663/6/3 656/6/3 662/6/3
f 664/6/3 661/6/3 660/6/3
f 664/5/3 660/5/3 663/5/3
f 665/6/3 659/6/3 661/6/3
f 665/6/3 661/6/3 664/6/3
f 666/6/3 662/6/3 655/6/3
f 669/6/3 659/6/3 665/6/3
f 670/5/3 668/5/3 667/5/3
f 670/6/3 669/6/3 668/6/3
f 671/6/3 659/6/3 669/6/3
f 671/6/3 669/6/3 670/6/3
f 672/6/3 666/6/3 655/6/3
f 672/6/3 667/6/3 666/6/3
f 673/5/3 670/5/3 667/5/3
f 673/6/3 667/6/3 672/6/3
f 674/1/3 671/1/3 670/1/3
f 674/5/3 670/5/3 673/5/3
f 675/6/3 659/6/3 671/6/3
f 675/1/3 671/1/3 674/1/3
f 676/6/3 659/6/3 675/6/3
f 681/9/3 678/9/3 677/9/3
f 681/9/3 680/9/3 679/9/3
f 681/9/3 679/9/3 678/9/3
f 682/9/3 680/9/3 681/9/3
f 683/9/3 680/9/3 682/9/3
f 684/9/3 680/9/3 683/9/3
f 689/6/3 686/6/3 685/6/3
f 690/6/3 686/6/3 689/6/3
f 691/6/3 688/6/3 687/6/3
f 692/6/3 688/6/3 691/6/3
f 695/7/3 694/7/3 693/7/3
f 696/7/3 694/7/3 695/7/3
f 701/6/3 698/6/3 697/6/3
f 702/6/3 698/6/3 701/6/3
f 703/7/3 700/7/3 699/7/3
f 704/7/3 700/7/3 703/7/3
f 709/8/3 708/8/3 707/8/3
f 710/8/3 708/8/3 709/8/3
f 711/7/3 706/7/3 705/7/3
f 712/7/3 706/7/3 711/7/3
f 715/6/3 714/6/3 713/6/3
f 716/6/3 714/6/3 715/6/3
f 717/12/3 716/12/3 715/12/3
f 718/6/3 714/6/3 716/6/3
f 718/12/3 716/12/3 717/12/3
f 723/6/3 718/6/3 717/6/3
f 724/6/3 714/6/3 718/6/3
f 724/6/3 718/6/3 723/6/3
f 725/8/3 720/8/3 719/8/3
f 726/8/3 720/8/3 725/8/3
f 727/7/3 722/7/3 721/7/3
f 728/7/3 722/7/3 727/7/3
f 733/8/3 730/8/3 729/8/3
f 734/8/3 730/8/3 733/8/3
f 736/6/3 732/6/3 731/6/3
f 737/6/3 732/6/3 736/6/3
f 740/8/3 735/8/3 734/8/3
f 741/8/3 735/8/3 740/8/3
f 745/8/3 743/8/3 742/8/3
f 746/8/3 743/8/3 745/8/3
f 749/6/3 739/6/3 738/6/3
f 750/6/3 739/6/3 749/6/3
f 751/8/3 745/8/3 744/8/3
f 752/8/3 745/8/3 751/8/3
f 753/6/3 748/6/3 747/6/3
f 754/6/3 748/6/3 753/6/3
f 757/2/3 756/2/3 755/2/3
f 758/2/3 756/2/3 757/2/3
f 761/2/3 760/2/3 759/2/3
f 762/2/3 760/2/3 761/2/3
f 765/2/3 764/2/3 763/2/3
f 766/2/3 764/2/3 765/2/3
f 769/2/3 768/2/3 767/2/3
f 770/2/3 768/2/3 769/2/3
f 773/7/3 772/7/3 771/7/3
f 774/7/3 772/7/3 773/7/3
f 777/7/3 776/7/3 775/7/3
f 778/7/3 776/7/3 777/7/3
f 781/7/3 780/7/3 779/7/3
f 782/7/3 780/7/3 781/7/3
f 785/7/3 784/7/3 783/7/3
f 786/7/3 784/7/3 785/7/3
f 789/7/3 788/7/3 787/7/3
f 790/7/3 788/7/3 789/7/3
f 793/7/3 792/7/3 791/7/3
f 794/7/3 792/7/3 793/7/3
f 797/3/3 796/3/3 795/3/3
f 798/3/3 796/3/3 797/3/3
f 801/3/3 800/3/3 799/3/3
f 802/3/3 800/3/3 801/3/3
f 805/3/3 804/3/3 803/3/3
f 806/3/3 804/3/3 805/3/3
f 809/3/3 808/3/3 807/3/3
f 810/3/3 808/3/3 809/3/3
f 815/6/3 812/6/3 811/6/3
f 816/5/3 813/5/3 812/5/3
f 816/6/3 812/6/3 815/6/3
f 817/6/3 814/6/3 813/6/3
f 817/5/3 813/5/3 816/5/3
f 818/6/3 814/6/3 817/6/3
f 819/6/3 814/6/3 818/6/3
f 820/6/3 814/6/3 819/6/3
f 821/6/3 819/6/3 818/6/3
f 822/6/3 814/6/3 820/6/3
f 823/6/3 821/6/3 818/6/3
f 823/6/3 822/6/3 821/6/3
f 824/6/3 814/6/3 822/6/3
f 824/6/3 822/6/3 823/6/3
f 825/6/3 823/6/3 818/6/3
f 826/6/3 814/6/3 824/6/3
f 827/6/3 825/6/3 818/6/3
f 827/6/3 826/6/3 825/6/3
f 828/6/3 814/6/3 826/6/3
f 828/6/3 826/6/3 827/6/3
f 829/6/3 827/6/3 818/6/3
f 830/6/3 814/6/3 828/6/3
f 831/6/3 829/6/3 818/6/3
f 831/6/3 830/6/3 829/6/3
f 832/6/3 814/6/3 830/6/3
f 832/6/3 830/6/3 831/6/3
f 836/6/3 831/6/3 818/6/3
f 837/6/3 831/6/3 836/6/3
f 838/6/3 814/6/3 832/6/3
f 839/6/3 834/6/3 833/6/3
f 840/5/3 835/5/3 834/5/3
f 840/6/3 834/6/3 839/6/3
f 841/6/3 837/6/3 836/6/3
f 841/5/3 835/5/3 840/5/3
f 841/6/3 838/6/3 837/6/3
f 841/6/3 836/6/3 835/6/3
f 842/6/3 814/6/3 838/6/3
f 842/6/3 838/6/3 841/6/3
f 845/3/3 844/3/3 843/3/3
f 846/3/3 844/3/3 845/3/3
f 849/3/3 848/3/3 847/3/3
f 850/3/3 848/3/3 849/3/3
f 853/9/3 852/9/3 851/9/3
f 854/9/3 852/9/3 853/9/3
f 857/9/3 856/9/3 855/9/3
f 858/9/3 856/9/3 857/9/3
f 863/7/3 860/7/3 859/7/3
f 864/7/3 860/7/3 863/7/3
f 865/9/3 862/9/3 861/9/3
f 866/9/3 862/9/3 865/9/3
f 871/7/3 868/7/3 867/7/3
f 872/7/3 868/7/3 871/7/3
f 873/9/3 870/9/3 869/9/3
f 874/9/3 870/9/3 873/9/3
f 879/7/3 876/7/3 875/7/3
f 880/7/3 876/7/3 879/7/3
f 881/8/3 878/8/3 877/8/3
f 882/8/3 878/8/3 881/8/3
f 885/8/3 884/8/3 883/8/3
f 886/8/3 884/8/3 885/8/3
f 889/7/3 888/7/3 887/7/3
f 890/7/3 888/7/3 889/7/3
f 893/8/3 892/8/3 891/8/3
f 894/8/3 892/8/3 893/8/3
f 896/8/3 895/8/3 894/8/3
f 897/8/3 895/8/3 896/8/3
f 901/8/3 899/8/3 898/8/3
f 902/8/3 899/8/3 901/8/3
f 903/8/3 901/8/3 900/8/3
f 904/8/3 901/8/3 903/8/3
f 907/3/3 906/3/3 905/3/3
f 908/3/3 906/3/3 907/3/3
f 911/3/3 910/3/3 909/3/3
f 912/3/3 910/3/3 911/3/3
f 915/7/3 914/7/3 913/7/3
f 916/7/3 914/7/3 915/7/3
f 919/7/3 918/7/3 917/7/3
f 920/7/3 918/7/3 919/7/3
f 923/7/3 922/7/3 921/7/3
f 924/7/3 922/7/3 923/7/3
f 927/6/3 926/6/3 925/6/3
f 928/6/3 926/6/3 927/6/3
f 929/7/3 928/7/3 927/7/3
f 930/7/3 928/7/3 929/7/3
f 931/6/3 930/6/3 929/6/3
f 932/6/3 930/6/3 931/6/3
f 933/6/3 931/6/3 929/6/3
f 934/6/3 931/6/3 933/6/3
f 935/12/3 932/12/3 931/12/3
f 935/6/3 931/6/3 934/6/3
f 936/6/3 930/6/3 932/6/3
f 936/12/3 932/12/3 935/12/3
f 937/6/3 933/6/3 929/6/3
f 938/11/3 934/11/3 933/11/3
f 938/6/3 933/6/3 937/6/3
f 939/6/3 935/6/3 934/6/3
f 939/11/3 934/11/3 938/11/3
f 939/6/3 936/6/3 935/6/3
f 940/7/3 928/7/3 930/7/3
f 940/6/3 936/6/3 939/6/3
f 940/6/3 930/6/3 936/6/3
f 941/7/3 939/7/3 938/7/3
f 941/7/3 938/7/3 937/7/3
f 941/7/3 940/7/3 939/7/3
f 942/7/3 940/7/3 941/7/3
f 943/7/3 940/7/3 942/7/3
f 944/7/3 928/7/3 940/7/3
f 944/7/3 940/7/3 943/7/3
f 945/11/3 943/11/3 942/11/3
f 945/6/3 942/6/3 941/6/3
f 946/6/3 944/6/3 943/6/3
f 946/11/3 943/11/3 945/11/3
f 947/6/3 944/6/3 946/6/3
f 948/6/3 944/6/3 947/6/3
f 949/6/3 946/6/3 945/6/3
f 949/6/3 947/6/3 946/6/3
f 949/12/3 948/12/3 947/12/3
f 950/6/3 944/6/3 948/6/3
f 950/12/3 948/12/3 949/12/3
f 951/6/3 945/6/3 941/6/3
f 951/6/3 949/6/3 945/6/3
f 951/6/3 950/6/3 949/6/3
f 952/7/3 928/7/3 944/7/3
f 952/6/3 950/6/3 951/6/3
f 952/6/3 944/6/3 950/6/3
f 953/7/3 952/7/3 951/7/3
f 954/6/3 926/6/3 928/6/3
f 954/7/3 952/7/3 953/7/3
f 954/7/3 928/7/3 952/7/3
f 955/6/3 954/6/3 953/6/3
f 956/6/3 926/6/3 954/6/3
f 956/6/3 954/6/3 955/6/3
f 959/7/3 958/7/3 957/7/3
f 960/7/3 958/7/3 959/7/3
f 961/7/4 962/7/4 964/7/4
f 964/7/4 962/7/4 965/7/4
f 963/10/4 964/10/4 966/10/4
f 964/10/4 965/10/4 966/10/4
f 966/10/4 965/10/4 967/10/4
f 967/10/4 965/10/4 968/10/4
f 967/7/4 968/7/4 969/7/4
f 969/7/4 968/7/4 970/7/4
f 971/7/4 972/7/4 973/7/4
f 973/7/4 972/7/4 974/7/4
f 975/7/4 976/7/4 977/7/4
f 977/7/4 976/7/4 978/7/4
f 979/7/4 980/7/4 981/7/4
f 981/7/4 980/7/4 982/7/4
f 983/7/4 984/7/4 985/7/4
f 985/7/4 984/7/4 986/7/4
f 987/7/4 988/7/4 989/7/4
f 989/7/4 988/7/4 990/7/4
f 991/7/4 992/7/4 993/7/4
f 993/7/4 992/7/4 994/7/4
f 995/6/4 996/6/4 997/6/4
f 997/6/4 996/6/4 998/6/4
f 999/6/4 1000/6/4 1001/6/4
f 1001/6/4 1000/6/4 1002/6/4
f 1003/8/4 1004/8/4 1005/8/4
f 1005/8/4 1004/8/4 1006/8/4
f 1006/8/4 1007/8/4 1008/8/4
f 1008/8/4 1007/8/4 1009/8/4
f 1010/2/4 1011/2/4 1012/2/4
f 1012/2/4 1011/2/4 1013/2/4
f 1014/2/4 1015/2/4 1016/2/4
f 1016/2/4 1015/2/4 1017/2/4
f 1018/2/4 1019/2/4 1020/2/4
f 1020/2/4 1019/2/4 1021/2/4
f 1022/2/4 1023/2/4 1026/2/4
f 1026/2/4 1023/2/4 1027/2/4
f 1024/8/4 1025/8/4 1029/8/4
f 1029/8/4 1025/8/4 1030/8/4
f 1028/8/4 1029/8/4 1031/8/4
f 1031/8/4 1029/8/4 1032/8/4
f 1035/8/4 1036/8/4 1037/8/4
f 1037/8/4 1036/8/4 1038/8/4
f 1033/7/4 1034/7/4 1039/7/4
f 1039/7/4 1034/7/4 1040/7/4
f 1041/8/4 1042/8/4 1045/8/4
f 1045/8/4 1042/8/4 1046/8/4
f 1043/7/4 1044/7/4 1047/7/4
f 1047/7/4 1044/7/4 1048/7/4
f 1049/7/4 1050/7/4 1051/7/4
f 1051/7/4 1050/7/4 1052/7/4
f 1053/7/4 1054/7/4 1055/7/4
f 1055/7/4 1054/7/4 1056/7/4
f 1057/6/4 1058/6/4 1059/6/4
f 1059/6/4 1058/6/4 1060/6/4
f 1061/6/4 1062/6/4 1063/6/4
f 1063/6/4 1062/6/4 1064/6/4
f 1065/3/4 1066/3/4 1067/3/4
f 1067/3/4 1066/3/4 1068/3/4
f 1069/3/4 1070/3/4 1071/3/4
f 1071/3/4 1070/3/4 1072/3/4
f 1073/9/4 1074/9/4 1075/9/4
f 1075/9/4 1074/9/4 1076/9/4
f 1077/9/4 1078/9/4 1079/9/4
f 1079/9/4 1078/9/4 1080/9/4
f 1081/7/4 1082/7/4 1083/7/4
f 1083/7/4 1082/7/4 1084/7/4
f 1085/7/4 1086/7/4 1087/7/4
f 1087/7/4 1086/7/4 1088/7/4
f 1089/7/4 1090/7/4 1093/7/4
f 1093/7/4 1090/7/4 1094/7/4
f 1091/9/4 1092/9/4 1095/9/4
f 1095/9/4 1092/9/4 1096/9/4
f 1097/7/4 1098/7/4 1101/7/4
f 1101/7/4 1098/7/4 1102/7/4
f 1099/9/4 1100/9/4 1103/9/4
f 1103/9/4 1100/9/4 1104/9/4
f 1105/3/4 1106/3/4 1109/3/4
f 1109/3/4 1106/3/4 1110/3/4
f 1107/8/4 1108/8/4 1111/8/4
f 1111/8/4 1108/8/4 1112/8/4
f 1112/8/4 1113/8/4 1114/8/4
f 1114/8/4 1113/8/4 1115/8/4
f 1116/8/4 1117/8/4 1119/8/4
f 1119/8/4 1117/8/4 1120/8/4
f 1118/8/4 1119/8/4 1121/8/4
f 1121/8/4 1119/8/4 1122/8/4
f 1123/3/4 1124/3/4 1125/3/4
f 1125/3/4 1124/3/4 1126/3/4
f 1127/7/4 1128/7/4 1131/7/4
f 1131/7/4 1128/7/4 1132/7/4
f 1129/8/4 1130/8/4 1135/8/4
f 1129/8/4 1135/8/4 1136/8/4
f 1136/8/4 1135/8/4 1137/8/4
f 1138/8/4 1139/8/4 1140/8/4
f 1138/8/4 1140/8/4 1141/8/4
f 1141/8/4 1140/8/4 1142/8/4
f 1133/6/4 1134/6/4 1145/6/4
f 1145/6/4 1134/6/4 1146/6/4
f 1143/7/4 1144/7/4 1147/7/4
f 1147/7/4 1144/7/4 1148/7/4
f 1149/7/4 1150/7/4 1151/7/4
f 1151/7/4 1150/7/4 1152/7/4
f 1152/6/4 1153/6/4 1156/6/4
f 1153/5/4 1154/5/4 1157/5/4
f 1156/6/4 1153/6/4 1157/6/4
f 1154/6/4 1155/6/4 1158/6/4
f 1157/5/4 1154/5/4 1158/5/4
f 1158/6/4 1155/6/4 1159/6/4
f 1159/6/4 1155/6/4 1160/6/4
f 1160/6/4 1155/6/4 1161/6/4
f 1161/6/4 1155/6/4 1162/6/4
f 1162/6/4 1155/6/4 1163/6/4
f 1159/6/4 1160/6/4 1167/6/4
f 1167/6/4 1160/6/4 1168/6/4
f 1161/6/4 1162/6/4 1169/6/4
f 1169/6/4 1162/6/4 1170/6/4
f 1165/5/4 1166/5/4 1171/5/4
f 1167/7/4 1168/7/4 1171/7/4
f 1169/7/4 1170/7/4 1171/7/4
f 1168/7/4 1169/7/4 1171/7/4
f 1166/7/4 1167/7/4 1171/7/4
f 1171/7/4 1170/7/4 1172/7/4
f 1170/6/4 1162/6/4 1173/6/4
f 1163/6/4 1155/6/4 1174/6/4
f 1171/6/4 1172/6/4 1175/6/4
f 1175/6/4 1172/6/4 1176/6/4
f 1170/6/4 1173/6/4 1177/6/4
f 1173/6/4 1174/6/4 1177/6/4
f 1174/6/4 1155/6/4 1178/6/4
f 1177/6/4 1174/6/4 1178/6/4
f 1171/6/4 1175/6/4 1179/6/4
f 1179/6/4 1175/6/4 1180/6/4
f 1175/12/4 1176/12/4 1181/12/4
f 1180/6/4 1175/6/4 1181/6/4
f 1176/6/4 1172/6/4 1182/6/4
f 1181/12/4 1176/12/4 1182/12/4
f 1170/6/4 1177/6/4 1183/6/4
f 1178/6/4 1155/6/4 1184/6/4
f 1165/5/4 1171/5/4 1185/5/4
f 1171/6/4 1179/6/4 1185/6/4
f 1179/11/4 1180/11/4 1186/11/4
f 1185/6/4 1179/6/4 1186/6/4
f 1180/6/4 1181/6/4 1187/6/4
f 1186/11/4 1180/11/4 1187/11/4
f 1181/6/4 1182/6/4 1187/6/4
f 1172/7/4 1170/7/4 1188/7/4
f 1187/6/4 1182/6/4 1188/6/4
f 1182/6/4 1172/6/4 1188/6/4
f 1183/6/4 1184/6/4 1189/6/4
f 1170/6/4 1183/6/4 1189/6/4
f 1184/6/4 1155/6/4 1190/6/4
f 1189/6/4 1184/6/4 1190/6/4
f 1186/7/4 1187/7/4 1191/7/4
f 1185/7/4 1186/7/4 1191/7/4
f 1165/5/4 1185/5/4 1191/5/4
f 1187/7/4 1188/7/4 1191/7/4
f 1191/7/4 1188/7/4 1192/7/4
f 1192/7/4 1188/7/4 1193/7/4
f 1188/7/4 1170/7/4 1194/7/4
f 1193/7/4 1188/7/4 1194/7/4
f 1170/6/4 1189/6/4 1195/6/4
f 1190/6/4 1155/6/4 1196/6/4
f 1192/11/4 1193/11/4 1197/11/4
f 1191/6/4 1192/6/4 1197/6/4
f 1193/6/4 1194/6/4 1198/6/4
f 1197/11/4 1193/11/4 1198/11/4
f 1198/6/4 1194/6/4 1199/6/4
f 1199/6/4 1194/6/4 1200/6/4
f 1170/6/4 1195/6/4 1201/6/4
f 1195/6/4 1196/6/4 1201/6/4
f 1196/6/4 1155/6/4 1202/6/4
f 1201/6/4 1196/6/4 1202/6/4
f 1199/12/4 1200/12/4 1203/12/4
f 1197/6/4 1198/6/4 1203/6/4
f 1198/6/4 1199/6/4 1203/6/4
f 1200/6/4 1194/6/4 1204/6/4
f 1203/12/4 1200/12/4 1204/12/4
f 1170/6/4 1201/6/4 1205/6/4
f 1202/6/4 1155/6/4 1206/6/4
f 1197/6/4 1203/6/4 1207/6/4
f 1165/5/4 1191/5/4 1207/5/4
f 1191/6/4 1197/6/4 1207/6/4
f 1203/6/4 1204/6/4 1207/6/4
f 1194/7/4 1170/7/4 1208/7/4
f 1207/6/4 1204/6/4 1208/6/4
f 1204/6/4 1194/6/4 1208/6/4
f 1205/6/4 1206/6/4 1209/6/4
f 1170/6/4 1205/6/4 1209/6/4
f 1206/6/4 1155/6/4 1210/6/4
f 1209/6/4 1206/6/4 1210/6/4
f 1164/6/4 1165/6/4 1211/6/4
f 1165/5/4 1207/5/4 1212/5/4
f 1211/6/4 1165/6/4 1212/6/4
f 1207/7/4 1208/7/4 1213/7/4
f 1212/5/4 1207/5/4 1213/5/4
f 1213/7/4 1208/7/4 1214/7/4
f 1214/7/4 1208/7/4 1215/7/4
f 1215/7/4 1208/7/4 1216/7/4
f 1208/7/4 1170/7/4 1217/7/4
f 1216/7/4 1208/7/4 1217/7/4
f 1170/6/4 1209/6/4 1217/6/4
f 1217/6/4 1209/6/4 1218/6/4
f 1216/6/4 1217/6/4 1218/6/4
f 1210/6/4 1155/6/4 1219/6/4
f 1214/6/4 1215/6/4 1223/6/4
f 1223/6/4 1215/6/4 1224/6/4
f 1216/6/4 1218/6/4 1225/6/4
f 1218/6/4 1219/6/4 1225/6/4
f 1220/6/4 1221/6/4 1227/6/4
f 1221/5/4 1222/5/4 1228/5/4
f 1227/6/4 1221/6/4 1228/6/4
f 1223/6/4 1224/6/4 1229/6/4
f 1228/5/4 1222/5/4 1229/5/4
f 1222/6/4 1223/6/4 1229/6/4
f 1224/6/4 1225/6/4 1229/6/4
f 1219/6/4 1155/6/4 1230/6/4
f 1229/6/4 1225/6/4 1230/6/4
f 1225/6/4 1219/6/4 1230/6/4
f 1226/7/4 1227/7/4 1231/7/4
f 1231/7/4 1227/7/4 1232/7/4
f 1233/9/4 1234/9/4 1235/9/4
f 1233/9/4 1235/9/4 1243/9/4
f 1235/8/4 1236/8/4 1243/8/4
f 1236/1/4 1237/1/4 1244/1/4
f 1243/8/4 1236/8/4 1244/8/4
f 1237/5/4 1238/5/4 1245/5/4
f 1244/1/4 1237/1/4 1245/1/4
f 1245/5/4 1238/5/4 1246/5/4
f 1239/1/4 1240/1/4 1247/1/4
f 1247/1/4 1240/1/4 1248/1/4
f 1241/3/4 1242/3/4 1249/3/4
f 1249/3/4 1242/3/4 1250/3/4
f 1251/9/4 1252/9/4 1253/9/4
f 1253/9/4 1252/9/4 1254/9/4
f 1255/1/4 1256/1/4 1257/1/4
f 1257/1/4 1256/1/4 1258/1/4
f 1259/9/4 1260/9/4 1261/9/4
f 1261/9/4 1260/9/4 1262/9/4
f 1233/9/4 1243/9/4 1265/9/4
f 1263/3/4 1264/3/4 1271/3/4
f 1271/3/4 1264/3/4 1272/3/4
f 1233/9/4 1265/9/4 1273/9/4
f 1265/8/4 1266/8/4 1273/8/4
f 1266/1/4 1267/1/4 1274/1/4
f 1273/8/4 1266/8/4 1274/8/4
f 1267/5/4 1268/5/4 1275/5/4
f 1274/1/4 1267/1/4 1275/1/4
f 1275/5/4 1268/5/4 1276/5/4
f 1269/1/4 1270/1/4 1277/1/4
f 1277/1/4 1270/1/4 1278/1/4
f 1233/9/4 1273/9/4 1279/9/4
f 1279/9/4 1273/9/4 1280/9/4
f 1281/9/4 1282/9/4 1283/9/4
f 1283/9/4 1282/9/4 1284/9/4
f 1285/9/4 1286/9/4 1287/9/4
f 1287/9/4 1286/9/4 1288/9/4
f 1293/8/5 1290/8/5 1289/8/5
f 1294/8/5 1290/8/5 1293/8/5
f 1295/8/5 1292/8/5 1291/8/5
f 1296/8/5 1292/8/5 1295/8/5
f 1301/8/5 1298/8/5 1297/8/5
f 1302/8/5 1298/8/5 1301/8/5
f 1303/8/5 1300/8/5 1299/8/5
f 1304/8/5 1300/8/5 1303/8/5
f 1308/10/5 1306/10/5 1305/10/5
f 1309/10/5 1306/10/5 1308/10/5
f 1311/10/5 1308/10/5 1307/10/5
f 1311/10/5 1310/10/5 1309/10/5
f 1311/10/5 1309/10/5 1308/10/5
f 1312/10/5 1310/10/5 1311/10/5
f 1317/8/5 1314/8/5 1313/8/5
f 1318/8/5 1314/8/5 1317/8/5
f 1321/8/5 1316/8/5 1315/8/5
f 1322/8/5 1316/8/5 1321/8/5
f 1324/8/5 1319/8/5 1318/8/5
f 1325/8/5 1319/8/5 1324/8/5
f 1326/8/5 1321/8/5 1320/8/5
f 1327/8/5 1321/8/5 1326/8/5
f 1329/8/5 1324/8/5 1323/8/5
f 1330/8/5 1324/8/5 1329/8/5
f 1331/8/5 1328/8/5 1327/8/5
f 1332/8/5 1328/8/5 1331/8/5
f 1337/8/5 1334/8/5 1333/8/5
f 1338/8/5 1334/8/5 1337/8/5
f 1341/8/5 1336/8/5 1335/8/5
f 1342/8/5 1336/8/5 1341/8/5
f 1344/8/5 1339/8/5 1338/8/5
f 1345/8/5 1339/8/5 1344/8/5
f 1346/8/5 1341/8/5 1340/8/5
f 1347/8/5 1341/8/5 1346/8/5
f 1349/8/5 1344/8/5 1343/8/5
f 1350/8/5 1344/8/5 1349/8/5
f 1351/8/5 1348/8/5 1347/8/5
f 1352/8/5 1348/8/5 1351/8/5
f 1357/7/5 1354/7/5 1353/7/5
f 1358/7/5 1354/7/5 1357/7/5
f 1359/7/5 1356/7/5 1355/7/5
f 1360/7/5 1356/7/5 1359/7/5
f 1361/7/5 1357/7/5 1353/7/5
f 1362/7/5 1356/7/5 1360/7/5
f 1363/7/5 1361/7/5 1353/7/5
f 1364/7/5 1361/7/5 1363/7/5
f 1365/6/5 1362/6/5 1361/6/5
f 1365/7/5 1361/7/5 1364/7/5
f 1366/6/5 1362/6/5 1365/6/5
f 1367/6/5 1362/6/5 1366/6/5
f 1368/7/5 1356/7/5 1362/7/5
f 1368/6/5 1362/6/5 1367/6/5
f 1369/7/5 1356/7/5 1368/7/5
f 1370/7/5 1356/7/5 1369/7/5
f 1371/8/5 1366/8/5 1365/8/5
f 1372/6/5 1367/6/5 1366/6/5
f 1372/8/5 1366/8/5 1371/8/5
f 1373/8/5 1368/8/5 1367/8/5
f 1373/6/5 1367/6/5 1372/6/5
f 1374/8/5 1368/8/5 1373/8/5
f 1376/6/5 1373/6/5 1372/6/5
f 1377/6/5 1373/6/5 1376/6/5
f 1381/8/5 1376/8/5 1375/8/5
f 1382/6/5 1377/6/5 1376/6/5
f 1382/8/5 1376/8/5 1381/8/5
f 1383/8/5 1378/8/5 1377/8/5
f 1383/6/5 1377/6/5 1382/6/5
f 1384/8/5 1378/8/5 1383/8/5
f 1388/7/5 1380/7/5 1379/7/5
f 1388/7/5 1381/7/5 1380/7/5
f 1389/7/5 1386/7/5 1385/7/5
f 1389/7/5 1385/7/5 1384/7/5
f 1391/7/5 1388/7/5 1387/7/5
f 1391/7/5 1381/7/5 1388/7/5
f 1392/6/5 1384/6/5 1383/6/5
f 1392/7/5 1381/7/5 1391/7/5
f 1392/6/5 1382/6/5 1381/6/5
f 1392/6/5 1383/6/5 1382/6/5
f 1393/7/5 1389/7/5 1384/7/5
f 1393/6/5 1384/6/5 1392/6/5
f 1393/7/5 1390/7/5 1389/7/5
f 1394/7/5 1390/7/5 1393/7/5
f 1395/7/5 1391/7/5 1387/7/5
f 1396/6/5 1392/6/5 1391/6/5
f 1396/7/5 1391/7/5 1395/7/5
f 1396/6/5 1393/6/5 1392/6/5
f 1396/6/5 1394/6/5 1393/6/5
f 1397/6/5 1394/6/5 1396/6/5
f 1398/6/5 1394/6/5 1397/6/5
f 1399/6/5 1394/6/5 1398/6/5
f 1400/6/5 1394/6/5 1399/6/5
f 1401/7/5 1390/7/5 1394/7/5
f 1401/6/5 1394/6/5 1400/6/5
f 1402/7/5 1390/7/5 1401/7/5
f 1403/8/5 1398/8/5 1397/8/5
f 1404/6/5 1399/6/5 1398/6/5
f 1404/8/5 1398/8/5 1403/8/5
f 1405/8/5 1400/8/5 1399/8/5
f 1405/6/5 1399/6/5 1404/6/5
f 1406/8/5 1400/8/5 1405/8/5
f 1408/6/5 1405/6/5 1404/6/5
f 1409/6/5 1405/6/5 1408/6/5
f 1414/8/5 1408/8/5 1407/8/5
f 1415/6/5 1409/6/5 1408/6/5
f 1415/8/5 1408/8/5 1414/8/5
f 1416/8/5 1410/8/5 1409/8/5
f 1416/6/5 1409/6/5 1415/6/5
f 1417/8/5 1410/8/5 1416/8/5
f 1421/7/5 1412/7/5 1411/7/5
f 1422/6/5 1413/6/5 1412/6/5
f 1422/7/5 1412/7/5 1421/7/5
f 1423/9/5 1417/9/5 1416/9/5
f 1423/6/5 1413/6/5 1422/6/5
f 1423/9/5 1414/9/5 1413/9/5
f 1423/9/5 1415/9/5 1414/9/5
f 1423/9/5 1418/9/5 1417/9/5
f 1423/9/5 1416/9/5 1415/9/5
f 1424/6/5 1419/6/5 1418/6/5
f 1424/9/5 1418/9/5 1423/9/5
f 1425/7/5 1420/7/5 1419/7/5
f 1425/6/5 1419/6/5 1424/6/5
f 1426/7/5 1420/7/5 1425/7/5
f 1427/9/5 1423/9/5 1422/9/5
f 1427/9/5 1425/9/5 1424/9/5
f 1427/9/5 1424/9/5 1423/9/5
f 1428/9/5 1425/9/5 1427/9/5
f 1433/6/5 1430/6/5 1429/6/5
f 1433/6/5 1432/6/5 1431/6/5
f 1433/6/5 1431/6/5 1430/6/5
f 1434/6/5 1432/6/5 1433/6/5
f 1439/7/5 1436/7/5 1435/7/5
f 1440/7/5 1436/7/5 1439/7/5
f 1441/7/5 1438/7/5 1437/7/5
f 1442/7/5 1438/7/5 1441/7/5
f 1447/7/5 1444/7/5 1443/7/5
f 1448/7/5 1444/7/5 1447/7/5
f 1449/7/5 1446/7/5 1445/7/5
f 1450/7/5 1446/7/5 1449/7/5
f 1455/7/5 1452/7/5 1451/7/5
f 1456/7/5 1452/7/5 1455/7/5
f 1457/7/5 1454/7/5 1453/7/5
f 1458/7/5 1454/7/5 1457/7/5
f 1463/7/5 1460/7/5 1459/7/5
f 1464/7/5 1460/7/5 1463/7/5
f 1465/7/5 1462/7/5 1461/7/5
f 1466/7/5 1462/7/5 1465/7/5
f 1471/7/5 1468/7/5 1467/7/5
f 1472/7/5 1468/7/5 1471/7/5
f 1473/7/5 1470/7/5 1469/7/5
f 1474/7/5 1470/7/5 1473/7/5
f 1479/7/5 1476/7/5 1475/7/5
f 1480/7/5 1476/7/5 1479/7/5
f 1481/7/5 1478/7/5 1477/7/5
f 1482/7/5 1478/7/5 1481/7/5
f 1485/6/5 1484/6/5 1483/6/5
f 1486/6/5 1484/6/5 1485/6/5
f 1491/6/5 1488/6/5 1487/6/5
f 1492/6/5 1488/6/5 1491/6/5
f 1493/6/5 1490/6/5 1489/6/5
f 1494/6/5 1490/6/5 1493/6/5
f 1499/1/5 1496/1/5 1495/1/5
f 1500/1/5 1496/1/5 1499/1/5
f 1501/1/5 1498/1/5 1497/1/5
f 1502/1/5 1498/1/5 1501/1/5
f 1511/3/5 1504/3/5 1503/3/5
f 1512/3/5 1504/3/5 1511/3/5
f 1513/3/5 1506/3/5 1505/3/5
f 1514/3/5 1506/3/5 1513/3/5
f 1515/3/5 1508/3/5 1507/3/5
f 1516/3/5 1508/3/5 1515/3/5
f 1517/3/5 1510/3/5 1509/3/5
f 1518/3/5 1510/3/5 1517/3/5
f 1523/3/5 1520/3/5 1519/3/5
f 1524/3/5 1520/3/5 1523/3/5
f 1525/3/5 1522/3/5 1521/3/5
f 1526/3/5 1522/3/5 1525/3/5
f 1531/9/5 1528/9/5 1527/9/5
f 1532/9/5 1528/9/5 1531/9/5
f 1533/9/5 1530/9/5 1529/9/5
f 1534/9/5 1530/9/5 1533/9/5
f 1539/9/5 1536/9/5 1535/9/5
f 1540/9/5 1536/9/5 1539/9/5
f 1541/9/5 1538/9/5 1537/9/5
f 1542/9/5 1538/9/5 1541/9/5
f 1547/3/5 1544/3/5 1543/3/5
f 1548/3/5 1544/3/5 1547/3/5
f 1549/3/5 1546/3/5 1545/3/5
f 1550/3/5 1546/3/5 1549/3/5
f 1561/3/5 1552/3/5 1551/3/5
f 1562/3/5 1552/3/5 1561/3/5
f 1563/9/5 1554/9/5 1553/9/5
f 1564/9/5 1554/9/5 1563/9/5
f 1565/1/5 1556/1/5 1555/1/5
f 1566/1/5 1556/1/5 1565/1/5
f 1567/9/5 1558/9/5 1557/9/5
f 1568/9/5 1558/9/5 1567/9/5
f 1569/3/5 1560/3/5 1559/3/5
f 1570/3/5 1560/3/5 1569/3/5
f 1573/6/5 1572/6/5 1571/6/5
f 1574/6/5 1572/6/5 1573/6/5
f 1575/10/6 1576/10/6 1577/10/6
f 1577/10/6 1576/10/6 1578/10/6
f 1579/7/6 1580/7/6 1583/7/6
f 1583/7/6 1580/7/6 1584/7/6
f 1581/7/6 1582/7/6 1585/7/6
f 1585/7/6 1582/7/6 1586/7/6
f 1587/7/6 1588/7/6 1593/7/6
f 1588/7/6 1589/7/6 1593/7/6
f 1593/7/6 1589/7/6 1594/7/6
f 1590/7/6 1591/7/6 1595/7/6
f 1591/7/6 1592/7/6 1595/7/6
f 1595/7/6 1592/7/6 1596/7/6
f 1587/7/6 1593/7/6 1597/7/6
f 1597/7/6 1593/7/6 1598/7/6
f 1596/7/6 1592/7/6 1599/7/6
f 1599/7/6 1592/7/6 1600/7/6
f 1601/9/6 1602/9/6 1603/9/6
f 1603/9/6 1602/9/6 1604/9/6
f 1605/7/6 1606/7/6 1607/7/6
f 1607/7/6 1606/7/6 1608/7/6
f 1605/7/6 1607/7/6 1609/7/6
f 1609/7/6 1607/7/6 1610/7/6
f 1608/7/6 1606/7/6 1611/7/6
f 1611/7/6 1606/7/6 1612/7/6
f 1613/9/6 1614/9/6 1615/9/6
f 1615/9/6 1614/9/6 1616/9/6
f 1617/6/6 1618/6/6 1619/6/6
f 1619/6/6 1618/6/6 1620/6/6
f 1621/7/6 1622/7/6 1625/7/6
f 1625/7/6 1622/7/6 1626/7/6
f 1623/7/6 1624/7/6 1627/7/6
f 1627/7/6 1624/7/6 1628/7/6
f 1629/7/6 1630/7/6 1633/7/6
f 1633/7/6 1630/7/6 1634/7/6
f 1631/7/6 1632/7/6 1635/7/6
f 1635/7/6 1632/7/6 1636/7/6
f 1637/7/6 1638/7/6 1641/7/6
f 1641/7/6 1638/7/6 1642/7/6
f 1639/7/6 1640/7/6 1643/7/6
f 1643/7/6 1640/7/6 1644/7/6
f 1645/7/6 1646/7/6 1649/7/6
f 1649/7/6 1646/7/6 1650/7/6
f 1647/7/6 1648/7/6 1655/7/6
f 1655/7/6 1648/7/6 1656/7/6
f 1650/9/6 1651/9/6 1657/9/6
f 1657/9/6 1651/9/6 1658/9/6
f 1652/9/6 1653/9/6 1659/9/6
f 1659/9/6 1653/9/6 1660/9/6
f 1654/9/6 1655/9/6 1661/9/6
f 1661/9/6 1655/9/6 1662/9/6
f 1663/7/6 1664/7/6 1667/7/6
f 1667/7/6 1664/7/6 1668/7/6
f 1665/7/6 1666/7/6 1669/7/6
f 1669/7/6 1666/7/6 1670/7/6
f 1671/7/6 1672/7/6 1675/7/6
f 1675/7/6 1672/7/6 1676/7/6
f 1673/7/6 1674/7/6 1677/7/6
f 1677/7/6 1674/7/6 1678/7/6
f 1679/6/6 1680/6/6 1681/6/6
f 1681/6/6 1680/6/6 1682/6/6
f 1682/6/6 1680/6/6 1683/6/6
f 1683/6/6 1680/6/6 1684/6/6
f 1684/6/6 1680/6/6 1685/6/6
f 1685/6/6 1680/6/6 1686/6/6
f 1686/6/6 1680/6/6 1687/6/6
f 1687/6/6 1680/6/6 1688/6/6
f 1689/5/6 1690/5/6 1693/5/6
f 1693/5/6 1690/5/6 1694/5/6
f 1691/5/6 1692/5/6 1695/5/6
f 1695/5/6 1692/5/6 1696/5/6
f 1697/6/6 1698/6/6 1699/6/6
f 1699/6/6 1698/6/6 1700/6/6
f 1701/6/6 1702/6/6 1703/6/6
f 1703/6/6 1702/6/6 1704/6/6
f 1705/6/6 1706/6/6 1707/6/6
f 1707/6/6 1706/6/6 1708/6/6
f 1708/6/6 1706/6/6 1709/6/6
f 1709/6/6 1706/6/6 1710/6/6
f 1711/6/6 1712/6/6 1715/6/6
f 1715/6/6 1712/6/6 1716/6/6
f 1713/6/6 1714/6/6 1717/6/6
f 1717/6/6 1714/6/6 1718/6/6
f 1719/1/6 1720/1/6 1723/1/6
f 1723/1/6 1720/1/6 1724/1/6
f 1721/1/6 1722/1/6 1725/1/6
f 1725/1/6 1722/1/6 1726/1/6
f 1727/6/6 1728/6/6 1729/6/6
f 1729/6/6 1728/6/6 1730/6/6
f 1731/6/6 1732/6/6 1733/6/6
f 1733/6/6 1732/6/6 1734/6/6
f 1735/6/6 1736/6/6 1737/6/6
f 1737/6/6 1736/6/6 1738/6/6
f 1738/6/6 1736/6/6 1739/6/6
f 1739/6/6 1736/6/6 1740/6/6
f 1740/6/6 1736/6/6 1741/6/6
f 1741/6/6 1736/6/6 1742/6/6
f 1742/6/6 1736/6/6 1743/6/6
f 1743/6/6 1736/6/6 1744/6/6
f 1735/6/6 1737/6/6 1745/6/6
f 1738/6/6 1739/6/6 1746/6/6
f 1746/6/6 1739/6/6 1747/6/6
f 1740/6/6 1741/6/6 1748/6/6
f 1748/6/6 1741/6/6 1749/6/6
f 1742/6/6 1743/6/6 1750/6/6
f 1750/6/6 1743/6/6 1751/6/6
f 1744/6/6 1736/6/6 1752/6/6
f 1750/6/6 1751/6/6 1753/6/6
f 1751/6/6 1752/6/6 1753/6/6
f 1748/6/6 1749/6/6 1753/6/6
f 1735/6/6 1745/6/6 1753/6/6
f 1749/6/6 1750/6/6 1753/6/6
f 1746/6/6 1747/6/6 1753/6/6
f 1747/6/6 1748/6/6 1753/6/6
f 1745/6/6 1746/6/6 1753/6/6
f 1752/6/6 1736/6/6 1754/6/6
f 1753/6/6 1752/6/6 1754/6/6
f 1755/2/6 1756/2/6 1763/2/6
f 1763/2/6 1756/2/6 1764/2/6
f 1757/2/6 1758/2/6 1765/2/6
f 1765/2/6 1758/2/6 1766/2/6
f 1759/2/6 1760/2/6 1767/2/6
f 1767/2/6 1760/2/6 1768/2/6
f 1761/2/6 1762/2/6 1769/2/6
f 1769/2/6 1762/2/6 1770/2/6
f 1771/3/6 1772/3/6 1779/3/6
f 1779/3/6 1772/3/6 1780/3/6
f 1773/3/6 1774/3/6 1781/3/6
f 1781/3/6 1774/3/6 1782/3/6
f 1775/3/6 1776/3/6 1783/3/6
f 1783/3/6 1776/3/6 1784/3/6
f 1777/3/6 1778/3/6 1785/3/6
f 1785/3/6 1778/3/6 1786/3/6
f 1787/3/6 1788/3/6 1791/3/6
f 1791/3/6 1788/3/6 1792/3/6
f 1789/3/6 1790/3/6 1793/3/6
f 1793/3/6 1790/3/6 1794/3/6
f 1795/9/6 1796/9/6 1799/9/6
f 1799/9/6 1796/9/6 1800/9/6
f 1797/9/6 1798/9/6 1801/9/6
f 1801/9/6 1798/9/6 1802/9/6
f 1803/9/6 1804/9/6 1807/9/6
f 1807/9/6 1804/9/6 1808/9/6
f 1805/9/6 1806/9/6 1809/9/6
f 1809/9/6 1806/9/6 1810/9/6
f 1811/3/6 1812/3/6 1815/3/6
f 1815/3/6 1812/3/6 1816/3/6
f 1813/3/6 1814/3/6 1817/3/6
f 1817/3/6 1814/3/6 1818/3/6
f 1819/3/6 1820/3/6 1829/3/6
f 1829/3/6 1820/3/6 1830/3/6
f 1821/9/6 1822/9/6 1831/9/6
f 1831/9/6 1822/9/6 1832/9/6
f 1823/1/6 1824/1/6 1833/1/6
f 1833/1/6 1824/1/6 1834/1/6
f 1825/9/6 1826/9/6 1835/9/6
f 1835/9/6 1826/9/6 1836/9/6
f 1827/3/6 1828/3/6 1837/3/6
f 1837/3/6 1828/3/6 1838/3/6
f 1839/6/6 1840/6/6 1841/6/6
f 1841/6/6 1840/6/6 1842/6/6
f 1843/6/6 1844/6/6 1845/6/6
f 1845/6/6 1844/6/6 1846/6/6
