# MagicaVoxel @ Ephtracy

# group
o body

# material
mtllib engineerMan_yedek-4-body.mtl
usemtl palette

# normals
vn -1 0 0
vn 1 0 0
vn 0 0 1
vn 0 0 -1
vn 0 -1 0
vn 0 1 0

# texcoords
vt 0.845703 0.5
vt 0.849609 0.5
vt 0.853516 0.5
vt 0.857422 0.5
vt 0.861328 0.5
vt 0.865234 0.5
vt 0.876953 0.5
vt 0.880859 0.5
vt 0.884766 0.5
vt 0.888672 0.5
vt 0.892578 0.5
vt 0.896484 0.5
vt 0.958984 0.5

# verts
v -2.23517e-08 3 0.6
v -2.23517e-08 3 0.5
v -2.23517e-08 3 0.4
v -2.23517e-08 3 0.3
v -2.23517e-08 3 -5.96046e-08
v -2.23517e-08 3.1 0.8
v -2.23517e-08 3.1 0.6
v -2.23517e-08 3.1 0.3
v -2.23517e-08 3.1 0.1
v -2.23517e-08 3.2 0.8
v -2.23517e-08 3.2 0.6
v -2.23517e-08 3.2 0.5
v -2.23517e-08 3.2 0.4
v -2.23517e-08 3.2 0.1
v -2.23517e-08 3.2 -5.96046e-08
v -2.23517e-08 3.3 0.8
v -2.23517e-08 3.3 0.6
v -2.23517e-08 3.3 0.5
v -2.23517e-08 3.3 0.4
v -2.23517e-08 3.3 -5.96046e-08
v -2.23517e-08 3.4 0.8
v -2.23517e-08 3.4 0.6
v -2.23517e-08 3.4 0.5
v -2.23517e-08 3.4 -5.96046e-08
v -2.23517e-08 3.5 0.6
v -2.23517e-08 3.5 0.5
v 0.1 3 0.8
v 0.1 3 0.6
v 0.1 3 0.5
v 0.1 3 0.4
v 0.1 3.1 0.8
v 0.1 3.1 0.6
v 0.1 3.1 0.5
v 0.1 3.1 0.4
v 0.1 3.2 0.5
v 0.1 3.2 0.4
v 0.1 3.4 0.8
v 0.1 3.4 0.7
v 0.1 3.4 0.6
v 0.1 3.4 0.5
v 0.1 3.4 0.1
v 0.1 3.4 -5.96046e-08
v 0.1 3.5 0.6
v 0.1 3.5 0.5
v 0.1 3.6 0.8
v 0.1 3.6 0.7
v 0.1 3.6 0.1
v 0.1 3.6 -5.96046e-08
v 0.1 3.8 0.8
v 0.1 3.8 0.7
v 0.1 3.8 0.1
v 0.1 3.8 -5.96046e-08
v 0.1 4 0.7
v 0.1 4 0.6
v 0.1 4 0.2
v 0.1 4 0.1
v 0.1 4.1 0.7
v 0.1 4.1 0.6
v 0.1 4.1 0.2
v 0.1 4.1 0.1
v 0.1 4.2 0.8
v 0.1 4.2 0.7
v 0.1 4.2 0.6
v 0.1 4.2 0.2
v 0.1 4.2 0.1
v 0.1 4.2 -5.96046e-08
v 0.6 3 0.6
v 0.6 3 0.5
v 0.6 3 0.4
v 0.6 3 -5.96046e-08
v 0.6 3.1 0.6
v 0.6 3.1 0.5
v 0.6 3.1 0.4
v 0.6 3.1 0.3
v 0.6 3.1 0.2
v 0.6 3.1 0.1
v 0.6 3.2 0.5
v 0.6 3.2 0.4
v 0.6 3.2 0.3
v 0.6 3.2 0.1
v 0.6 3.2 -5.96046e-08
v 0.6 3.4 0.8
v 0.6 3.4 0.7
v 0.6 3.4 0.6
v 0.6 3.4 0.5
v 0.6 3.4 0.4
v 0.6 3.4 0.3
v 0.6 3.4 0.1
v 0.6 3.4 -5.96046e-08
v 0.6 3.5 0.8
v 0.6 3.5 0.7
v 0.6 3.5 0.6
v 0.6 3.5 0.5
v 0.6 3.5 0.3
v 0.6 3.5 0.1
v 0.6 3.6 0.8
v 0.6 3.6 0.7
v 0.6 3.6 0.5
v 0.6 3.6 0.4
v 0.6 3.6 0.3
v 0.6 3.6 0.1
v 0.6 3.6 -5.96046e-08
v 0.6 3.7 0.3
v 0.6 3.7 0.2
v 0.6 3.8 0.8
v 0.6 3.8 0.7
v 0.6 3.8 0.5
v 0.6 3.8 0.4
v 0.6 3.8 0.3
v 0.6 3.8 0.2
v 0.6 3.8 0.1
v 0.6 3.8 -5.96046e-08
v 0.6 3.9 0.6
v 0.6 3.9 0.5
v 0.6 3.9 0.3
v 0.6 3.9 0.2
v 0.6 4 0.7
v 0.6 4 0.6
v 0.6 4 0.5
v 0.6 4 0.3
v 0.6 4 0.2
v 0.6 4 0.1
v 0.6 4.1 0.6
v 0.6 4.1 0.5
v 0.6 4.1 0.3
v 0.6 4.1 0.2
v 0.6 4.2 0.8
v 0.6 4.2 0.7
v 0.6 4.2 0.6
v 0.6 4.2 0.2
v 0.6 4.2 0.1
v 0.6 4.2 -5.96046e-08
v 0.7 3 0.8
v 0.7 3 0.6
v 0.7 3.1 0.7
v 0.7 3.1 0.6
v 0.7 3.1 0.5
v 0.7 3.1 0.3
v 0.7 3.1 0.2
v 0.7 3.1 0.1
v 0.7 3.2 0.5
v 0.7 3.2 0.3
v 0.7 3.2 0.1
v 0.7 3.2 -5.96046e-08
v 0.7 3.4 0.8
v 0.7 3.4 0.7
v 0.7 3.4 0.6
v 0.7 3.4 0.5
v 0.7 3.4 0.3
v 0.7 3.4 0.2
v 0.7 3.4 0.1
v 0.7 3.4 -5.96046e-08
v 0.7 3.5 0.8
v 0.7 3.5 0.7
v 0.7 3.5 0.6
v 0.7 3.5 0.5
v 0.7 3.5 0.3
v 0.7 3.5 0.1
v 0.7 3.6 0.8
v 0.7 3.6 0.5
v 0.7 3.7 0.3
v 0.7 3.7 0.2
v 0.7 3.8 0.3
v 0.7 3.8 0.2
v -2.23517e-08 3.1 0.8
v -2.23517e-08 3.2 0.8
v -2.23517e-08 3.3 0.8
v -2.23517e-08 3.4 0.8
v 0.1 3 0.8
v 0.1 3.1 0.8
v 0.1 3.2 0.8
v 0.1 3.3 0.8
v 0.1 3.4 0.8
v 0.1 3.6 0.8
v 0.1 3.8 0.8
v 0.1 4.2 0.8
v 0.6 3 0.8
v 0.6 3.2 0.8
v 0.6 3.4 0.8
v 0.6 3.5 0.8
v 0.6 3.6 0.8
v 0.6 3.8 0.8
v 0.6 4.2 0.8
v 0.7 3 0.8
v 0.7 3.4 0.8
v 0.7 3.5 0.8
v 0.7 3.6 0.8
v 0.6 3.4 0.7
v 0.6 3.5 0.7
v 0.7 3.4 0.7
v 0.7 3.5 0.7
v -2.23517e-08 3 0.6
v -2.23517e-08 3.1 0.6
v -2.23517e-08 3.4 0.6
v -2.23517e-08 3.5 0.6
v 0.1 3 0.6
v 0.1 3.1 0.6
v 0.1 3.4 0.6
v 0.1 3.5 0.6
v -2.23517e-08 3 0.4
v -2.23517e-08 3.2 0.4
v 0.1 3 0.4
v 0.1 3.1 0.4
v 0.1 3.2 0.4
v 0.6 3.1 0.3
v 0.6 3.2 0.3
v 0.6 3.4 0.3
v 0.6 3.5 0.3
v 0.6 3.7 0.3
v 0.6 3.8 0.3
v 0.7 3.1 0.3
v 0.7 3.2 0.3
v 0.7 3.4 0.3
v 0.7 3.5 0.3
v 0.7 3.7 0.3
v 0.7 3.8 0.3
v 0.6 3 0.6
v 0.6 3.1 0.6
v 0.6 3.4 0.6
v 0.6 3.5 0.6
v 0.7 3 0.6
v 0.7 3.1 0.6
v 0.7 3.4 0.6
v 0.7 3.5 0.6
v -2.23517e-08 3 0.5
v -2.23517e-08 3.2 0.5
v -2.23517e-08 3.4 0.5
v -2.23517e-08 3.5 0.5
v 0.1 3 0.5
v 0.1 3.1 0.5
v 0.1 3.2 0.5
v 0.1 3.4 0.5
v 0.1 3.5 0.5
v 0.6 3.1 0.5
v 0.6 3.2 0.5
v 0.6 3.5 0.5
v 0.6 3.6 0.5
v 0.7 3.1 0.5
v 0.7 3.2 0.5
v 0.7 3.5 0.5
v 0.7 3.6 0.5
v 0.6 3.7 0.2
v 0.6 3.8 0.2
v 0.7 3.7 0.2
v 0.7 3.8 0.2
v 0.6 3.1 0.1
v 0.6 3.2 0.1
v 0.6 3.4 0.1
v 0.6 3.5 0.1
v 0.7 3.1 0.1
v 0.7 3.2 0.1
v 0.7 3.4 0.1
v 0.7 3.5 0.1
v -2.23517e-08 3 -5.96046e-08
v -2.23517e-08 3.2 -5.96046e-08
v -2.23517e-08 3.3 -5.96046e-08
v -2.23517e-08 3.4 -5.96046e-08
v 0.1 3 -5.96046e-08
v 0.1 3.2 -5.96046e-08
v 0.1 3.3 -5.96046e-08
v 0.1 3.4 -5.96046e-08
v 0.1 3.6 -5.96046e-08
v 0.1 3.8 -5.96046e-08
v 0.1 4.2 -5.96046e-08
v 0.6 3 -5.96046e-08
v 0.6 3.2 -5.96046e-08
v 0.6 3.4 -5.96046e-08
v 0.6 3.6 -5.96046e-08
v 0.6 3.8 -5.96046e-08
v 0.6 4.2 -5.96046e-08
v 0.7 3.2 -5.96046e-08
v 0.7 3.4 -5.96046e-08
v 0.1 3 0.8
v 0.6 3 0.8
v 0.7 3 0.8
v -2.23517e-08 3 0.6
v 0.1 3 0.6
v 0.6 3 0.6
v 0.7 3 0.6
v -2.23517e-08 3 0.5
v 0.1 3 0.5
v 0.5 3 0.5
v 0.6 3 0.5
v -2.23517e-08 3 0.4
v 0.1 3 0.4
v 0.5 3 0.4
v 0.6 3 0.4
v -2.23517e-08 3 0.3
v 0.1 3 0.3
v -2.23517e-08 3 -5.96046e-08
v 0.1 3 -5.96046e-08
v 0.6 3 -5.96046e-08
v -2.23517e-08 3.1 0.8
v 0.1 3.1 0.8
v -2.23517e-08 3.1 0.6
v 0.1 3.1 0.6
v 0.6 3.1 0.6
v 0.7 3.1 0.6
v 0.6 3.1 0.5
v 0.7 3.1 0.5
v 0.6 3.1 0.3
v 0.7 3.1 0.3
v 0.6 3.1 0.2
v 0.7 3.1 0.2
v 0.6 3.1 0.1
v 0.7 3.1 0.1
v -2.23517e-08 3.2 0.5
v 0.1 3.2 0.5
v 0.6 3.2 0.5
v 0.7 3.2 0.5
v -2.23517e-08 3.2 0.4
v 0.1 3.2 0.4
v 0.6 3.2 0.4
v 0.6 3.2 0.3
v 0.7 3.2 0.3
v 0.6 3.2 0.1
v 0.7 3.2 0.1
v 0.6 3.2 -5.96046e-08
v 0.7 3.2 -5.96046e-08
v 0.6 3.5 0.8
v 0.7 3.5 0.8
v 0.6 3.5 0.7
v 0.7 3.5 0.7
v 0.6 3.5 0.6
v 0.7 3.5 0.6
v 0.6 3.5 0.5
v 0.7 3.5 0.5
v 0.6 3.7 0.3
v 0.7 3.7 0.3
v 0.6 3.7 0.2
v 0.7 3.7 0.2
v -2.23517e-08 3.4 0.8
v 0.1 3.4 0.8
v 0.6 3.4 0.8
v 0.7 3.4 0.8
v 0.1 3.4 0.7
v 0.6 3.4 0.7
v 0.7 3.4 0.7
v -2.23517e-08 3.4 0.6
v 0.1 3.4 0.6
v 0.6 3.4 0.6
v 0.7 3.4 0.6
v -2.23517e-08 3.4 0.5
v 0.1 3.4 0.5
v 0.6 3.4 0.5
v 0.7 3.4 0.5
v 0.6 3.4 0.4
v 0.6 3.4 0.3
v 0.7 3.4 0.3
v 0.1 3.4 0.1
v 0.6 3.4 0.1
v 0.7 3.4 0.1
v -2.23517e-08 3.4 -5.96046e-08
v 0.1 3.4 -5.96046e-08
v 0.6 3.4 -5.96046e-08
v 0.7 3.4 -5.96046e-08
v -2.23517e-08 3.5 0.6
v 0.1 3.5 0.6
v -2.23517e-08 3.5 0.5
v 0.1 3.5 0.5
v 0.6 3.5 0.3
v 0.7 3.5 0.3
v 0.6 3.5 0.1
v 0.7 3.5 0.1
v 0.6 3.6 0.8
v 0.7 3.6 0.8
v 0.6 3.6 0.7
v 0.6 3.6 0.5
v 0.7 3.6 0.5
v 0.6 3.8 0.3
v 0.7 3.8 0.3
v 0.6 3.8 0.2
v 0.7 3.8 0.2
v 0.1 4.2 0.8
v 0.6 4.2 0.8
v 0.1 4.2 0.7
v 0.2 4.2 0.7
v 0.5 4.2 0.7
v 0.6 4.2 0.7
v 0.1 4.2 0.6
v 0.2 4.2 0.6
v 0.5 4.2 0.6
v 0.6 4.2 0.6
v 0.1 4.2 0.2
v 0.2 4.2 0.2
v 0.5 4.2 0.2
v 0.6 4.2 0.2
v 0.1 4.2 0.1
v 0.2 4.2 0.1
v 0.5 4.2 0.1
v 0.6 4.2 0.1
v 0.1 4.2 -5.96046e-08
v 0.6 4.2 -5.96046e-08

# faces
f 7/3/1 2/3/1 1/3/1
f 8/2/1 5/2/1 4/2/1
f 8/1/1 4/1/1 3/1/1
f 9/2/1 5/2/1 8/2/1
f 10/2/1 7/2/1 6/2/1
f 11/3/1 2/3/1 7/3/1
f 11/2/1 7/2/1 10/2/1
f 12/3/1 2/3/1 11/3/1
f 13/1/1 8/1/1 3/1/1
f 13/1/1 9/1/1 8/1/1
f 14/2/1 5/2/1 9/2/1
f 14/1/1 9/1/1 13/1/1
f 15/2/1 5/2/1 14/2/1
f 16/1/1 11/1/1 10/1/1
f 17/3/1 12/3/1 11/3/1
f 17/1/1 11/1/1 16/1/1
f 18/4/1 13/4/1 12/4/1
f 18/3/1 12/3/1 17/3/1
f 19/1/1 14/1/1 13/1/1
f 19/4/1 13/4/1 18/4/1
f 19/1/1 15/1/1 14/1/1
f 20/1/1 15/1/1 19/1/1
f 21/4/1 17/4/1 16/4/1
f 22/5/1 18/5/1 17/5/1
f 22/4/1 17/4/1 21/4/1
f 23/4/1 19/4/1 18/4/1
f 23/5/1 18/5/1 22/5/1
f 23/4/1 20/4/1 19/4/1
f 24/4/1 20/4/1 23/4/1
f 25/5/1 23/5/1 22/5/1
f 26/5/1 23/5/1 25/5/1
f 31/7/1 28/7/1 27/7/1
f 32/7/1 28/7/1 31/7/1
f 33/7/1 30/7/1 29/7/1
f 34/7/1 30/7/1 33/7/1
f 35/9/1 34/9/1 33/9/1
f 36/9/1 34/9/1 35/9/1
f 43/9/1 39/9/1 38/9/1
f 44/9/1 41/9/1 40/9/1
f 45/7/1 38/7/1 37/7/1
f 46/9/1 44/9/1 43/9/1
f 46/7/1 38/7/1 45/7/1
f 46/9/1 43/9/1 38/9/1
f 47/7/1 42/7/1 41/7/1
f 47/9/1 44/9/1 46/9/1
f 47/9/1 41/9/1 44/9/1
f 48/7/1 42/7/1 47/7/1
f 49/11/1 46/11/1 45/11/1
f 50/10/1 47/10/1 46/10/1
f 50/11/1 46/11/1 49/11/1
f 51/11/1 48/11/1 47/11/1
f 51/10/1 47/10/1 50/10/1
f 52/11/1 48/11/1 51/11/1
f 53/7/1 50/7/1 49/7/1
f 53/9/1 51/9/1 50/9/1
f 54/9/1 51/9/1 53/9/1
f 55/9/1 51/9/1 54/9/1
f 56/7/1 52/7/1 51/7/1
f 56/9/1 51/9/1 55/9/1
f 57/7/1 53/7/1 49/7/1
f 57/7/1 54/7/1 53/7/1
f 58/8/1 55/8/1 54/8/1
f 58/7/1 54/7/1 57/7/1
f 59/7/1 56/7/1 55/7/1
f 59/8/1 55/8/1 58/8/1
f 60/7/1 52/7/1 56/7/1
f 60/7/1 56/7/1 59/7/1
f 61/7/1 57/7/1 49/7/1
f 62/8/1 58/8/1 57/8/1
f 62/7/1 57/7/1 61/7/1
f 63/13/1 59/13/1 58/13/1
f 63/8/1 58/8/1 62/8/1
f 64/8/1 60/8/1 59/8/1
f 64/13/1 59/13/1 63/13/1
f 65/7/1 52/7/1 60/7/1
f 65/8/1 60/8/1 64/8/1
f 66/7/1 52/7/1 65/7/1
f 67/7/2 68/7/2 71/7/2
f 68/8/2 69/8/2 72/8/2
f 71/7/2 68/7/2 72/7/2
f 69/7/2 70/7/2 73/7/2
f 72/8/2 69/8/2 73/8/2
f 73/7/2 70/7/2 74/7/2
f 74/7/2 70/7/2 75/7/2
f 75/7/2 70/7/2 76/7/2
f 72/8/2 73/8/2 77/8/2
f 73/9/2 74/9/2 78/9/2
f 77/8/2 73/8/2 78/8/2
f 78/9/2 74/9/2 79/9/2
f 76/7/2 70/7/2 80/7/2
f 80/7/2 70/7/2 81/7/2
f 82/7/2 83/7/2 90/7/2
f 90/7/2 83/7/2 91/7/2
f 84/9/2 85/9/2 92/9/2
f 85/9/2 86/9/2 92/9/2
f 92/9/2 86/9/2 93/9/2
f 86/8/2 87/8/2 94/8/2
f 88/7/2 89/7/2 95/7/2
f 93/9/2 86/9/2 98/9/2
f 86/8/2 94/8/2 99/8/2
f 98/9/2 86/9/2 99/9/2
f 94/9/2 95/9/2 100/9/2
f 99/8/2 94/8/2 100/8/2
f 95/7/2 89/7/2 101/7/2
f 100/9/2 95/9/2 101/9/2
f 101/7/2 89/7/2 102/7/2
f 99/8/2 100/8/2 103/8/2
f 100/10/2 101/10/2 103/10/2
f 103/10/2 101/10/2 104/10/2
f 96/11/2 97/11/2 105/11/2
f 97/10/2 98/10/2 106/10/2
f 105/11/2 97/11/2 106/11/2
f 98/10/2 99/10/2 106/10/2
f 106/10/2 99/10/2 107/10/2
f 99/8/2 103/8/2 108/8/2
f 107/10/2 99/10/2 108/10/2
f 108/8/2 103/8/2 109/8/2
f 104/10/2 101/10/2 110/10/2
f 101/11/2 102/11/2 111/11/2
f 110/10/2 101/10/2 111/10/2
f 111/11/2 102/11/2 112/11/2
f 106/9/2 107/9/2 113/9/2
f 108/8/2 109/8/2 114/8/2
f 113/9/2 107/9/2 114/9/2
f 107/8/2 108/8/2 114/8/2
f 109/9/2 110/9/2 115/9/2
f 114/8/2 109/8/2 115/8/2
f 110/9/2 111/9/2 115/9/2
f 115/9/2 111/9/2 116/9/2
f 106/9/2 113/9/2 117/9/2
f 105/7/2 106/7/2 117/7/2
f 113/8/2 114/8/2 118/8/2
f 117/9/2 113/9/2 118/9/2
f 114/13/2 115/13/2 119/13/2
f 118/8/2 114/8/2 119/8/2
f 115/8/2 116/8/2 120/8/2
f 119/13/2 115/13/2 120/13/2
f 116/9/2 111/9/2 121/9/2
f 120/8/2 116/8/2 121/8/2
f 111/7/2 112/7/2 122/7/2
f 121/9/2 111/9/2 122/9/2
f 118/13/2 119/13/2 123/13/2
f 117/8/2 118/8/2 123/8/2
f 119/12/2 120/12/2 124/12/2
f 123/13/2 119/13/2 124/13/2
f 120/13/2 121/13/2 125/13/2
f 124/12/2 120/12/2 125/12/2
f 121/8/2 122/8/2 126/8/2
f 125/13/2 121/13/2 126/13/2
f 105/7/2 117/7/2 127/7/2
f 117/8/2 123/8/2 128/8/2
f 127/7/2 117/7/2 128/7/2
f 123/12/2 124/12/2 129/12/2
f 128/8/2 123/8/2 129/8/2
f 124/12/2 125/12/2 129/12/2
f 125/12/2 126/12/2 129/12/2
f 126/8/2 122/8/2 130/8/2
f 129/12/2 126/12/2 130/12/2
f 122/7/2 112/7/2 131/7/2
f 130/8/2 122/8/2 131/8/2
f 131/7/2 112/7/2 132/7/2
f 133/1/2 134/1/2 135/1/2
f 135/1/2 134/1/2 136/1/2
f 136/2/2 137/2/2 141/2/2
f 138/1/2 139/1/2 142/1/2
f 139/2/2 140/2/2 143/2/2
f 133/1/2 135/1/2 145/1/2
f 135/6/2 136/6/2 146/6/2
f 145/1/2 135/1/2 146/1/2
f 136/2/2 141/2/2 147/2/2
f 146/6/2 136/6/2 147/6/2
f 141/4/2 142/4/2 148/4/2
f 147/2/2 141/2/2 148/2/2
f 142/1/2 139/1/2 149/1/2
f 148/4/2 142/4/2 149/4/2
f 139/2/2 143/2/2 150/2/2
f 149/1/2 139/1/2 150/1/2
f 143/4/2 144/4/2 151/4/2
f 150/2/2 143/2/2 151/2/2
f 151/4/2 144/4/2 152/4/2
f 146/6/2 147/6/2 154/6/2
f 154/6/2 147/6/2 155/6/2
f 149/1/2 150/1/2 157/1/2
f 150/1/2 151/1/2 157/1/2
f 157/1/2 151/1/2 158/1/2
f 155/3/2 156/3/2 159/3/2
f 154/3/2 155/3/2 159/3/2
f 153/3/2 154/3/2 159/3/2
f 159/3/2 156/3/2 160/3/2
f 161/13/2 162/13/2 163/13/2
f 163/13/2 162/13/2 164/13/2
f 170/2/3 166/2/3 165/2/3
f 171/1/3 167/1/3 166/1/3
f 171/2/3 166/2/3 170/2/3
f 172/4/3 168/4/3 167/4/3
f 172/1/3 167/1/3 171/1/3
f 173/4/3 168/4/3 172/4/3
f 177/7/3 171/7/3 170/7/3
f 177/7/3 170/7/3 169/7/3
f 178/11/3 172/11/3 171/11/3
f 178/7/3 171/7/3 177/7/3
f 178/11/3 173/11/3 172/11/3
f 179/7/3 174/7/3 173/7/3
f 179/11/3 173/11/3 178/11/3
f 180/7/3 174/7/3 179/7/3
f 181/11/3 175/11/3 174/11/3
f 181/7/3 174/7/3 180/7/3
f 182/7/3 176/7/3 175/7/3
f 182/11/3 175/11/3 181/11/3
f 183/7/3 176/7/3 182/7/3
f 184/1/3 178/1/3 177/1/3
f 184/1/3 179/1/3 178/1/3
f 185/1/3 179/1/3 184/1/3
f 186/3/3 181/3/3 180/3/3
f 187/3/3 181/3/3 186/3/3
f 190/6/3 189/6/3 188/6/3
f 191/6/3 189/6/3 190/6/3
f 196/3/3 193/3/3 192/3/3
f 197/3/3 193/3/3 196/3/3
f 198/5/3 195/5/3 194/5/3
f 199/5/3 195/5/3 198/5/3
f 202/1/3 201/1/3 200/1/3
f 203/1/3 201/1/3 202/1/3
f 204/1/3 201/1/3 203/1/3
f 211/1/3 206/1/3 205/1/3
f 212/1/3 206/1/3 211/1/3
f 213/1/3 208/1/3 207/1/3
f 214/1/3 208/1/3 213/1/3
f 215/13/3 210/13/3 209/13/3
f 216/13/3 210/13/3 215/13/3
f 217/1/4 218/1/4 221/1/4
f 221/1/4 218/1/4 222/1/4
f 219/6/4 220/6/4 223/6/4
f 223/6/4 220/6/4 224/6/4
f 225/3/4 226/3/4 229/3/4
f 229/3/4 226/3/4 230/3/4
f 230/3/4 226/3/4 231/3/4
f 227/5/4 228/5/4 232/5/4
f 232/5/4 228/5/4 233/5/4
f 234/2/4 235/2/4 238/2/4
f 238/2/4 235/2/4 239/2/4
f 236/3/4 237/3/4 240/3/4
f 240/3/4 237/3/4 241/3/4
f 242/13/4 243/13/4 244/13/4
f 244/13/4 243/13/4 245/13/4
f 246/2/4 247/2/4 250/2/4
f 250/2/4 247/2/4 251/2/4
f 248/1/4 249/1/4 252/1/4
f 252/1/4 249/1/4 253/1/4
f 254/2/4 255/2/4 258/2/4
f 255/1/4 256/1/4 259/1/4
f 258/2/4 255/2/4 259/2/4
f 256/4/4 257/4/4 260/4/4
f 259/1/4 256/1/4 260/1/4
f 260/4/4 257/4/4 261/4/4
f 258/7/4 259/7/4 265/7/4
f 259/11/4 260/11/4 266/11/4
f 265/7/4 259/7/4 266/7/4
f 260/11/4 261/11/4 266/11/4
f 261/7/4 262/7/4 267/7/4
f 266/11/4 261/11/4 267/11/4
f 262/11/4 263/11/4 268/11/4
f 267/7/4 262/7/4 268/7/4
f 263/7/4 264/7/4 269/7/4
f 268/11/4 263/11/4 269/11/4
f 269/7/4 264/7/4 270/7/4
f 266/4/4 267/4/4 271/4/4
f 271/4/4 267/4/4 272/4/4
f 277/7/5 274/7/5 273/7/5
f 278/1/5 275/1/5 274/1/5
f 278/7/5 274/7/5 277/7/5
f 279/1/5 275/1/5 278/1/5
f 280/3/5 277/3/5 276/3/5
f 281/7/5 278/7/5 277/7/5
f 281/3/5 277/3/5 280/3/5
f 282/7/5 278/7/5 281/7/5
f 283/7/5 278/7/5 282/7/5
f 285/7/5 282/7/5 281/7/5
f 286/8/5 283/8/5 282/8/5
f 286/7/5 282/7/5 285/7/5
f 287/8/5 283/8/5 286/8/5
f 288/1/5 285/1/5 284/1/5
f 289/7/5 286/7/5 285/7/5
f 289/1/5 285/1/5 288/1/5
f 289/7/5 287/7/5 286/7/5
f 290/2/5 289/2/5 288/2/5
f 291/7/5 287/7/5 289/7/5
f 291/2/5 289/2/5 290/2/5
f 292/7/5 287/7/5 291/7/5
f 295/2/5 294/2/5 293/2/5
f 296/2/5 294/2/5 295/2/5
f 299/2/5 298/2/5 297/2/5
f 300/2/5 298/2/5 299/2/5
f 303/1/5 302/1/5 301/1/5
f 304/1/5 302/1/5 303/1/5
f 305/2/5 304/2/5 303/2/5
f 306/2/5 304/2/5 305/2/5
f 311/4/5 308/4/5 307/4/5
f 312/4/5 308/4/5 311/4/5
f 313/4/5 310/4/5 309/4/5
f 314/4/5 310/4/5 313/4/5
f 315/4/5 310/4/5 314/4/5
f 318/4/5 317/4/5 316/4/5
f 319/4/5 317/4/5 318/4/5
f 322/3/5 321/3/5 320/3/5
f 323/3/5 321/3/5 322/3/5
f 326/3/5 325/3/5 324/3/5
f 327/3/5 325/3/5 326/3/5
f 330/13/5 329/13/5 328/13/5
f 331/13/5 329/13/5 330/13/5
f 332/4/6 333/4/6 336/4/6
f 334/1/6 335/1/6 337/1/6
f 337/1/6 335/1/6 338/1/6
f 332/4/6 336/4/6 339/4/6
f 339/4/6 336/4/6 340/4/6
f 341/2/6 342/2/6 345/2/6
f 345/2/6 342/2/6 346/2/6
f 345/4/6 346/4/6 347/4/6
f 347/4/6 346/4/6 348/4/6
f 348/4/6 346/4/6 349/4/6
f 343/4/6 344/4/6 350/4/6
f 343/4/6 350/4/6 353/4/6
f 353/4/6 350/4/6 354/4/6
f 351/4/6 352/4/6 355/4/6
f 355/4/6 352/4/6 356/4/6
f 357/5/6 358/5/6 359/5/6
f 359/5/6 358/5/6 360/5/6
f 361/1/6 362/1/6 363/1/6
f 363/1/6 362/1/6 364/1/6
f 365/3/6 366/3/6 367/3/6
f 367/3/6 366/3/6 368/3/6
f 368/3/6 366/3/6 369/3/6
f 370/13/6 371/13/6 372/13/6
f 372/13/6 371/13/6 373/13/6
f 374/7/6 375/7/6 376/7/6
f 376/7/6 375/7/6 377/7/6
f 377/7/6 375/7/6 378/7/6
f 378/7/6 375/7/6 379/7/6
f 376/8/6 377/8/6 380/8/6
f 377/7/6 378/7/6 381/7/6
f 380/8/6 377/8/6 381/8/6
f 378/8/6 379/8/6 382/8/6
f 381/7/6 378/7/6 382/7/6
f 382/8/6 379/8/6 383/8/6
f 380/13/6 381/13/6 384/13/6
f 381/7/6 382/7/6 385/7/6
f 384/13/6 381/13/6 385/13/6
f 382/12/6 383/12/6 386/12/6
f 385/7/6 382/7/6 386/7/6
f 386/12/6 383/12/6 387/12/6
f 384/8/6 385/8/6 388/8/6
f 385/7/6 386/7/6 389/7/6
f 388/8/6 385/8/6 389/8/6
f 386/8/6 387/8/6 390/8/6
f 389/7/6 386/7/6 390/7/6
f 390/8/6 387/8/6 391/8/6
f 388/7/6 389/7/6 392/7/6
f 389/7/6 390/7/6 392/7/6
f 390/7/6 391/7/6 392/7/6
f 392/7/6 391/7/6 393/7/6
