# MagicaVoxel @ Ephtracy

# group
o head

# material
mtllib engineerMan_yedek-0-head.mtl
usemtl palette

# normals
vn 1 0 0
vn -1 0 0
vn 0 0 -1
vn 0 0 1
vn 0 -1 0
vn 0 1 0

# texcoords
vt 0.751953 0.5
vt 0.755859 0.5
vt 0.759766 0.5
vt 0.763672 0.5
vt 0.767578 0.5
vt 0.771484 0.5
vt 0.783203 0.5
vt 0.787109 0.5
vt 0.791016 0.5
vt 0.794922 0.5
vt 0.798828 0.5
vt 0.802734 0.5
vt 0.806641 0.5
vt 0.810547 0.5
vt 0.818359 0.5
vt 0.822266 0.5

# verts
v 0.8 4.4 -2.23517e-08
v 0.8 4.4 0.1
v 0.8 4.4 0.3
v 0.8 4.4 0.4
v 0.8 4.4 0.7
v 0.8 4.4 0.8
v 0.8 4.5 -2.23517e-08
v 0.8 4.5 0.1
v 0.8 4.5 0.2
v 0.8 4.5 0.3
v 0.8 4.5 0.4
v 0.8 4.5 0.5
v 0.8 4.5 0.6
v 0.8 4.5 0.7
v 0.8 4.6 0.2
v 0.8 4.6 0.3
v 0.8 4.6 0.5
v 0.8 4.6 0.6
v 0.8 4.7 -2.23517e-08
v 0.8 4.7 0.1
v 0.8 4.7 0.2
v 0.8 4.7 0.3
v 0.8 4.7 0.4
v 0.8 4.7 0.5
v 0.8 4.7 0.6
v 0.8 4.7 0.7
v 0.8 4.7 0.8
v 0.8 4.8 -2.23517e-08
v 0.8 4.8 0.2
v 0.8 4.8 0.3
v 0.8 4.8 0.4
v 0.8 4.8 0.5
v 0.8 4.8 0.6
v 0.8 4.8 0.8
v 0.8 4.9 0.2
v 0.8 4.9 0.3
v 0.8 4.9 0.4
v 0.8 4.9 0.5
v 0.8 4.9 0.6
v 0.8 5 0.3
v 0.8 5 0.5
v 0.7 4.2 -2.23517e-08
v 0.7 4.2 0.8
v 0.7 4.3 -2.23517e-08
v 0.7 4.3 0.1
v 0.7 4.3 0.2
v 0.7 4.3 0.3
v 0.7 4.3 0.5
v 0.7 4.3 0.6
v 0.7 4.3 0.7
v 0.7 4.3 0.8
v 0.7 4.4 -2.23517e-08
v 0.7 4.4 0.1
v 0.7 4.4 0.2
v 0.7 4.4 0.3
v 0.7 4.4 0.4
v 0.7 4.4 0.5
v 0.7 4.4 0.6
v 0.7 4.4 0.7
v 0.7 4.4 0.8
v 0.7 4.5 0.1
v 0.7 4.5 0.2
v 0.7 4.5 0.3
v 0.7 4.5 0.4
v 0.7 4.5 0.5
v 0.7 4.5 0.6
v 0.7 4.5 0.7
v 0.7 4.6 0.2
v 0.7 4.6 0.3
v 0.7 4.6 0.5
v 0.7 4.6 0.6
v 0.7 4.8 -2.23517e-08
v 0.7 4.8 0.2
v 0.7 4.8 0.6
v 0.7 4.8 0.8
v 0.7 4.9 0.1
v 0.7 4.9 0.2
v 0.7 4.9 0.3
v 0.7 4.9 0.5
v 0.7 4.9 0.6
v 0.7 4.9 0.7
v 0.7 5 -2.23517e-08
v 0.7 5 0.1
v 0.7 5 0.2
v 0.7 5 0.3
v 0.7 5 0.5
v 0.7 5 0.6
v 0.7 5 0.7
v 0.7 5 0.8
v -0.1 4.2 -2.23517e-08
v -0.1 4.2 0.1
v -0.1 4.2 0.2
v -0.1 4.2 0.3
v -0.1 4.2 0.5
v -0.1 4.2 0.6
v -0.1 4.2 0.7
v -0.1 4.2 0.8
v -0.1 4.3 0.1
v -0.1 4.3 0.2
v -0.1 4.3 0.4
v -0.1 4.3 0.5
v -0.1 4.3 0.6
v -0.1 4.3 0.7
v -0.1 4.4 0.3
v -0.1 4.4 0.4
v -0.1 4.6 0.1
v -0.1 4.6 0.2
v -0.1 4.6 0.6
v -0.1 4.6 0.7
v -0.1 4.7 -2.23517e-08
v -0.1 4.7 0.1
v -0.1 4.7 0.2
v -0.1 4.7 0.3
v -0.1 4.7 0.4
v -0.1 4.7 0.5
v -0.1 4.7 0.6
v -0.1 4.7 0.7
v -0.1 4.7 0.8
v -0.1 4.8 -2.23517e-08
v -0.1 4.8 0.3
v -0.1 4.8 0.5
v -0.1 4.8 0.8
v -0.1 4.9 0.1
v -0.1 4.9 0.2
v -0.1 4.9 0.6
v -0.1 4.9 0.7
v -0.1 5 -2.23517e-08
v -0.1 5 0.1
v -0.1 5 0.2
v -0.1 5 0.3
v -0.1 5 0.5
v -0.1 5 0.6
v -0.1 5 0.7
v -0.1 5 0.8
v -0.2 4.7 -2.23517e-08
v -0.2 4.7 0.8
v -0.2 4.8 -2.23517e-08
v -0.2 4.8 0.3
v -0.2 4.8 0.5
v -0.2 4.8 0.8
v -0.2 5 0.3
v -0.2 5 0.5
v 0.8 4.4 -2.23517e-08
v 0.8 4.5 -2.23517e-08
v 0.8 4.7 -2.23517e-08
v 0.8 4.8 -2.23517e-08
v 0.7 4.2 -2.23517e-08
v 0.7 4.3 -2.23517e-08
v 0.7 4.4 -2.23517e-08
v 0.7 4.5 -2.23517e-08
v 0.7 4.7 -2.23517e-08
v 0.7 4.8 -2.23517e-08
v 0.7 5 -2.23517e-08
v 0.6 4.3 -2.23517e-08
v 0.6 4.4 -2.23517e-08
v 0.6 4.6 -2.23517e-08
v 0.6 4.8 -2.23517e-08
v 0.5 4.2 -2.23517e-08
v 0.5 4.3 -2.23517e-08
v 0.5 4.4 -2.23517e-08
v 0.5 4.6 -2.23517e-08
v 0.5 4.8 -2.23517e-08
v 0.5 4.9 -2.23517e-08
v 0.5 5 -2.23517e-08
v 0.4 4.3 -2.23517e-08
v 0.4 4.4 -2.23517e-08
v 0.4 4.7 -2.23517e-08
v 0.4 4.9 -2.23517e-08
v 0.4 5 -2.23517e-08
v 0.3 4.3 -2.23517e-08
v 0.3 4.4 -2.23517e-08
v 0.3 4.7 -2.23517e-08
v 0.3 4.8 -2.23517e-08
v 0.3 4.9 -2.23517e-08
v 0.3 5 -2.23517e-08
v 0.2 4.3 -2.23517e-08
v 0.2 4.4 -2.23517e-08
v 0.2 4.8 -2.23517e-08
v 0.2 4.9 -2.23517e-08
v 0.2 5 -2.23517e-08
v 0.1 4.2 -2.23517e-08
v 0.1 4.5 -2.23517e-08
v 0.1 4.8 -2.23517e-08
v 0.1 4.9 -2.23517e-08
v 0.1 5 -2.23517e-08
v -5.96046e-08 4.2 -2.23517e-08
v -5.96046e-08 4.5 -2.23517e-08
v -5.96046e-08 4.8 -2.23517e-08
v -5.96046e-08 4.9 -2.23517e-08
v -5.96046e-08 5 -2.23517e-08
v -0.1 4.2 -2.23517e-08
v -0.1 4.7 -2.23517e-08
v -0.1 4.8 -2.23517e-08
v -0.1 5 -2.23517e-08
v -0.2 4.7 -2.23517e-08
v -0.2 4.8 -2.23517e-08
v 0.8 4.8 0.2
v 0.8 4.9 0.2
v 0.7 4.8 0.2
v 0.7 4.9 0.2
v 0.8 4.4 0.3
v 0.8 4.5 0.3
v 0.8 4.6 0.3
v 0.8 4.9 0.3
v 0.8 5 0.3
v 0.7 4.4 0.3
v 0.7 4.5 0.3
v 0.7 4.6 0.3
v 0.7 4.9 0.3
v 0.7 5 0.3
v -0.1 4.8 0.3
v -0.1 5 0.3
v -0.2 4.8 0.3
v -0.2 5 0.3
v 0.8 4.5 0.6
v 0.8 4.6 0.6
v 0.7 4.5 0.6
v 0.7 4.6 0.6
v 0.8 4.4 0.7
v 0.8 4.5 0.7
v 0.7 4.4 0.7
v 0.7 4.5 0.7
v 0.8 4.4 0.1
v 0.8 4.5 0.1
v 0.7 4.4 0.1
v 0.7 4.5 0.1
v 0.8 4.5 0.2
v 0.8 4.6 0.2
v 0.7 4.5 0.2
v 0.7 4.6 0.2
v 0.8 4.4 0.4
v 0.8 4.5 0.4
v 0.7 4.4 0.4
v 0.7 4.5 0.4
v 0.8 4.5 0.5
v 0.8 4.6 0.5
v 0.8 4.9 0.5
v 0.8 5 0.5
v 0.7 4.5 0.5
v 0.7 4.6 0.5
v 0.7 4.9 0.5
v 0.7 5 0.5
v -0.1 4.8 0.5
v -0.1 5 0.5
v -0.2 4.8 0.5
v -0.2 5 0.5
v 0.8 4.8 0.6
v 0.8 4.9 0.6
v 0.7 4.8 0.6
v 0.7 4.9 0.6
v 0.8 4.4 0.8
v 0.8 4.7 0.8
v 0.8 4.8 0.8
v 0.7 4.2 0.8
v 0.7 4.3 0.8
v 0.7 4.4 0.8
v 0.7 4.7 0.8
v 0.7 4.8 0.8
v 0.7 5 0.8
v 0.6 4.3 0.8
v 0.6 4.4 0.8
v 0.6 4.6 0.8
v 0.6 4.7 0.8
v 0.6 4.8 0.8
v 0.6 4.9 0.8
v 0.6 5 0.8
v 0.5 4.2 0.8
v 0.5 4.3 0.8
v 0.5 4.4 0.8
v 0.5 4.6 0.8
v 0.5 4.7 0.8
v 0.5 4.8 0.8
v 0.5 4.9 0.8
v 0.5 5 0.8
v 0.4 4.3 0.8
v 0.4 4.4 0.8
v 0.4 4.7 0.8
v 0.4 4.8 0.8
v 0.3 4.3 0.8
v 0.3 4.4 0.8
v 0.3 4.7 0.8
v 0.3 4.8 0.8
v 0.3 4.9 0.8
v 0.3 5 0.8
v 0.2 4.3 0.8
v 0.2 4.7 0.8
v 0.2 4.9 0.8
v 0.2 5 0.8
v 0.1 4.2 0.8
v 0.1 4.3 0.8
v 0.1 4.7 0.8
v 0.1 4.8 0.8
v 0.1 4.9 0.8
v 0.1 5 0.8
v -5.96046e-08 4.2 0.8
v -5.96046e-08 4.3 0.8
v -5.96046e-08 4.7 0.8
v -5.96046e-08 4.8 0.8
v -5.96046e-08 4.9 0.8
v -5.96046e-08 5 0.8
v -0.1 4.2 0.8
v -0.1 4.7 0.8
v -0.1 4.8 0.8
v -0.1 5 0.8
v -0.2 4.7 0.8
v -0.2 4.8 0.8
v 0.7 4.2 -2.23517e-08
v 0.5 4.2 -2.23517e-08
v 0.1 4.2 -2.23517e-08
v -5.96046e-08 4.2 -2.23517e-08
v -0.1 4.2 -2.23517e-08
v 0.5 4.2 0.1
v 0.1 4.2 0.1
v -5.96046e-08 4.2 0.1
v -0.1 4.2 0.1
v -5.96046e-08 4.2 0.2
v -0.1 4.2 0.2
v -5.96046e-08 4.2 0.3
v -0.1 4.2 0.3
v -5.96046e-08 4.2 0.5
v -0.1 4.2 0.5
v -5.96046e-08 4.2 0.6
v -0.1 4.2 0.6
v 0.5 4.2 0.7
v 0.1 4.2 0.7
v -5.96046e-08 4.2 0.7
v -0.1 4.2 0.7
v 0.7 4.2 0.8
v 0.5 4.2 0.8
v 0.1 4.2 0.8
v -5.96046e-08 4.2 0.8
v -0.1 4.2 0.8
v 0.8 4.4 -2.23517e-08
v 0.7 4.4 -2.23517e-08
v 0.8 4.4 0.1
v 0.7 4.4 0.1
v 0.8 4.4 0.3
v 0.7 4.4 0.3
v 0.8 4.4 0.4
v 0.7 4.4 0.4
v 0.8 4.4 0.7
v 0.7 4.4 0.7
v 0.8 4.4 0.8
v 0.7 4.4 0.8
v 0.8 4.5 0.1
v 0.7 4.5 0.1
v 0.8 4.5 0.2
v 0.7 4.5 0.2
v 0.8 4.5 0.4
v 0.7 4.5 0.4
v 0.8 4.5 0.5
v 0.7 4.5 0.5
v 0.8 4.5 0.6
v 0.7 4.5 0.6
v 0.8 4.5 0.7
v 0.7 4.5 0.7
v 0.8 4.6 0.2
v 0.7 4.6 0.2
v 0.8 4.6 0.3
v 0.7 4.6 0.3
v 0.8 4.6 0.5
v 0.7 4.6 0.5
v 0.8 4.6 0.6
v 0.7 4.6 0.6
v -0.1 4.7 -2.23517e-08
v -0.2 4.7 -2.23517e-08
v -0.1 4.7 0.1
v -0.1 4.7 0.2
v -0.1 4.7 0.3
v -0.1 4.7 0.4
v -0.1 4.7 0.5
v -0.1 4.7 0.6
v -0.1 4.7 0.7
v -0.1 4.7 0.8
v -0.2 4.7 0.8
v 0.8 4.8 -2.23517e-08
v 0.7 4.8 -2.23517e-08
v -0.1 4.8 -2.23517e-08
v -0.2 4.8 -2.23517e-08
v 0.8 4.8 0.2
v 0.7 4.8 0.2
v -0.1 4.8 0.3
v -0.2 4.8 0.3
v -0.1 4.8 0.5
v -0.2 4.8 0.5
v 0.8 4.8 0.6
v 0.7 4.8 0.6
v 0.8 4.8 0.8
v 0.7 4.8 0.8
v -0.1 4.8 0.8
v -0.2 4.8 0.8
v 0.8 4.9 0.2
v 0.7 4.9 0.2
v 0.8 4.9 0.3
v 0.7 4.9 0.3
v 0.8 4.9 0.5
v 0.7 4.9 0.5
v 0.8 4.9 0.6
v 0.7 4.9 0.6
v 0.7 5 -2.23517e-08
v 0.5 5 -2.23517e-08
v 0.4 5 -2.23517e-08
v 0.3 5 -2.23517e-08
v 0.2 5 -2.23517e-08
v 0.1 5 -2.23517e-08
v -5.96046e-08 5 -2.23517e-08
v -0.1 5 -2.23517e-08
v 0.7 5 0.1
v 0.5 5 0.1
v 0.4 5 0.1
v 0.3 5 0.1
v 0.2 5 0.1
v 0.1 5 0.1
v -5.96046e-08 5 0.1
v -0.1 5 0.1
v 0.7 5 0.2
v -0.1 5 0.2
v 0.8 5 0.3
v 0.7 5 0.3
v -0.1 5 0.3
v -0.2 5 0.3
v 0.8 5 0.5
v 0.7 5 0.5
v -0.1 5 0.5
v -0.2 5 0.5
v 0.7 5 0.6
v -0.1 5 0.6
v 0.7 5 0.7
v 0.6 5 0.7
v 0.5 5 0.7
v 0.3 5 0.7
v 0.2 5 0.7
v 0.1 5 0.7
v -5.96046e-08 5 0.7
v -0.1 5 0.7
v 0.7 5 0.8
v 0.6 5 0.8
v 0.5 5 0.8
v 0.3 5 0.8
v 0.2 5 0.8
v 0.1 5 0.8
v -5.96046e-08 5 0.8
v -0.1 5 0.8

# faces
f 7/8/1 2/8/1 1/8/1
f 8/8/1 2/8/1 7/8/1
f 10/4/1 4/4/1 3/4/1
f 11/4/1 4/4/1 10/4/1
f 14/3/1 6/3/1 5/3/1
f 15/2/1 9/2/1 8/2/1
f 16/2/1 11/2/1 10/2/1
f 17/14/1 12/14/1 11/14/1
f 18/2/1 14/2/1 13/2/1
f 19/3/1 8/3/1 7/3/1
f 20/2/1 15/2/1 8/2/1
f 20/3/1 8/3/1 19/3/1
f 21/3/1 16/3/1 15/3/1
f 21/2/1 15/2/1 20/2/1
f 22/2/1 11/2/1 16/2/1
f 22/3/1 16/3/1 21/3/1
f 23/14/1 17/14/1 11/14/1
f 23/2/1 11/2/1 22/2/1
f 24/3/1 18/3/1 17/3/1
f 24/14/1 17/14/1 23/14/1
f 25/2/1 14/2/1 18/2/1
f 25/3/1 18/3/1 24/3/1
f 26/3/1 6/3/1 14/3/1
f 26/2/1 14/2/1 25/2/1
f 27/3/1 6/3/1 26/3/1
f 28/15/1 20/15/1 19/15/1
f 28/15/1 22/15/1 21/15/1
f 28/15/1 27/15/1 26/15/1
f 28/15/1 26/15/1 25/15/1
f 28/15/1 24/15/1 23/15/1
f 28/15/1 23/15/1 22/15/1
f 28/15/1 21/15/1 20/15/1
f 28/15/1 25/15/1 24/15/1
f 29/15/1 27/15/1 28/15/1
f 30/15/1 27/15/1 29/15/1
f 31/15/1 27/15/1 30/15/1
f 32/15/1 27/15/1 31/15/1
f 33/15/1 27/15/1 32/15/1
f 34/15/1 27/15/1 33/15/1
f 35/15/1 30/15/1 29/15/1
f 36/6/1 31/6/1 30/6/1
f 36/15/1 30/15/1 35/15/1
f 37/5/1 32/5/1 31/5/1
f 37/6/1 31/6/1 36/6/1
f 38/15/1 33/15/1 32/15/1
f 38/5/1 32/5/1 37/5/1
f 39/15/1 33/15/1 38/15/1
f 40/15/1 37/15/1 36/15/1
f 40/15/1 38/15/1 37/15/1
f 41/15/1 38/15/1 40/15/1
f 44/7/1 43/7/1 42/7/1
f 45/7/1 43/7/1 44/7/1
f 46/7/1 43/7/1 45/7/1
f 47/7/1 43/7/1 46/7/1
f 48/7/1 43/7/1 47/7/1
f 49/7/1 43/7/1 48/7/1
f 50/7/1 43/7/1 49/7/1
f 51/7/1 43/7/1 50/7/1
f 52/8/1 45/8/1 44/8/1
f 53/12/1 46/12/1 45/12/1
f 53/8/1 45/8/1 52/8/1
f 54/11/1 47/11/1 46/11/1
f 54/12/1 46/12/1 53/12/1
f 55/7/1 48/7/1 47/7/1
f 55/11/1 47/11/1 54/11/1
f 56/7/1 48/7/1 55/7/1
f 57/11/1 49/11/1 48/11/1
f 57/7/1 48/7/1 56/7/1
f 58/12/1 50/12/1 49/12/1
f 58/11/1 49/11/1 57/11/1
f 59/8/1 51/8/1 50/8/1
f 59/12/1 50/12/1 58/12/1
f 60/8/1 51/8/1 59/8/1
f 61/13/1 54/13/1 53/13/1
f 62/10/1 55/10/1 54/10/1
f 62/13/1 54/13/1 61/13/1
f 63/10/1 55/10/1 62/10/1
f 64/7/1 57/7/1 56/7/1
f 65/10/1 58/10/1 57/10/1
f 65/7/1 57/7/1 64/7/1
f 66/13/1 59/13/1 58/13/1
f 66/10/1 58/10/1 65/10/1
f 67/13/1 59/13/1 66/13/1
f 68/9/1 63/9/1 62/9/1
f 69/9/1 63/9/1 68/9/1
f 70/9/1 66/9/1 65/9/1
f 71/9/1 66/9/1 70/9/1
f 76/15/1 73/15/1 72/15/1
f 77/15/1 73/15/1 76/15/1
f 80/15/1 75/15/1 74/15/1
f 81/15/1 75/15/1 80/15/1
f 82/15/1 76/15/1 72/15/1
f 83/16/1 77/16/1 76/16/1
f 83/15/1 76/15/1 82/15/1
f 84/15/1 78/15/1 77/15/1
f 84/16/1 77/16/1 83/16/1
f 85/15/1 78/15/1 84/15/1
f 86/15/1 80/15/1 79/15/1
f 87/16/1 81/16/1 80/16/1
f 87/15/1 80/15/1 86/15/1
f 88/15/1 75/15/1 81/15/1
f 88/16/1 81/16/1 87/16/1
f 89/15/1 75/15/1 88/15/1
f 90/8/2 91/8/2 98/8/2
f 91/14/2 92/14/2 98/14/2
f 92/8/2 93/8/2 99/8/2
f 98/14/2 92/14/2 99/14/2
f 93/14/2 94/14/2 100/14/2
f 94/8/2 95/8/2 101/8/2
f 100/14/2 94/14/2 101/14/2
f 95/14/2 96/14/2 102/14/2
f 101/8/2 95/8/2 102/8/2
f 96/8/2 97/8/2 103/8/2
f 102/14/2 96/14/2 103/14/2
f 99/8/2 93/8/2 104/8/2
f 93/14/2 100/14/2 104/14/2
f 100/1/2 101/1/2 105/1/2
f 104/14/2 100/14/2 105/14/2
f 90/8/2 98/8/2 106/8/2
f 98/2/2 99/2/2 106/2/2
f 99/8/2 104/8/2 107/8/2
f 106/2/2 99/2/2 107/2/2
f 101/8/2 102/8/2 108/8/2
f 102/2/2 103/2/2 108/2/2
f 103/8/2 97/8/2 109/8/2
f 108/2/2 103/2/2 109/2/2
f 90/8/2 106/8/2 110/8/2
f 106/1/2 107/1/2 111/1/2
f 110/8/2 106/8/2 111/8/2
f 107/8/2 104/8/2 112/8/2
f 111/1/2 107/1/2 112/1/2
f 104/2/2 105/2/2 113/2/2
f 112/8/2 104/8/2 113/8/2
f 105/1/2 101/1/2 114/1/2
f 113/2/2 105/2/2 114/2/2
f 101/8/2 108/8/2 115/8/2
f 114/1/2 101/1/2 115/1/2
f 108/1/2 109/1/2 116/1/2
f 115/8/2 108/8/2 116/8/2
f 109/8/2 97/8/2 117/8/2
f 116/1/2 109/1/2 117/1/2
f 117/8/2 97/8/2 118/8/2
f 119/15/2 120/15/2 123/15/2
f 123/15/2 120/15/2 124/15/2
f 121/15/2 122/15/2 125/15/2
f 125/15/2 122/15/2 126/15/2
f 119/15/2 123/15/2 127/15/2
f 123/16/2 124/16/2 128/16/2
f 127/15/2 123/15/2 128/15/2
f 124/15/2 120/15/2 129/15/2
f 128/16/2 124/16/2 129/16/2
f 129/15/2 120/15/2 130/15/2
f 121/15/2 125/15/2 131/15/2
f 125/16/2 126/16/2 132/16/2
f 131/15/2 125/15/2 132/15/2
f 126/15/2 122/15/2 133/15/2
f 132/16/2 126/16/2 133/16/2
f 133/15/2 122/15/2 134/15/2
f 135/15/2 136/15/2 137/15/2
f 137/15/2 136/15/2 138/15/2
f 138/15/2 136/15/2 139/15/2
f 139/15/2 136/15/2 140/15/2
f 138/15/2 139/15/2 141/15/2
f 141/15/2 139/15/2 142/15/2
f 149/8/3 144/8/3 143/8/3
f 150/3/3 145/3/3 144/3/3
f 150/8/3 144/8/3 149/8/3
f 151/15/3 146/15/3 145/15/3
f 151/3/3 145/3/3 150/3/3
f 152/15/3 146/15/3 151/15/3
f 154/7/3 148/7/3 147/7/3
f 154/8/3 149/8/3 148/8/3
f 154/8/3 152/8/3 151/8/3
f 154/8/3 151/8/3 150/8/3
f 154/8/3 150/8/3 149/8/3
f 155/8/3 152/8/3 154/8/3
f 156/8/3 152/8/3 155/8/3
f 157/15/3 153/15/3 152/15/3
f 157/8/3 152/8/3 156/8/3
f 158/7/3 154/7/3 147/7/3
f 158/7/3 155/7/3 154/7/3
f 159/7/3 155/7/3 158/7/3
f 160/2/3 156/2/3 155/2/3
f 160/7/3 155/7/3 159/7/3
f 161/1/3 157/1/3 156/1/3
f 161/2/3 156/2/3 160/2/3
f 162/15/3 153/15/3 157/15/3
f 162/1/3 157/1/3 161/1/3
f 163/15/3 153/15/3 162/15/3
f 164/15/3 153/15/3 163/15/3
f 165/8/3 159/8/3 158/8/3
f 165/7/3 160/7/3 159/7/3
f 166/8/3 161/8/3 160/8/3
f 166/7/3 160/7/3 165/7/3
f 166/8/3 162/8/3 161/8/3
f 167/8/3 162/8/3 166/8/3
f 168/16/3 164/16/3 163/16/3
f 168/15/3 163/15/3 162/15/3
f 169/16/3 164/16/3 168/16/3
f 170/8/3 165/8/3 158/8/3
f 170/14/3 167/14/3 166/14/3
f 170/14/3 166/14/3 165/14/3
f 171/14/3 167/14/3 170/14/3
f 172/8/3 162/8/3 167/8/3
f 172/14/3 167/14/3 171/14/3
f 173/15/3 169/15/3 168/15/3
f 173/8/3 162/8/3 172/8/3
f 173/15/3 168/15/3 162/15/3
f 174/15/3 169/15/3 173/15/3
f 175/15/3 169/15/3 174/15/3
f 176/2/3 171/2/3 170/2/3
f 176/8/3 170/8/3 158/8/3
f 177/1/3 172/1/3 171/1/3
f 177/2/3 171/2/3 176/2/3
f 177/1/3 173/1/3 172/1/3
f 178/15/3 174/15/3 173/15/3
f 178/1/3 173/1/3 177/1/3
f 179/16/3 175/16/3 174/16/3
f 179/15/3 174/15/3 178/15/3
f 180/16/3 175/16/3 179/16/3
f 181/8/3 176/8/3 158/8/3
f 181/8/3 178/8/3 177/8/3
f 181/8/3 177/8/3 176/8/3
f 182/8/3 178/8/3 181/8/3
f 183/15/3 180/15/3 179/15/3
f 183/8/3 178/8/3 182/8/3
f 183/15/3 179/15/3 178/15/3
f 184/15/3 180/15/3 183/15/3
f 185/15/3 180/15/3 184/15/3
f 186/14/3 182/14/3 181/14/3
f 187/1/3 183/1/3 182/1/3
f 187/14/3 182/14/3 186/14/3
f 188/15/3 184/15/3 183/15/3
f 188/1/3 183/1/3 187/1/3
f 189/16/3 185/16/3 184/16/3
f 189/15/3 184/15/3 188/15/3
f 190/16/3 185/16/3 189/16/3
f 191/8/3 187/8/3 186/8/3
f 191/8/3 188/8/3 187/8/3
f 192/8/3 188/8/3 191/8/3
f 193/15/3 190/15/3 189/15/3
f 193/8/3 188/8/3 192/8/3
f 193/15/3 189/15/3 188/15/3
f 194/15/3 190/15/3 193/15/3
f 195/15/3 193/15/3 192/15/3
f 196/15/3 193/15/3 195/15/3
f 199/15/3 198/15/3 197/15/3
f 200/15/3 198/15/3 199/15/3
f 206/4/3 202/4/3 201/4/3
f 207/2/3 203/2/3 202/2/3
f 207/4/3 202/4/3 206/4/3
f 208/2/3 203/2/3 207/2/3
f 209/15/3 205/15/3 204/15/3
f 210/15/3 205/15/3 209/15/3
f 213/15/3 212/15/3 211/15/3
f 214/15/3 212/15/3 213/15/3
f 217/2/3 216/2/3 215/2/3
f 218/2/3 216/2/3 217/2/3
f 221/3/3 220/3/3 219/3/3
f 222/3/3 220/3/3 221/3/3
f 223/8/4 224/8/4 225/8/4
f 225/8/4 224/8/4 226/8/4
f 227/2/4 228/2/4 229/2/4
f 229/2/4 228/2/4 230/2/4
f 231/4/4 232/4/4 233/4/4
f 233/4/4 232/4/4 234/4/4
f 235/14/4 236/14/4 239/14/4
f 239/14/4 236/14/4 240/14/4
f 237/15/4 238/15/4 241/15/4
f 241/15/4 238/15/4 242/15/4
f 243/15/4 244/15/4 245/15/4
f 245/15/4 244/15/4 246/15/4
f 247/15/4 248/15/4 249/15/4
f 249/15/4 248/15/4 250/15/4
f 251/3/4 252/3/4 256/3/4
f 252/15/4 253/15/4 257/15/4
f 256/3/4 252/3/4 257/3/4
f 257/15/4 253/15/4 258/15/4
f 254/7/4 255/7/4 260/7/4
f 255/8/4 256/8/4 260/8/4
f 257/8/4 258/8/4 260/8/4
f 256/8/4 257/8/4 260/8/4
f 260/8/4 258/8/4 261/8/4
f 261/8/4 258/8/4 262/8/4
f 262/8/4 258/8/4 263/8/4
f 258/15/4 259/15/4 264/15/4
f 263/8/4 258/8/4 264/8/4
f 264/15/4 259/15/4 265/15/4
f 265/15/4 259/15/4 266/15/4
f 254/7/4 260/7/4 267/7/4
f 260/7/4 261/7/4 267/7/4
f 267/7/4 261/7/4 268/7/4
f 261/2/4 262/2/4 269/2/4
f 268/7/4 261/7/4 269/7/4
f 262/7/4 263/7/4 270/7/4
f 269/2/4 262/2/4 270/2/4
f 263/14/4 264/14/4 271/14/4
f 270/7/4 263/7/4 271/7/4
f 264/15/4 265/15/4 272/15/4
f 271/14/4 264/14/4 272/14/4
f 265/16/4 266/16/4 273/16/4
f 272/15/4 265/15/4 273/15/4
f 273/16/4 266/16/4 274/16/4
f 268/7/4 269/7/4 275/7/4
f 267/8/4 268/8/4 275/8/4
f 271/8/4 272/8/4 276/8/4
f 275/7/4 269/7/4 276/7/4
f 269/8/4 270/8/4 276/8/4
f 270/8/4 271/8/4 276/8/4
f 276/8/4 272/8/4 277/8/4
f 273/15/4 274/15/4 278/15/4
f 277/8/4 272/8/4 278/8/4
f 272/15/4 273/15/4 278/15/4
f 267/8/4 275/8/4 279/8/4
f 275/2/4 276/2/4 279/2/4
f 276/1/4 277/1/4 280/1/4
f 279/2/4 276/2/4 280/2/4
f 277/14/4 278/14/4 281/14/4
f 280/1/4 277/1/4 281/1/4
f 278/15/4 274/15/4 282/15/4
f 281/14/4 278/14/4 282/14/4
f 282/15/4 274/15/4 283/15/4
f 283/15/4 274/15/4 284/15/4
f 280/14/4 281/14/4 285/14/4
f 267/8/4 279/8/4 285/8/4
f 279/14/4 280/14/4 285/14/4
f 281/8/4 282/8/4 286/8/4
f 285/14/4 281/14/4 286/14/4
f 283/16/4 284/16/4 287/16/4
f 282/15/4 283/15/4 287/15/4
f 287/16/4 284/16/4 288/16/4
f 285/8/4 286/8/4 289/8/4
f 267/8/4 285/8/4 289/8/4
f 289/8/4 286/8/4 290/8/4
f 286/8/4 282/8/4 291/8/4
f 290/8/4 286/8/4 291/8/4
f 287/15/4 288/15/4 292/15/4
f 291/8/4 282/8/4 292/8/4
f 282/15/4 287/15/4 292/15/4
f 292/15/4 288/15/4 293/15/4
f 293/15/4 288/15/4 294/15/4
f 289/14/4 290/14/4 295/14/4
f 290/2/4 291/2/4 296/2/4
f 295/14/4 290/14/4 296/14/4
f 291/14/4 292/14/4 297/14/4
f 296/2/4 291/2/4 297/2/4
f 292/15/4 293/15/4 298/15/4
f 297/14/4 292/14/4 298/14/4
f 293/16/4 294/16/4 299/16/4
f 298/15/4 293/15/4 299/15/4
f 299/16/4 294/16/4 300/16/4
f 295/8/4 296/8/4 301/8/4
f 296/8/4 297/8/4 301/8/4
f 297/8/4 298/8/4 301/8/4
f 301/8/4 298/8/4 302/8/4
f 299/15/4 300/15/4 303/15/4
f 302/8/4 298/8/4 303/8/4
f 298/15/4 299/15/4 303/15/4
f 303/15/4 300/15/4 304/15/4
f 302/15/4 303/15/4 305/15/4
f 305/15/4 303/15/4 306/15/4
f 312/7/5 308/7/5 307/7/5
f 312/8/5 309/8/5 308/8/5
f 313/14/5 310/14/5 309/14/5
f 313/8/5 309/8/5 312/8/5
f 314/8/5 311/8/5 310/8/5
f 314/14/5 310/14/5 313/14/5
f 315/8/5 311/8/5 314/8/5
f 316/7/5 313/7/5 312/7/5
f 316/7/5 314/7/5 313/7/5
f 316/14/5 315/14/5 314/14/5
f 317/14/5 315/14/5 316/14/5
f 318/7/5 316/7/5 312/7/5
f 318/8/5 317/8/5 316/8/5
f 319/8/5 317/8/5 318/8/5
f 320/7/5 318/7/5 312/7/5
f 320/14/5 319/14/5 318/14/5
f 321/14/5 319/14/5 320/14/5
f 322/7/5 320/7/5 312/7/5
f 322/8/5 321/8/5 320/8/5
f 323/8/5 321/8/5 322/8/5
f 324/7/5 312/7/5 307/7/5
f 324/7/5 322/7/5 312/7/5
f 325/7/5 322/7/5 324/7/5
f 326/14/5 323/14/5 322/14/5
f 326/7/5 322/7/5 325/7/5
f 327/14/5 323/14/5 326/14/5
f 328/7/5 324/7/5 307/7/5
f 329/8/5 325/8/5 324/8/5
f 329/7/5 324/7/5 328/7/5
f 330/14/5 326/14/5 325/14/5
f 330/8/5 325/8/5 329/8/5
f 331/8/5 327/8/5 326/8/5
f 331/14/5 326/14/5 330/14/5
f 332/8/5 327/8/5 331/8/5
f 335/8/5 334/8/5 333/8/5
f 336/8/5 334/8/5 335/8/5
f 339/4/5 338/4/5 337/4/5
f 340/4/5 338/4/5 339/4/5
f 343/3/5 342/3/5 341/3/5
f 344/3/5 342/3/5 343/3/5
f 347/2/5 346/2/5 345/2/5
f 348/2/5 346/2/5 347/2/5
f 351/14/5 350/14/5 349/14/5
f 352/14/5 350/14/5 351/14/5
f 355/2/5 354/2/5 353/2/5
f 356/2/5 354/2/5 355/2/5
f 359/3/5 358/3/5 357/3/5
f 360/3/5 358/3/5 359/3/5
f 363/3/5 362/3/5 361/3/5
f 364/3/5 362/3/5 363/3/5
f 367/15/5 366/15/5 365/15/5
f 368/15/5 366/15/5 367/15/5
f 369/15/5 366/15/5 368/15/5
f 370/15/5 366/15/5 369/15/5
f 371/15/5 366/15/5 370/15/5
f 372/15/5 366/15/5 371/15/5
f 373/15/5 366/15/5 372/15/5
f 374/15/5 366/15/5 373/15/5
f 375/15/5 366/15/5 374/15/5
f 376/15/6 377/15/6 380/15/6
f 380/15/6 377/15/6 381/15/6
f 378/15/6 379/15/6 382/15/6
f 382/15/6 379/15/6 383/15/6
f 386/15/6 387/15/6 388/15/6
f 388/15/6 387/15/6 389/15/6
f 384/15/6 385/15/6 390/15/6
f 390/15/6 385/15/6 391/15/6
f 392/15/6 393/15/6 394/15/6
f 394/15/6 393/15/6 395/15/6
f 396/15/6 397/15/6 398/15/6
f 398/15/6 397/15/6 399/15/6
f 400/15/6 401/15/6 408/15/6
f 401/16/6 402/16/6 409/16/6
f 408/15/6 401/15/6 409/15/6
f 402/15/6 403/15/6 410/15/6
f 409/16/6 402/16/6 410/16/6
f 403/16/6 404/16/6 411/16/6
f 410/15/6 403/15/6 411/15/6
f 404/15/6 405/15/6 412/15/6
f 411/16/6 404/16/6 412/16/6
f 405/16/6 406/16/6 413/16/6
f 412/15/6 405/15/6 413/15/6
f 406/15/6 407/15/6 414/15/6
f 413/16/6 406/16/6 414/16/6
f 414/15/6 407/15/6 415/15/6
f 412/16/6 413/16/6 416/16/6
f 408/16/6 409/16/6 416/16/6
f 414/16/6 415/16/6 416/16/6
f 413/16/6 414/16/6 416/16/6
f 411/16/6 412/16/6 416/16/6
f 410/16/6 411/16/6 416/16/6
f 409/16/6 410/16/6 416/16/6
f 416/16/6 415/16/6 417/16/6
f 416/15/6 417/15/6 419/15/6
f 419/15/6 417/15/6 420/15/6
f 418/15/6 419/15/6 422/15/6
f 419/16/6 420/16/6 423/16/6
f 422/15/6 419/15/6 423/15/6
f 420/15/6 421/15/6 424/15/6
f 423/16/6 420/16/6 424/16/6
f 424/15/6 421/15/6 425/15/6
f 423/15/6 424/15/6 426/15/6
f 426/15/6 424/15/6 427/15/6
f 426/16/6 427/16/6 428/16/6
f 428/16/6 427/16/6 429/16/6
f 429/16/6 427/16/6 430/16/6
f 430/16/6 427/16/6 431/16/6
f 431/16/6 427/16/6 432/16/6
f 432/16/6 427/16/6 433/16/6
f 433/16/6 427/16/6 434/16/6
f 434/16/6 427/16/6 435/16/6
f 428/15/6 429/15/6 436/15/6
f 429/16/6 430/16/6 437/16/6
f 436/15/6 429/15/6 437/15/6
f 430/15/6 431/15/6 438/15/6
f 437/16/6 430/16/6 438/16/6
f 431/16/6 432/16/6 439/16/6
f 438/15/6 431/15/6 439/15/6
f 432/15/6 433/15/6 440/15/6
f 439/16/6 432/16/6 440/16/6
f 433/16/6 434/16/6 441/16/6
f 440/15/6 433/15/6 441/15/6
f 434/15/6 435/15/6 442/15/6
f 441/16/6 434/16/6 442/16/6
f 442/15/6 435/15/6 443/15/6
