# MagicaVoxel @ Ephtracy

# group
o leftArm

# material
mtllib engineerMan_yedek-1-leftArm.mtl
usemtl palette

# normals
vn -1 0 0
vn 1 0 0
vn 0 0 1
vn 0 0 -1
vn 0 -1 0
vn 0 1 0

# texcoords
vt 0.732422 0.5
vt 0.775391 0.5
vt 0.814453 0.5
vt 0.818359 0.5
vt 0.822266 0.5
vt 0.826172 0.5
vt 0.869141 0.5
vt 0.896484 0.5
vt 0.958984 0.5

# verts
v 0.1 3 -9.68575e-08
v 0.1 3 -0.1
v 0.1 3 -0.2
v 0.1 3 -0.3
v 0.1 3.1 -9.68575e-08
v 0.1 3.1 -0.1
v 0.1 3.2 -9.68575e-08
v 0.1 3.2 -0.2
v 0.1 3.2 -0.3
v 0.1 3.3 -9.68575e-08
v 0.1 3.3 -0.2
v 0.1 3.3 -0.3
v 0.1 3.5 -9.68575e-08
v 0.1 3.5 -0.2
v 0.1 3.5 -0.3
v 0.1 3.6 -9.68575e-08
v 0.1 3.6 -0.3
v 0.1 4.2 -9.68575e-08
v 0.1 4.2 -0.3
v 0.6 3 -9.68575e-08
v 0.6 3 -0.2
v 0.6 3 -0.3
v 0.6 3.2 -9.68575e-08
v 0.6 3.2 -0.2
v 0.6 3.2 -0.3
v 0.6 3.3 -9.68575e-08
v 0.6 3.3 -0.2
v 0.6 3.3 -0.3
v 0.6 3.4 -9.68575e-08
v 0.6 3.4 -0.2
v 0.6 3.4 -0.3
v 0.6 3.5 -9.68575e-08
v 0.6 3.5 -0.2
v 0.6 3.5 -0.3
v 0.6 3.6 -9.68575e-08
v 0.6 3.6 -0.2
v 0.6 3.6 -0.3
v 0.6 3.8 -9.68575e-08
v 0.6 3.8 -0.3
v 0.6 3.9 -9.68575e-08
v 0.6 3.9 -0.3
v 0.6 4 -9.68575e-08
v 0.6 4 -0.3
v 0.6 4.2 -9.68575e-08
v 0.6 4.2 -0.3
v 0.7 3.4 -9.68575e-08
v 0.7 3.4 -0.2
v 0.7 3.4 -0.3
v 0.7 3.5 -9.68575e-08
v 0.7 3.5 -0.2
v 0.7 3.5 -0.3
v 0.7 3.6 -9.68575e-08
v 0.7 3.6 -0.3
v 0.7 3.8 -9.68575e-08
v 0.7 3.8 -0.3
v 0.7 3.9 -9.68575e-08
v 0.7 3.9 -0.3
v 0.7 4 -9.68575e-08
v 0.7 4 -0.3
v 0.1 3 -9.68575e-08
v 0.1 3.1 -9.68575e-08
v 0.1 3.2 -9.68575e-08
v 0.1 3.3 -9.68575e-08
v 0.1 3.5 -9.68575e-08
v 0.1 3.6 -9.68575e-08
v 0.1 4.2 -9.68575e-08
v 0.2 3 -9.68575e-08
v 0.2 3.1 -9.68575e-08
v 0.4 3 -9.68575e-08
v 0.4 3.1 -9.68575e-08
v 0.5 3 -9.68575e-08
v 0.5 3.1 -9.68575e-08
v 0.5 3.2 -9.68575e-08
v 0.5 3.3 -9.68575e-08
v 0.6 3 -9.68575e-08
v 0.6 3.2 -9.68575e-08
v 0.6 3.3 -9.68575e-08
v 0.6 3.4 -9.68575e-08
v 0.6 3.5 -9.68575e-08
v 0.6 3.6 -9.68575e-08
v 0.6 3.8 -9.68575e-08
v 0.6 3.9 -9.68575e-08
v 0.6 4 -9.68575e-08
v 0.6 4.2 -9.68575e-08
v 0.7 3.4 -9.68575e-08
v 0.7 3.5 -9.68575e-08
v 0.7 3.6 -9.68575e-08
v 0.7 3.8 -9.68575e-08
v 0.7 3.9 -9.68575e-08
v 0.7 4 -9.68575e-08
v 0.1 3 -0.3
v 0.1 3.2 -0.3
v 0.1 3.3 -0.3
v 0.1 3.5 -0.3
v 0.1 3.6 -0.3
v 0.1 4.2 -0.3
v 0.2 3 -0.3
v 0.2 3.2 -0.3
v 0.2 3.3 -0.3
v 0.2 3.5 -0.3
v 0.2 3.6 -0.3
v 0.5 3 -0.3
v 0.5 3.2 -0.3
v 0.5 3.3 -0.3
v 0.5 3.5 -0.3
v 0.5 3.6 -0.3
v 0.6 3 -0.3
v 0.6 3.2 -0.3
v 0.6 3.3 -0.3
v 0.6 3.4 -0.3
v 0.6 3.5 -0.3
v 0.6 3.6 -0.3
v 0.6 3.8 -0.3
v 0.6 3.9 -0.3
v 0.6 4 -0.3
v 0.6 4.2 -0.3
v 0.7 3.4 -0.3
v 0.7 3.5 -0.3
v 0.7 3.6 -0.3
v 0.7 3.8 -0.3
v 0.7 3.9 -0.3
v 0.7 4 -0.3
v 0.1 3 -9.68575e-08
v 0.2 3 -9.68575e-08
v 0.4 3 -9.68575e-08
v 0.5 3 -9.68575e-08
v 0.6 3 -9.68575e-08
v 0.1 3 -0.1
v 0.2 3 -0.1
v 0.4 3 -0.1
v 0.5 3 -0.1
v 0.1 3 -0.2
v 0.2 3 -0.2
v 0.5 3 -0.2
v 0.6 3 -0.2
v 0.1 3 -0.3
v 0.2 3 -0.3
v 0.5 3 -0.3
v 0.6 3 -0.3
v 0.6 3.4 -9.68575e-08
v 0.7 3.4 -9.68575e-08
v 0.6 3.4 -0.2
v 0.7 3.4 -0.2
v 0.6 3.4 -0.3
v 0.7 3.4 -0.3
v 0.6 3.6 -9.68575e-08
v 0.7 3.6 -9.68575e-08
v 0.6 3.6 -0.2
v 0.6 3.6 -0.3
v 0.7 3.6 -0.3
v 0.6 3.9 -9.68575e-08
v 0.7 3.9 -9.68575e-08
v 0.6 3.9 -0.3
v 0.7 3.9 -0.3
v 0.6 3.5 -9.68575e-08
v 0.7 3.5 -9.68575e-08
v 0.6 3.5 -0.2
v 0.7 3.5 -0.2
v 0.6 3.5 -0.3
v 0.7 3.5 -0.3
v 0.6 3.8 -9.68575e-08
v 0.7 3.8 -9.68575e-08
v 0.6 3.8 -0.3
v 0.7 3.8 -0.3
v 0.6 4 -9.68575e-08
v 0.7 4 -9.68575e-08
v 0.6 4 -0.3
v 0.7 4 -0.3
v 0.1 4.2 -9.68575e-08
v 0.6 4.2 -9.68575e-08
v 0.1 4.2 -0.3
v 0.6 4.2 -0.3

# faces
f 5/4/1 2/4/1 1/4/1
f 6/3/1 3/3/1 2/3/1
f 6/4/1 2/4/1 5/4/1
f 7/3/1 6/3/1 5/3/1
f 8/4/1 4/4/1 3/4/1
f 8/3/1 6/3/1 7/3/1
f 8/3/1 3/3/1 6/3/1
f 9/4/1 4/4/1 8/4/1
f 10/5/1 8/5/1 7/5/1
f 10/5/1 9/5/1 8/5/1
f 11/5/1 9/5/1 10/5/1
f 12/5/1 9/5/1 11/5/1
f 13/3/1 11/3/1 10/3/1
f 14/4/1 12/4/1 11/4/1
f 14/3/1 11/3/1 13/3/1
f 15/4/1 12/4/1 14/4/1
f 16/8/1 14/8/1 13/8/1
f 16/8/1 15/8/1 14/8/1
f 17/8/1 15/8/1 16/8/1
f 18/9/1 17/9/1 16/9/1
f 19/9/1 17/9/1 18/9/1
f 20/3/2 21/3/2 23/3/2
f 21/4/2 22/4/2 24/4/2
f 23/3/2 21/3/2 24/3/2
f 24/4/2 22/4/2 25/4/2
f 23/1/2 24/1/2 26/1/2
f 24/6/2 25/6/2 27/6/2
f 26/1/2 24/1/2 27/1/2
f 27/6/2 25/6/2 28/6/2
f 26/3/2 27/3/2 29/3/2
f 27/4/2 28/4/2 30/4/2
f 29/3/2 27/3/2 30/3/2
f 30/4/2 28/4/2 31/4/2
f 32/8/2 33/8/2 35/8/2
f 33/7/2 34/7/2 36/7/2
f 35/8/2 33/8/2 36/8/2
f 36/7/2 34/7/2 37/7/2
f 38/9/2 39/9/2 40/9/2
f 40/9/2 39/9/2 41/9/2
f 42/9/2 43/9/2 44/9/2
f 44/9/2 43/9/2 45/9/2
f 46/3/2 47/3/2 49/3/2
f 47/4/2 48/4/2 50/4/2
f 49/3/2 47/3/2 50/3/2
f 50/4/2 48/4/2 51/4/2
f 52/9/2 53/9/2 54/9/2
f 54/9/2 53/9/2 55/9/2
f 56/9/2 57/9/2 58/9/2
f 58/9/2 57/9/2 59/9/2
f 67/4/3 61/4/3 60/4/3
f 68/3/3 62/3/3 61/3/3
f 68/4/3 61/4/3 67/4/3
f 69/3/3 68/3/3 67/3/3
f 70/3/3 62/3/3 68/3/3
f 70/3/3 68/3/3 69/3/3
f 71/4/3 70/4/3 69/4/3
f 72/3/3 62/3/3 70/3/3
f 72/4/3 70/4/3 71/4/3
f 73/5/3 63/5/3 62/5/3
f 73/3/3 62/3/3 72/3/3
f 74/3/3 64/3/3 63/3/3
f 74/5/3 63/5/3 73/5/3
f 75/3/3 72/3/3 71/3/3
f 75/3/3 73/3/3 72/3/3
f 76/1/3 74/1/3 73/1/3
f 76/3/3 73/3/3 75/3/3
f 77/3/3 64/3/3 74/3/3
f 77/1/3 74/1/3 76/1/3
f 78/3/3 64/3/3 77/3/3
f 79/8/3 65/8/3 64/8/3
f 79/3/3 64/3/3 78/3/3
f 80/9/3 66/9/3 65/9/3
f 80/8/3 65/8/3 79/8/3
f 81/9/3 66/9/3 80/9/3
f 82/9/3 66/9/3 81/9/3
f 83/9/3 66/9/3 82/9/3
f 84/9/3 66/9/3 83/9/3
f 85/3/3 79/3/3 78/3/3
f 86/3/3 79/3/3 85/3/3
f 87/9/3 81/9/3 80/9/3
f 88/9/3 81/9/3 87/9/3
f 89/9/3 83/9/3 82/9/3
f 90/9/3 83/9/3 89/9/3
f 91/4/4 92/4/4 97/4/4
f 92/5/4 93/5/4 98/5/4
f 97/4/4 92/4/4 98/4/4
f 93/4/4 94/4/4 99/4/4
f 98/5/4 93/5/4 99/5/4
f 94/8/4 95/8/4 100/8/4
f 99/4/4 94/4/4 100/4/4
f 95/9/4 96/9/4 101/9/4
f 100/8/4 95/8/4 101/8/4
f 97/3/4 98/3/4 102/3/4
f 98/5/4 99/5/4 103/5/4
f 102/3/4 98/3/4 103/3/4
f 99/3/4 100/3/4 104/3/4
f 103/5/4 99/5/4 104/5/4
f 100/2/4 101/2/4 105/2/4
f 104/3/4 100/3/4 105/3/4
f 101/9/4 96/9/4 106/9/4
f 105/2/4 101/2/4 106/2/4
f 102/4/4 103/4/4 107/4/4
f 103/6/4 104/6/4 108/6/4
f 107/4/4 103/4/4 108/4/4
f 104/4/4 105/4/4 109/4/4
f 108/6/4 104/6/4 109/6/4
f 109/4/4 105/4/4 110/4/4
f 105/7/4 106/7/4 111/7/4
f 110/4/4 105/4/4 111/4/4
f 106/9/4 96/9/4 112/9/4
f 111/7/4 106/7/4 112/7/4
f 112/9/4 96/9/4 113/9/4
f 113/9/4 96/9/4 114/9/4
f 114/9/4 96/9/4 115/9/4
f 115/9/4 96/9/4 116/9/4
f 110/4/4 111/4/4 117/4/4
f 117/4/4 111/4/4 118/4/4
f 112/9/4 113/9/4 119/9/4
f 119/9/4 113/9/4 120/9/4
f 114/9/4 115/9/4 121/9/4
f 121/9/4 115/9/4 122/9/4
f 128/4/5 124/4/5 123/4/5
f 129/3/5 125/3/5 124/3/5
f 129/4/5 124/4/5 128/4/5
f 130/4/5 126/4/5 125/4/5
f 130/3/5 125/3/5 129/3/5
f 131/3/5 127/3/5 126/3/5
f 131/4/5 126/4/5 130/4/5
f 132/3/5 130/3/5 129/3/5
f 132/3/5 129/3/5 128/3/5
f 132/3/5 131/3/5 130/3/5
f 133/3/5 131/3/5 132/3/5
f 134/3/5 127/3/5 131/3/5
f 134/3/5 131/3/5 133/3/5
f 135/3/5 127/3/5 134/3/5
f 136/4/5 133/4/5 132/4/5
f 137/3/5 134/3/5 133/3/5
f 137/4/5 133/4/5 136/4/5
f 138/4/5 135/4/5 134/4/5
f 138/3/5 134/3/5 137/3/5
f 139/4/5 135/4/5 138/4/5
f 142/3/5 141/3/5 140/3/5
f 143/3/5 141/3/5 142/3/5
f 144/4/5 143/4/5 142/4/5
f 145/4/5 143/4/5 144/4/5
f 148/9/5 147/9/5 146/9/5
f 149/9/5 147/9/5 148/9/5
f 150/9/5 147/9/5 149/9/5
f 153/9/5 152/9/5 151/9/5
f 154/9/5 152/9/5 153/9/5
f 155/3/6 156/3/6 157/3/6
f 157/3/6 156/3/6 158/3/6
f 157/4/6 158/4/6 159/4/6
f 159/4/6 158/4/6 160/4/6
f 161/9/6 162/9/6 163/9/6
f 163/9/6 162/9/6 164/9/6
f 165/9/6 166/9/6 167/9/6
f 167/9/6 166/9/6 168/9/6
f 169/9/6 170/9/6 171/9/6
f 171/9/6 170/9/6 172/9/6
