# MagicaVoxel @ Ephtracy

# group
o rightLeg

# material
mtllib engineerMan_yedek-3-rightLeg.mtl
usemtl palette

# normals
vn 1 0 0
vn -1 0 0
vn 0 0 -1
vn 0 0 1
vn 0 -1 0
vn 0 1 0

# texcoords
vt 0.306641 0.5
vt 0.775391 0.5
vt 0.939453 0.5
vt 0.943359 0.5
vt 0.947266 0.5
vt 0.951172 0.5
vt 0.958984 0.5
vt 0.970703 0.5
vt 0.974609 0.5
vt 0.978516 0.5
vt 0.994141 0.5

# verts
v 0.6 1.8 0.5
v 0.6 1.8 0.7
v 0.6 1.9 0.5
v 0.6 1.9 0.7
v 0.6 2 0.4
v 0.6 2 0.5
v 0.6 2 0.7
v 0.6 2 0.8
v 0.6 2.1 0.4
v 0.6 2.1 0.5
v 0.6 2.1 0.7
v 0.6 2.1 0.8
v 0.6 2.2 0.5
v 0.6 2.2 0.7
v 0.6 2.3 0.5
v 0.6 2.3 0.6
v 0.6 2.3 0.8
v 0.6 2.4 0.5
v 0.6 2.4 0.6
v 0.6 2.4 0.8
v 0.6 2.5 0.5
v 0.6 2.5 0.6
v 0.6 2.5 0.8
v 0.6 2.6 0.7
v 0.6 2.6 0.8
v 0.6 2.7 0.5
v 0.6 2.7 0.6
v 0.6 2.7 0.7
v 0.6 2.7 0.8
v 0.5 1.8 0.4
v 0.5 1.8 0.5
v 0.5 1.8 0.7
v 0.5 1.8 0.8
v 0.5 1.9 0.4
v 0.5 1.9 0.5
v 0.5 1.9 0.7
v 0.5 1.9 0.8
v 0.5 2 0.4
v 0.5 2 0.5
v 0.5 2 0.7
v 0.5 2 0.8
v 0.5 2.1 0.4
v 0.5 2.1 0.5
v 0.5 2.1 0.7
v 0.5 2.1 0.8
v 0.5 2.2 0.4
v 0.5 2.2 0.5
v 0.5 2.2 0.7
v 0.5 2.3 0.5
v 0.5 2.3 0.6
v 0.5 2.3 0.8
v 0.5 2.4 0.5
v 0.5 2.4 0.6
v 0.5 2.4 0.7
v 0.5 2.4 0.8
v 0.5 2.5 0.5
v 0.5 2.5 0.6
v 0.5 2.5 0.7
v 0.5 2.5 0.8
v 0.5 2.7 0.5
v 0.5 2.7 0.6
v 0.5 2.7 0.7
v 0.5 2.7 0.8
v 0.5 2.8 0.4
v 0.5 2.8 0.5
v 0.5 2.8 0.6
v 0.5 2.8 0.7
v 0.5 2.8 0.8
v 0.5 2.9 0.7
v 0.5 2.9 0.8
v 0.5 3 0.4
v 0.5 3 0.8
v 0.1 1.8 0.4
v 0.1 1.8 0.5
v 0.1 1.8 0.8
v 0.1 1.9 0.4
v 0.1 1.9 0.5
v 0.1 1.9 0.8
v 0.1 2.1 0.4
v 0.1 2.1 0.8
v 0.1 2.2 0.4
v 0.1 2.2 0.5
v 0.1 2.2 0.6
v 0.1 2.2 0.8
v 0.1 2.4 0.5
v 0.1 2.4 0.6
v 0.1 2.4 0.7
v 0.1 2.5 0.5
v 0.1 2.5 0.6
v 0.1 2.5 0.7
v 0.1 2.8 0.4
v 0.1 2.8 0.5
v 0.1 2.8 0.6
v 0.1 2.8 0.7
v 0.1 2.8 0.8
v 0.1 2.9 0.7
v 0.1 2.9 0.8
v 0.1 3 0.4
v 0.1 3 0.8
v 0.6 2 0.4
v 0.6 2.1 0.4
v 0.5 1.8 0.4
v 0.5 1.9 0.4
v 0.5 2 0.4
v 0.5 2.1 0.4
v 0.5 2.2 0.4
v 0.5 2.8 0.4
v 0.5 3 0.4
v 0.4 1.9 0.4
v 0.4 2.1 0.4
v 0.1 1.8 0.4
v 0.1 1.9 0.4
v 0.1 2.1 0.4
v 0.1 2.2 0.4
v 0.1 2.8 0.4
v 0.1 3 0.4
v 0.6 1.8 0.5
v 0.6 1.9 0.5
v 0.6 2 0.5
v 0.6 2.1 0.5
v 0.6 2.2 0.5
v 0.6 2.3 0.5
v 0.6 2.4 0.5
v 0.6 2.5 0.5
v 0.6 2.7 0.5
v 0.5 1.8 0.5
v 0.5 1.9 0.5
v 0.5 2 0.5
v 0.5 2.1 0.5
v 0.5 2.2 0.5
v 0.5 2.3 0.5
v 0.5 2.4 0.5
v 0.5 2.5 0.5
v 0.5 2.7 0.5
v 0.6 2 0.7
v 0.6 2.1 0.7
v 0.5 2 0.7
v 0.5 2.1 0.7
v 0.6 2 0.5
v 0.6 2.1 0.5
v 0.5 2 0.5
v 0.5 2.1 0.5
v 0.6 1.8 0.7
v 0.6 1.9 0.7
v 0.6 2 0.7
v 0.6 2.1 0.7
v 0.6 2.2 0.7
v 0.5 1.8 0.7
v 0.5 1.9 0.7
v 0.5 2 0.7
v 0.5 2.1 0.7
v 0.5 2.2 0.7
v 0.6 2 0.8
v 0.6 2.1 0.8
v 0.6 2.3 0.8
v 0.6 2.4 0.8
v 0.6 2.5 0.8
v 0.6 2.6 0.8
v 0.6 2.7 0.8
v 0.5 1.8 0.8
v 0.5 1.9 0.8
v 0.5 2 0.8
v 0.5 2.1 0.8
v 0.5 2.3 0.8
v 0.5 2.4 0.8
v 0.5 2.5 0.8
v 0.5 2.6 0.8
v 0.5 2.7 0.8
v 0.5 2.8 0.8
v 0.5 2.9 0.8
v 0.5 3 0.8
v 0.4 2.2 0.8
v 0.4 2.3 0.8
v 0.1 1.8 0.8
v 0.1 1.9 0.8
v 0.1 2.1 0.8
v 0.1 2.2 0.8
v 0.1 2.8 0.8
v 0.1 2.9 0.8
v 0.1 3 0.8
v 0.5 1.8 0.4
v 0.1 1.8 0.4
v 0.6 1.8 0.5
v 0.5 1.8 0.5
v 0.1 1.8 0.5
v 0.6 1.8 0.7
v 0.5 1.8 0.7
v 0.5 1.8 0.8
v 0.1 1.8 0.8
v 0.6 2 0.4
v 0.5 2 0.4
v 0.6 2 0.5
v 0.5 2 0.5
v 0.6 2 0.7
v 0.5 2 0.7
v 0.6 2 0.8
v 0.5 2 0.8
v 0.6 2.1 0.5
v 0.5 2.1 0.5
v 0.6 2.1 0.7
v 0.5 2.1 0.7
v 0.6 2.3 0.5
v 0.5 2.3 0.5
v 0.6 2.3 0.6
v 0.5 2.3 0.6
v 0.6 2.3 0.8
v 0.5 2.3 0.8
v 0.6 2.5 0.5
v 0.5 2.5 0.5
v 0.6 2.5 0.6
v 0.5 2.5 0.6
v 0.5 2.5 0.7
v 0.6 2.5 0.8
v 0.5 2.5 0.8
v 0.6 2 0.5
v 0.5 2 0.5
v 0.6 2 0.7
v 0.5 2 0.7
v 0.6 2.1 0.4
v 0.5 2.1 0.4
v 0.6 2.1 0.5
v 0.5 2.1 0.5
v 0.6 2.1 0.7
v 0.5 2.1 0.7
v 0.6 2.1 0.8
v 0.5 2.1 0.8
v 0.6 2.2 0.5
v 0.5 2.2 0.5
v 0.6 2.2 0.7
v 0.5 2.2 0.7
v 0.6 2.4 0.5
v 0.5 2.4 0.5
v 0.6 2.4 0.6
v 0.5 2.4 0.6
v 0.5 2.4 0.7
v 0.6 2.4 0.8
v 0.5 2.4 0.8
v 0.6 2.7 0.5
v 0.5 2.7 0.5
v 0.6 2.7 0.6
v 0.5 2.7 0.6
v 0.6 2.7 0.7
v 0.5 2.7 0.7
v 0.6 2.7 0.8
v 0.5 2.7 0.8
v 0.5 3 0.4
v 0.1 3 0.4
v 0.5 3 0.8
v 0.1 3 0.8

# faces
f 3/6/1 2/6/1 1/6/1
f 4/6/1 2/6/1 3/6/1
f 6/11/1 4/11/1 3/11/1
f 7/11/1 4/11/1 6/11/1
f 9/3/1 6/3/1 5/3/1
f 10/3/1 6/3/1 9/3/1
f 11/11/1 8/11/1 7/11/1
f 12/11/1 8/11/1 11/11/1
f 13/11/1 11/11/1 10/11/1
f 14/11/1 11/11/1 13/11/1
f 18/10/1 16/10/1 15/10/1
f 19/9/1 17/9/1 16/9/1
f 19/10/1 16/10/1 18/10/1
f 20/9/1 17/9/1 19/9/1
f 24/9/1 23/9/1 22/9/1
f 25/9/1 23/9/1 24/9/1
f 26/10/1 22/10/1 21/10/1
f 27/9/1 24/9/1 22/9/1
f 27/10/1 22/10/1 26/10/1
f 28/7/1 25/7/1 24/7/1
f 28/9/1 24/9/1 27/9/1
f 29/7/1 25/7/1 28/7/1
f 34/4/1 31/4/1 30/4/1
f 35/4/1 31/4/1 34/4/1
f 36/5/1 33/5/1 32/5/1
f 37/5/1 33/5/1 36/5/1
f 38/3/1 35/3/1 34/3/1
f 39/3/1 35/3/1 38/3/1
f 40/11/1 37/11/1 36/11/1
f 41/11/1 37/11/1 40/11/1
f 43/11/1 40/11/1 39/11/1
f 44/11/1 40/11/1 43/11/1
f 46/2/1 43/2/1 42/2/1
f 47/2/1 43/2/1 46/2/1
f 48/2/1 45/2/1 44/2/1
f 49/8/1 47/8/1 46/8/1
f 49/2/1 48/2/1 47/2/1
f 50/2/1 48/2/1 49/2/1
f 51/2/1 45/2/1 48/2/1
f 51/2/1 48/2/1 50/2/1
f 52/8/1 49/8/1 46/8/1
f 56/8/1 52/8/1 46/8/1
f 56/8/1 53/8/1 52/8/1
f 57/10/1 54/10/1 53/10/1
f 57/8/1 53/8/1 56/8/1
f 58/9/1 55/9/1 54/9/1
f 58/10/1 54/10/1 57/10/1
f 59/9/1 55/9/1 58/9/1
f 60/8/1 56/8/1 46/8/1
f 64/8/1 60/8/1 46/8/1
f 65/10/1 61/10/1 60/10/1
f 65/8/1 60/8/1 64/8/1
f 66/9/1 63/9/1 62/9/1
f 66/10/1 61/10/1 65/10/1
f 66/9/1 62/9/1 61/9/1
f 67/9/1 63/9/1 66/9/1
f 68/9/1 63/9/1 67/9/1
f 69/7/1 65/7/1 64/7/1
f 69/7/1 66/7/1 65/7/1
f 69/10/1 68/10/1 67/10/1
f 69/7/1 67/7/1 66/7/1
f 70/10/1 68/10/1 69/10/1
f 71/7/1 69/7/1 64/7/1
f 71/7/1 70/7/1 69/7/1
f 72/7/1 70/7/1 71/7/1
f 73/4/2 74/4/2 76/4/2
f 74/5/2 75/5/2 77/5/2
f 76/4/2 74/4/2 77/4/2
f 77/5/2 75/5/2 78/5/2
f 76/11/2 77/11/2 79/11/2
f 77/11/2 78/11/2 79/11/2
f 79/11/2 78/11/2 80/11/2
f 79/2/2 80/2/2 81/2/2
f 81/2/2 80/2/2 82/2/2
f 82/2/2 80/2/2 83/2/2
f 83/2/2 80/2/2 84/2/2
f 81/8/2 82/8/2 85/8/2
f 82/10/2 83/10/2 85/10/2
f 83/9/2 84/9/2 86/9/2
f 85/10/2 83/10/2 86/10/2
f 86/9/2 84/9/2 87/9/2
f 81/8/2 85/8/2 88/8/2
f 85/8/2 86/8/2 88/8/2
f 86/10/2 87/10/2 89/10/2
f 88/8/2 86/8/2 89/8/2
f 87/9/2 84/9/2 90/9/2
f 89/10/2 87/10/2 90/10/2
f 81/8/2 88/8/2 91/8/2
f 88/10/2 89/10/2 92/10/2
f 91/8/2 88/8/2 92/8/2
f 89/9/2 90/9/2 93/9/2
f 92/10/2 89/10/2 93/10/2
f 90/9/2 84/9/2 94/9/2
f 93/9/2 90/9/2 94/9/2
f 94/9/2 84/9/2 95/9/2
f 92/7/2 93/7/2 96/7/2
f 91/7/2 92/7/2 96/7/2
f 94/10/2 95/10/2 96/10/2
f 93/7/2 94/7/2 96/7/2
f 96/10/2 95/10/2 97/10/2
f 91/7/2 96/7/2 98/7/2
f 96/7/2 97/7/2 98/7/2
f 98/7/2 97/7/2 99/7/2
f 104/3/3 101/3/3 100/3/3
f 105/3/3 101/3/3 104/3/3
f 109/4/3 103/4/3 102/4/3
f 109/3/3 104/3/3 103/3/3
f 109/3/3 105/3/3 104/3/3
f 110/2/3 106/2/3 105/2/3
f 110/3/3 105/3/3 109/3/3
f 111/4/3 109/4/3 102/4/3
f 112/11/3 110/11/3 109/11/3
f 112/4/3 109/4/3 111/4/3
f 113/2/3 106/2/3 110/2/3
f 113/11/3 110/11/3 112/11/3
f 114/8/3 107/8/3 106/8/3
f 114/2/3 106/2/3 113/2/3
f 115/7/3 108/7/3 107/7/3
f 115/8/3 107/8/3 114/8/3
f 116/7/3 108/7/3 115/7/3
f 126/6/3 118/6/3 117/6/3
f 127/11/3 119/11/3 118/11/3
f 127/6/3 118/6/3 126/6/3
f 128/11/3 119/11/3 127/11/3
f 129/11/3 121/11/3 120/11/3
f 130/11/3 121/11/3 129/11/3
f 131/10/3 123/10/3 122/10/3
f 132/10/3 123/10/3 131/10/3
f 133/10/3 125/10/3 124/10/3
f 134/10/3 125/10/3 133/10/3
f 137/11/3 136/11/3 135/11/3
f 138/11/3 136/11/3 137/11/3
f 139/3/4 140/3/4 141/3/4
f 141/3/4 140/3/4 142/3/4
f 143/6/4 144/6/4 148/6/4
f 144/11/4 145/11/4 149/11/4
f 148/6/4 144/6/4 149/6/4
f 149/11/4 145/11/4 150/11/4
f 146/11/4 147/11/4 151/11/4
f 151/11/4 147/11/4 152/11/4
f 153/11/4 154/11/4 162/11/4
f 162/11/4 154/11/4 163/11/4
f 155/9/4 156/9/4 164/9/4
f 164/9/4 156/9/4 165/9/4
f 157/9/4 158/9/4 166/9/4
f 158/7/4 159/7/4 167/7/4
f 166/9/4 158/9/4 167/9/4
f 167/7/4 159/7/4 168/7/4
f 163/2/4 164/2/4 172/2/4
f 164/9/4 165/9/4 173/9/4
f 172/2/4 164/2/4 173/2/4
f 165/9/4 166/9/4 173/9/4
f 166/9/4 167/9/4 173/9/4
f 168/9/4 169/9/4 173/9/4
f 167/9/4 168/9/4 173/9/4
f 160/5/4 161/5/4 174/5/4
f 162/11/4 163/11/4 175/11/4
f 174/5/4 161/5/4 175/5/4
f 161/11/4 162/11/4 175/11/4
f 163/2/4 172/2/4 176/2/4
f 175/11/4 163/11/4 176/11/4
f 172/9/4 173/9/4 177/9/4
f 176/2/4 172/2/4 177/2/4
f 173/9/4 169/9/4 178/9/4
f 177/9/4 173/9/4 178/9/4
f 169/10/4 170/10/4 178/10/4
f 170/7/4 171/7/4 179/7/4
f 178/10/4 170/10/4 179/10/4
f 179/7/4 171/7/4 180/7/4
f 184/4/5 182/4/5 181/4/5
f 185/4/5 182/4/5 184/4/5
f 186/6/5 184/6/5 183/6/5
f 187/5/5 185/5/5 184/5/5
f 187/6/5 184/6/5 186/6/5
f 188/5/5 185/5/5 187/5/5
f 189/5/5 185/5/5 188/5/5
f 192/3/5 191/3/5 190/3/5
f 193/3/5 191/3/5 192/3/5
f 196/11/5 195/11/5 194/11/5
f 197/11/5 195/11/5 196/11/5
f 200/11/5 199/11/5 198/11/5
f 201/11/5 199/11/5 200/11/5
f 204/10/5 203/10/5 202/10/5
f 205/10/5 203/10/5 204/10/5
f 206/9/5 205/9/5 204/9/5
f 207/9/5 205/9/5 206/9/5
f 210/10/5 209/10/5 208/10/5
f 211/10/5 209/10/5 210/10/5
f 212/9/5 211/9/5 210/9/5
f 213/9/5 212/9/5 210/9/5
f 214/9/5 212/9/5 213/9/5
f 215/11/6 216/11/6 217/11/6
f 217/11/6 216/11/6 218/11/6
f 219/3/6 220/3/6 221/3/6
f 221/3/6 220/3/6 222/3/6
f 223/11/6 224/11/6 225/11/6
f 225/11/6 224/11/6 226/11/6
f 227/11/6 228/11/6 229/11/6
f 229/11/6 228/11/6 230/11/6
f 231/10/6 232/10/6 233/10/6
f 233/10/6 232/10/6 234/10/6
f 233/9/6 234/9/6 235/9/6
f 233/9/6 235/9/6 236/9/6
f 236/9/6 235/9/6 237/9/6
f 238/10/6 239/10/6 240/10/6
f 240/10/6 239/10/6 241/10/6
f 240/9/6 241/9/6 242/9/6
f 242/9/6 241/9/6 243/9/6
f 242/7/6 243/7/6 244/7/6
f 244/7/6 243/7/6 245/7/6
f 246/7/6 247/7/6 248/7/6
f 248/7/6 247/7/6 249/7/6
