# MagicaVoxel @ Ephtracy

# group
o leftLeg

# material
mtllib engineerMan_yedek-5-leftLeg.mtl
usemtl palette

# normals
vn -1 0 0
vn 1 0 0
vn 0 0 1
vn 0 0 -1
vn 0 -1 0
vn 0 1 0

# texcoords
vt 0.306641 0.5
vt 0.775391 0.5
vt 0.841797 0.5
vt 0.939453 0.5
vt 0.943359 0.5
vt 0.947266 0.5
vt 0.958984 0.5
vt 0.970703 0.5
vt 0.974609 0.5
vt 0.978516 0.5
vt 0.994141 0.5

# verts
v 0.2 1.8 0.4
v 0.2 1.8 0.3
v 0.2 1.8 0
v 0.2 1.9 0.4
v 0.2 1.9 0.3
v 0.2 1.9 0
v 0.2 2.1 0.4
v 0.2 2.1 0
v 0.2 2.2 0.4
v 0.2 2.2 0.3
v 0.2 2.2 0.2
v 0.2 2.2 0
v 0.2 2.4 0.3
v 0.2 2.4 0.2
v 0.2 2.4 0.1
v 0.2 2.5 0.3
v 0.2 2.5 0.2
v 0.2 2.5 0.1
v 0.2 2.8 0.4
v 0.2 2.8 0.3
v 0.2 2.8 0.2
v 0.2 2.8 0.1
v 0.2 2.8 0
v 0.2 2.9 0.1
v 0.2 2.9 0
v 0.2 3 0.4
v 0.2 3 0
v 0.6 1.8 0.4
v 0.6 1.8 0.3
v 0.6 1.8 0.1
v 0.6 1.8 0
v 0.6 1.9 0.4
v 0.6 1.9 0.3
v 0.6 1.9 0.1
v 0.6 1.9 0
v 0.6 2 0.4
v 0.6 2 0.3
v 0.6 2 0.1
v 0.6 2 0
v 0.6 2.1 0.4
v 0.6 2.1 0.3
v 0.6 2.1 0.1
v 0.6 2.1 0
v 0.6 2.2 0.4
v 0.6 2.2 0.3
v 0.6 2.2 0.2
v 0.6 2.2 0.1
v 0.6 2.2 0
v 0.6 2.3 0.1
v 0.6 2.3 0
v 0.6 2.4 0.3
v 0.6 2.4 0.2
v 0.6 2.4 0.1
v 0.6 2.4 0
v 0.6 2.5 0.3
v 0.6 2.5 0.2
v 0.6 2.5 0.1
v 0.6 2.7 0.3
v 0.6 2.7 0.2
v 0.6 2.7 0.1
v 0.6 2.7 0
v 0.6 2.8 0.4
v 0.6 2.8 0.3
v 0.6 2.8 0.2
v 0.6 2.8 0.1
v 0.6 2.8 0
v 0.6 2.9 0.1
v 0.6 2.9 0
v 0.6 3 0.4
v 0.6 3 0
v 0.7 1.8 0.3
v 0.7 1.8 0.1
v 0.7 1.9 0.3
v 0.7 1.9 0.1
v 0.7 2 0.4
v 0.7 2 0.3
v 0.7 2 0.1
v 0.7 2 0
v 0.7 2.1 0.4
v 0.7 2.1 0.3
v 0.7 2.1 0.1
v 0.7 2.1 0
v 0.7 2.2 0.3
v 0.7 2.2 0.1
v 0.7 2.3 0.1
v 0.7 2.3 0
v 0.7 2.4 0.1
v 0.7 2.4 0
v 0.7 2.5 0.3
v 0.7 2.5 0.2
v 0.7 2.7 0.3
v 0.7 2.7 0.2
v 0.7 2.7 0.1
v 0.7 2.7 0
v 0.7 2.8 0.1
v 0.7 2.8 0
v 0.2 1.8 0.4
v 0.2 1.9 0.4
v 0.2 2.1 0.4
v 0.2 2.2 0.4
v 0.2 2.8 0.4
v 0.2 3 0.4
v 0.5 1.9 0.4
v 0.5 2.1 0.4
v 0.6 1.8 0.4
v 0.6 1.9 0.4
v 0.6 2 0.4
v 0.6 2.1 0.4
v 0.6 2.2 0.4
v 0.6 2.8 0.4
v 0.6 3 0.4
v 0.7 2 0.4
v 0.7 2.1 0.4
v 0.6 1.8 0.3
v 0.6 1.9 0.3
v 0.6 2 0.3
v 0.6 2.1 0.3
v 0.6 2.2 0.3
v 0.6 2.5 0.3
v 0.6 2.7 0.3
v 0.7 1.8 0.3
v 0.7 1.9 0.3
v 0.7 2 0.3
v 0.7 2.1 0.3
v 0.7 2.2 0.3
v 0.7 2.5 0.3
v 0.7 2.7 0.3
v 0.6 2 0.1
v 0.6 2.1 0.1
v 0.6 2.3 0.1
v 0.6 2.4 0.1
v 0.6 2.7 0.1
v 0.6 2.8 0.1
v 0.7 2 0.1
v 0.7 2.1 0.1
v 0.7 2.3 0.1
v 0.7 2.4 0.1
v 0.7 2.7 0.1
v 0.7 2.8 0.1
v 0.6 2 0.3
v 0.6 2.1 0.3
v 0.7 2 0.3
v 0.7 2.1 0.3
v 0.6 2.5 0.2
v 0.6 2.7 0.2
v 0.7 2.5 0.2
v 0.7 2.7 0.2
v 0.6 1.8 0.1
v 0.6 1.9 0.1
v 0.6 2 0.1
v 0.6 2.1 0.1
v 0.6 2.2 0.1
v 0.7 1.8 0.1
v 0.7 1.9 0.1
v 0.7 2 0.1
v 0.7 2.1 0.1
v 0.7 2.2 0.1
v 0.2 1.8 0
v 0.2 1.9 0
v 0.2 2.1 0
v 0.2 2.2 0
v 0.2 2.8 0
v 0.2 2.9 0
v 0.2 3 0
v 0.5 2.3 0
v 0.5 2.4 0
v 0.5 2.7 0
v 0.5 2.8 0
v 0.6 1.8 0
v 0.6 1.9 0
v 0.6 2 0
v 0.6 2.1 0
v 0.6 2.2 0
v 0.6 2.3 0
v 0.6 2.4 0
v 0.6 2.7 0
v 0.6 2.8 0
v 0.6 2.9 0
v 0.6 3 0
v 0.7 2 0
v 0.7 2.1 0
v 0.7 2.3 0
v 0.7 2.4 0
v 0.7 2.7 0
v 0.7 2.8 0
v 0.2 1.8 0.4
v 0.6 1.8 0.4
v 0.2 1.8 0.3
v 0.6 1.8 0.3
v 0.7 1.8 0.3
v 0.6 1.8 0.1
v 0.7 1.8 0.1
v 0.2 1.8 0
v 0.6 1.8 0
v 0.6 2 0.4
v 0.7 2 0.4
v 0.6 2 0.3
v 0.7 2 0.3
v 0.6 2 0.1
v 0.7 2 0.1
v 0.6 2 0
v 0.7 2 0
v 0.6 2.1 0.3
v 0.7 2.1 0.3
v 0.6 2.1 0.1
v 0.7 2.1 0.1
v 0.6 2.3 0.1
v 0.7 2.3 0.1
v 0.6 2.3 0
v 0.7 2.3 0
v 0.6 2.5 0.3
v 0.7 2.5 0.3
v 0.6 2.5 0.2
v 0.7 2.5 0.2
v 0.6 2.7 0.1
v 0.7 2.7 0.1
v 0.6 2.7 0
v 0.7 2.7 0
v 0.6 2 0.3
v 0.7 2 0.3
v 0.6 2 0.1
v 0.7 2 0.1
v 0.6 2.1 0.4
v 0.7 2.1 0.4
v 0.6 2.1 0.3
v 0.7 2.1 0.3
v 0.6 2.1 0.1
v 0.7 2.1 0.1
v 0.6 2.1 0
v 0.7 2.1 0
v 0.6 2.2 0.3
v 0.7 2.2 0.3
v 0.6 2.2 0.2
v 0.6 2.2 0.1
v 0.7 2.2 0.1
v 0.6 2.4 0.1
v 0.7 2.4 0.1
v 0.6 2.4 0
v 0.7 2.4 0
v 0.6 2.7 0.3
v 0.7 2.7 0.3
v 0.6 2.7 0.2
v 0.7 2.7 0.2
v 0.6 2.8 0.1
v 0.7 2.8 0.1
v 0.6 2.8 0
v 0.7 2.8 0
v 0.2 3 0.4
v 0.6 3 0.4
v 0.2 3 0
v 0.6 3 0

# faces
f 4/5/1 2/5/1 1/5/1
f 5/6/1 3/6/1 2/6/1
f 5/5/1 2/5/1 4/5/1
f 6/6/1 3/6/1 5/6/1
f 7/11/1 5/11/1 4/11/1
f 7/11/1 6/11/1 5/11/1
f 8/11/1 6/11/1 7/11/1
f 9/2/1 8/2/1 7/2/1
f 10/2/1 8/2/1 9/2/1
f 11/2/1 8/2/1 10/2/1
f 12/2/1 8/2/1 11/2/1
f 13/8/1 10/8/1 9/8/1
f 13/10/1 11/10/1 10/10/1
f 14/9/1 12/9/1 11/9/1
f 14/10/1 11/10/1 13/10/1
f 15/9/1 12/9/1 14/9/1
f 16/8/1 13/8/1 9/8/1
f 16/8/1 14/8/1 13/8/1
f 17/10/1 15/10/1 14/10/1
f 17/8/1 14/8/1 16/8/1
f 18/9/1 12/9/1 15/9/1
f 18/10/1 15/10/1 17/10/1
f 19/8/1 16/8/1 9/8/1
f 20/10/1 17/10/1 16/10/1
f 20/8/1 16/8/1 19/8/1
f 21/9/1 18/9/1 17/9/1
f 21/10/1 17/10/1 20/10/1
f 22/9/1 12/9/1 18/9/1
f 22/9/1 18/9/1 21/9/1
f 23/9/1 12/9/1 22/9/1
f 24/7/1 21/7/1 20/7/1
f 24/7/1 20/7/1 19/7/1
f 24/10/1 23/10/1 22/10/1
f 24/7/1 22/7/1 21/7/1
f 25/10/1 23/10/1 24/10/1
f 26/7/1 24/7/1 19/7/1
f 26/7/1 25/7/1 24/7/1
f 27/7/1 25/7/1 26/7/1
f 28/5/2 29/5/2 32/5/2
f 32/5/2 29/5/2 33/5/2
f 30/6/2 31/6/2 34/6/2
f 34/6/2 31/6/2 35/6/2
f 32/4/2 33/4/2 36/4/2
f 36/4/2 33/4/2 37/4/2
f 34/11/2 35/11/2 38/11/2
f 38/11/2 35/11/2 39/11/2
f 37/11/2 38/11/2 41/11/2
f 41/11/2 38/11/2 42/11/2
f 40/2/2 41/2/2 44/2/2
f 44/2/2 41/2/2 45/2/2
f 42/2/2 43/2/2 47/2/2
f 47/2/2 43/2/2 48/2/2
f 46/9/2 47/9/2 49/9/2
f 47/9/2 48/9/2 49/9/2
f 49/9/2 48/9/2 50/9/2
f 45/10/2 46/10/2 51/10/2
f 44/8/2 45/8/2 51/8/2
f 46/9/2 49/9/2 52/9/2
f 51/10/2 46/10/2 52/10/2
f 52/9/2 49/9/2 53/9/2
f 44/8/2 51/8/2 55/8/2
f 51/8/2 52/8/2 55/8/2
f 52/10/2 53/10/2 56/10/2
f 55/8/2 52/8/2 56/8/2
f 53/2/2 54/2/2 57/2/2
f 56/10/2 53/10/2 57/10/2
f 44/8/2 55/8/2 58/8/2
f 56/2/2 57/2/2 59/2/2
f 57/2/2 54/2/2 60/2/2
f 59/2/2 57/2/2 60/2/2
f 60/2/2 54/2/2 61/2/2
f 44/8/2 58/8/2 62/8/2
f 58/10/2 59/10/2 63/10/2
f 62/8/2 58/8/2 63/8/2
f 59/9/2 60/9/2 64/9/2
f 63/10/2 59/10/2 64/10/2
f 64/9/2 60/9/2 65/9/2
f 62/7/2 63/7/2 67/7/2
f 65/10/2 66/10/2 67/10/2
f 64/7/2 65/7/2 67/7/2
f 63/7/2 64/7/2 67/7/2
f 67/10/2 66/10/2 68/10/2
f 62/7/2 67/7/2 69/7/2
f 67/7/2 68/7/2 69/7/2
f 69/7/2 68/7/2 70/7/2
f 71/6/2 72/6/2 73/6/2
f 73/6/2 72/6/2 74/6/2
f 73/11/2 74/11/2 76/11/2
f 76/11/2 74/11/2 77/11/2
f 75/4/2 76/4/2 79/4/2
f 79/4/2 76/4/2 80/4/2
f 77/11/2 78/11/2 81/11/2
f 81/11/2 78/11/2 82/11/2
f 80/11/2 81/11/2 83/11/2
f 83/11/2 81/11/2 84/11/2
f 85/3/2 86/3/2 87/3/2
f 87/3/2 86/3/2 88/3/2
f 89/3/2 90/3/2 91/3/2
f 91/3/2 90/3/2 92/3/2
f 93/3/2 94/3/2 95/3/2
f 95/3/2 94/3/2 96/3/2
f 103/5/3 98/5/3 97/5/3
f 103/11/3 99/11/3 98/11/3
f 104/2/3 100/2/3 99/2/3
f 104/11/3 99/11/3 103/11/3
f 105/5/3 103/5/3 97/5/3
f 106/4/3 104/4/3 103/4/3
f 106/5/3 103/5/3 105/5/3
f 107/4/3 104/4/3 106/4/3
f 108/2/3 100/2/3 104/2/3
f 108/4/3 104/4/3 107/4/3
f 109/8/3 101/8/3 100/8/3
f 109/2/3 100/2/3 108/2/3
f 110/7/3 102/7/3 101/7/3
f 110/8/3 101/8/3 109/8/3
f 111/7/3 102/7/3 110/7/3
f 112/4/3 108/4/3 107/4/3
f 113/4/3 108/4/3 112/4/3
f 121/6/3 115/6/3 114/6/3
f 122/11/3 116/11/3 115/11/3
f 122/6/3 115/6/3 121/6/3
f 123/11/3 116/11/3 122/11/3
f 124/11/3 118/11/3 117/11/3
f 125/11/3 118/11/3 124/11/3
f 126/3/3 120/3/3 119/3/3
f 127/3/3 120/3/3 126/3/3
f 134/11/3 129/11/3 128/11/3
f 135/11/3 129/11/3 134/11/3
f 136/3/3 131/3/3 130/3/3
f 137/3/3 131/3/3 136/3/3
f 138/3/3 133/3/3 132/3/3
f 139/3/3 133/3/3 138/3/3
f 140/4/4 141/4/4 142/4/4
f 142/4/4 141/4/4 143/4/4
f 144/3/4 145/3/4 146/3/4
f 146/3/4 145/3/4 147/3/4
f 148/6/4 149/6/4 153/6/4
f 149/11/4 150/11/4 154/11/4
f 153/6/4 149/6/4 154/6/4
f 154/11/4 150/11/4 155/11/4
f 151/11/4 152/11/4 156/11/4
f 156/11/4 152/11/4 157/11/4
f 161/9/4 162/9/4 165/9/4
f 165/9/4 162/9/4 166/9/4
f 166/9/4 162/9/4 167/9/4
f 162/10/4 163/10/4 168/10/4
f 167/9/4 162/9/4 168/9/4
f 158/6/4 159/6/4 169/6/4
f 159/11/4 160/11/4 170/11/4
f 169/6/4 159/6/4 170/6/4
f 170/11/4 160/11/4 171/11/4
f 160/2/4 161/2/4 172/2/4
f 171/11/4 160/11/4 172/11/4
f 161/9/4 165/9/4 173/9/4
f 172/2/4 161/2/4 173/2/4
f 165/3/4 166/3/4 174/3/4
f 173/9/4 165/9/4 174/9/4
f 166/2/4 167/2/4 175/2/4
f 174/3/4 166/3/4 175/3/4
f 167/3/4 168/3/4 176/3/4
f 175/2/4 167/2/4 176/2/4
f 168/10/4 163/10/4 177/10/4
f 176/3/4 168/3/4 177/3/4
f 163/7/4 164/7/4 178/7/4
f 177/10/4 163/10/4 178/10/4
f 178/7/4 164/7/4 179/7/4
f 171/11/4 172/11/4 180/11/4
f 180/11/4 172/11/4 181/11/4
f 174/3/4 175/3/4 182/3/4
f 182/3/4 175/3/4 183/3/4
f 176/3/4 177/3/4 184/3/4
f 184/3/4 177/3/4 185/3/4
f 188/5/5 187/5/5 186/5/5
f 189/5/5 187/5/5 188/5/5
f 191/6/5 189/6/5 188/6/5
f 191/6/5 190/6/5 189/6/5
f 192/6/5 190/6/5 191/6/5
f 193/6/5 191/6/5 188/6/5
f 194/6/5 191/6/5 193/6/5
f 197/4/5 196/4/5 195/4/5
f 198/4/5 196/4/5 197/4/5
f 201/11/5 200/11/5 199/11/5
f 202/11/5 200/11/5 201/11/5
f 205/11/5 204/11/5 203/11/5
f 206/11/5 204/11/5 205/11/5
f 209/3/5 208/3/5 207/3/5
f 210/3/5 208/3/5 209/3/5
f 213/3/5 212/3/5 211/3/5
f 214/3/5 212/3/5 213/3/5
f 217/3/5 216/3/5 215/3/5
f 218/3/5 216/3/5 217/3/5
f 219/11/6 220/11/6 221/11/6
f 221/11/6 220/11/6 222/11/6
f 223/4/6 224/4/6 225/4/6
f 225/4/6 224/4/6 226/4/6
f 227/11/6 228/11/6 229/11/6
f 229/11/6 228/11/6 230/11/6
f 231/11/6 232/11/6 233/11/6
f 233/11/6 232/11/6 234/11/6
f 234/11/6 232/11/6 235/11/6
f 236/3/6 237/3/6 238/3/6
f 238/3/6 237/3/6 239/3/6
f 240/3/6 241/3/6 242/3/6
f 242/3/6 241/3/6 243/3/6
f 244/3/6 245/3/6 246/3/6
f 246/3/6 245/3/6 247/3/6
f 248/7/6 249/7/6 250/7/6
f 250/7/6 249/7/6 251/7/6
