# MagicaVoxel @ Ephtracy

# group
o 

# material
mtllib RoadStraightHasarli.mtl
usemtl palette

# normals
vn -1 0 0
vn 1 0 0
vn 0 0 1
vn 0 0 -1
vn 0 -1 0
vn 0 1 0

# texcoords
vt 0.447266 0.5
vt 0.958984 0.5
vt 0.990234 0.5

# verts
v -2 0 2
v -2 0 -2
v -2 0.1 2
v -2 0.1 -2
v -1.6 0 -1.3
v -1.6 0 -1.5
v -1.6 0.1 -1.3
v -1.6 0.1 -1.5
v -1.5 0 -1.1
v -1.5 0 -1.3
v -1.5 0.1 -1.1
v -1.5 0.1 -1.3
v -1.4 0 -0.9
v -1.4 0 -1.1
v -1.4 0.1 -0.9
v -1.4 0.1 -1.1
v -1.3 0 -0.7
v -1.3 0 -0.9
v -1.3 0.1 -0.7
v -1.3 0.1 -0.9
v -1.2 0 -0.5
v -1.2 0 -0.7
v -1.2 0.1 -0.5
v -1.2 0.1 -0.7
v -1.1 0 -0.3
v -1.1 0 -0.5
v -1.1 0.1 -0.3
v -1.1 0.1 -0.5
v -1 0 -0.1
v -1 0 -0.3
v -1 0.1 -0.1
v -1 0.1 -0.3
v -0.9 0 0.0999999
v -0.9 0 -0.1
v -0.9 0.1 0.0999999
v -0.9 0.1 -0.1
v -0.8 0 0.3
v -0.8 0 0.0999999
v -0.8 0.1 0.3
v -0.8 0.1 0.0999999
v -0.7 0 0.5
v -0.7 0 0.3
v -0.7 0.1 0.5
v -0.7 0.1 0.3
v -0.6 0 0.7
v -0.6 0 0.5
v -0.6 0.1 0.7
v -0.6 0.1 0.5
v -0.5 0 0.9
v -0.5 0 0.7
v -0.5 0.1 0.9
v -0.5 0.1 0.7
v -0.4 0 1.1
v -0.4 0 0.9
v -0.4 0.1 1.1
v -0.4 0.1 0.9
v -0.3 0 1.3
v -0.3 0 1.1
v -0.3 0 -0.5
v -0.3 0 -0.6
v -0.3 0.1 1.3
v -0.3 0.1 1.1
v -0.3 0.1 -0.5
v -0.3 0.1 -0.6
v -0.2 0 1.5
v -0.2 0 1.3
v -0.2 0 -0.6
v -0.2 0 -0.7
v -0.2 0.1 1.5
v -0.2 0.1 1.3
v -0.2 0.1 -0.6
v -0.2 0.1 -0.7
v -0.0999999 0 1.7
v -0.0999999 0 1.5
v -0.0999999 0 0.5
v -0.0999999 0 0.4
v -0.0999999 0.1 1.7
v -0.0999999 0.1 1.5
v -0.0999999 0.1 0.5
v -0.0999999 0.1 0.4
v 2.38419e-07 0 1.9
v 2.38419e-07 0 1.7
v 2.38419e-07 0 0.4
v 2.38419e-07 0 0.3
v 2.38419e-07 0 -0.7
v 2.38419e-07 0 -0.8
v 2.38419e-07 0.1 1.9
v 2.38419e-07 0.1 1.7
v 2.38419e-07 0.1 0.4
v 2.38419e-07 0.1 0.3
v 2.38419e-07 0.1 -0.7
v 2.38419e-07 0.1 -0.8
v 0.1 0 0.3
v 0.1 0 0.2
v 0.1 0 -0.8
v 0.1 0 -0.9
v 0.1 0.1 0.3
v 0.1 0.1 0.2
v 0.1 0.1 -0.8
v 0.1 0.1 -0.9
v 0.2 0 -0.9
v 0.2 0 -1
v 0.2 0.1 -0.9
v 0.2 0.1 -1
v 0.3 0 0.2
v 0.3 0 0.0999999
v 0.3 0 -1
v 0.3 0 -1.1
v 0.3 0.1 0.2
v 0.3 0.1 0.0999999
v 0.3 0.1 -1
v 0.3 0.1 -1.1
v 0.4 0 0.0999999
v 0.4 0 -2.38419e-07
v 0.4 0.1 0.0999999
v 0.4 0.1 -2.38419e-07
v 0.5 0 -2.38419e-07
v 0.5 0 -0.1
v 0.5 0 -1.1
v 0.5 0 -1.2
v 0.5 0.1 -2.38419e-07
v 0.5 0.1 -0.1
v 0.5 0.1 -1.1
v 0.5 0.1 -1.2
v 0.6 0 -0.1
v 0.6 0 -0.2
v 0.6 0 -1.2
v 0.6 0 -1.3
v 0.6 0.1 -0.1
v 0.6 0.1 -0.2
v 0.6 0.1 -1.2
v 0.6 0.1 -1.3
v 0.7 0 -0.2
v 0.7 0 -0.3
v 0.7 0 -1.3
v 0.7 0 -1.4
v 0.7 0.1 -0.2
v 0.7 0.1 -0.3
v 0.7 0.1 -1.3
v 0.7 0.1 -1.4
v 0.9 0 -0.3
v 0.9 0 -0.4
v 0.9 0 -1.4
v 0.9 0 -1.5
v 0.9 0.1 -0.3
v 0.9 0.1 -0.4
v 0.9 0.1 -1.4
v 0.9 0.1 -1.5
v 1 0 -0.4
v 1 0 -0.5
v 1 0 -1.5
v 1 0 -1.6
v 1 0.1 -0.4
v 1 0.1 -0.5
v 1 0.1 -1.5
v 1 0.1 -1.6
v 1.1 0 -0.5
v 1.1 0 -0.6
v 1.1 0 -1.6
v 1.1 0 -1.7
v 1.1 0.1 -0.5
v 1.1 0.1 -0.6
v 1.1 0.1 -1.6
v 1.1 0.1 -1.7
v 1.2 0 -0.6
v 1.2 0 -0.7
v 1.2 0.1 -0.6
v 1.2 0.1 -0.7
v 1.3 0 -0.7
v 1.3 0 -0.8
v 1.3 0.1 -0.7
v 1.3 0.1 -0.8
v 1.5 0 -0.8
v 1.5 0 -0.9
v 1.5 0.1 -0.8
v 1.5 0.1 -0.9
v 1.6 0 -0.9
v 1.6 0 -1
v 1.6 0.1 -0.9
v 1.6 0.1 -1
v 1.7 0 -1
v 1.7 0 -1.1
v 1.7 0.1 -1
v 1.7 0.1 -1.1
v 1.8 0 -1.1
v 1.8 0 -1.2
v 1.8 0.1 -1.1
v 1.8 0.1 -1.2
v -1.7 0 -1.3
v -1.7 0 -1.5
v -1.7 0.1 -1.3
v -1.7 0.1 -1.5
v -1.6 0 -1.1
v -1.6 0 -1.3
v -1.6 0.1 -1.1
v -1.6 0.1 -1.3
v -1.5 0 -0.9
v -1.5 0 -1.1
v -1.5 0.1 -0.9
v -1.5 0.1 -1.1
v -1.4 0 -0.7
v -1.4 0 -0.9
v -1.4 0.1 -0.7
v -1.4 0.1 -0.9
v -1.3 0 -0.5
v -1.3 0 -0.7
v -1.3 0.1 -0.5
v -1.3 0.1 -0.7
v -1.2 0 -0.3
v -1.2 0 -0.5
v -1.2 0.1 -0.3
v -1.2 0.1 -0.5
v -1.1 0 -0.1
v -1.1 0 -0.3
v -1.1 0.1 -0.1
v -1.1 0.1 -0.3
v -1 0 0.0999999
v -1 0 -0.1
v -1 0.1 0.0999999
v -1 0.1 -0.1
v -0.9 0 0.3
v -0.9 0 0.0999999
v -0.9 0.1 0.3
v -0.9 0.1 0.0999999
v -0.8 0 0.5
v -0.8 0 0.3
v -0.8 0.1 0.5
v -0.8 0.1 0.3
v -0.7 0 0.7
v -0.7 0 0.5
v -0.7 0.1 0.7
v -0.7 0.1 0.5
v -0.6 0 0.9
v -0.6 0 0.7
v -0.6 0.1 0.9
v -0.6 0.1 0.7
v -0.5 0 1.1
v -0.5 0 0.9
v -0.5 0.1 1.1
v -0.5 0.1 0.9
v -0.4 0 1.3
v -0.4 0 1.1
v -0.4 0 -0.5
v -0.4 0 -0.6
v -0.4 0.1 1.3
v -0.4 0.1 1.1
v -0.4 0.1 -0.5
v -0.4 0.1 -0.6
v -0.3 0 1.5
v -0.3 0 1.3
v -0.3 0 -0.6
v -0.3 0 -0.7
v -0.3 0.1 1.5
v -0.3 0.1 1.3
v -0.3 0.1 -0.6
v -0.3 0.1 -0.7
v -0.2 0 1.7
v -0.2 0 1.5
v -0.2 0 0.5
v -0.2 0 0.4
v -0.2 0 -0.7
v -0.2 0 -0.8
v -0.2 0.1 1.7
v -0.2 0.1 1.5
v -0.2 0.1 0.5
v -0.2 0.1 0.4
v -0.2 0.1 -0.7
v -0.2 0.1 -0.8
v -0.0999999 0 1.9
v -0.0999999 0 1.7
v -0.0999999 0 0.4
v -0.0999999 0 0.3
v -0.0999999 0.1 1.9
v -0.0999999 0.1 1.7
v -0.0999999 0.1 0.4
v -0.0999999 0.1 0.3
v 2.38419e-07 0 0.3
v 2.38419e-07 0 0.2
v 2.38419e-07 0 -0.8
v 2.38419e-07 0 -0.9
v 2.38419e-07 0.1 0.3
v 2.38419e-07 0.1 0.2
v 2.38419e-07 0.1 -0.8
v 2.38419e-07 0.1 -0.9
v 0.1 0 0.2
v 0.1 0 0.0999999
v 0.1 0 -0.9
v 0.1 0 -1
v 0.1 0.1 0.2
v 0.1 0.1 0.0999999
v 0.1 0.1 -0.9
v 0.1 0.1 -1
v 0.2 0 -1
v 0.2 0 -1.1
v 0.2 0.1 -1
v 0.2 0.1 -1.1
v 0.3 0 0.0999999
v 0.3 0 -2.38419e-07
v 0.3 0 -1.1
v 0.3 0 -1.2
v 0.3 0.1 0.0999999
v 0.3 0.1 -2.38419e-07
v 0.3 0.1 -1.1
v 0.3 0.1 -1.2
v 0.4 0 -2.38419e-07
v 0.4 0 -0.1
v 0.4 0.1 -2.38419e-07
v 0.4 0.1 -0.1
v 0.5 0 -0.1
v 0.5 0 -0.2
v 0.5 0 -1.2
v 0.5 0 -1.3
v 0.5 0.1 -0.1
v 0.5 0.1 -0.2
v 0.5 0.1 -1.2
v 0.5 0.1 -1.3
v 0.6 0 -0.2
v 0.6 0 -0.3
v 0.6 0 -1.3
v 0.6 0 -1.4
v 0.6 0.1 -0.2
v 0.6 0.1 -0.3
v 0.6 0.1 -1.3
v 0.6 0.1 -1.4
v 0.7 0 -0.3
v 0.7 0 -0.4
v 0.7 0 -1.4
v 0.7 0 -1.5
v 0.7 0.1 -0.3
v 0.7 0.1 -0.4
v 0.7 0.1 -1.4
v 0.7 0.1 -1.5
v 0.9 0 -0.4
v 0.9 0 -0.5
v 0.9 0 -1.5
v 0.9 0 -1.6
v 0.9 0.1 -0.4
v 0.9 0.1 -0.5
v 0.9 0.1 -1.5
v 0.9 0.1 -1.6
v 1 0 -0.5
v 1 0 -0.6
v 1 0 -1.6
v 1 0 -1.7
v 1 0.1 -0.5
v 1 0.1 -0.6
v 1 0.1 -1.6
v 1 0.1 -1.7
v 1.1 0 -0.6
v 1.1 0 -0.7
v 1.1 0.1 -0.6
v 1.1 0.1 -0.7
v 1.2 0 -0.7
v 1.2 0 -0.8
v 1.2 0.1 -0.7
v 1.2 0.1 -0.8
v 1.3 0 -0.8
v 1.3 0 -0.9
v 1.3 0.1 -0.8
v 1.3 0.1 -0.9
v 1.5 0 -0.9
v 1.5 0 -1
v 1.5 0.1 -0.9
v 1.5 0.1 -1
v 1.6 0 -1
v 1.6 0 -1.1
v 1.6 0.1 -1
v 1.6 0.1 -1.1
v 1.7 0 -1.1
v 1.7 0 -1.2
v 1.7 0.1 -1.1
v 1.7 0.1 -1.2
v 2 0 2
v 2 0 -2
v 2 0.1 2
v 2 0.1 -2
v -2 0 2
v -2 0.1 2
v -1.5 0 2
v -1.5 0.1 2
v -0.0999999 0 2
v -0.0999999 0.1 2
v 0.1 0 2
v 0.1 0.1 2
v 1.5 0 2
v 1.5 0.1 2
v 2 0 2
v 2 0.1 2
v -0.0999999 0 1.7
v -0.0999999 0.1 1.7
v 2.38419e-07 0 1.7
v 2.38419e-07 0.1 1.7
v -0.2 0 1.5
v -0.2 0.1 1.5
v -0.0999999 0 1.5
v -0.0999999 0.1 1.5
v -0.3 0 1.3
v -0.3 0.1 1.3
v -0.2 0 1.3
v -0.2 0.1 1.3
v -0.4 0 1.1
v -0.4 0.1 1.1
v -0.3 0 1.1
v -0.3 0.1 1.1
v -0.5 0 0.9
v -0.5 0.1 0.9
v -0.4 0 0.9
v -0.4 0.1 0.9
v -0.6 0 0.7
v -0.6 0.1 0.7
v -0.5 0 0.7
v -0.5 0.1 0.7
v -0.7 0 0.5
v -0.7 0.1 0.5
v -0.6 0 0.5
v -0.6 0.1 0.5
v -0.2 0 0.4
v -0.2 0.1 0.4
v -0.0999999 0 0.4
v -0.0999999 0.1 0.4
v -0.8 0 0.3
v -0.8 0.1 0.3
v -0.7 0 0.3
v -0.7 0.1 0.3
v -0.0999999 0 0.3
v -0.0999999 0.1 0.3
v 2.38419e-07 0 0.3
v 2.38419e-07 0.1 0.3
v 2.38419e-07 0 0.2
v 2.38419e-07 0.1 0.2
v 0.1 0 0.2
v 0.1 0.1 0.2
v -0.9 0 0.0999999
v -0.9 0.1 0.0999999
v -0.8 0 0.0999999
v -0.8 0.1 0.0999999
v 0.1 0 0.0999999
v 0.1 0.1 0.0999999
v 0.3 0 0.0999999
v 0.3 0.1 0.0999999
v 0.3 0 -2.38419e-07
v 0.3 0.1 -2.38419e-07
v 0.4 0 -2.38419e-07
v 0.4 0.1 -2.38419e-07
v -1 0 -0.1
v -1 0.1 -0.1
v -0.9 0 -0.1
v -0.9 0.1 -0.1
v 0.4 0 -0.1
v 0.4 0.1 -0.1
v 0.5 0 -0.1
v 0.5 0.1 -0.1
v 0.5 0 -0.2
v 0.5 0.1 -0.2
v 0.6 0 -0.2
v 0.6 0.1 -0.2
v -1.1 0 -0.3
v -1.1 0.1 -0.3
v -1 0 -0.3
v -1 0.1 -0.3
v 0.6 0 -0.3
v 0.6 0.1 -0.3
v 0.7 0 -0.3
v 0.7 0.1 -0.3
v 0.7 0 -0.4
v 0.7 0.1 -0.4
v 0.9 0 -0.4
v 0.9 0.1 -0.4
v -1.2 0 -0.5
v -1.2 0.1 -0.5
v -1.1 0 -0.5
v -1.1 0.1 -0.5
v 0.9 0 -0.5
v 0.9 0.1 -0.5
v 1 0 -0.5
v 1 0.1 -0.5
v -0.4 0 -0.6
v -0.4 0.1 -0.6
v -0.3 0 -0.6
v -0.3 0.1 -0.6
v 1 0 -0.6
v 1 0.1 -0.6
v 1.1 0 -0.6
v 1.1 0.1 -0.6
v -1.3 0 -0.7
v -1.3 0.1 -0.7
v -1.2 0 -0.7
v -1.2 0.1 -0.7
v -0.3 0 -0.7
v -0.3 0.1 -0.7
v -0.2 0 -0.7
v -0.2 0.1 -0.7
v 1.1 0 -0.7
v 1.1 0.1 -0.7
v 1.2 0 -0.7
v 1.2 0.1 -0.7
v -0.2 0 -0.8
v -0.2 0.1 -0.8
v -0.0999999 0 -0.8
v -0.0999999 0.1 -0.8
v 2.38419e-07 0 -0.8
v 2.38419e-07 0.1 -0.8
v 1.2 0 -0.8
v 1.2 0.1 -0.8
v 1.3 0 -0.8
v 1.3 0.1 -0.8
v -1.4 0 -0.9
v -1.4 0.1 -0.9
v -1.3 0 -0.9
v -1.3 0.1 -0.9
v 2.38419e-07 0 -0.9
v 2.38419e-07 0.1 -0.9
v 0.1 0 -0.9
v 0.1 0.1 -0.9
v 1.3 0 -0.9
v 1.3 0.1 -0.9
v 1.5 0 -0.9
v 1.5 0.1 -0.9
v 0.1 0 -1
v 0.1 0.1 -1
v 0.2 0 -1
v 0.2 0.1 -1
v 1.5 0 -1
v 1.5 0.1 -1
v 1.6 0 -1
v 1.6 0.1 -1
v -1.5 0 -1.1
v -1.5 0.1 -1.1
v -1.4 0 -1.1
v -1.4 0.1 -1.1
v 0.2 0 -1.1
v 0.2 0.1 -1.1
v 0.3 0 -1.1
v 0.3 0.1 -1.1
v 1.6 0 -1.1
v 1.6 0.1 -1.1
v 1.7 0 -1.1
v 1.7 0.1 -1.1
v 0.3 0 -1.2
v 0.3 0.1 -1.2
v 0.5 0 -1.2
v 0.5 0.1 -1.2
v 1.7 0 -1.2
v 1.7 0.1 -1.2
v 1.8 0 -1.2
v 1.8 0.1 -1.2
v -1.6 0 -1.3
v -1.6 0.1 -1.3
v -1.5 0 -1.3
v -1.5 0.1 -1.3
v 0.5 0 -1.3
v 0.5 0.1 -1.3
v 0.6 0 -1.3
v 0.6 0.1 -1.3
v 0.6 0 -1.4
v 0.6 0.1 -1.4
v 0.7 0 -1.4
v 0.7 0.1 -1.4
v -1.7 0 -1.5
v -1.7 0.1 -1.5
v -1.6 0 -1.5
v -1.6 0.1 -1.5
v 0.7 0 -1.5
v 0.7 0.1 -1.5
v 0.9 0 -1.5
v 0.9 0.1 -1.5
v 0.9 0 -1.6
v 0.9 0.1 -1.6
v 1 0 -1.6
v 1 0.1 -1.6
v 1 0 -1.7
v 1 0.1 -1.7
v 1.1 0 -1.7
v 1.1 0.1 -1.7
v -0.0999999 0 1.9
v -0.0999999 0.1 1.9
v 2.38419e-07 0 1.9
v 2.38419e-07 0.1 1.9
v -0.2 0 1.7
v -0.2 0.1 1.7
v -0.0999999 0 1.7
v -0.0999999 0.1 1.7
v -0.3 0 1.5
v -0.3 0.1 1.5
v -0.2 0 1.5
v -0.2 0.1 1.5
v -0.4 0 1.3
v -0.4 0.1 1.3
v -0.3 0 1.3
v -0.3 0.1 1.3
v -0.5 0 1.1
v -0.5 0.1 1.1
v -0.4 0 1.1
v -0.4 0.1 1.1
v -0.6 0 0.9
v -0.6 0.1 0.9
v -0.5 0 0.9
v -0.5 0.1 0.9
v -0.7 0 0.7
v -0.7 0.1 0.7
v -0.6 0 0.7
v -0.6 0.1 0.7
v -0.8 0 0.5
v -0.8 0.1 0.5
v -0.7 0 0.5
v -0.7 0.1 0.5
v -0.2 0 0.5
v -0.2 0.1 0.5
v -0.0999999 0 0.5
v -0.0999999 0.1 0.5
v -0.0999999 0 0.4
v -0.0999999 0.1 0.4
v 2.38419e-07 0 0.4
v 2.38419e-07 0.1 0.4
v -0.9 0 0.3
v -0.9 0.1 0.3
v -0.8 0 0.3
v -0.8 0.1 0.3
v 2.38419e-07 0 0.3
v 2.38419e-07 0.1 0.3
v 0.1 0 0.3
v 0.1 0.1 0.3
v 0.1 0 0.2
v 0.1 0.1 0.2
v 0.3 0 0.2
v 0.3 0.1 0.2
v -1 0 0.0999999
v -1 0.1 0.0999999
v -0.9 0 0.0999999
v -0.9 0.1 0.0999999
v 0.3 0 0.0999999
v 0.3 0.1 0.0999999
v 0.4 0 0.0999999
v 0.4 0.1 0.0999999
v 0.4 0 -2.38419e-07
v 0.4 0.1 -2.38419e-07
v 0.5 0 -2.38419e-07
v 0.5 0.1 -2.38419e-07
v -1.1 0 -0.1
v -1.1 0.1 -0.1
v -1 0 -0.1
v -1 0.1 -0.1
v 0.5 0 -0.1
v 0.5 0.1 -0.1
v 0.6 0 -0.1
v 0.6 0.1 -0.1
v 0.6 0 -0.2
v 0.6 0.1 -0.2
v 0.7 0 -0.2
v 0.7 0.1 -0.2
v -1.2 0 -0.3
v -1.2 0.1 -0.3
v -1.1 0 -0.3
v -1.1 0.1 -0.3
v 0.7 0 -0.3
v 0.7 0.1 -0.3
v 0.9 0 -0.3
v 0.9 0.1 -0.3
v 0.9 0 -0.4
v 0.9 0.1 -0.4
v 1 0 -0.4
v 1 0.1 -0.4
v -1.3 0 -0.5
v -1.3 0.1 -0.5
v -1.2 0 -0.5
v -1.2 0.1 -0.5
v -0.4 0 -0.5
v -0.4 0.1 -0.5
v -0.3 0 -0.5
v -0.3 0.1 -0.5
v 1 0 -0.5
v 1 0.1 -0.5
v 1.1 0 -0.5
v 1.1 0.1 -0.5
v -0.3 0 -0.6
v -0.3 0.1 -0.6
v -0.2 0 -0.6
v -0.2 0.1 -0.6
v 1.1 0 -0.6
v 1.1 0.1 -0.6
v 1.2 0 -0.6
v 1.2 0.1 -0.6
v -1.4 0 -0.7
v -1.4 0.1 -0.7
v -1.3 0 -0.7
v -1.3 0.1 -0.7
v -0.2 0 -0.7
v -0.2 0.1 -0.7
v -0.0999999 0 -0.7
v -0.0999999 0.1 -0.7
v 2.38419e-07 0 -0.7
v 2.38419e-07 0.1 -0.7
v 1.2 0 -0.7
v 1.2 0.1 -0.7
v 1.3 0 -0.7
v 1.3 0.1 -0.7
v 2.38419e-07 0 -0.8
v 2.38419e-07 0.1 -0.8
v 0.1 0 -0.8
v 0.1 0.1 -0.8
v 1.3 0 -0.8
v 1.3 0.1 -0.8
v 1.5 0 -0.8
v 1.5 0.1 -0.8
v -1.5 0 -0.9
v -1.5 0.1 -0.9
v -1.4 0 -0.9
v -1.4 0.1 -0.9
v 0.1 0 -0.9
v 0.1 0.1 -0.9
v 0.2 0 -0.9
v 0.2 0.1 -0.9
v 1.5 0 -0.9
v 1.5 0.1 -0.9
v 1.6 0 -0.9
v 1.6 0.1 -0.9
v 0.2 0 -1
v 0.2 0.1 -1
v 0.3 0 -1
v 0.3 0.1 -1
v 1.6 0 -1
v 1.6 0.1 -1
v 1.7 0 -1
v 1.7 0.1 -1
v -1.6 0 -1.1
v -1.6 0.1 -1.1
v -1.5 0 -1.1
v -1.5 0.1 -1.1
v 0.3 0 -1.1
v 0.3 0.1 -1.1
v 0.5 0 -1.1
v 0.5 0.1 -1.1
v 1.7 0 -1.1
v 1.7 0.1 -1.1
v 1.8 0 -1.1
v 1.8 0.1 -1.1
v 0.5 0 -1.2
v 0.5 0.1 -1.2
v 0.6 0 -1.2
v 0.6 0.1 -1.2
v -1.7 0 -1.3
v -1.7 0.1 -1.3
v -1.6 0 -1.3
v -1.6 0.1 -1.3
v 0.6 0 -1.3
v 0.6 0.1 -1.3
v 0.7 0 -1.3
v 0.7 0.1 -1.3
v 0.7 0 -1.4
v 0.7 0.1 -1.4
v 0.9 0 -1.4
v 0.9 0.1 -1.4
v 0.9 0 -1.5
v 0.9 0.1 -1.5
v 1 0 -1.5
v 1 0.1 -1.5
v 1 0 -1.6
v 1 0.1 -1.6
v 1.1 0 -1.6
v 1.1 0.1 -1.6
v -2 0 -2
v -2 0.1 -2
v -1.5 0 -2
v -1.5 0.1 -2
v -0.0999999 0 -2
v -0.0999999 0.1 -2
v 0.1 0 -2
v 0.1 0.1 -2
v 1.5 0 -2
v 1.5 0.1 -2
v 2 0 -2
v 2 0.1 -2
v -2 0 2
v -1.5 0 2
v -0.0999999 0 2
v 0.1 0 2
v 1.5 0 2
v 2 0 2
v -0.0999999 0 1.9
v 2.38419e-07 0 1.9
v -0.2 0 1.7
v -0.0999999 0 1.7
v 2.38419e-07 0 1.7
v -0.3 0 1.5
v -0.2 0 1.5
v -0.0999999 0 1.5
v -0.4 0 1.3
v -0.3 0 1.3
v -0.2 0 1.3
v -0.5 0 1.1
v -0.4 0 1.1
v -0.3 0 1.1
v -0.6 0 0.9
v -0.5 0 0.9
v -0.4 0 0.9
v -0.7 0 0.7
v -0.6 0 0.7
v -0.5 0 0.7
v -0.8 0 0.5
v -0.7 0 0.5
v -0.6 0 0.5
v -0.2 0 0.5
v -0.0999999 0 0.5
v -0.2 0 0.4
v -0.0999999 0 0.4
v 2.38419e-07 0 0.4
v -0.9 0 0.3
v -0.8 0 0.3
v -0.7 0 0.3
v -0.0999999 0 0.3
v 2.38419e-07 0 0.3
v 0.1 0 0.3
v 2.38419e-07 0 0.2
v 0.1 0 0.2
v 0.3 0 0.2
v -1 0 0.0999999
v -0.9 0 0.0999999
v -0.8 0 0.0999999
v 0.1 0 0.0999999
v 0.3 0 0.0999999
v 0.4 0 0.0999999
v 0.3 0 -2.38419e-07
v 0.4 0 -2.38419e-07
v 0.5 0 -2.38419e-07
v -1.1 0 -0.1
v -1 0 -0.1
v -0.9 0 -0.1
v 0.4 0 -0.1
v 0.5 0 -0.1
v 0.6 0 -0.1
v 0.5 0 -0.2
v 0.6 0 -0.2
v 0.7 0 -0.2
v -1.2 0 -0.3
v -1.1 0 -0.3
v -1 0 -0.3
v 0.6 0 -0.3
v 0.7 0 -0.3
v 0.9 0 -0.3
v 0.7 0 -0.4
v 0.9 0 -0.4
v 1 0 -0.4
v -1.3 0 -0.5
v -1.2 0 -0.5
v -1.1 0 -0.5
v -0.4 0 -0.5
v -0.3 0 -0.5
v 0.9 0 -0.5
v 1 0 -0.5
v 1.1 0 -0.5
v -0.4 0 -0.6
v -0.3 0 -0.6
v -0.2 0 -0.6
v 1 0 -0.6
v 1.1 0 -0.6
v 1.2 0 -0.6
v -1.4 0 -0.7
v -1.3 0 -0.7
v -1.2 0 -0.7
v -0.3 0 -0.7
v -0.2 0 -0.7
v -0.0999999 0 -0.7
v 2.38419e-07 0 -0.7
v 1.1 0 -0.7
v 1.2 0 -0.7
v 1.3 0 -0.7
v -0.2 0 -0.8
v -0.0999999 0 -0.8
v 2.38419e-07 0 -0.8
v 0.1 0 -0.8
v 1.2 0 -0.8
v 1.3 0 -0.8
v 1.5 0 -0.8
v -1.5 0 -0.9
v -1.4 0 -0.9
v -1.3 0 -0.9
v 2.38419e-07 0 -0.9
v 0.1 0 -0.9
v 0.2 0 -0.9
v 1.3 0 -0.9
v 1.5 0 -0.9
v 1.6 0 -0.9
v 0.1 0 -1
v 0.2 0 -1
v 0.3 0 -1
v 1.5 0 -1
v 1.6 0 -1
v 1.7 0 -1
v -1.6 0 -1.1
v -1.5 0 -1.1
v -1.4 0 -1.1
v 0.2 0 -1.1
v 0.3 0 -1.1
v 0.5 0 -1.1
v 1.6 0 -1.1
v 1.7 0 -1.1
v 1.8 0 -1.1
v 0.3 0 -1.2
v 0.5 0 -1.2
v 0.6 0 -1.2
v 1.7 0 -1.2
v 1.8 0 -1.2
v -1.7 0 -1.3
v -1.6 0 -1.3
v -1.5 0 -1.3
v 0.5 0 -1.3
v 0.6 0 -1.3
v 0.7 0 -1.3
v 0.6 0 -1.4
v 0.7 0 -1.4
v 0.9 0 -1.4
v -1.7 0 -1.5
v -1.6 0 -1.5
v 0.7 0 -1.5
v 0.9 0 -1.5
v 1 0 -1.5
v 0.9 0 -1.6
v 1 0 -1.6
v 1.1 0 -1.6
v 1 0 -1.7
v 1.1 0 -1.7
v -2 0 -2
v -1.5 0 -2
v -0.0999999 0 -2
v 0.1 0 -2
v 1.5 0 -2
v 2 0 -2
v -2 0.1 2
v -1.5 0.1 2
v -0.0999999 0.1 2
v 0.1 0.1 2
v 1.5 0.1 2
v 2 0.1 2
v -0.0999999 0.1 1.9
v 2.38419e-07 0.1 1.9
v -0.2 0.1 1.7
v -0.0999999 0.1 1.7
v 2.38419e-07 0.1 1.7
v -0.3 0.1 1.5
v -0.2 0.1 1.5
v -0.0999999 0.1 1.5
v -0.4 0.1 1.3
v -0.3 0.1 1.3
v -0.2 0.1 1.3
v -0.5 0.1 1.1
v -0.4 0.1 1.1
v -0.3 0.1 1.1
v -0.6 0.1 0.9
v -0.5 0.1 0.9
v -0.4 0.1 0.9
v -0.7 0.1 0.7
v -0.6 0.1 0.7
v -0.5 0.1 0.7
v -0.8 0.1 0.5
v -0.7 0.1 0.5
v -0.6 0.1 0.5
v -0.2 0.1 0.5
v -0.0999999 0.1 0.5
v -0.2 0.1 0.4
v -0.0999999 0.1 0.4
v 2.38419e-07 0.1 0.4
v -0.9 0.1 0.3
v -0.8 0.1 0.3
v -0.7 0.1 0.3
v -0.0999999 0.1 0.3
v 2.38419e-07 0.1 0.3
v 0.1 0.1 0.3
v 2.38419e-07 0.1 0.2
v 0.1 0.1 0.2
v 0.3 0.1 0.2
v -1 0.1 0.0999999
v -0.9 0.1 0.0999999
v -0.8 0.1 0.0999999
v 0.1 0.1 0.0999999
v 0.3 0.1 0.0999999
v 0.4 0.1 0.0999999
v 0.3 0.1 -2.38419e-07
v 0.4 0.1 -2.38419e-07
v 0.5 0.1 -2.38419e-07
v -1.1 0.1 -0.1
v -1 0.1 -0.1
v -0.9 0.1 -0.1
v 0.4 0.1 -0.1
v 0.5 0.1 -0.1
v 0.6 0.1 -0.1
v 0.5 0.1 -0.2
v 0.6 0.1 -0.2
v 0.7 0.1 -0.2
v -1.2 0.1 -0.3
v -1.1 0.1 -0.3
v -1 0.1 -0.3
v 0.6 0.1 -0.3
v 0.7 0.1 -0.3
v 0.9 0.1 -0.3
v 0.7 0.1 -0.4
v 0.9 0.1 -0.4
v 1 0.1 -0.4
v -1.3 0.1 -0.5
v -1.2 0.1 -0.5
v -1.1 0.1 -0.5
v -0.4 0.1 -0.5
v -0.3 0.1 -0.5
v 0.9 0.1 -0.5
v 1 0.1 -0.5
v 1.1 0.1 -0.5
v -0.4 0.1 -0.6
v -0.3 0.1 -0.6
v -0.2 0.1 -0.6
v 1 0.1 -0.6
v 1.1 0.1 -0.6
v 1.2 0.1 -0.6
v -1.4 0.1 -0.7
v -1.3 0.1 -0.7
v -1.2 0.1 -0.7
v -0.3 0.1 -0.7
v -0.2 0.1 -0.7
v -0.0999999 0.1 -0.7
v 2.38419e-07 0.1 -0.7
v 1.1 0.1 -0.7
v 1.2 0.1 -0.7
v 1.3 0.1 -0.7
v -0.2 0.1 -0.8
v -0.0999999 0.1 -0.8
v 2.38419e-07 0.1 -0.8
v 0.1 0.1 -0.8
v 1.2 0.1 -0.8
v 1.3 0.1 -0.8
v 1.5 0.1 -0.8
v -1.5 0.1 -0.9
v -1.4 0.1 -0.9
v -1.3 0.1 -0.9
v 2.38419e-07 0.1 -0.9
v 0.1 0.1 -0.9
v 0.2 0.1 -0.9
v 1.3 0.1 -0.9
v 1.5 0.1 -0.9
v 1.6 0.1 -0.9
v 0.1 0.1 -1
v 0.2 0.1 -1
v 0.3 0.1 -1
v 1.5 0.1 -1
v 1.6 0.1 -1
v 1.7 0.1 -1
v -1.6 0.1 -1.1
v -1.5 0.1 -1.1
v -1.4 0.1 -1.1
v 0.2 0.1 -1.1
v 0.3 0.1 -1.1
v 0.5 0.1 -1.1
v 1.6 0.1 -1.1
v 1.7 0.1 -1.1
v 1.8 0.1 -1.1
v 0.3 0.1 -1.2
v 0.5 0.1 -1.2
v 0.6 0.1 -1.2
v 1.7 0.1 -1.2
v 1.8 0.1 -1.2
v -1.7 0.1 -1.3
v -1.6 0.1 -1.3
v -1.5 0.1 -1.3
v 0.5 0.1 -1.3
v 0.6 0.1 -1.3
v 0.7 0.1 -1.3
v 0.6 0.1 -1.4
v 0.7 0.1 -1.4
v 0.9 0.1 -1.4
v -1.7 0.1 -1.5
v -1.6 0.1 -1.5
v 0.7 0.1 -1.5
v 0.9 0.1 -1.5
v 1 0.1 -1.5
v 0.9 0.1 -1.6
v 1 0.1 -1.6
v 1.1 0.1 -1.6
v 1 0.1 -1.7
v 1.1 0.1 -1.7
v -2 0.1 -2
v -1.5 0.1 -2
v -0.0999999 0.1 -2
v 0.1 0.1 -2
v 1.5 0.1 -2
v 2 0.1 -2

# faces
f 3/1/1 2/1/1 1/1/1
f 4/1/1 2/1/1 3/1/1
f 7/1/1 6/1/1 5/1/1
f 8/1/1 6/1/1 7/1/1
f 11/3/1 10/3/1 9/3/1
f 12/3/1 10/3/1 11/3/1
f 15/3/1 14/3/1 13/3/1
f 16/3/1 14/3/1 15/3/1
f 19/3/1 18/3/1 17/3/1
f 20/3/1 18/3/1 19/3/1
f 23/3/1 22/3/1 21/3/1
f 24/3/1 22/3/1 23/3/1
f 27/3/1 26/3/1 25/3/1
f 28/3/1 26/3/1 27/3/1
f 31/3/1 30/3/1 29/3/1
f 32/3/1 30/3/1 31/3/1
f 35/3/1 34/3/1 33/3/1
f 36/3/1 34/3/1 35/3/1
f 39/3/1 38/3/1 37/3/1
f 40/3/1 38/3/1 39/3/1
f 43/3/1 42/3/1 41/3/1
f 44/3/1 42/3/1 43/3/1
f 47/3/1 46/3/1 45/3/1
f 48/3/1 46/3/1 47/3/1
f 51/3/1 50/3/1 49/3/1
f 52/3/1 50/3/1 51/3/1
f 55/3/1 54/3/1 53/3/1
f 56/3/1 54/3/1 55/3/1
f 61/3/1 58/3/1 57/3/1
f 62/3/1 58/3/1 61/3/1
f 63/3/1 60/3/1 59/3/1
f 64/3/1 60/3/1 63/3/1
f 69/3/1 66/3/1 65/3/1
f 70/3/1 66/3/1 69/3/1
f 71/3/1 68/3/1 67/3/1
f 72/3/1 68/3/1 71/3/1
f 77/2/1 74/2/1 73/2/1
f 78/2/1 74/2/1 77/2/1
f 79/2/1 76/2/1 75/2/1
f 80/2/1 76/2/1 79/2/1
f 87/2/1 82/2/1 81/2/1
f 88/2/1 82/2/1 87/2/1
f 89/2/1 84/2/1 83/2/1
f 90/2/1 84/2/1 89/2/1
f 91/2/1 86/2/1 85/2/1
f 92/2/1 86/2/1 91/2/1
f 97/3/1 94/3/1 93/3/1
f 98/3/1 94/3/1 97/3/1
f 99/3/1 96/3/1 95/3/1
f 100/3/1 96/3/1 99/3/1
f 103/3/1 102/3/1 101/3/1
f 104/3/1 102/3/1 103/3/1
f 109/3/1 106/3/1 105/3/1
f 110/3/1 106/3/1 109/3/1
f 111/3/1 108/3/1 107/3/1
f 112/3/1 108/3/1 111/3/1
f 115/3/1 114/3/1 113/3/1
f 116/3/1 114/3/1 115/3/1
f 121/3/1 118/3/1 117/3/1
f 122/3/1 118/3/1 121/3/1
f 123/3/1 120/3/1 119/3/1
f 124/3/1 120/3/1 123/3/1
f 129/3/1 126/3/1 125/3/1
f 130/3/1 126/3/1 129/3/1
f 131/3/1 128/3/1 127/3/1
f 132/3/1 128/3/1 131/3/1
f 137/3/1 134/3/1 133/3/1
f 138/3/1 134/3/1 137/3/1
f 139/3/1 136/3/1 135/3/1
f 140/3/1 136/3/1 139/3/1
f 145/3/1 142/3/1 141/3/1
f 146/3/1 142/3/1 145/3/1
f 147/3/1 144/3/1 143/3/1
f 148/3/1 144/3/1 147/3/1
f 153/3/1 150/3/1 149/3/1
f 154/3/1 150/3/1 153/3/1
f 155/3/1 152/3/1 151/3/1
f 156/3/1 152/3/1 155/3/1
f 161/3/1 158/3/1 157/3/1
f 162/3/1 158/3/1 161/3/1
f 163/3/1 160/3/1 159/3/1
f 164/3/1 160/3/1 163/3/1
f 167/3/1 166/3/1 165/3/1
f 168/3/1 166/3/1 167/3/1
f 171/3/1 170/3/1 169/3/1
f 172/3/1 170/3/1 171/3/1
f 175/1/1 174/1/1 173/1/1
f 176/1/1 174/1/1 175/1/1
f 179/1/1 178/1/1 177/1/1
f 180/1/1 178/1/1 179/1/1
f 183/1/1 182/1/1 181/1/1
f 184/1/1 182/1/1 183/1/1
f 187/1/1 186/1/1 185/1/1
f 188/1/1 186/1/1 187/1/1
f 189/1/2 190/1/2 191/1/2
f 191/1/2 190/1/2 192/1/2
f 193/1/2 194/1/2 195/1/2
f 195/1/2 194/1/2 196/1/2
f 197/1/2 198/1/2 199/1/2
f 199/1/2 198/1/2 200/1/2
f 201/3/2 202/3/2 203/3/2
f 203/3/2 202/3/2 204/3/2
f 205/3/2 206/3/2 207/3/2
f 207/3/2 206/3/2 208/3/2
f 209/3/2 210/3/2 211/3/2
f 211/3/2 210/3/2 212/3/2
f 213/3/2 214/3/2 215/3/2
f 215/3/2 214/3/2 216/3/2
f 217/3/2 218/3/2 219/3/2
f 219/3/2 218/3/2 220/3/2
f 221/3/2 222/3/2 223/3/2
f 223/3/2 222/3/2 224/3/2
f 225/3/2 226/3/2 227/3/2
f 227/3/2 226/3/2 228/3/2
f 229/3/2 230/3/2 231/3/2
f 231/3/2 230/3/2 232/3/2
f 233/3/2 234/3/2 235/3/2
f 235/3/2 234/3/2 236/3/2
f 237/3/2 238/3/2 239/3/2
f 239/3/2 238/3/2 240/3/2
f 241/3/2 242/3/2 245/3/2
f 245/3/2 242/3/2 246/3/2
f 243/3/2 244/3/2 247/3/2
f 247/3/2 244/3/2 248/3/2
f 249/3/2 250/3/2 253/3/2
f 253/3/2 250/3/2 254/3/2
f 251/3/2 252/3/2 255/3/2
f 255/3/2 252/3/2 256/3/2
f 257/3/2 258/3/2 263/3/2
f 263/3/2 258/3/2 264/3/2
f 259/3/2 260/3/2 265/3/2
f 265/3/2 260/3/2 266/3/2
f 261/3/2 262/3/2 267/3/2
f 267/3/2 262/3/2 268/3/2
f 269/3/2 270/3/2 273/3/2
f 273/3/2 270/3/2 274/3/2
f 271/3/2 272/3/2 275/3/2
f 275/3/2 272/3/2 276/3/2
f 277/2/2 278/2/2 281/2/2
f 281/2/2 278/2/2 282/2/2
f 279/2/2 280/2/2 283/2/2
f 283/2/2 280/2/2 284/2/2
f 285/2/2 286/2/2 289/2/2
f 289/2/2 286/2/2 290/2/2
f 287/2/2 288/2/2 291/2/2
f 291/2/2 288/2/2 292/2/2
f 293/3/2 294/3/2 295/3/2
f 295/3/2 294/3/2 296/3/2
f 297/3/2 298/3/2 301/3/2
f 301/3/2 298/3/2 302/3/2
f 299/3/2 300/3/2 303/3/2
f 303/3/2 300/3/2 304/3/2
f 305/3/2 306/3/2 307/3/2
f 307/3/2 306/3/2 308/3/2
f 309/3/2 310/3/2 313/3/2
f 313/3/2 310/3/2 314/3/2
f 311/3/2 312/3/2 315/3/2
f 315/3/2 312/3/2 316/3/2
f 317/3/2 318/3/2 321/3/2
f 321/3/2 318/3/2 322/3/2
f 319/3/2 320/3/2 323/3/2
f 323/3/2 320/3/2 324/3/2
f 325/3/2 326/3/2 329/3/2
f 329/3/2 326/3/2 330/3/2
f 327/3/2 328/3/2 331/3/2
f 331/3/2 328/3/2 332/3/2
f 333/3/2 334/3/2 337/3/2
f 337/3/2 334/3/2 338/3/2
f 335/3/2 336/3/2 339/3/2
f 339/3/2 336/3/2 340/3/2
f 341/3/2 342/3/2 345/3/2
f 345/3/2 342/3/2 346/3/2
f 343/3/2 344/3/2 347/3/2
f 347/3/2 344/3/2 348/3/2
f 349/3/2 350/3/2 351/3/2
f 351/3/2 350/3/2 352/3/2
f 353/3/2 354/3/2 355/3/2
f 355/3/2 354/3/2 356/3/2
f 357/3/2 358/3/2 359/3/2
f 359/3/2 358/3/2 360/3/2
f 361/3/2 362/3/2 363/3/2
f 363/3/2 362/3/2 364/3/2
f 365/1/2 366/1/2 367/1/2
f 367/1/2 366/1/2 368/1/2
f 369/1/2 370/1/2 371/1/2
f 371/1/2 370/1/2 372/1/2
f 373/1/2 374/1/2 375/1/2
f 375/1/2 374/1/2 376/1/2
f 379/1/3 378/1/3 377/1/3
f 380/1/3 378/1/3 379/1/3
f 381/3/3 380/3/3 379/3/3
f 382/3/3 380/3/3 381/3/3
f 383/2/3 382/2/3 381/2/3
f 384/2/3 382/2/3 383/2/3
f 385/3/3 384/3/3 383/3/3
f 386/3/3 384/3/3 385/3/3
f 387/1/3 386/1/3 385/1/3
f 388/1/3 386/1/3 387/1/3
f 391/2/3 390/2/3 389/2/3
f 392/2/3 390/2/3 391/2/3
f 395/3/3 394/3/3 393/3/3
f 396/3/3 394/3/3 395/3/3
f 399/3/3 398/3/3 397/3/3
f 400/3/3 398/3/3 399/3/3
f 403/3/3 402/3/3 401/3/3
f 404/3/3 402/3/3 403/3/3
f 407/3/3 406/3/3 405/3/3
f 408/3/3 406/3/3 407/3/3
f 411/3/3 410/3/3 409/3/3
f 412/3/3 410/3/3 411/3/3
f 415/3/3 414/3/3 413/3/3
f 416/3/3 414/3/3 415/3/3
f 419/3/3 418/3/3 417/3/3
f 420/3/3 418/3/3 419/3/3
f 423/3/3 422/3/3 421/3/3
f 424/3/3 422/3/3 423/3/3
f 427/2/3 426/2/3 425/2/3
f 428/2/3 426/2/3 427/2/3
f 431/2/3 430/2/3 429/2/3
f 432/2/3 430/2/3 431/2/3
f 435/3/3 434/3/3 433/3/3
f 436/3/3 434/3/3 435/3/3
f 439/3/3 438/3/3 437/3/3
f 440/3/3 438/3/3 439/3/3
f 443/3/3 442/3/3 441/3/3
f 444/3/3 442/3/3 443/3/3
f 447/3/3 446/3/3 445/3/3
f 448/3/3 446/3/3 447/3/3
f 451/3/3 450/3/3 449/3/3
f 452/3/3 450/3/3 451/3/3
f 455/3/3 454/3/3 453/3/3
f 456/3/3 454/3/3 455/3/3
f 459/3/3 458/3/3 457/3/3
f 460/3/3 458/3/3 459/3/3
f 463/3/3 462/3/3 461/3/3
f 464/3/3 462/3/3 463/3/3
f 467/3/3 466/3/3 465/3/3
f 468/3/3 466/3/3 467/3/3
f 471/3/3 470/3/3 469/3/3
f 472/3/3 470/3/3 471/3/3
f 475/3/3 474/3/3 473/3/3
f 476/3/3 474/3/3 475/3/3
f 479/3/3 478/3/3 477/3/3
f 480/3/3 478/3/3 479/3/3
f 483/3/3 482/3/3 481/3/3
f 484/3/3 482/3/3 483/3/3
f 487/3/3 486/3/3 485/3/3
f 488/3/3 486/3/3 487/3/3
f 491/3/3 490/3/3 489/3/3
f 492/3/3 490/3/3 491/3/3
f 495/3/3 494/3/3 493/3/3
f 496/3/3 494/3/3 495/3/3
f 499/3/3 498/3/3 497/3/3
f 500/3/3 498/3/3 499/3/3
f 501/2/3 500/2/3 499/2/3
f 502/2/3 500/2/3 501/2/3
f 505/3/3 504/3/3 503/3/3
f 506/3/3 504/3/3 505/3/3
f 509/3/3 508/3/3 507/3/3
f 510/3/3 508/3/3 509/3/3
f 513/2/3 512/2/3 511/2/3
f 514/2/3 512/2/3 513/2/3
f 517/3/3 516/3/3 515/3/3
f 518/3/3 516/3/3 517/3/3
f 521/3/3 520/3/3 519/3/3
f 522/3/3 520/3/3 521/3/3
f 525/1/3 524/1/3 523/1/3
f 526/1/3 524/1/3 525/1/3
f 529/3/3 528/3/3 527/3/3
f 530/3/3 528/3/3 529/3/3
f 533/3/3 532/3/3 531/3/3
f 534/3/3 532/3/3 533/3/3
f 537/1/3 536/1/3 535/1/3
f 538/1/3 536/1/3 537/1/3
f 541/3/3 540/3/3 539/3/3
f 542/3/3 540/3/3 541/3/3
f 545/1/3 544/1/3 543/1/3
f 546/1/3 544/1/3 545/1/3
f 549/1/3 548/1/3 547/1/3
f 550/1/3 548/1/3 549/1/3
f 553/3/3 552/3/3 551/3/3
f 554/3/3 552/3/3 553/3/3
f 557/3/3 556/3/3 555/3/3
f 558/3/3 556/3/3 557/3/3
f 561/1/3 560/1/3 559/1/3
f 562/1/3 560/1/3 561/1/3
f 565/3/3 564/3/3 563/3/3
f 566/3/3 564/3/3 565/3/3
f 569/3/3 568/3/3 567/3/3
f 570/3/3 568/3/3 569/3/3
f 573/3/3 572/3/3 571/3/3
f 574/3/3 572/3/3 573/3/3
f 575/2/4 576/2/4 577/2/4
f 577/2/4 576/2/4 578/2/4
f 579/3/4 580/3/4 581/3/4
f 581/3/4 580/3/4 582/3/4
f 583/3/4 584/3/4 585/3/4
f 585/3/4 584/3/4 586/3/4
f 587/3/4 588/3/4 589/3/4
f 589/3/4 588/3/4 590/3/4
f 591/3/4 592/3/4 593/3/4
f 593/3/4 592/3/4 594/3/4
f 595/3/4 596/3/4 597/3/4
f 597/3/4 596/3/4 598/3/4
f 599/3/4 600/3/4 601/3/4
f 601/3/4 600/3/4 602/3/4
f 603/3/4 604/3/4 605/3/4
f 605/3/4 604/3/4 606/3/4
f 607/3/4 608/3/4 609/3/4
f 609/3/4 608/3/4 610/3/4
f 611/2/4 612/2/4 613/2/4
f 613/2/4 612/2/4 614/2/4
f 615/3/4 616/3/4 617/3/4
f 617/3/4 616/3/4 618/3/4
f 619/2/4 620/2/4 621/2/4
f 621/2/4 620/2/4 622/2/4
f 623/3/4 624/3/4 625/3/4
f 625/3/4 624/3/4 626/3/4
f 627/3/4 628/3/4 629/3/4
f 629/3/4 628/3/4 630/3/4
f 631/3/4 632/3/4 633/3/4
f 633/3/4 632/3/4 634/3/4
f 635/3/4 636/3/4 637/3/4
f 637/3/4 636/3/4 638/3/4
f 639/3/4 640/3/4 641/3/4
f 641/3/4 640/3/4 642/3/4
f 643/3/4 644/3/4 645/3/4
f 645/3/4 644/3/4 646/3/4
f 647/3/4 648/3/4 649/3/4
f 649/3/4 648/3/4 650/3/4
f 651/3/4 652/3/4 653/3/4
f 653/3/4 652/3/4 654/3/4
f 655/3/4 656/3/4 657/3/4
f 657/3/4 656/3/4 658/3/4
f 659/3/4 660/3/4 661/3/4
f 661/3/4 660/3/4 662/3/4
f 663/3/4 664/3/4 665/3/4
f 665/3/4 664/3/4 666/3/4
f 667/3/4 668/3/4 669/3/4
f 669/3/4 668/3/4 670/3/4
f 671/3/4 672/3/4 673/3/4
f 673/3/4 672/3/4 674/3/4
f 675/3/4 676/3/4 677/3/4
f 677/3/4 676/3/4 678/3/4
f 679/3/4 680/3/4 681/3/4
f 681/3/4 680/3/4 682/3/4
f 683/3/4 684/3/4 685/3/4
f 685/3/4 684/3/4 686/3/4
f 687/3/4 688/3/4 689/3/4
f 689/3/4 688/3/4 690/3/4
f 689/2/4 690/2/4 691/2/4
f 691/2/4 690/2/4 692/2/4
f 693/3/4 694/3/4 695/3/4
f 695/3/4 694/3/4 696/3/4
f 697/2/4 698/2/4 699/2/4
f 699/2/4 698/2/4 700/2/4
f 701/3/4 702/3/4 703/3/4
f 703/3/4 702/3/4 704/3/4
f 705/3/4 706/3/4 707/3/4
f 707/3/4 706/3/4 708/3/4
f 709/3/4 710/3/4 711/3/4
f 711/3/4 710/3/4 712/3/4
f 713/1/4 714/1/4 715/1/4
f 715/1/4 714/1/4 716/1/4
f 717/3/4 718/3/4 719/3/4
f 719/3/4 718/3/4 720/3/4
f 721/1/4 722/1/4 723/1/4
f 723/1/4 722/1/4 724/1/4
f 725/1/4 726/1/4 727/1/4
f 727/1/4 726/1/4 728/1/4
f 729/3/4 730/3/4 731/3/4
f 731/3/4 730/3/4 732/3/4
f 733/1/4 734/1/4 735/1/4
f 735/1/4 734/1/4 736/1/4
f 737/3/4 738/3/4 739/3/4
f 739/3/4 738/3/4 740/3/4
f 741/1/4 742/1/4 743/1/4
f 743/1/4 742/1/4 744/1/4
f 745/3/4 746/3/4 747/3/4
f 747/3/4 746/3/4 748/3/4
f 749/3/4 750/3/4 751/3/4
f 751/3/4 750/3/4 752/3/4
f 753/3/4 754/3/4 755/3/4
f 755/3/4 754/3/4 756/3/4
f 757/3/4 758/3/4 759/3/4
f 759/3/4 758/3/4 760/3/4
f 761/1/4 762/1/4 763/1/4
f 763/1/4 762/1/4 764/1/4
f 763/3/4 764/3/4 765/3/4
f 765/3/4 764/3/4 766/3/4
f 765/2/4 766/2/4 767/2/4
f 767/2/4 766/2/4 768/2/4
f 767/3/4 768/3/4 769/3/4
f 769/3/4 768/3/4 770/3/4
f 769/1/4 770/1/4 771/1/4
f 771/1/4 770/1/4 772/1/4
f 779/3/5 775/3/5 774/3/5
f 779/2/5 776/2/5 775/2/5
f 780/2/5 776/2/5 779/2/5
f 781/3/5 779/3/5 774/3/5
f 782/3/5 779/3/5 781/3/5
f 783/2/5 776/2/5 780/2/5
f 784/3/5 781/3/5 774/3/5
f 785/3/5 781/3/5 784/3/5
f 786/2/5 783/2/5 782/2/5
f 787/3/5 784/3/5 774/3/5
f 788/3/5 784/3/5 787/3/5
f 789/3/5 786/3/5 785/3/5
f 790/3/5 787/3/5 774/3/5
f 791/3/5 787/3/5 790/3/5
f 792/3/5 789/3/5 788/3/5
f 793/3/5 790/3/5 774/3/5
f 794/3/5 790/3/5 793/3/5
f 795/3/5 792/3/5 791/3/5
f 796/3/5 793/3/5 774/3/5
f 797/3/5 793/3/5 796/3/5
f 798/3/5 795/3/5 794/3/5
f 799/3/5 796/3/5 774/3/5
f 800/3/5 796/3/5 799/3/5
f 801/3/5 798/3/5 797/3/5
f 802/3/5 786/3/5 789/3/5
f 802/3/5 789/3/5 792/3/5
f 802/3/5 798/3/5 801/3/5
f 802/3/5 792/3/5 795/3/5
f 802/3/5 795/3/5 798/3/5
f 803/2/5 783/2/5 786/2/5
f 803/3/5 786/3/5 802/3/5
f 804/3/5 802/3/5 801/3/5
f 804/3/5 801/3/5 800/3/5
f 805/2/5 783/2/5 803/2/5
f 806/2/5 776/2/5 783/2/5
f 806/2/5 783/2/5 805/2/5
f 807/3/5 799/3/5 774/3/5
f 808/3/5 799/3/5 807/3/5
f 809/3/5 804/3/5 800/3/5
f 809/3/5 805/3/5 804/3/5
f 810/3/5 805/3/5 809/3/5
f 811/2/5 776/2/5 806/2/5
f 812/3/5 777/3/5 776/3/5
f 812/2/5 776/2/5 811/2/5
f 813/2/5 811/2/5 810/2/5
f 814/3/5 777/3/5 812/3/5
f 815/3/5 777/3/5 814/3/5
f 816/3/5 807/3/5 774/3/5
f 817/3/5 807/3/5 816/3/5
f 818/3/5 810/3/5 809/3/5
f 818/3/5 809/3/5 808/3/5
f 819/2/5 814/2/5 813/2/5
f 820/3/5 777/3/5 815/3/5
f 821/3/5 777/3/5 820/3/5
f 822/3/5 820/3/5 819/3/5
f 823/3/5 777/3/5 821/3/5
f 824/3/5 777/3/5 823/3/5
f 825/3/5 816/3/5 774/3/5
f 826/3/5 816/3/5 825/3/5
f 827/3/5 818/3/5 817/3/5
f 828/3/5 823/3/5 822/3/5
f 829/3/5 777/3/5 824/3/5
f 830/3/5 777/3/5 829/3/5
f 831/3/5 829/3/5 828/3/5
f 832/3/5 777/3/5 830/3/5
f 833/3/5 777/3/5 832/3/5
f 834/3/5 825/3/5 774/3/5
f 835/3/5 825/3/5 834/3/5
f 836/3/5 827/3/5 826/3/5
f 837/3/5 832/3/5 831/3/5
f 838/3/5 777/3/5 833/3/5
f 839/3/5 777/3/5 838/3/5
f 840/3/5 838/3/5 837/3/5
f 841/3/5 777/3/5 839/3/5
f 842/3/5 777/3/5 841/3/5
f 843/3/5 834/3/5 774/3/5
f 844/3/5 834/3/5 843/3/5
f 845/3/5 836/3/5 835/3/5
f 846/3/5 810/3/5 818/3/5
f 846/3/5 818/3/5 827/3/5
f 846/3/5 836/3/5 845/3/5
f 846/3/5 827/3/5 836/3/5
f 847/3/5 810/3/5 846/3/5
f 848/3/5 841/3/5 840/3/5
f 849/3/5 777/3/5 842/3/5
f 850/3/5 777/3/5 849/3/5
f 851/3/5 845/3/5 844/3/5
f 851/3/5 846/3/5 845/3/5
f 852/3/5 810/3/5 847/3/5
f 853/3/5 810/3/5 852/3/5
f 854/3/5 849/3/5 848/3/5
f 855/3/5 777/3/5 850/3/5
f 856/3/5 777/3/5 855/3/5
f 857/3/5 843/3/5 774/3/5
f 858/3/5 843/3/5 857/3/5
f 859/3/5 851/3/5 844/3/5
f 859/3/5 852/3/5 851/3/5
f 860/3/5 852/3/5 859/3/5
f 861/3/5 810/3/5 853/3/5
f 862/2/5 813/2/5 810/2/5
f 862/2/5 819/2/5 813/2/5
f 862/3/5 810/3/5 861/3/5
f 863/2/5 819/2/5 862/2/5
f 864/3/5 855/3/5 854/3/5
f 865/3/5 777/3/5 856/3/5
f 866/3/5 777/3/5 865/3/5
f 867/3/5 861/3/5 860/3/5
f 867/3/5 860/3/5 859/3/5
f 867/3/5 859/3/5 858/3/5
f 869/2/5 819/2/5 863/2/5
f 870/3/5 822/3/5 819/3/5
f 870/3/5 828/3/5 822/3/5
f 870/2/5 819/2/5 869/2/5
f 870/3/5 831/3/5 828/3/5
f 870/3/5 854/3/5 848/3/5
f 870/3/5 840/3/5 837/3/5
f 870/3/5 837/3/5 831/3/5
f 870/3/5 865/3/5 864/3/5
f 870/3/5 848/3/5 840/3/5
f 870/3/5 864/3/5 854/3/5
f 871/3/5 865/3/5 870/3/5
f 872/3/5 777/3/5 866/3/5
f 873/1/5 778/1/5 777/1/5
f 873/3/5 777/3/5 872/3/5
f 874/1/5 774/1/5 773/1/5
f 874/3/5 857/3/5 774/3/5
f 875/3/5 857/3/5 874/3/5
f 876/3/5 867/3/5 858/3/5
f 876/3/5 868/3/5 867/3/5
f 877/2/5 869/2/5 868/2/5
f 878/3/5 872/3/5 871/3/5
f 878/3/5 871/3/5 870/3/5
f 879/3/5 872/3/5 878/3/5
f 880/3/5 872/3/5 879/3/5
f 881/1/5 778/1/5 873/1/5
f 882/1/5 778/1/5 881/1/5
f 883/2/5 878/2/5 877/2/5
f 884/3/5 880/3/5 879/3/5
f 884/3/5 881/3/5 880/3/5
f 885/3/5 881/3/5 884/3/5
f 886/3/5 881/3/5 885/3/5
f 887/1/5 778/1/5 882/1/5
f 888/1/5 778/1/5 887/1/5
f 889/1/5 874/1/5 773/1/5
f 890/1/5 874/1/5 889/1/5
f 891/3/5 876/3/5 875/3/5
f 892/3/5 884/3/5 883/3/5
f 893/3/5 886/3/5 885/3/5
f 894/3/5 886/3/5 893/3/5
f 895/1/5 887/1/5 886/1/5
f 896/1/5 778/1/5 888/1/5
f 897/1/5 778/1/5 896/1/5
f 898/3/5 893/3/5 892/3/5
f 899/3/5 886/3/5 894/3/5
f 900/3/5 886/3/5 899/3/5
f 901/1/5 896/1/5 895/1/5
f 902/1/5 778/1/5 897/1/5
f 903/1/5 889/1/5 773/1/5
f 904/1/5 889/1/5 903/1/5
f 905/3/5 891/3/5 890/3/5
f 906/3/5 899/3/5 898/3/5
f 907/3/5 886/3/5 900/3/5
f 908/3/5 886/3/5 907/3/5
f 909/3/5 907/3/5 906/3/5
f 910/3/5 886/3/5 908/3/5
f 911/3/5 886/3/5 910/3/5
f 912/1/5 903/1/5 773/1/5
f 913/1/5 905/1/5 904/1/5
f 914/3/5 910/3/5 909/3/5
f 915/3/5 886/3/5 911/3/5
f 916/3/5 886/3/5 915/3/5
f 917/3/5 915/3/5 914/3/5
f 918/3/5 886/3/5 916/3/5
f 919/3/5 886/3/5 918/3/5
f 920/3/5 918/3/5 917/3/5
f 921/3/5 886/3/5 919/3/5
f 922/1/5 912/1/5 773/1/5
f 922/1/5 913/1/5 912/1/5
f 923/3/5 891/3/5 905/3/5
f 923/1/5 913/1/5 922/1/5
f 923/1/5 905/1/5 913/1/5
f 924/2/5 883/2/5 877/2/5
f 924/3/5 891/3/5 923/3/5
f 924/2/5 877/2/5 868/2/5
f 924/3/5 868/3/5 876/3/5
f 924/3/5 876/3/5 891/3/5
f 925/3/5 920/3/5 917/3/5
f 925/2/5 883/2/5 924/2/5
f 925/3/5 892/3/5 883/3/5
f 925/3/5 909/3/5 906/3/5
f 925/3/5 898/3/5 892/3/5
f 925/3/5 917/3/5 914/3/5
f 925/3/5 906/3/5 898/3/5
f 925/3/5 921/3/5 920/3/5
f 925/3/5 914/3/5 909/3/5
f 926/1/5 901/1/5 895/1/5
f 926/3/5 921/3/5 925/3/5
f 926/1/5 895/1/5 886/1/5
f 926/1/5 902/1/5 901/1/5
f 926/3/5 886/3/5 921/3/5
f 927/1/5 778/1/5 902/1/5
f 927/1/5 902/1/5 926/1/5
f 929/3/6 930/3/6 934/3/6
f 930/2/6 931/2/6 934/2/6
f 934/2/6 931/2/6 935/2/6
f 929/3/6 934/3/6 936/3/6
f 936/3/6 934/3/6 937/3/6
f 935/2/6 931/2/6 938/2/6
f 929/3/6 936/3/6 939/3/6
f 939/3/6 936/3/6 940/3/6
f 937/2/6 938/2/6 941/2/6
f 929/3/6 939/3/6 942/3/6
f 942/3/6 939/3/6 943/3/6
f 940/3/6 941/3/6 944/3/6
f 929/3/6 942/3/6 945/3/6
f 945/3/6 942/3/6 946/3/6
f 943/3/6 944/3/6 947/3/6
f 929/3/6 945/3/6 948/3/6
f 948/3/6 945/3/6 949/3/6
f 946/3/6 947/3/6 950/3/6
f 929/3/6 948/3/6 951/3/6
f 951/3/6 948/3/6 952/3/6
f 949/3/6 950/3/6 953/3/6
f 929/3/6 951/3/6 954/3/6
f 954/3/6 951/3/6 955/3/6
f 952/3/6 953/3/6 956/3/6
f 944/3/6 941/3/6 957/3/6
f 947/3/6 944/3/6 957/3/6
f 956/3/6 953/3/6 957/3/6
f 950/3/6 947/3/6 957/3/6
f 953/3/6 950/3/6 957/3/6
f 941/2/6 938/2/6 958/2/6
f 957/3/6 941/3/6 958/3/6
f 956/3/6 957/3/6 959/3/6
f 955/3/6 956/3/6 959/3/6
f 958/2/6 938/2/6 960/2/6
f 938/2/6 931/2/6 961/2/6
f 960/2/6 938/2/6 961/2/6
f 929/3/6 954/3/6 962/3/6
f 962/3/6 954/3/6 963/3/6
f 955/3/6 959/3/6 964/3/6
f 959/3/6 960/3/6 964/3/6
f 964/3/6 960/3/6 965/3/6
f 961/2/6 931/2/6 966/2/6
f 931/3/6 932/3/6 967/3/6
f 966/2/6 931/2/6 967/2/6
f 965/2/6 966/2/6 968/2/6
f 967/3/6 932/3/6 969/3/6
f 969/3/6 932/3/6 970/3/6
f 929/3/6 962/3/6 971/3/6
f 971/3/6 962/3/6 972/3/6
f 964/3/6 965/3/6 973/3/6
f 963/3/6 964/3/6 973/3/6
f 968/2/6 969/2/6 974/2/6
f 970/3/6 932/3/6 975/3/6
f 975/3/6 932/3/6 976/3/6
f 974/3/6 975/3/6 977/3/6
f 976/3/6 932/3/6 978/3/6
f 978/3/6 932/3/6 979/3/6
f 929/3/6 971/3/6 980/3/6
f 980/3/6 971/3/6 981/3/6
f 972/3/6 973/3/6 982/3/6
f 977/3/6 978/3/6 983/3/6
f 979/3/6 932/3/6 984/3/6
f 984/3/6 932/3/6 985/3/6
f 983/3/6 984/3/6 986/3/6
f 985/3/6 932/3/6 987/3/6
f 987/3/6 932/3/6 988/3/6
f 929/3/6 980/3/6 989/3/6
f 989/3/6 980/3/6 990/3/6
f 981/3/6 982/3/6 991/3/6
f 986/3/6 987/3/6 992/3/6
f 988/3/6 932/3/6 993/3/6
f 993/3/6 932/3/6 994/3/6
f 992/3/6 993/3/6 995/3/6
f 994/3/6 932/3/6 996/3/6
f 996/3/6 932/3/6 997/3/6
f 929/3/6 989/3/6 998/3/6
f 998/3/6 989/3/6 999/3/6
f 990/3/6 991/3/6 1000/3/6
f 973/3/6 965/3/6 1001/3/6
f 982/3/6 973/3/6 1001/3/6
f 1000/3/6 991/3/6 1001/3/6
f 991/3/6 982/3/6 1001/3/6
f 1001/3/6 965/3/6 1002/3/6
f 995/3/6 996/3/6 1003/3/6
f 997/3/6 932/3/6 1004/3/6
f 1004/3/6 932/3/6 1005/3/6
f 999/3/6 1000/3/6 1006/3/6
f 1000/3/6 1001/3/6 1006/3/6
f 1002/3/6 965/3/6 1007/3/6
f 1007/3/6 965/3/6 1008/3/6
f 1003/3/6 1004/3/6 1009/3/6
f 1005/3/6 932/3/6 1010/3/6
f 1010/3/6 932/3/6 1011/3/6
f 929/3/6 998/3/6 1012/3/6
f 1012/3/6 998/3/6 1013/3/6
f 999/3/6 1006/3/6 1014/3/6
f 1006/3/6 1007/3/6 1014/3/6
f 1014/3/6 1007/3/6 1015/3/6
f 1008/3/6 965/3/6 1016/3/6
f 965/2/6 968/2/6 1017/2/6
f 968/2/6 974/2/6 1017/2/6
f 1016/3/6 965/3/6 1017/3/6
f 1017/2/6 974/2/6 1018/2/6
f 1009/3/6 1010/3/6 1019/3/6
f 1011/3/6 932/3/6 1020/3/6
f 1020/3/6 932/3/6 1021/3/6
f 1015/3/6 1016/3/6 1022/3/6
f 1014/3/6 1015/3/6 1022/3/6
f 1013/3/6 1014/3/6 1022/3/6
f 1018/2/6 974/2/6 1024/2/6
f 974/3/6 977/3/6 1025/3/6
f 977/3/6 983/3/6 1025/3/6
f 1024/2/6 974/2/6 1025/2/6
f 983/3/6 986/3/6 1025/3/6
f 1003/3/6 1009/3/6 1025/3/6
f 992/3/6 995/3/6 1025/3/6
f 986/3/6 992/3/6 1025/3/6
f 1019/3/6 1020/3/6 1025/3/6
f 995/3/6 1003/3/6 1025/3/6
f 1009/3/6 1019/3/6 1025/3/6
f 1025/3/6 1020/3/6 1026/3/6
f 1021/3/6 932/3/6 1027/3/6
f 932/1/6 933/1/6 1028/1/6
f 1027/3/6 932/3/6 1028/3/6
f 928/1/6 929/1/6 1029/1/6
f 929/3/6 1012/3/6 1029/3/6
f 1029/3/6 1012/3/6 1030/3/6
f 1013/3/6 1022/3/6 1031/3/6
f 1022/3/6 1023/3/6 1031/3/6
f 1023/2/6 1024/2/6 1032/2/6
f 1026/3/6 1027/3/6 1033/3/6
f 1025/3/6 1026/3/6 1033/3/6
f 1033/3/6 1027/3/6 1034/3/6
f 1034/3/6 1027/3/6 1035/3/6
f 1028/1/6 933/1/6 1036/1/6
f 1036/1/6 933/1/6 1037/1/6
f 1032/2/6 1033/2/6 1038/2/6
f 1034/3/6 1035/3/6 1039/3/6
f 1035/3/6 1036/3/6 1039/3/6
f 1039/3/6 1036/3/6 1040/3/6
f 1040/3/6 1036/3/6 1041/3/6
f 1037/1/6 933/1/6 1042/1/6
f 1042/1/6 933/1/6 1043/1/6
f 928/1/6 1029/1/6 1044/1/6
f 1044/1/6 1029/1/6 1045/1/6
f 1030/3/6 1031/3/6 1046/3/6
f 1038/3/6 1039/3/6 1047/3/6
f 1040/3/6 1041/3/6 1048/3/6
f 1048/3/6 1041/3/6 1049/3/6
f 1041/1/6 1042/1/6 1050/1/6
f 1043/1/6 933/1/6 1051/1/6
f 1051/1/6 933/1/6 1052/1/6
f 1047/3/6 1048/3/6 1053/3/6
f 1049/3/6 1041/3/6 1054/3/6
f 1054/3/6 1041/3/6 1055/3/6
f 1050/1/6 1051/1/6 1056/1/6
f 1052/1/6 933/1/6 1057/1/6
f 928/1/6 1044/1/6 1058/1/6
f 1058/1/6 1044/1/6 1059/1/6
f 1045/3/6 1046/3/6 1060/3/6
f 1053/3/6 1054/3/6 1061/3/6
f 1055/3/6 1041/3/6 1062/3/6
f 1062/3/6 1041/3/6 1063/3/6
f 1061/3/6 1062/3/6 1064/3/6
f 1063/3/6 1041/3/6 1065/3/6
f 1065/3/6 1041/3/6 1066/3/6
f 928/1/6 1058/1/6 1067/1/6
f 1059/1/6 1060/1/6 1068/1/6
f 1064/3/6 1065/3/6 1069/3/6
f 1066/3/6 1041/3/6 1070/3/6
f 1070/3/6 1041/3/6 1071/3/6
f 1069/3/6 1070/3/6 1072/3/6
f 1071/3/6 1041/3/6 1073/3/6
f 1073/3/6 1041/3/6 1074/3/6
f 1072/3/6 1073/3/6 1075/3/6
f 1074/3/6 1041/3/6 1076/3/6
f 928/1/6 1067/1/6 1077/1/6
f 1067/1/6 1068/1/6 1077/1/6
f 1060/3/6 1046/3/6 1078/3/6
f 1077/1/6 1068/1/6 1078/1/6
f 1068/1/6 1060/1/6 1078/1/6
f 1032/2/6 1038/2/6 1079/2/6
f 1078/3/6 1046/3/6 1079/3/6
f 1023/2/6 1032/2/6 1079/2/6
f 1031/3/6 1023/3/6 1079/3/6
f 1046/3/6 1031/3/6 1079/3/6
f 1072/3/6 1075/3/6 1080/3/6
f 1079/2/6 1038/2/6 1080/2/6
f 1038/3/6 1047/3/6 1080/3/6
f 1061/3/6 1064/3/6 1080/3/6
f 1047/3/6 1053/3/6 1080/3/6
f 1069/3/6 1072/3/6 1080/3/6
f 1053/3/6 1061/3/6 1080/3/6
f 1075/3/6 1076/3/6 1080/3/6
f 1064/3/6 1069/3/6 1080/3/6
f 1050/1/6 1056/1/6 1081/1/6
f 1080/3/6 1076/3/6 1081/3/6
f 1041/1/6 1050/1/6 1081/1/6
f 1056/1/6 1057/1/6 1081/1/6
f 1076/3/6 1041/3/6 1081/3/6
f 1057/1/6 933/1/6 1082/1/6
f 1081/1/6 1057/1/6 1082/1/6
