# MagicaVoxel @ Ephtracy

# group
g towers

# material
mtllib towers.mtl
usemtl palette

# normals
vn -1 0 0
vn 1 0 0
vn 0 0 1
vn 0 0 -1
vn 0 -1 0
vn 0 1 0

# texcoords
vt 0.255859 0.5
vt 0.560547 0.5
vt 0.939453 0.5
vt 0.943359 0.5
vt 0.947266 0.5
vt 0.951172 0.5
vt 0.970703 0.5
vt 0.974609 0.5
vt 0.978516 0.5
vt 0.982422 0.5
vt 0.990234 0.5
vt 0.994141 0.5

# verts
v -20 0 20
v -20 0 -20
v -20 1 20
v -20 1 -20
v -20 2 20
v -20 2 -20
v -20 3 20
v -20 3 -20
v -16 3 2
v -16 3 -8
v -16 4 2
v -16 4 -8
v -16 5 2
v -16 5 -8
v -15 3 4
v -15 3 2
v -15 3 -8
v -15 3 -10
v -15 4 4
v -15 4 2
v -15 4 -8
v -15 4 -10
v -15 5 4
v -15 5 2
v -15 5 -8
v -15 5 -10
v -15 8 -5
v -15 8 -6
v -15 9 -4
v -15 9 -5
v -15 9 -6
v -15 9 -7
v -15 10 -4
v -15 10 -5
v -15 10 -6
v -15 10 -7
v -15 11 -5
v -15 11 -6
v -14 3 5
v -14 3 4
v -14 3 -10
v -14 3 -12
v -14 4 5
v -14 4 4
v -14 4 -10
v -14 4 -12
v -14 5 5
v -14 5 4
v -14 5 -5
v -14 5 -6
v -14 5 -10
v -14 5 -12
v -14 8 -4
v -14 8 -5
v -14 8 -6
v -14 8 -7
v -14 9 -4
v -14 9 -5
v -14 9 -6
v -14 9 -7
v -14 10 -4
v -14 10 -5
v -14 10 -6
v -14 10 -7
v -14 11 -4
v -14 11 -5
v -14 11 -6
v -14 11 -7
v -13 3 11
v -13 3 5
v -13 4 11
v -13 4 5
v -13 5 11
v -13 5 5
v -12 3 13
v -12 3 11
v -12 3 -12
v -12 3 -13
v -12 4 13
v -12 4 11
v -12 4 -12
v -12 4 -13
v -12 5 13
v -12 5 11
v -12 5 5
v -12 5 2
v -12 5 -12
v -12 5 -13
v -12 6 5
v -12 6 4
v -12 6 3
v -12 6 2
v -12 7 4
v -12 7 3
v -11 3 14
v -11 3 13
v -11 4 14
v -11 4 13
v -11 5 14
v -11 5 13
v -11 6 5
v -11 6 4
v -11 6 3
v -11 6 2
v -11 7 5
v -11 7 4
v -11 7 3
v -11 7 2
v -9 3 15
v -9 3 14
v -9 4 15
v -9 4 14
v -9 5 15
v -9 5 14
v -8 6 18
v -8 6 17
v -8 7 19
v -8 7 18
v -8 7 17
v -8 7 16
v -8 8 19
v -8 8 18
v -8 8 17
v -8 8 16
v -8 8 10
v -8 8 9
v -8 9 18
v -8 9 17
v -8 9 11
v -8 9 10
v -8 9 9
v -8 9 8
v -8 10 11
v -8 10 10
v -8 10 9
v -8 10 8
v -8 11 10
v -8 11 9
v -7 3 18
v -7 3 17
v -7 5 10
v -7 5 9
v -7 5 -7
v -7 5 -11
v -7 6 19
v -7 6 18
v -7 6 17
v -7 6 16
v -7 6 -7
v -7 6 -11
v -7 7 19
v -7 7 18
v -7 7 17
v -7 7 16
v -7 8 19
v -7 8 18
v -7 8 17
v -7 8 16
v -7 8 11
v -7 8 10
v -7 8 9
v -7 8 8
v -7 9 19
v -7 9 18
v -7 9 17
v -7 9 16
v -7 9 11
v -7 9 10
v -7 9 9
v -7 9 8
v -7 10 11
v -7 10 10
v -7 10 9
v -7 10 8
v -7 11 11
v -7 11 10
v -7 11 9
v -7 11 8
v -7 13 -7
v -7 13 -11
v -7 14 -7
v -7 14 -11
v -7 17 -7
v -7 17 -11
v -7 18 -7
v -7 18 -11
v -6 5 -6
v -6 5 -7
v -6 5 -11
v -6 5 -12
v -6 6 -6
v -6 6 -7
v -6 6 -8
v -6 6 -10
v -6 6 -11
v -6 6 -12
v -6 7 -8
v -6 7 -10
v -6 8 -8
v -6 8 -10
v -6 9 -8
v -6 9 -10
v -6 10 -8
v -6 10 -10
v -6 11 -8
v -6 11 -10
v -6 12 -8
v -6 12 -10
v -6 13 -6
v -6 13 -7
v -6 13 -8
v -6 13 -10
v -6 13 -11
v -6 13 -12
v -6 14 -6
v -6 14 -7
v -6 14 -8
v -6 14 -10
v -6 14 -11
v -6 14 -12
v -6 16 -8
v -6 16 -10
v -6 17 -6
v -6 17 -7
v -6 17 -11
v -6 17 -12
v -6 18 -6
v -6 18 -7
v -6 18 -11
v -6 18 -12
v -6 19 -7
v -6 19 -11
v -5 6 -7
v -5 6 -8
v -5 6 -10
v -5 6 -11
v -5 7 -7
v -5 7 -8
v -5 7 -10
v -5 7 -11
v -5 8 -7
v -5 8 -8
v -5 8 -10
v -5 8 -11
v -5 9 -7
v -5 9 -8
v -5 9 -10
v -5 9 -11
v -5 10 -7
v -5 10 -8
v -5 10 -10
v -5 10 -11
v -5 11 -7
v -5 11 -8
v -5 11 -10
v -5 11 -11
v -5 12 -7
v -5 12 -8
v -5 12 -10
v -5 12 -11
v -5 13 -7
v -5 13 -8
v -5 13 -10
v -5 13 -11
v -5 19 -8
v -5 19 -10
v -5 20 -8
v -5 20 -10
v -4 3 -12
v -4 3 -14
v -4 4 -12
v -4 4 -14
v -4 5 -12
v -4 5 -14
v -3 3 -14
v -3 3 -15
v -3 4 -14
v -3 4 -15
v -3 5 -14
v -3 5 -15
v -3 14 -7
v -3 14 -8
v -3 14 -10
v -3 14 -11
v -3 16 -7
v -3 16 -8
v -3 16 -10
v -3 16 -11
v -3 17 -8
v -3 17 -10
v -2 8 -1
v -2 8 -2
v -2 9 -0
v -2 9 -1
v -2 9 -2
v -2 9 -3
v -2 10 -0
v -2 10 -1
v -2 10 -2
v -2 10 -3
v -2 11 -1
v -2 11 -2
v -1 3 -15
v -1 3 -16
v -1 4 -15
v -1 4 -16
v -1 5 -1
v -1 5 -2
v -1 5 -15
v -1 5 -16
v -1 8 -0
v -1 8 -1
v -1 8 -2
v -1 8 -3
v -1 9 -0
v -1 9 -1
v -1 9 -2
v -1 9 -3
v -1 10 -0
v -1 10 -1
v -1 10 -2
v -1 10 -3
v -1 11 -0
v -1 11 -1
v -1 11 -2
v -1 11 -3
v 2 5 -9
v 2 5 -12
v 2 6 -9
v 2 6 -10
v 2 6 -11
v 2 6 -12
v 2 7 -10
v 2 7 -11
v 3 6 -9
v 3 6 -10
v 3 6 -11
v 3 6 -12
v 3 7 -9
v 3 7 -10
v 3 7 -11
v 3 7 -12
v 7 5 -7
v 7 5 -11
v 7 6 -7
v 7 6 -11
v 7 13 -7
v 7 13 -11
v 7 14 -7
v 7 14 -11
v 7 17 -7
v 7 17 -11
v 7 18 -7
v 7 18 -11
v 8 5 -6
v 8 5 -7
v 8 5 -11
v 8 5 -12
v 8 6 -6
v 8 6 -7
v 8 6 -8
v 8 6 -10
v 8 6 -11
v 8 6 -12
v 8 7 -8
v 8 7 -10
v 8 8 -8
v 8 8 -10
v 8 9 -8
v 8 9 -10
v 8 10 -8
v 8 10 -10
v 8 11 -8
v 8 11 -10
v 8 12 -8
v 8 12 -10
v 8 13 -6
v 8 13 -7
v 8 13 -8
v 8 13 -10
v 8 13 -11
v 8 13 -12
v 8 14 -6
v 8 14 -7
v 8 14 -8
v 8 14 -10
v 8 14 -11
v 8 14 -12
v 8 16 -8
v 8 16 -10
v 8 17 -6
v 8 17 -7
v 8 17 -11
v 8 17 -12
v 8 18 -6
v 8 18 -7
v 8 18 -11
v 8 18 -12
v 8 19 -7
v 8 19 -11
v 9 6 11
v 9 6 10
v 9 6 -7
v 9 6 -8
v 9 6 -10
v 9 6 -11
v 9 7 12
v 9 7 11
v 9 7 10
v 9 7 9
v 9 7 -7
v 9 7 -8
v 9 7 -10
v 9 7 -11
v 9 8 12
v 9 8 11
v 9 8 10
v 9 8 9
v 9 8 -7
v 9 8 -8
v 9 8 -10
v 9 8 -11
v 9 9 11
v 9 9 10
v 9 9 -7
v 9 9 -8
v 9 9 -10
v 9 9 -11
v 9 10 -7
v 9 10 -8
v 9 10 -10
v 9 10 -11
v 9 11 -7
v 9 11 -8
v 9 11 -10
v 9 11 -11
v 9 12 -7
v 9 12 -8
v 9 12 -10
v 9 12 -11
v 9 13 -7
v 9 13 -8
v 9 13 -10
v 9 13 -11
v 9 19 -8
v 9 19 -10
v 9 20 -8
v 9 20 -10
v 10 3 11
v 10 3 10
v 10 6 12
v 10 6 11
v 10 6 10
v 10 6 9
v 10 7 12
v 10 7 11
v 10 7 10
v 10 7 9
v 10 8 12
v 10 8 11
v 10 8 10
v 10 8 9
v 10 9 12
v 10 9 11
v 10 9 10
v 10 9 9
v 11 14 -7
v 11 14 -8
v 11 14 -10
v 11 14 -11
v 11 16 -7
v 11 16 -8
v 11 16 -10
v 11 16 -11
v 11 17 -8
v 11 17 -10
v -13 5 -5
v -13 5 -6
v -13 8 -4
v -13 8 -5
v -13 8 -6
v -13 8 -7
v -13 9 -4
v -13 9 -5
v -13 9 -6
v -13 9 -7
v -13 10 -4
v -13 10 -5
v -13 10 -6
v -13 10 -7
v -13 11 -4
v -13 11 -5
v -13 11 -6
v -13 11 -7
v -12 8 -5
v -12 8 -6
v -12 9 -4
v -12 9 -5
v -12 9 -6
v -12 9 -7
v -12 10 -4
v -12 10 -5
v -12 10 -6
v -12 10 -7
v -12 11 -5
v -12 11 -6
v -10 6 5
v -10 6 4
v -10 6 3
v -10 6 2
v -10 7 5
v -10 7 4
v -10 7 3
v -10 7 2
v -9 5 5
v -9 5 2
v -9 6 5
v -9 6 4
v -9 6 3
v -9 6 2
v -9 7 4
v -9 7 3
v -7 3 -12
v -7 3 -13
v -7 4 -12
v -7 4 -13
v -7 5 -12
v -7 5 -13
v -6 3 18
v -6 3 17
v -6 5 10
v -6 5 9
v -6 6 19
v -6 6 18
v -6 6 17
v -6 6 16
v -6 7 19
v -6 7 18
v -6 7 17
v -6 7 16
v -6 8 19
v -6 8 18
v -6 8 17
v -6 8 16
v -6 8 11
v -6 8 10
v -6 8 9
v -6 8 8
v -6 9 19
v -6 9 18
v -6 9 17
v -6 9 16
v -6 9 11
v -6 9 10
v -6 9 9
v -6 9 8
v -6 10 11
v -6 10 10
v -6 10 9
v -6 10 8
v -6 11 11
v -6 11 10
v -6 11 9
v -6 11 8
v -5 3 15
v -5 3 14
v -5 4 15
v -5 4 14
v -5 5 15
v -5 5 14
v -5 6 18
v -5 6 17
v -5 7 19
v -5 7 18
v -5 7 17
v -5 7 16
v -5 8 19
v -5 8 18
v -5 8 17
v -5 8 16
v -5 8 10
v -5 8 9
v -5 9 18
v -5 9 17
v -5 9 11
v -5 9 10
v -5 9 9
v -5 9 8
v -5 10 11
v -5 10 10
v -5 10 9
v -5 10 8
v -5 11 10
v -5 11 9
v -5 14 -7
v -5 14 -8
v -5 14 -10
v -5 14 -11
v -5 16 -7
v -5 16 -8
v -5 16 -10
v -5 16 -11
v -5 17 -8
v -5 17 -10
v -3 3 14
v -3 3 13
v -3 4 14
v -3 4 13
v -3 5 14
v -3 5 13
v -3 6 -7
v -3 6 -8
v -3 6 -10
v -3 6 -11
v -3 7 -7
v -3 7 -8
v -3 7 -10
v -3 7 -11
v -3 8 -7
v -3 8 -8
v -3 8 -10
v -3 8 -11
v -3 9 -7
v -3 9 -8
v -3 9 -10
v -3 9 -11
v -3 10 -7
v -3 10 -8
v -3 10 -10
v -3 10 -11
v -3 11 -7
v -3 11 -8
v -3 11 -10
v -3 11 -11
v -3 12 -7
v -3 12 -8
v -3 12 -10
v -3 12 -11
v -3 13 -7
v -3 13 -8
v -3 13 -10
v -3 13 -11
v -3 19 -8
v -3 19 -10
v -3 20 -8
v -3 20 -10
v -2 3 13
v -2 3 12
v -2 4 13
v -2 4 12
v -2 5 13
v -2 5 12
v -2 5 -6
v -2 5 -7
v -2 5 -11
v -2 5 -12
v -2 6 -6
v -2 6 -7
v -2 6 -8
v -2 6 -10
v -2 6 -11
v -2 6 -12
v -2 7 -8
v -2 7 -10
v -2 8 -8
v -2 8 -10
v -2 9 -8
v -2 9 -10
v -2 10 -8
v -2 10 -10
v -2 11 -8
v -2 11 -10
v -2 12 -8
v -2 12 -10
v -2 13 -6
v -2 13 -7
v -2 13 -8
v -2 13 -10
v -2 13 -11
v -2 13 -12
v -2 14 -6
v -2 14 -7
v -2 14 -8
v -2 14 -10
v -2 14 -11
v -2 14 -12
v -2 16 -8
v -2 16 -10
v -2 17 -6
v -2 17 -7
v -2 17 -11
v -2 17 -12
v -2 18 -6
v -2 18 -7
v -2 18 -11
v -2 18 -12
v -2 19 -7
v -2 19 -11
v -1 3 12
v -1 3 11
v -1 4 12
v -1 4 11
v -1 5 12
v -1 5 11
v -1 5 -7
v -1 5 -11
v -1 6 -7
v -1 6 -11
v -1 13 -7
v -1 13 -11
v -1 14 -7
v -1 14 -11
v -1 17 -7
v -1 17 -11
v -1 18 -7
v -1 18 -11
v 0 3 11
v 0 3 9
v 0 4 11
v 0 4 9
v 0 5 11
v 0 5 9
v 0 5 -1
v 0 5 -2
v 0 8 -0
v 0 8 -1
v 0 8 -2
v 0 8 -3
v 0 9 -0
v 0 9 -1
v 0 9 -2
v 0 9 -3
v 0 10 -0
v 0 10 -1
v 0 10 -2
v 0 10 -3
v 0 11 -0
v 0 11 -1
v 0 11 -2
v 0 11 -3
v 1 3 9
v 1 3 8
v 1 4 9
v 1 4 8
v 1 5 9
v 1 5 8
v 1 8 -1
v 1 8 -2
v 1 9 -0
v 1 9 -1
v 1 9 -2
v 1 9 -3
v 1 10 -0
v 1 10 -1
v 1 10 -2
v 1 10 -3
v 1 11 -1
v 1 11 -2
v 4 6 -9
v 4 6 -10
v 4 6 -11
v 4 6 -12
v 4 7 -9
v 4 7 -10
v 4 7 -11
v 4 7 -12
v 5 3 -15
v 5 3 -16
v 5 4 -15
v 5 4 -16
v 5 5 -9
v 5 5 -12
v 5 5 -15
v 5 5 -16
v 5 6 -9
v 5 6 -10
v 5 6 -11
v 5 6 -12
v 5 7 -10
v 5 7 -11
v 7 3 8
v 7 3 7
v 7 3 -13
v 7 3 -15
v 7 4 8
v 7 4 7
v 7 4 -13
v 7 4 -15
v 7 5 8
v 7 5 7
v 7 5 -13
v 7 5 -15
v 8 3 -12
v 8 3 -13
v 8 4 -12
v 8 4 -13
v 8 5 -12
v 8 5 -13
v 9 3 7
v 9 3 6
v 9 4 7
v 9 4 6
v 9 5 7
v 9 5 6
v 9 14 -7
v 9 14 -8
v 9 14 -10
v 9 14 -11
v 9 16 -7
v 9 16 -8
v 9 16 -10
v 9 16 -11
v 9 17 -8
v 9 17 -10
v 10 3 6
v 10 3 5
v 10 4 6
v 10 4 5
v 10 5 6
v 10 5 5
v 11 3 11
v 11 3 10
v 11 3 5
v 11 3 3
v 11 4 5
v 11 4 3
v 11 5 5
v 11 5 3
v 11 6 12
v 11 6 11
v 11 6 10
v 11 6 9
v 11 6 -7
v 11 6 -8
v 11 6 -10
v 11 6 -11
v 11 7 12
v 11 7 11
v 11 7 10
v 11 7 9
v 11 7 -7
v 11 7 -8
v 11 7 -10
v 11 7 -11
v 11 8 12
v 11 8 11
v 11 8 10
v 11 8 9
v 11 8 -7
v 11 8 -8
v 11 8 -10
v 11 8 -11
v 11 9 12
v 11 9 11
v 11 9 10
v 11 9 9
v 11 9 -7
v 11 9 -8
v 11 9 -10
v 11 9 -11
v 11 10 -7
v 11 10 -8
v 11 10 -10
v 11 10 -11
v 11 11 -7
v 11 11 -8
v 11 11 -10
v 11 11 -11
v 11 12 -7
v 11 12 -8
v 11 12 -10
v 11 12 -11
v 11 13 -7
v 11 13 -8
v 11 13 -10
v 11 13 -11
v 11 19 -8
v 11 19 -10
v 11 20 -8
v 11 20 -10
v 12 3 3
v 12 3 1
v 12 3 -11
v 12 3 -12
v 12 4 3
v 12 4 1
v 12 4 -11
v 12 4 -12
v 12 5 3
v 12 5 1
v 12 5 -6
v 12 5 -7
v 12 5 -11
v 12 5 -12
v 12 6 11
v 12 6 10
v 12 6 -6
v 12 6 -7
v 12 6 -8
v 12 6 -10
v 12 6 -11
v 12 6 -12
v 12 7 12
v 12 7 11
v 12 7 10
v 12 7 9
v 12 7 -8
v 12 7 -10
v 12 8 12
v 12 8 11
v 12 8 10
v 12 8 9
v 12 8 -8
v 12 8 -10
v 12 9 11
v 12 9 10
v 12 9 -8
v 12 9 -10
v 12 10 -8
v 12 10 -10
v 12 11 -8
v 12 11 -10
v 12 12 -8
v 12 12 -10
v 12 13 -6
v 12 13 -7
v 12 13 -8
v 12 13 -10
v 12 13 -11
v 12 13 -12
v 12 14 -6
v 12 14 -7
v 12 14 -8
v 12 14 -10
v 12 14 -11
v 12 14 -12
v 12 16 -8
v 12 16 -10
v 12 17 -6
v 12 17 -7
v 12 17 -11
v 12 17 -12
v 12 18 -6
v 12 18 -7
v 12 18 -11
v 12 18 -12
v 12 19 -7
v 12 19 -11
v 13 3 1
v 13 3 -1
v 13 4 1
v 13 4 -1
v 13 5 1
v 13 5 -1
v 13 5 -7
v 13 5 -11
v 13 6 -7
v 13 6 -11
v 13 13 -7
v 13 13 -11
v 13 14 -7
v 13 14 -11
v 13 17 -7
v 13 17 -11
v 13 18 -7
v 13 18 -11
v 14 3 -1
v 14 3 -4
v 14 3 -9
v 14 3 -11
v 14 4 -1
v 14 4 -4
v 14 4 -9
v 14 4 -11
v 14 5 -1
v 14 5 -4
v 14 5 -9
v 14 5 -11
v 15 3 -4
v 15 3 -9
v 15 4 -4
v 15 4 -9
v 15 5 -4
v 15 5 -9
v 20 0 20
v 20 0 -20
v 20 1 20
v 20 1 -20
v 20 2 20
v 20 2 -20
v 20 3 20
v 20 3 -20
v -20 0 20
v -20 1 20
v -20 2 20
v -20 3 20
v 20 0 20
v 20 1 20
v 20 2 20
v 20 3 20
v -8 7 19
v -8 8 19
v -7 6 19
v -7 7 19
v -7 8 19
v -7 9 19
v -6 6 19
v -6 7 19
v -6 8 19
v -6 9 19
v -5 7 19
v -5 8 19
v -8 6 18
v -8 7 18
v -8 8 18
v -8 9 18
v -7 3 18
v -7 6 18
v -7 7 18
v -7 8 18
v -7 9 18
v -6 3 18
v -6 6 18
v -6 7 18
v -6 8 18
v -6 9 18
v -5 6 18
v -5 7 18
v -5 8 18
v -5 9 18
v -9 3 15
v -9 4 15
v -9 5 15
v -5 3 15
v -5 4 15
v -5 5 15
v -11 3 14
v -11 4 14
v -11 5 14
v -9 3 14
v -9 4 14
v -9 5 14
v -5 3 14
v -5 4 14
v -5 5 14
v -3 3 14
v -3 4 14
v -3 5 14
v -12 3 13
v -12 4 13
v -12 5 13
v -11 3 13
v -11 4 13
v -11 5 13
v -3 3 13
v -3 4 13
v -3 5 13
v -2 3 13
v -2 4 13
v -2 5 13
v -2 3 12
v -2 4 12
v -2 5 12
v -1 3 12
v -1 4 12
v -1 5 12
v 9 7 12
v 9 8 12
v 10 6 12
v 10 7 12
v 10 8 12
v 10 9 12
v 11 6 12
v 11 7 12
v 11 8 12
v 11 9 12
v 12 7 12
v 12 8 12
v -13 3 11
v -13 4 11
v -13 5 11
v -12 3 11
v -12 4 11
v -12 5 11
v -8 9 11
v -8 10 11
v -7 8 11
v -7 9 11
v -7 10 11
v -7 11 11
v -6 8 11
v -6 9 11
v -6 10 11
v -6 11 11
v -5 9 11
v -5 10 11
v -1 3 11
v -1 4 11
v -1 5 11
v 0 3 11
v 0 4 11
v 0 5 11
v 9 6 11
v 9 7 11
v 9 8 11
v 9 9 11
v 10 3 11
v 10 6 11
v 10 7 11
v 10 8 11
v 10 9 11
v 11 3 11
v 11 6 11
v 11 7 11
v 11 8 11
v 11 9 11
v 12 6 11
v 12 7 11
v 12 8 11
v 12 9 11
v -8 8 10
v -8 9 10
v -8 10 10
v -8 11 10
v -7 5 10
v -7 8 10
v -7 9 10
v -7 10 10
v -7 11 10
v -6 5 10
v -6 8 10
v -6 9 10
v -6 10 10
v -6 11 10
v -5 8 10
v -5 9 10
v -5 10 10
v -5 11 10
v 0 3 9
v 0 4 9
v 0 5 9
v 1 3 9
v 1 4 9
v 1 5 9
v 1 3 8
v 1 4 8
v 1 5 8
v 7 3 8
v 7 4 8
v 7 5 8
v 7 3 7
v 7 4 7
v 7 5 7
v 9 3 7
v 9 4 7
v 9 5 7
v 9 3 6
v 9 4 6
v 9 5 6
v 10 3 6
v 10 4 6
v 10 5 6
v -14 3 5
v -14 4 5
v -14 5 5
v -13 3 5
v -13 4 5
v -13 5 5
v -12 5 5
v -12 6 5
v -11 6 5
v -11 7 5
v -10 6 5
v -10 7 5
v -9 5 5
v -9 6 5
v 10 3 5
v 10 4 5
v 10 5 5
v 11 3 5
v 11 4 5
v 11 5 5
v -15 3 4
v -15 4 4
v -15 5 4
v -14 3 4
v -14 4 4
v -14 5 4
v -12 6 4
v -12 7 4
v -11 6 4
v -11 7 4
v -10 6 4
v -10 7 4
v -9 6 4
v -9 7 4
v 11 3 3
v 11 4 3
v 11 5 3
v 12 3 3
v 12 4 3
v 12 5 3
v -16 3 2
v -16 4 2
v -16 5 2
v -15 3 2
v -15 4 2
v -15 5 2
v 12 3 1
v 12 4 1
v 12 5 1
v 13 3 1
v 13 4 1
v 13 5 1
v -2 9 -0
v -2 10 -0
v -1 8 -0
v -1 9 -0
v -1 10 -0
v -1 11 -0
v 0 8 -0
v 0 9 -0
v 0 10 -0
v 0 11 -0
v 1 9 -0
v 1 10 -0
v -2 8 -1
v -2 9 -1
v -2 10 -1
v -2 11 -1
v -1 5 -1
v -1 8 -1
v -1 9 -1
v -1 10 -1
v -1 11 -1
v 0 5 -1
v 0 8 -1
v 0 9 -1
v 0 10 -1
v 0 11 -1
v 1 8 -1
v 1 9 -1
v 1 10 -1
v 1 11 -1
v 13 3 -1
v 13 4 -1
v 13 5 -1
v 14 3 -1
v 14 4 -1
v 14 5 -1
v -15 9 -4
v -15 10 -4
v -14 8 -4
v -14 9 -4
v -14 10 -4
v -14 11 -4
v -13 8 -4
v -13 9 -4
v -13 10 -4
v -13 11 -4
v -12 9 -4
v -12 10 -4
v 14 3 -4
v 14 4 -4
v 14 5 -4
v 15 3 -4
v 15 4 -4
v 15 5 -4
v -15 8 -5
v -15 9 -5
v -15 10 -5
v -15 11 -5
v -14 5 -5
v -14 8 -5
v -14 9 -5
v -14 10 -5
v -14 11 -5
v -13 5 -5
v -13 8 -5
v -13 9 -5
v -13 10 -5
v -13 11 -5
v -12 8 -5
v -12 9 -5
v -12 10 -5
v -12 11 -5
v -6 5 -6
v -6 6 -6
v -6 13 -6
v -6 14 -6
v -6 17 -6
v -6 18 -6
v -2 5 -6
v -2 6 -6
v -2 13 -6
v -2 14 -6
v -2 17 -6
v -2 18 -6
v 8 5 -6
v 8 6 -6
v 8 13 -6
v 8 14 -6
v 8 17 -6
v 8 18 -6
v 12 5 -6
v 12 6 -6
v 12 13 -6
v 12 14 -6
v 12 17 -6
v 12 18 -6
v -7 5 -7
v -7 6 -7
v -7 13 -7
v -7 14 -7
v -7 17 -7
v -7 18 -7
v -6 5 -7
v -6 6 -7
v -6 13 -7
v -6 14 -7
v -6 17 -7
v -6 18 -7
v -6 19 -7
v -5 6 -7
v -5 7 -7
v -5 8 -7
v -5 9 -7
v -5 10 -7
v -5 11 -7
v -5 12 -7
v -5 13 -7
v -5 14 -7
v -5 16 -7
v -3 6 -7
v -3 7 -7
v -3 8 -7
v -3 9 -7
v -3 10 -7
v -3 11 -7
v -3 12 -7
v -3 13 -7
v -3 14 -7
v -3 16 -7
v -2 5 -7
v -2 6 -7
v -2 13 -7
v -2 14 -7
v -2 17 -7
v -2 18 -7
v -2 19 -7
v -1 5 -7
v -1 6 -7
v -1 13 -7
v -1 14 -7
v -1 17 -7
v -1 18 -7
v 7 5 -7
v 7 6 -7
v 7 13 -7
v 7 14 -7
v 7 17 -7
v 7 18 -7
v 8 5 -7
v 8 6 -7
v 8 13 -7
v 8 14 -7
v 8 17 -7
v 8 18 -7
v 8 19 -7
v 9 6 -7
v 9 7 -7
v 9 8 -7
v 9 9 -7
v 9 10 -7
v 9 11 -7
v 9 12 -7
v 9 13 -7
v 9 14 -7
v 9 16 -7
v 11 6 -7
v 11 7 -7
v 11 8 -7
v 11 9 -7
v 11 10 -7
v 11 11 -7
v 11 12 -7
v 11 13 -7
v 11 14 -7
v 11 16 -7
v 12 5 -7
v 12 6 -7
v 12 13 -7
v 12 14 -7
v 12 17 -7
v 12 18 -7
v 12 19 -7
v 13 5 -7
v 13 6 -7
v 13 13 -7
v 13 14 -7
v 13 17 -7
v 13 18 -7
v -6 6 -8
v -6 7 -8
v -6 8 -8
v -6 9 -8
v -6 10 -8
v -6 11 -8
v -6 12 -8
v -6 13 -8
v -5 6 -8
v -5 7 -8
v -5 8 -8
v -5 9 -8
v -5 10 -8
v -5 11 -8
v -5 12 -8
v -5 13 -8
v -5 19 -8
v -5 20 -8
v -3 6 -8
v -3 7 -8
v -3 8 -8
v -3 9 -8
v -3 10 -8
v -3 11 -8
v -3 12 -8
v -3 13 -8
v -3 19 -8
v -3 20 -8
v -2 6 -8
v -2 7 -8
v -2 8 -8
v -2 9 -8
v -2 10 -8
v -2 11 -8
v -2 12 -8
v -2 13 -8
v 8 6 -8
v 8 7 -8
v 8 8 -8
v 8 9 -8
v 8 10 -8
v 8 11 -8
v 8 12 -8
v 8 13 -8
v 9 6 -8
v 9 7 -8
v 9 8 -8
v 9 9 -8
v 9 10 -8
v 9 11 -8
v 9 12 -8
v 9 13 -8
v 9 19 -8
v 9 20 -8
v 11 6 -8
v 11 7 -8
v 11 8 -8
v 11 9 -8
v 11 10 -8
v 11 11 -8
v 11 12 -8
v 11 13 -8
v 11 19 -8
v 11 20 -8
v 12 6 -8
v 12 7 -8
v 12 8 -8
v 12 9 -8
v 12 10 -8
v 12 11 -8
v 12 12 -8
v 12 13 -8
v 2 5 -9
v 2 6 -9
v 3 6 -9
v 3 7 -9
v 4 6 -9
v 4 7 -9
v 5 5 -9
v 5 6 -9
v -6 14 -10
v -6 16 -10
v -5 14 -10
v -5 16 -10
v -5 17 -10
v -3 14 -10
v -3 16 -10
v -3 17 -10
v -2 14 -10
v -2 16 -10
v 2 6 -10
v 2 7 -10
v 3 6 -10
v 3 7 -10
v 4 6 -10
v 4 7 -10
v 5 6 -10
v 5 7 -10
v 8 14 -10
v 8 16 -10
v 9 14 -10
v 9 16 -10
v 9 17 -10
v 11 14 -10
v 11 16 -10
v 11 17 -10
v 12 14 -10
v 12 16 -10
v -8 6 17
v -8 7 17
v -8 8 17
v -8 9 17
v -7 3 17
v -7 6 17
v -7 7 17
v -7 8 17
v -7 9 17
v -6 3 17
v -6 6 17
v -6 7 17
v -6 8 17
v -6 9 17
v -5 6 17
v -5 7 17
v -5 8 17
v -5 9 17
v -8 7 16
v -8 8 16
v -7 6 16
v -7 7 16
v -7 8 16
v -7 9 16
v -6 6 16
v -6 7 16
v -6 8 16
v -6 9 16
v -5 7 16
v -5 8 16
v 9 6 10
v 9 7 10
v 9 8 10
v 9 9 10
v 10 3 10
v 10 6 10
v 10 7 10
v 10 8 10
v 10 9 10
v 11 3 10
v 11 6 10
v 11 7 10
v 11 8 10
v 11 9 10
v 12 6 10
v 12 7 10
v 12 8 10
v 12 9 10
v -8 8 9
v -8 9 9
v -8 10 9
v -8 11 9
v -7 5 9
v -7 8 9
v -7 9 9
v -7 10 9
v -7 11 9
v -6 5 9
v -6 8 9
v -6 9 9
v -6 10 9
v -6 11 9
v -5 8 9
v -5 9 9
v -5 10 9
v -5 11 9
v 9 7 9
v 9 8 9
v 10 6 9
v 10 7 9
v 10 8 9
v 10 9 9
v 11 6 9
v 11 7 9
v 11 8 9
v 11 9 9
v 12 7 9
v 12 8 9
v -8 9 8
v -8 10 8
v -7 8 8
v -7 9 8
v -7 10 8
v -7 11 8
v -6 8 8
v -6 9 8
v -6 10 8
v -6 11 8
v -5 9 8
v -5 10 8
v -12 6 3
v -12 7 3
v -11 6 3
v -11 7 3
v -10 6 3
v -10 7 3
v -9 6 3
v -9 7 3
v -12 5 2
v -12 6 2
v -11 6 2
v -11 7 2
v -10 6 2
v -10 7 2
v -9 5 2
v -9 6 2
v -2 8 -2
v -2 9 -2
v -2 10 -2
v -2 11 -2
v -1 5 -2
v -1 8 -2
v -1 9 -2
v -1 10 -2
v -1 11 -2
v 0 5 -2
v 0 8 -2
v 0 9 -2
v 0 10 -2
v 0 11 -2
v 1 8 -2
v 1 9 -2
v 1 10 -2
v 1 11 -2
v -2 9 -3
v -2 10 -3
v -1 8 -3
v -1 9 -3
v -1 10 -3
v -1 11 -3
v 0 8 -3
v 0 9 -3
v 0 10 -3
v 0 11 -3
v 1 9 -3
v 1 10 -3
v -15 8 -6
v -15 9 -6
v -15 10 -6
v -15 11 -6
v -14 5 -6
v -14 8 -6
v -14 9 -6
v -14 10 -6
v -14 11 -6
v -13 5 -6
v -13 8 -6
v -13 9 -6
v -13 10 -6
v -13 11 -6
v -12 8 -6
v -12 9 -6
v -12 10 -6
v -12 11 -6
v -15 9 -7
v -15 10 -7
v -14 8 -7
v -14 9 -7
v -14 10 -7
v -14 11 -7
v -13 8 -7
v -13 9 -7
v -13 10 -7
v -13 11 -7
v -12 9 -7
v -12 10 -7
v -16 3 -8
v -16 4 -8
v -16 5 -8
v -15 3 -8
v -15 4 -8
v -15 5 -8
v -6 14 -8
v -6 16 -8
v -5 14 -8
v -5 16 -8
v -5 17 -8
v -3 14 -8
v -3 16 -8
v -3 17 -8
v -2 14 -8
v -2 16 -8
v 8 14 -8
v 8 16 -8
v 9 14 -8
v 9 16 -8
v 9 17 -8
v 11 14 -8
v 11 16 -8
v 11 17 -8
v 12 14 -8
v 12 16 -8
v 14 3 -9
v 14 4 -9
v 14 5 -9
v 15 3 -9
v 15 4 -9
v 15 5 -9
v -15 3 -10
v -15 4 -10
v -15 5 -10
v -14 3 -10
v -14 4 -10
v -14 5 -10
v -6 6 -10
v -6 7 -10
v -6 8 -10
v -6 9 -10
v -6 10 -10
v -6 11 -10
v -6 12 -10
v -6 13 -10
v -5 6 -10
v -5 7 -10
v -5 8 -10
v -5 9 -10
v -5 10 -10
v -5 11 -10
v -5 12 -10
v -5 13 -10
v -5 19 -10
v -5 20 -10
v -3 6 -10
v -3 7 -10
v -3 8 -10
v -3 9 -10
v -3 10 -10
v -3 11 -10
v -3 12 -10
v -3 13 -10
v -3 19 -10
v -3 20 -10
v -2 6 -10
v -2 7 -10
v -2 8 -10
v -2 9 -10
v -2 10 -10
v -2 11 -10
v -2 12 -10
v -2 13 -10
v 8 6 -10
v 8 7 -10
v 8 8 -10
v 8 9 -10
v 8 10 -10
v 8 11 -10
v 8 12 -10
v 8 13 -10
v 9 6 -10
v 9 7 -10
v 9 8 -10
v 9 9 -10
v 9 10 -10
v 9 11 -10
v 9 12 -10
v 9 13 -10
v 9 19 -10
v 9 20 -10
v 11 6 -10
v 11 7 -10
v 11 8 -10
v 11 9 -10
v 11 10 -10
v 11 11 -10
v 11 12 -10
v 11 13 -10
v 11 19 -10
v 11 20 -10
v 12 6 -10
v 12 7 -10
v 12 8 -10
v 12 9 -10
v 12 10 -10
v 12 11 -10
v 12 12 -10
v 12 13 -10
v -7 5 -11
v -7 6 -11
v -7 13 -11
v -7 14 -11
v -7 17 -11
v -7 18 -11
v -6 5 -11
v -6 6 -11
v -6 13 -11
v -6 14 -11
v -6 17 -11
v -6 18 -11
v -6 19 -11
v -5 6 -11
v -5 7 -11
v -5 8 -11
v -5 9 -11
v -5 10 -11
v -5 11 -11
v -5 12 -11
v -5 13 -11
v -5 14 -11
v -5 16 -11
v -3 6 -11
v -3 7 -11
v -3 8 -11
v -3 9 -11
v -3 10 -11
v -3 11 -11
v -3 12 -11
v -3 13 -11
v -3 14 -11
v -3 16 -11
v -2 5 -11
v -2 6 -11
v -2 13 -11
v -2 14 -11
v -2 17 -11
v -2 18 -11
v -2 19 -11
v -1 5 -11
v -1 6 -11
v -1 13 -11
v -1 14 -11
v -1 17 -11
v -1 18 -11
v 2 6 -11
v 2 7 -11
v 3 6 -11
v 3 7 -11
v 4 6 -11
v 4 7 -11
v 5 6 -11
v 5 7 -11
v 7 5 -11
v 7 6 -11
v 7 13 -11
v 7 14 -11
v 7 17 -11
v 7 18 -11
v 8 5 -11
v 8 6 -11
v 8 13 -11
v 8 14 -11
v 8 17 -11
v 8 18 -11
v 8 19 -11
v 9 6 -11
v 9 7 -11
v 9 8 -11
v 9 9 -11
v 9 10 -11
v 9 11 -11
v 9 12 -11
v 9 13 -11
v 9 14 -11
v 9 16 -11
v 11 6 -11
v 11 7 -11
v 11 8 -11
v 11 9 -11
v 11 10 -11
v 11 11 -11
v 11 12 -11
v 11 13 -11
v 11 14 -11
v 11 16 -11
v 12 3 -11
v 12 4 -11
v 12 5 -11
v 12 6 -11
v 12 13 -11
v 12 14 -11
v 12 17 -11
v 12 18 -11
v 12 19 -11
v 13 5 -11
v 13 6 -11
v 13 13 -11
v 13 14 -11
v 13 17 -11
v 13 18 -11
v 14 3 -11
v 14 4 -11
v 14 5 -11
v -14 3 -12
v -14 4 -12
v -14 5 -12
v -12 3 -12
v -12 4 -12
v -12 5 -12
v -7 3 -12
v -7 4 -12
v -7 5 -12
v -6 5 -12
v -6 6 -12
v -6 13 -12
v -6 14 -12
v -6 17 -12
v -6 18 -12
v -4 3 -12
v -4 4 -12
v -4 5 -12
v -2 5 -12
v -2 6 -12
v -2 13 -12
v -2 14 -12
v -2 17 -12
v -2 18 -12
v 2 5 -12
v 2 6 -12
v 3 6 -12
v 3 7 -12
v 4 6 -12
v 4 7 -12
v 5 5 -12
v 5 6 -12
v 8 3 -12
v 8 4 -12
v 8 5 -12
v 8 6 -12
v 8 13 -12
v 8 14 -12
v 8 17 -12
v 8 18 -12
v 12 3 -12
v 12 4 -12
v 12 5 -12
v 12 6 -12
v 12 13 -12
v 12 14 -12
v 12 17 -12
v 12 18 -12
v -12 3 -13
v -12 4 -13
v -12 5 -13
v -7 3 -13
v -7 4 -13
v -7 5 -13
v 7 3 -13
v 7 4 -13
v 7 5 -13
v 8 3 -13
v 8 4 -13
v 8 5 -13
v -4 3 -14
v -4 4 -14
v -4 5 -14
v -3 3 -14
v -3 4 -14
v -3 5 -14
v -3 3 -15
v -3 4 -15
v -3 5 -15
v -1 3 -15
v -1 4 -15
v -1 5 -15
v 5 3 -15
v 5 4 -15
v 5 5 -15
v 7 3 -15
v 7 4 -15
v 7 5 -15
v -1 3 -16
v -1 4 -16
v -1 5 -16
v 5 3 -16
v 5 4 -16
v 5 5 -16
v -20 0 -20
v -20 1 -20
v -20 2 -20
v -20 3 -20
v 20 0 -20
v 20 1 -20
v 20 2 -20
v 20 3 -20
v -20 0 20
v 20 0 20
v -20 0 -20
v 20 0 -20
v -7 6 19
v -6 6 19
v -8 6 18
v -7 6 18
v -6 6 18
v -5 6 18
v -8 6 17
v -7 6 17
v -6 6 17
v -5 6 17
v -7 6 16
v -6 6 16
v 10 6 12
v 11 6 12
v 9 6 11
v 10 6 11
v 11 6 11
v 12 6 11
v 9 6 10
v 10 6 10
v 11 6 10
v 12 6 10
v 10 6 9
v 11 6 9
v -8 7 19
v -7 7 19
v -6 7 19
v -5 7 19
v -8 7 18
v -7 7 18
v -6 7 18
v -5 7 18
v -8 7 17
v -7 7 17
v -6 7 17
v -5 7 17
v -8 7 16
v -7 7 16
v -6 7 16
v -5 7 16
v 9 7 12
v 10 7 12
v 11 7 12
v 12 7 12
v 9 7 11
v 10 7 11
v 11 7 11
v 12 7 11
v 9 7 10
v 10 7 10
v 11 7 10
v 12 7 10
v 9 7 9
v 10 7 9
v 11 7 9
v 12 7 9
v -7 8 11
v -6 8 11
v -8 8 10
v -7 8 10
v -6 8 10
v -5 8 10
v -8 8 9
v -7 8 9
v -6 8 9
v -5 8 9
v -7 8 8
v -6 8 8
v -1 8 -0
v 0 8 -0
v -2 8 -1
v -1 8 -1
v 0 8 -1
v 1 8 -1
v -2 8 -2
v -1 8 -2
v 0 8 -2
v 1 8 -2
v -1 8 -3
v 0 8 -3
v -14 8 -4
v -13 8 -4
v -15 8 -5
v -14 8 -5
v -13 8 -5
v -12 8 -5
v -15 8 -6
v -14 8 -6
v -13 8 -6
v -12 8 -6
v -14 8 -7
v -13 8 -7
v -8 9 11
v -7 9 11
v -6 9 11
v -5 9 11
v -8 9 10
v -7 9 10
v -6 9 10
v -5 9 10
v -8 9 9
v -7 9 9
v -6 9 9
v -5 9 9
v -8 9 8
v -7 9 8
v -6 9 8
v -5 9 8
v -2 9 -0
v -1 9 -0
v 0 9 -0
v 1 9 -0
v -2 9 -1
v -1 9 -1
v 0 9 -1
v 1 9 -1
v -2 9 -2
v -1 9 -2
v 0 9 -2
v 1 9 -2
v -2 9 -3
v -1 9 -3
v 0 9 -3
v 1 9 -3
v -15 9 -4
v -14 9 -4
v -13 9 -4
v -12 9 -4
v -15 9 -5
v -14 9 -5
v -13 9 -5
v -12 9 -5
v -15 9 -6
v -14 9 -6
v -13 9 -6
v -12 9 -6
v -15 9 -7
v -14 9 -7
v -13 9 -7
v -12 9 -7
v -6 13 -6
v -2 13 -6
v 8 13 -6
v 12 13 -6
v -7 13 -7
v -6 13 -7
v -5 13 -7
v -3 13 -7
v -2 13 -7
v -1 13 -7
v 7 13 -7
v 8 13 -7
v 9 13 -7
v 11 13 -7
v 12 13 -7
v 13 13 -7
v -6 13 -8
v -5 13 -8
v -3 13 -8
v -2 13 -8
v 8 13 -8
v 9 13 -8
v 11 13 -8
v 12 13 -8
v -6 13 -10
v -5 13 -10
v -3 13 -10
v -2 13 -10
v 8 13 -10
v 9 13 -10
v 11 13 -10
v 12 13 -10
v -7 13 -11
v -6 13 -11
v -5 13 -11
v -3 13 -11
v -2 13 -11
v -1 13 -11
v 7 13 -11
v 8 13 -11
v 9 13 -11
v 11 13 -11
v 12 13 -11
v 13 13 -11
v -6 13 -12
v -2 13 -12
v 8 13 -12
v 12 13 -12
v -5 16 -7
v -3 16 -7
v 9 16 -7
v 11 16 -7
v -6 16 -8
v -5 16 -8
v -3 16 -8
v -2 16 -8
v 8 16 -8
v 9 16 -8
v 11 16 -8
v 12 16 -8
v -6 16 -10
v -5 16 -10
v -3 16 -10
v -2 16 -10
v 8 16 -10
v 9 16 -10
v 11 16 -10
v 12 16 -10
v -5 16 -11
v -3 16 -11
v 9 16 -11
v 11 16 -11
v -6 17 -6
v -2 17 -6
v 8 17 -6
v 12 17 -6
v -7 17 -7
v -6 17 -7
v -2 17 -7
v -1 17 -7
v 7 17 -7
v 8 17 -7
v 12 17 -7
v 13 17 -7
v -5 17 -8
v -3 17 -8
v 9 17 -8
v 11 17 -8
v -5 17 -10
v -3 17 -10
v 9 17 -10
v 11 17 -10
v -7 17 -11
v -6 17 -11
v -2 17 -11
v -1 17 -11
v 7 17 -11
v 8 17 -11
v 12 17 -11
v 13 17 -11
v -6 17 -12
v -2 17 -12
v 8 17 -12
v 12 17 -12
v -20 3 20
v 20 3 20
v -7 3 18
v -6 3 18
v -7 3 17
v -6 3 17
v -9 3 15
v -5 3 15
v -11 3 14
v -9 3 14
v -5 3 14
v -3 3 14
v -12 3 13
v -11 3 13
v -3 3 13
v -2 3 13
v -2 3 12
v -1 3 12
v -13 3 11
v -12 3 11
v -1 3 11
v 0 3 11
v 10 3 11
v 11 3 11
v 10 3 10
v 11 3 10
v 0 3 9
v 1 3 9
v 1 3 8
v 7 3 8
v 7 3 7
v 9 3 7
v 9 3 6
v 10 3 6
v -14 3 5
v -13 3 5
v 10 3 5
v 11 3 5
v -15 3 4
v -14 3 4
v 11 3 3
v 12 3 3
v -16 3 2
v -15 3 2
v 12 3 1
v 13 3 1
v 13 3 -1
v 14 3 -1
v 14 3 -4
v 15 3 -4
v -16 3 -8
v -15 3 -8
v 14 3 -9
v 15 3 -9
v -15 3 -10
v -14 3 -10
v 12 3 -11
v 14 3 -11
v -14 3 -12
v -12 3 -12
v -7 3 -12
v -4 3 -12
v 8 3 -12
v 12 3 -12
v -12 3 -13
v -7 3 -13
v 7 3 -13
v 8 3 -13
v -4 3 -14
v -3 3 -14
v -3 3 -15
v -1 3 -15
v 5 3 -15
v 7 3 -15
v -1 3 -16
v 5 3 -16
v -20 3 -20
v 20 3 -20
v -9 5 15
v -5 5 15
v -11 5 14
v -9 5 14
v -5 5 14
v -3 5 14
v -12 5 13
v -11 5 13
v -3 5 13
v -2 5 13
v -2 5 12
v -1 5 12
v -13 5 11
v -12 5 11
v -1 5 11
v 0 5 11
v -7 5 10
v -6 5 10
v -7 5 9
v -6 5 9
v 0 5 9
v 1 5 9
v 1 5 8
v 7 5 8
v 7 5 7
v 9 5 7
v 9 5 6
v 10 5 6
v -14 5 5
v -13 5 5
v -12 5 5
v -9 5 5
v 10 5 5
v 11 5 5
v -15 5 4
v -14 5 4
v 11 5 3
v 12 5 3
v -16 5 2
v -15 5 2
v -12 5 2
v -9 5 2
v 12 5 1
v 13 5 1
v -1 5 -1
v 0 5 -1
v 13 5 -1
v 14 5 -1
v -1 5 -2
v 0 5 -2
v 14 5 -4
v 15 5 -4
v -14 5 -5
v -13 5 -5
v -14 5 -6
v -13 5 -6
v -6 5 -6
v -2 5 -6
v 8 5 -6
v 12 5 -6
v -7 5 -7
v -6 5 -7
v -2 5 -7
v -1 5 -7
v 7 5 -7
v 8 5 -7
v 12 5 -7
v 13 5 -7
v -16 5 -8
v -15 5 -8
v 2 5 -9
v 5 5 -9
v 14 5 -9
v 15 5 -9
v -15 5 -10
v -14 5 -10
v -7 5 -11
v -6 5 -11
v -2 5 -11
v -1 5 -11
v 7 5 -11
v 8 5 -11
v 13 5 -11
v 14 5 -11
v -14 5 -12
v -12 5 -12
v -7 5 -12
v -6 5 -12
v -4 5 -12
v -2 5 -12
v 2 5 -12
v 5 5 -12
v 8 5 -12
v -12 5 -13
v -7 5 -13
v 7 5 -13
v 8 5 -13
v -4 5 -14
v -3 5 -14
v -3 5 -15
v -1 5 -15
v 5 5 -15
v 7 5 -15
v -1 5 -16
v 5 5 -16
v -12 6 5
v -11 6 5
v -10 6 5
v -9 6 5
v -12 6 4
v -11 6 4
v -10 6 4
v -9 6 4
v -12 6 3
v -11 6 3
v -10 6 3
v -9 6 3
v -12 6 2
v -11 6 2
v -10 6 2
v -9 6 2
v -6 6 -6
v -2 6 -6
v 8 6 -6
v 12 6 -6
v -7 6 -7
v -6 6 -7
v -5 6 -7
v -3 6 -7
v -2 6 -7
v -1 6 -7
v 7 6 -7
v 8 6 -7
v 9 6 -7
v 11 6 -7
v 12 6 -7
v 13 6 -7
v -6 6 -8
v -5 6 -8
v -3 6 -8
v -2 6 -8
v 8 6 -8
v 9 6 -8
v 11 6 -8
v 12 6 -8
v 2 6 -9
v 3 6 -9
v 4 6 -9
v 5 6 -9
v -6 6 -10
v -5 6 -10
v -3 6 -10
v -2 6 -10
v 2 6 -10
v 3 6 -10
v 4 6 -10
v 5 6 -10
v 8 6 -10
v 9 6 -10
v 11 6 -10
v 12 6 -10
v -7 6 -11
v -6 6 -11
v -5 6 -11
v -3 6 -11
v -2 6 -11
v -1 6 -11
v 2 6 -11
v 3 6 -11
v 4 6 -11
v 5 6 -11
v 7 6 -11
v 8 6 -11
v 9 6 -11
v 11 6 -11
v 12 6 -11
v 13 6 -11
v -6 6 -12
v -2 6 -12
v 2 6 -12
v 3 6 -12
v 4 6 -12
v 5 6 -12
v 8 6 -12
v 12 6 -12
v -11 7 5
v -10 7 5
v -12 7 4
v -11 7 4
v -10 7 4
v -9 7 4
v -12 7 3
v -11 7 3
v -10 7 3
v -9 7 3
v -11 7 2
v -10 7 2
v 3 7 -9
v 4 7 -9
v 2 7 -10
v 3 7 -10
v 4 7 -10
v 5 7 -10
v 2 7 -11
v 3 7 -11
v 4 7 -11
v 5 7 -11
v 3 7 -12
v 4 7 -12
v -8 8 19
v -7 8 19
v -6 8 19
v -5 8 19
v -8 8 18
v -7 8 18
v -6 8 18
v -5 8 18
v -8 8 17
v -7 8 17
v -6 8 17
v -5 8 17
v -8 8 16
v -7 8 16
v -6 8 16
v -5 8 16
v 9 8 12
v 10 8 12
v 11 8 12
v 12 8 12
v 9 8 11
v 10 8 11
v 11 8 11
v 12 8 11
v 9 8 10
v 10 8 10
v 11 8 10
v 12 8 10
v 9 8 9
v 10 8 9
v 11 8 9
v 12 8 9
v -7 9 19
v -6 9 19
v -8 9 18
v -7 9 18
v -6 9 18
v -5 9 18
v -8 9 17
v -7 9 17
v -6 9 17
v -5 9 17
v -7 9 16
v -6 9 16
v 10 9 12
v 11 9 12
v 9 9 11
v 10 9 11
v 11 9 11
v 12 9 11
v 9 9 10
v 10 9 10
v 11 9 10
v 12 9 10
v 10 9 9
v 11 9 9
v -8 10 11
v -7 10 11
v -6 10 11
v -5 10 11
v -8 10 10
v -7 10 10
v -6 10 10
v -5 10 10
v -8 10 9
v -7 10 9
v -6 10 9
v -5 10 9
v -8 10 8
v -7 10 8
v -6 10 8
v -5 10 8
v -2 10 -0
v -1 10 -0
v 0 10 -0
v 1 10 -0
v -2 10 -1
v -1 10 -1
v 0 10 -1
v 1 10 -1
v -2 10 -2
v -1 10 -2
v 0 10 -2
v 1 10 -2
v -2 10 -3
v -1 10 -3
v 0 10 -3
v 1 10 -3
v -15 10 -4
v -14 10 -4
v -13 10 -4
v -12 10 -4
v -15 10 -5
v -14 10 -5
v -13 10 -5
v -12 10 -5
v -15 10 -6
v -14 10 -6
v -13 10 -6
v -12 10 -6
v -15 10 -7
v -14 10 -7
v -13 10 -7
v -12 10 -7
v -7 11 11
v -6 11 11
v -8 11 10
v -7 11 10
v -6 11 10
v -5 11 10
v -8 11 9
v -7 11 9
v -6 11 9
v -5 11 9
v -7 11 8
v -6 11 8
v -1 11 -0
v 0 11 -0
v -2 11 -1
v -1 11 -1
v 0 11 -1
v 1 11 -1
v -2 11 -2
v -1 11 -2
v 0 11 -2
v 1 11 -2
v -1 11 -3
v 0 11 -3
v -14 11 -4
v -13 11 -4
v -15 11 -5
v -14 11 -5
v -13 11 -5
v -12 11 -5
v -15 11 -6
v -14 11 -6
v -13 11 -6
v -12 11 -6
v -14 11 -7
v -13 11 -7
v -6 14 -6
v -2 14 -6
v 8 14 -6
v 12 14 -6
v -7 14 -7
v -6 14 -7
v -5 14 -7
v -3 14 -7
v -2 14 -7
v -1 14 -7
v 7 14 -7
v 8 14 -7
v 9 14 -7
v 11 14 -7
v 12 14 -7
v 13 14 -7
v -6 14 -8
v -5 14 -8
v -3 14 -8
v -2 14 -8
v 8 14 -8
v 9 14 -8
v 11 14 -8
v 12 14 -8
v -6 14 -10
v -5 14 -10
v -3 14 -10
v -2 14 -10
v 8 14 -10
v 9 14 -10
v 11 14 -10
v 12 14 -10
v -7 14 -11
v -6 14 -11
v -5 14 -11
v -3 14 -11
v -2 14 -11
v -1 14 -11
v 7 14 -11
v 8 14 -11
v 9 14 -11
v 11 14 -11
v 12 14 -11
v 13 14 -11
v -6 14 -12
v -2 14 -12
v 8 14 -12
v 12 14 -12
v -6 18 -6
v -2 18 -6
v 8 18 -6
v 12 18 -6
v -7 18 -7
v -6 18 -7
v -2 18 -7
v -1 18 -7
v 7 18 -7
v 8 18 -7
v 12 18 -7
v 13 18 -7
v -7 18 -11
v -6 18 -11
v -2 18 -11
v -1 18 -11
v 7 18 -11
v 8 18 -11
v 12 18 -11
v 13 18 -11
v -6 18 -12
v -2 18 -12
v 8 18 -12
v 12 18 -12
v -6 19 -7
v -2 19 -7
v 8 19 -7
v 12 19 -7
v -5 19 -8
v -3 19 -8
v 9 19 -8
v 11 19 -8
v -5 19 -10
v -3 19 -10
v 9 19 -10
v 11 19 -10
v -6 19 -11
v -2 19 -11
v 8 19 -11
v 12 19 -11
v -5 20 -8
v -3 20 -8
v 9 20 -8
v 11 20 -8
v -5 20 -10
v -3 20 -10
v 9 20 -10
v 11 20 -10

# faces
f 3/6/1 2/6/1 1/6/1
f 4/6/1 2/6/1 3/6/1
f 5/3/1 4/3/1 3/3/1
f 6/3/1 4/3/1 5/3/1
f 7/9/1 6/9/1 5/9/1
f 8/9/1 6/9/1 7/9/1
f 11/12/1 10/12/1 9/12/1
f 12/12/1 10/12/1 11/12/1
f 13/9/1 12/9/1 11/9/1
f 14/9/1 12/9/1 13/9/1
f 19/12/1 16/12/1 15/12/1
f 20/12/1 16/12/1 19/12/1
f 21/12/1 18/12/1 17/12/1
f 22/12/1 18/12/1 21/12/1
f 23/9/1 20/9/1 19/9/1
f 24/9/1 20/9/1 23/9/1
f 25/9/1 22/9/1 21/9/1
f 26/9/1 22/9/1 25/9/1
f 30/4/1 28/4/1 27/4/1
f 31/4/1 28/4/1 30/4/1
f 33/4/1 30/4/1 29/4/1
f 33/4/1 32/4/1 31/4/1
f 33/4/1 31/4/1 30/4/1
f 34/4/1 32/4/1 33/4/1
f 35/4/1 32/4/1 34/4/1
f 36/4/1 32/4/1 35/4/1
f 37/4/1 35/4/1 34/4/1
f 38/4/1 35/4/1 37/4/1
f 43/12/1 40/12/1 39/12/1
f 44/12/1 40/12/1 43/12/1
f 45/12/1 42/12/1 41/12/1
f 46/12/1 42/12/1 45/12/1
f 47/9/1 44/9/1 43/9/1
f 48/9/1 44/9/1 47/9/1
f 51/9/1 46/9/1 45/9/1
f 52/9/1 46/9/1 51/9/1
f 54/10/1 50/10/1 49/10/1
f 55/10/1 50/10/1 54/10/1
f 57/4/1 54/4/1 53/4/1
f 58/4/1 54/4/1 57/4/1
f 59/4/1 56/4/1 55/4/1
f 60/4/1 56/4/1 59/4/1
f 65/4/1 62/4/1 61/4/1
f 66/4/1 62/4/1 65/4/1
f 67/4/1 64/4/1 63/4/1
f 68/4/1 64/4/1 67/4/1
f 71/12/1 70/12/1 69/12/1
f 72/12/1 70/12/1 71/12/1
f 73/9/1 72/9/1 71/9/1
f 74/9/1 72/9/1 73/9/1
f 79/12/1 76/12/1 75/12/1
f 80/12/1 76/12/1 79/12/1
f 81/12/1 78/12/1 77/12/1
f 82/12/1 78/12/1 81/12/1
f 83/9/1 80/9/1 79/9/1
f 84/9/1 80/9/1 83/9/1
f 87/9/1 82/9/1 81/9/1
f 88/9/1 82/9/1 87/9/1
f 89/4/1 86/4/1 85/4/1
f 90/4/1 86/4/1 89/4/1
f 91/4/1 86/4/1 90/4/1
f 92/4/1 86/4/1 91/4/1
f 93/4/1 91/4/1 90/4/1
f 94/4/1 91/4/1 93/4/1
f 97/12/1 96/12/1 95/12/1
f 98/12/1 96/12/1 97/12/1
f 99/9/1 98/9/1 97/9/1
f 100/9/1 98/9/1 99/9/1
f 105/4/1 102/4/1 101/4/1
f 106/4/1 102/4/1 105/4/1
f 107/4/1 104/4/1 103/4/1
f 108/4/1 104/4/1 107/4/1
f 111/12/1 110/12/1 109/12/1
f 112/12/1 110/12/1 111/12/1
f 113/9/1 112/9/1 111/9/1
f 114/9/1 112/9/1 113/9/1
f 118/4/1 116/4/1 115/4/1
f 119/4/1 116/4/1 118/4/1
f 121/4/1 118/4/1 117/4/1
f 121/4/1 120/4/1 119/4/1
f 121/4/1 119/4/1 118/4/1
f 122/4/1 120/4/1 121/4/1
f 123/4/1 120/4/1 122/4/1
f 124/4/1 120/4/1 123/4/1
f 127/4/1 123/4/1 122/4/1
f 128/4/1 123/4/1 127/4/1
f 130/4/1 126/4/1 125/4/1
f 131/4/1 126/4/1 130/4/1
f 133/4/1 132/4/1 131/4/1
f 133/4/1 131/4/1 130/4/1
f 133/4/1 130/4/1 129/4/1
f 134/4/1 132/4/1 133/4/1
f 135/4/1 132/4/1 134/4/1
f 136/4/1 132/4/1 135/4/1
f 137/4/1 135/4/1 134/4/1
f 138/4/1 135/4/1 137/4/1
f 146/10/1 140/10/1 139/10/1
f 147/10/1 140/10/1 146/10/1
f 149/5/1 144/5/1 143/5/1
f 150/5/1 144/5/1 149/5/1
f 151/4/1 146/4/1 145/4/1
f 152/4/1 146/4/1 151/4/1
f 153/4/1 148/4/1 147/4/1
f 154/4/1 148/4/1 153/4/1
f 160/10/1 142/10/1 141/10/1
f 161/10/1 142/10/1 160/10/1
f 163/4/1 156/4/1 155/4/1
f 164/4/1 156/4/1 163/4/1
f 165/4/1 158/4/1 157/4/1
f 166/4/1 158/4/1 165/4/1
f 167/4/1 160/4/1 159/4/1
f 168/4/1 160/4/1 167/4/1
f 169/4/1 162/4/1 161/4/1
f 170/4/1 162/4/1 169/4/1
f 175/4/1 172/4/1 171/4/1
f 176/4/1 172/4/1 175/4/1
f 177/4/1 174/4/1 173/4/1
f 178/4/1 174/4/1 177/4/1
f 181/7/1 180/7/1 179/7/1
f 182/7/1 180/7/1 181/7/1
f 185/3/1 184/3/1 183/3/1
f 186/3/1 184/3/1 185/3/1
f 191/5/1 188/5/1 187/5/1
f 192/5/1 188/5/1 191/5/1
f 195/5/1 190/5/1 189/5/1
f 196/5/1 190/5/1 195/5/1
f 197/7/1 194/7/1 193/7/1
f 198/7/1 194/7/1 197/7/1
f 199/8/1 198/8/1 197/8/1
f 200/8/1 198/8/1 199/8/1
f 201/7/1 200/7/1 199/7/1
f 202/7/1 200/7/1 201/7/1
f 203/8/1 202/8/1 201/8/1
f 204/8/1 202/8/1 203/8/1
f 205/7/1 204/7/1 203/7/1
f 206/7/1 204/7/1 205/7/1
f 207/8/1 206/8/1 205/8/1
f 208/8/1 206/8/1 207/8/1
f 211/7/1 208/7/1 207/7/1
f 212/7/1 208/7/1 211/7/1
f 215/7/1 210/7/1 209/7/1
f 216/7/1 210/7/1 215/7/1
f 219/7/1 214/7/1 213/7/1
f 220/7/1 214/7/1 219/7/1
f 221/11/1 217/11/1 216/11/1
f 222/11/1 219/11/1 218/11/1
f 224/11/1 221/11/1 216/11/1
f 224/11/1 222/11/1 221/11/1
f 225/11/1 219/11/1 222/11/1
f 225/11/1 222/11/1 224/11/1
f 227/3/1 224/3/1 223/3/1
f 228/3/1 224/3/1 227/3/1
f 229/3/1 226/3/1 225/3/1
f 230/3/1 226/3/1 229/3/1
f 231/3/1 229/3/1 228/3/1
f 232/3/1 229/3/1 231/3/1
f 237/7/1 234/7/1 233/7/1
f 238/7/1 234/7/1 237/7/1
f 239/7/1 236/7/1 235/7/1
f 240/7/1 236/7/1 239/7/1
f 241/8/1 238/8/1 237/8/1
f 242/8/1 238/8/1 241/8/1
f 243/8/1 240/8/1 239/8/1
f 244/8/1 240/8/1 243/8/1
f 245/7/1 242/7/1 241/7/1
f 246/7/1 242/7/1 245/7/1
f 247/7/1 244/7/1 243/7/1
f 248/7/1 244/7/1 247/7/1
f 249/8/1 246/8/1 245/8/1
f 250/8/1 246/8/1 249/8/1
f 251/8/1 248/8/1 247/8/1
f 252/8/1 248/8/1 251/8/1
f 253/7/1 250/7/1 249/7/1
f 254/7/1 250/7/1 253/7/1
f 255/7/1 252/7/1 251/7/1
f 256/7/1 252/7/1 255/7/1
f 257/8/1 254/8/1 253/8/1
f 258/8/1 254/8/1 257/8/1
f 259/8/1 256/8/1 255/8/1
f 260/8/1 256/8/1 259/8/1
f 261/7/1 258/7/1 257/7/1
f 262/7/1 258/7/1 261/7/1
f 263/7/1 260/7/1 259/7/1
f 264/7/1 260/7/1 263/7/1
f 267/3/1 266/3/1 265/3/1
f 268/3/1 266/3/1 267/3/1
f 271/12/1 270/12/1 269/12/1
f 272/12/1 270/12/1 271/12/1
f 273/9/1 272/9/1 271/9/1
f 274/9/1 272/9/1 273/9/1
f 277/12/1 276/12/1 275/12/1
f 278/12/1 276/12/1 277/12/1
f 279/9/1 278/9/1 277/9/1
f 280/9/1 278/9/1 279/9/1
f 285/11/1 282/11/1 281/11/1
f 286/11/1 282/11/1 285/11/1
f 287/11/1 284/11/1 283/11/1
f 288/11/1 284/11/1 287/11/1
f 289/11/1 287/11/1 286/11/1
f 290/11/1 287/11/1 289/11/1
f 294/4/1 292/4/1 291/4/1
f 295/4/1 292/4/1 294/4/1
f 297/4/1 294/4/1 293/4/1
f 297/4/1 296/4/1 295/4/1
f 297/4/1 295/4/1 294/4/1
f 298/4/1 296/4/1 297/4/1
f 299/4/1 296/4/1 298/4/1
f 300/4/1 296/4/1 299/4/1
f 301/4/1 299/4/1 298/4/1
f 302/4/1 299/4/1 301/4/1
f 305/12/1 304/12/1 303/12/1
f 306/12/1 304/12/1 305/12/1
f 309/9/1 306/9/1 305/9/1
f 310/9/1 306/9/1 309/9/1
f 312/10/1 308/10/1 307/10/1
f 313/10/1 308/10/1 312/10/1
f 315/4/1 312/4/1 311/4/1
f 316/4/1 312/4/1 315/4/1
f 317/4/1 314/4/1 313/4/1
f 318/4/1 314/4/1 317/4/1
f 323/4/1 320/4/1 319/4/1
f 324/4/1 320/4/1 323/4/1
f 325/4/1 322/4/1 321/4/1
f 326/4/1 322/4/1 325/4/1
f 329/4/1 328/4/1 327/4/1
f 330/4/1 328/4/1 329/4/1
f 331/4/1 328/4/1 330/4/1
f 332/4/1 328/4/1 331/4/1
f 333/4/1 331/4/1 330/4/1
f 334/4/1 331/4/1 333/4/1
f 339/4/1 336/4/1 335/4/1
f 340/4/1 336/4/1 339/4/1
f 341/4/1 338/4/1 337/4/1
f 342/4/1 338/4/1 341/4/1
f 345/5/1 344/5/1 343/5/1
f 346/5/1 344/5/1 345/5/1
f 349/7/1 348/7/1 347/7/1
f 350/7/1 348/7/1 349/7/1
f 353/3/1 352/3/1 351/3/1
f 354/3/1 352/3/1 353/3/1
f 359/5/1 356/5/1 355/5/1
f 360/5/1 356/5/1 359/5/1
f 363/5/1 358/5/1 357/5/1
f 364/5/1 358/5/1 363/5/1
f 365/7/1 362/7/1 361/7/1
f 366/7/1 362/7/1 365/7/1
f 367/8/1 366/8/1 365/8/1
f 368/8/1 366/8/1 367/8/1
f 369/7/1 368/7/1 367/7/1
f 370/7/1 368/7/1 369/7/1
f 371/8/1 370/8/1 369/8/1
f 372/8/1 370/8/1 371/8/1
f 373/7/1 372/7/1 371/7/1
f 374/7/1 372/7/1 373/7/1
f 375/8/1 374/8/1 373/8/1
f 376/8/1 374/8/1 375/8/1
f 379/7/1 376/7/1 375/7/1
f 380/7/1 376/7/1 379/7/1
f 383/7/1 378/7/1 377/7/1
f 384/7/1 378/7/1 383/7/1
f 387/7/1 382/7/1 381/7/1
f 388/7/1 382/7/1 387/7/1
f 389/11/1 385/11/1 384/11/1
f 390/11/1 387/11/1 386/11/1
f 392/11/1 389/11/1 384/11/1
f 392/11/1 390/11/1 389/11/1
f 393/11/1 387/11/1 390/11/1
f 393/11/1 390/11/1 392/11/1
f 395/3/1 392/3/1 391/3/1
f 396/3/1 392/3/1 395/3/1
f 397/3/1 394/3/1 393/3/1
f 398/3/1 394/3/1 397/3/1
f 399/3/1 397/3/1 396/3/1
f 400/3/1 397/3/1 399/3/1
f 408/4/1 402/4/1 401/4/1
f 409/4/1 402/4/1 408/4/1
f 411/7/1 404/7/1 403/7/1
f 412/7/1 404/7/1 411/7/1
f 413/7/1 406/7/1 405/7/1
f 414/7/1 406/7/1 413/7/1
f 415/4/1 410/4/1 409/4/1
f 415/4/1 408/4/1 407/4/1
f 415/4/1 409/4/1 408/4/1
f 416/4/1 410/4/1 415/4/1
f 417/4/1 410/4/1 416/4/1
f 418/4/1 410/4/1 417/4/1
f 419/8/1 412/8/1 411/8/1
f 420/8/1 412/8/1 419/8/1
f 421/8/1 414/8/1 413/8/1
f 422/8/1 414/8/1 421/8/1
f 423/4/1 417/4/1 416/4/1
f 424/4/1 417/4/1 423/4/1
f 425/7/1 420/7/1 419/7/1
f 426/7/1 420/7/1 425/7/1
f 427/7/1 422/7/1 421/7/1
f 428/7/1 422/7/1 427/7/1
f 429/8/1 426/8/1 425/8/1
f 430/8/1 426/8/1 429/8/1
f 431/8/1 428/8/1 427/8/1
f 432/8/1 428/8/1 431/8/1
f 433/7/1 430/7/1 429/7/1
f 434/7/1 430/7/1 433/7/1
f 435/7/1 432/7/1 431/7/1
f 436/7/1 432/7/1 435/7/1
f 437/8/1 434/8/1 433/8/1
f 438/8/1 434/8/1 437/8/1
f 439/8/1 436/8/1 435/8/1
f 440/8/1 436/8/1 439/8/1
f 441/7/1 438/7/1 437/7/1
f 442/7/1 438/7/1 441/7/1
f 443/7/1 440/7/1 439/7/1
f 444/7/1 440/7/1 443/7/1
f 447/3/1 446/3/1 445/3/1
f 448/3/1 446/3/1 447/3/1
f 452/10/1 450/10/1 449/10/1
f 453/10/1 450/10/1 452/10/1
f 455/4/1 452/4/1 451/4/1
f 456/4/1 452/4/1 455/4/1
f 457/4/1 454/4/1 453/4/1
f 458/4/1 454/4/1 457/4/1
f 463/4/1 460/4/1 459/4/1
f 464/4/1 460/4/1 463/4/1
f 465/4/1 462/4/1 461/4/1
f 466/4/1 462/4/1 465/4/1
f 471/11/1 468/11/1 467/11/1
f 472/11/1 468/11/1 471/11/1
f 473/11/1 470/11/1 469/11/1
f 474/11/1 470/11/1 473/11/1
f 475/11/1 473/11/1 472/11/1
f 476/11/1 473/11/1 475/11/1
f 477/10/2 478/10/2 480/10/2
f 480/10/2 478/10/2 481/10/2
f 479/4/2 480/4/2 483/4/2
f 483/4/2 480/4/2 484/4/2
f 481/4/2 482/4/2 485/4/2
f 485/4/2 482/4/2 486/4/2
f 487/4/2 488/4/2 491/4/2
f 491/4/2 488/4/2 492/4/2
f 489/4/2 490/4/2 493/4/2
f 493/4/2 490/4/2 494/4/2
f 495/4/2 496/4/2 498/4/2
f 498/4/2 496/4/2 499/4/2
f 497/4/2 498/4/2 501/4/2
f 499/4/2 500/4/2 501/4/2
f 498/4/2 499/4/2 501/4/2
f 501/4/2 500/4/2 502/4/2
f 502/4/2 500/4/2 503/4/2
f 503/4/2 500/4/2 504/4/2
f 502/4/2 503/4/2 505/4/2
f 505/4/2 503/4/2 506/4/2
f 507/4/2 508/4/2 511/4/2
f 511/4/2 508/4/2 512/4/2
f 509/4/2 510/4/2 513/4/2
f 513/4/2 510/4/2 514/4/2
f 515/4/2 516/4/2 517/4/2
f 517/4/2 516/4/2 518/4/2
f 518/4/2 516/4/2 519/4/2
f 519/4/2 516/4/2 520/4/2
f 518/4/2 519/4/2 521/4/2
f 521/4/2 519/4/2 522/4/2
f 523/12/2 524/12/2 525/12/2
f 525/12/2 524/12/2 526/12/2
f 525/9/2 526/9/2 527/9/2
f 527/9/2 526/9/2 528/9/2
f 529/10/2 530/10/2 534/10/2
f 534/10/2 530/10/2 535/10/2
f 533/4/2 534/4/2 537/4/2
f 537/4/2 534/4/2 538/4/2
f 535/4/2 536/4/2 539/4/2
f 539/4/2 536/4/2 540/4/2
f 531/10/2 532/10/2 546/10/2
f 546/10/2 532/10/2 547/10/2
f 541/4/2 542/4/2 549/4/2
f 549/4/2 542/4/2 550/4/2
f 543/4/2 544/4/2 551/4/2
f 551/4/2 544/4/2 552/4/2
f 545/4/2 546/4/2 553/4/2
f 553/4/2 546/4/2 554/4/2
f 547/4/2 548/4/2 555/4/2
f 555/4/2 548/4/2 556/4/2
f 557/4/2 558/4/2 561/4/2
f 561/4/2 558/4/2 562/4/2
f 559/4/2 560/4/2 563/4/2
f 563/4/2 560/4/2 564/4/2
f 565/12/2 566/12/2 567/12/2
f 567/12/2 566/12/2 568/12/2
f 567/9/2 568/9/2 569/9/2
f 569/9/2 568/9/2 570/9/2
f 571/4/2 572/4/2 574/4/2
f 574/4/2 572/4/2 575/4/2
f 573/4/2 574/4/2 577/4/2
f 575/4/2 576/4/2 577/4/2
f 574/4/2 575/4/2 577/4/2
f 577/4/2 576/4/2 578/4/2
f 578/4/2 576/4/2 579/4/2
f 579/4/2 576/4/2 580/4/2
f 578/4/2 579/4/2 583/4/2
f 583/4/2 579/4/2 584/4/2
f 581/4/2 582/4/2 586/4/2
f 586/4/2 582/4/2 587/4/2
f 587/4/2 588/4/2 589/4/2
f 586/4/2 587/4/2 589/4/2
f 585/4/2 586/4/2 589/4/2
f 589/4/2 588/4/2 590/4/2
f 590/4/2 588/4/2 591/4/2
f 591/4/2 588/4/2 592/4/2
f 590/4/2 591/4/2 593/4/2
f 593/4/2 591/4/2 594/4/2
f 595/11/2 596/11/2 599/11/2
f 599/11/2 596/11/2 600/11/2
f 597/11/2 598/11/2 601/11/2
f 601/11/2 598/11/2 602/11/2
f 600/11/2 601/11/2 603/11/2
f 603/11/2 601/11/2 604/11/2
f 605/12/2 606/12/2 607/12/2
f 607/12/2 606/12/2 608/12/2
f 607/9/2 608/9/2 609/9/2
f 609/9/2 608/9/2 610/9/2
f 611/7/2 612/7/2 615/7/2
f 615/7/2 612/7/2 616/7/2
f 613/7/2 614/7/2 617/7/2
f 617/7/2 614/7/2 618/7/2
f 615/8/2 616/8/2 619/8/2
f 619/8/2 616/8/2 620/8/2
f 617/8/2 618/8/2 621/8/2
f 621/8/2 618/8/2 622/8/2
f 619/7/2 620/7/2 623/7/2
f 623/7/2 620/7/2 624/7/2
f 621/7/2 622/7/2 625/7/2
f 625/7/2 622/7/2 626/7/2
f 623/8/2 624/8/2 627/8/2
f 627/8/2 624/8/2 628/8/2
f 625/8/2 626/8/2 629/8/2
f 629/8/2 626/8/2 630/8/2
f 627/7/2 628/7/2 631/7/2
f 631/7/2 628/7/2 632/7/2
f 629/7/2 630/7/2 633/7/2
f 633/7/2 630/7/2 634/7/2
f 631/8/2 632/8/2 635/8/2
f 635/8/2 632/8/2 636/8/2
f 633/8/2 634/8/2 637/8/2
f 637/8/2 634/8/2 638/8/2
f 635/7/2 636/7/2 639/7/2
f 639/7/2 636/7/2 640/7/2
f 637/7/2 638/7/2 641/7/2
f 641/7/2 638/7/2 642/7/2
f 643/3/2 644/3/2 645/3/2
f 645/3/2 644/3/2 646/3/2
f 647/12/2 648/12/2 649/12/2
f 649/12/2 648/12/2 650/12/2
f 649/9/2 650/9/2 651/9/2
f 651/9/2 650/9/2 652/9/2
f 653/5/2 654/5/2 657/5/2
f 657/5/2 654/5/2 658/5/2
f 655/5/2 656/5/2 661/5/2
f 661/5/2 656/5/2 662/5/2
f 659/7/2 660/7/2 663/7/2
f 663/7/2 660/7/2 664/7/2
f 663/8/2 664/8/2 665/8/2
f 665/8/2 664/8/2 666/8/2
f 665/7/2 666/7/2 667/7/2
f 667/7/2 666/7/2 668/7/2
f 667/8/2 668/8/2 669/8/2
f 669/8/2 668/8/2 670/8/2
f 669/7/2 670/7/2 671/7/2
f 671/7/2 670/7/2 672/7/2
f 671/8/2 672/8/2 673/8/2
f 673/8/2 672/8/2 674/8/2
f 673/7/2 674/7/2 677/7/2
f 677/7/2 674/7/2 678/7/2
f 675/7/2 676/7/2 681/7/2
f 681/7/2 676/7/2 682/7/2
f 679/7/2 680/7/2 685/7/2
f 685/7/2 680/7/2 686/7/2
f 682/11/2 683/11/2 687/11/2
f 684/11/2 685/11/2 688/11/2
f 682/11/2 687/11/2 690/11/2
f 687/11/2 688/11/2 690/11/2
f 688/11/2 685/11/2 691/11/2
f 690/11/2 688/11/2 691/11/2
f 689/3/2 690/3/2 693/3/2
f 693/3/2 690/3/2 694/3/2
f 691/3/2 692/3/2 695/3/2
f 695/3/2 692/3/2 696/3/2
f 694/3/2 695/3/2 697/3/2
f 697/3/2 695/3/2 698/3/2
f 699/12/2 700/12/2 701/12/2
f 701/12/2 700/12/2 702/12/2
f 701/9/2 702/9/2 703/9/2
f 703/9/2 702/9/2 704/9/2
f 705/5/2 706/5/2 707/5/2
f 707/5/2 706/5/2 708/5/2
f 709/7/2 710/7/2 711/7/2
f 711/7/2 710/7/2 712/7/2
f 713/3/2 714/3/2 715/3/2
f 715/3/2 714/3/2 716/3/2
f 717/12/2 718/12/2 719/12/2
f 719/12/2 718/12/2 720/12/2
f 719/9/2 720/9/2 721/9/2
f 721/9/2 720/9/2 722/9/2
f 723/10/2 724/10/2 726/10/2
f 726/10/2 724/10/2 727/10/2
f 725/4/2 726/4/2 729/4/2
f 729/4/2 726/4/2 730/4/2
f 727/4/2 728/4/2 731/4/2
f 731/4/2 728/4/2 732/4/2
f 733/4/2 734/4/2 737/4/2
f 737/4/2 734/4/2 738/4/2
f 735/4/2 736/4/2 739/4/2
f 739/4/2 736/4/2 740/4/2
f 741/12/2 742/12/2 743/12/2
f 743/12/2 742/12/2 744/12/2
f 743/9/2 744/9/2 745/9/2
f 745/9/2 744/9/2 746/9/2
f 747/4/2 748/4/2 750/4/2
f 750/4/2 748/4/2 751/4/2
f 749/4/2 750/4/2 753/4/2
f 751/4/2 752/4/2 753/4/2
f 750/4/2 751/4/2 753/4/2
f 753/4/2 752/4/2 754/4/2
f 754/4/2 752/4/2 755/4/2
f 755/4/2 752/4/2 756/4/2
f 754/4/2 755/4/2 757/4/2
f 757/4/2 755/4/2 758/4/2
f 759/4/2 760/4/2 763/4/2
f 763/4/2 760/4/2 764/4/2
f 761/4/2 762/4/2 765/4/2
f 765/4/2 762/4/2 766/4/2
f 767/12/2 768/12/2 769/12/2
f 769/12/2 768/12/2 770/12/2
f 769/9/2 770/9/2 773/9/2
f 773/9/2 770/9/2 774/9/2
f 771/4/2 772/4/2 775/4/2
f 775/4/2 772/4/2 776/4/2
f 776/4/2 772/4/2 777/4/2
f 777/4/2 772/4/2 778/4/2
f 776/4/2 777/4/2 779/4/2
f 779/4/2 777/4/2 780/4/2
f 781/12/2 782/12/2 785/12/2
f 785/12/2 782/12/2 786/12/2
f 783/12/2 784/12/2 787/12/2
f 787/12/2 784/12/2 788/12/2
f 785/9/2 786/9/2 789/9/2
f 789/9/2 786/9/2 790/9/2
f 787/9/2 788/9/2 791/9/2
f 791/9/2 788/9/2 792/9/2
f 793/12/2 794/12/2 795/12/2
f 795/12/2 794/12/2 796/12/2
f 795/9/2 796/9/2 797/9/2
f 797/9/2 796/9/2 798/9/2
f 799/12/2 800/12/2 801/12/2
f 801/12/2 800/12/2 802/12/2
f 801/9/2 802/9/2 803/9/2
f 803/9/2 802/9/2 804/9/2
f 805/11/2 806/11/2 809/11/2
f 809/11/2 806/11/2 810/11/2
f 807/11/2 808/11/2 811/11/2
f 811/11/2 808/11/2 812/11/2
f 810/11/2 811/11/2 813/11/2
f 813/11/2 811/11/2 814/11/2
f 815/12/2 816/12/2 817/12/2
f 817/12/2 816/12/2 818/12/2
f 817/9/2 818/9/2 819/9/2
f 819/9/2 818/9/2 820/9/2
f 823/12/2 824/12/2 825/12/2
f 825/12/2 824/12/2 826/12/2
f 825/9/2 826/9/2 827/9/2
f 827/9/2 826/9/2 828/9/2
f 821/10/2 822/10/2 830/10/2
f 830/10/2 822/10/2 831/10/2
f 829/4/2 830/4/2 837/4/2
f 837/4/2 830/4/2 838/4/2
f 831/4/2 832/4/2 839/4/2
f 839/4/2 832/4/2 840/4/2
f 833/7/2 834/7/2 841/7/2
f 841/7/2 834/7/2 842/7/2
f 835/7/2 836/7/2 843/7/2
f 843/7/2 836/7/2 844/7/2
f 841/8/2 842/8/2 849/8/2
f 849/8/2 842/8/2 850/8/2
f 843/8/2 844/8/2 851/8/2
f 851/8/2 844/8/2 852/8/2
f 845/4/2 846/4/2 853/4/2
f 853/4/2 846/4/2 854/4/2
f 847/4/2 848/4/2 855/4/2
f 855/4/2 848/4/2 856/4/2
f 849/7/2 850/7/2 857/7/2
f 857/7/2 850/7/2 858/7/2
f 851/7/2 852/7/2 859/7/2
f 859/7/2 852/7/2 860/7/2
f 857/8/2 858/8/2 861/8/2
f 861/8/2 858/8/2 862/8/2
f 859/8/2 860/8/2 863/8/2
f 863/8/2 860/8/2 864/8/2
f 861/7/2 862/7/2 865/7/2
f 865/7/2 862/7/2 866/7/2
f 863/7/2 864/7/2 867/7/2
f 867/7/2 864/7/2 868/7/2
f 865/8/2 866/8/2 869/8/2
f 869/8/2 866/8/2 870/8/2
f 867/8/2 868/8/2 871/8/2
f 871/8/2 868/8/2 872/8/2
f 869/7/2 870/7/2 873/7/2
f 873/7/2 870/7/2 874/7/2
f 871/7/2 872/7/2 875/7/2
f 875/7/2 872/7/2 876/7/2
f 877/3/2 878/3/2 879/3/2
f 879/3/2 878/3/2 880/3/2
f 881/12/2 882/12/2 885/12/2
f 885/12/2 882/12/2 886/12/2
f 883/12/2 884/12/2 887/12/2
f 887/12/2 884/12/2 888/12/2
f 885/9/2 886/9/2 889/9/2
f 889/9/2 886/9/2 890/9/2
f 887/9/2 888/9/2 893/9/2
f 893/9/2 888/9/2 894/9/2
f 891/5/2 892/5/2 897/5/2
f 897/5/2 892/5/2 898/5/2
f 893/5/2 894/5/2 901/5/2
f 901/5/2 894/5/2 902/5/2
f 895/4/2 896/4/2 904/4/2
f 904/4/2 896/4/2 905/4/2
f 899/7/2 900/7/2 907/7/2
f 907/7/2 900/7/2 908/7/2
f 905/4/2 906/4/2 909/4/2
f 903/4/2 904/4/2 909/4/2
f 904/4/2 905/4/2 909/4/2
f 909/4/2 906/4/2 910/4/2
f 910/4/2 906/4/2 911/4/2
f 911/4/2 906/4/2 912/4/2
f 907/8/2 908/8/2 913/8/2
f 913/8/2 908/8/2 914/8/2
f 910/4/2 911/4/2 915/4/2
f 915/4/2 911/4/2 916/4/2
f 913/7/2 914/7/2 917/7/2
f 917/7/2 914/7/2 918/7/2
f 917/8/2 918/8/2 919/8/2
f 919/8/2 918/8/2 920/8/2
f 919/7/2 920/7/2 921/7/2
f 921/7/2 920/7/2 922/7/2
f 921/8/2 922/8/2 923/8/2
f 923/8/2 922/8/2 924/8/2
f 923/7/2 924/7/2 927/7/2
f 927/7/2 924/7/2 928/7/2
f 925/7/2 926/7/2 931/7/2
f 931/7/2 926/7/2 932/7/2
f 929/7/2 930/7/2 935/7/2
f 935/7/2 930/7/2 936/7/2
f 932/11/2 933/11/2 937/11/2
f 934/11/2 935/11/2 938/11/2
f 932/11/2 937/11/2 940/11/2
f 937/11/2 938/11/2 940/11/2
f 938/11/2 935/11/2 941/11/2
f 940/11/2 938/11/2 941/11/2
f 939/3/2 940/3/2 943/3/2
f 943/3/2 940/3/2 944/3/2
f 941/3/2 942/3/2 945/3/2
f 945/3/2 942/3/2 946/3/2
f 944/3/2 945/3/2 947/3/2
f 947/3/2 945/3/2 948/3/2
f 949/12/2 950/12/2 951/12/2
f 951/12/2 950/12/2 952/12/2
f 951/9/2 952/9/2 953/9/2
f 953/9/2 952/9/2 954/9/2
f 955/5/2 956/5/2 957/5/2
f 957/5/2 956/5/2 958/5/2
f 959/7/2 960/7/2 961/7/2
f 961/7/2 960/7/2 962/7/2
f 963/3/2 964/3/2 965/3/2
f 965/3/2 964/3/2 966/3/2
f 967/12/2 968/12/2 971/12/2
f 971/12/2 968/12/2 972/12/2
f 969/12/2 970/12/2 973/12/2
f 973/12/2 970/12/2 974/12/2
f 971/9/2 972/9/2 975/9/2
f 975/9/2 972/9/2 976/9/2
f 973/9/2 974/9/2 977/9/2
f 977/9/2 974/9/2 978/9/2
f 979/12/2 980/12/2 981/12/2
f 981/12/2 980/12/2 982/12/2
f 981/9/2 982/9/2 983/9/2
f 983/9/2 982/9/2 984/9/2
f 985/6/2 986/6/2 987/6/2
f 987/6/2 986/6/2 988/6/2
f 987/3/2 988/3/2 989/3/2
f 989/3/2 988/3/2 990/3/2
f 989/9/2 990/9/2 991/9/2
f 991/9/2 990/9/2 992/9/2
f 997/6/3 994/6/3 993/6/3
f 998/3/3 995/3/3 994/3/3
f 998/6/3 994/6/3 997/6/3
f 999/9/3 996/9/3 995/9/3
f 999/3/3 995/3/3 998/3/3
f 1000/9/3 996/9/3 999/9/3
f 1004/4/3 1002/4/3 1001/4/3
f 1005/4/3 1002/4/3 1004/4/3
f 1007/4/3 1004/4/3 1003/4/3
f 1007/4/3 1006/4/3 1005/4/3
f 1007/4/3 1005/4/3 1004/4/3
f 1008/4/3 1006/4/3 1007/4/3
f 1009/4/3 1006/4/3 1008/4/3
f 1010/4/3 1006/4/3 1009/4/3
f 1011/4/3 1009/4/3 1008/4/3
f 1012/4/3 1009/4/3 1011/4/3
f 1018/4/3 1014/4/3 1013/4/3
f 1019/4/3 1014/4/3 1018/4/3
f 1020/4/3 1016/4/3 1015/4/3
f 1021/4/3 1016/4/3 1020/4/3
f 1022/10/3 1018/10/3 1017/10/3
f 1023/10/3 1018/10/3 1022/10/3
f 1027/4/3 1024/4/3 1023/4/3
f 1028/4/3 1024/4/3 1027/4/3
f 1029/4/3 1026/4/3 1025/4/3
f 1030/4/3 1026/4/3 1029/4/3
f 1034/12/3 1032/12/3 1031/12/3
f 1035/9/3 1033/9/3 1032/9/3
f 1035/12/3 1032/12/3 1034/12/3
f 1036/9/3 1033/9/3 1035/9/3
f 1040/12/3 1038/12/3 1037/12/3
f 1041/9/3 1039/9/3 1038/9/3
f 1041/12/3 1038/12/3 1040/12/3
f 1042/9/3 1039/9/3 1041/9/3
f 1046/12/3 1044/12/3 1043/12/3
f 1047/9/3 1045/9/3 1044/9/3
f 1047/12/3 1044/12/3 1046/12/3
f 1048/9/3 1045/9/3 1047/9/3
f 1052/12/3 1050/12/3 1049/12/3
f 1053/9/3 1051/9/3 1050/9/3
f 1053/12/3 1050/12/3 1052/12/3
f 1054/9/3 1051/9/3 1053/9/3
f 1058/12/3 1056/12/3 1055/12/3
f 1059/9/3 1057/9/3 1056/9/3
f 1059/12/3 1056/12/3 1058/12/3
f 1060/9/3 1057/9/3 1059/9/3
f 1064/12/3 1062/12/3 1061/12/3
f 1065/9/3 1063/9/3 1062/9/3
f 1065/12/3 1062/12/3 1064/12/3
f 1066/9/3 1063/9/3 1065/9/3
f 1070/4/3 1068/4/3 1067/4/3
f 1071/4/3 1068/4/3 1070/4/3
f 1073/4/3 1070/4/3 1069/4/3
f 1073/4/3 1072/4/3 1071/4/3
f 1073/4/3 1071/4/3 1070/4/3
f 1074/4/3 1072/4/3 1073/4/3
f 1075/4/3 1072/4/3 1074/4/3
f 1076/4/3 1072/4/3 1075/4/3
f 1077/4/3 1075/4/3 1074/4/3
f 1078/4/3 1075/4/3 1077/4/3
f 1082/12/3 1080/12/3 1079/12/3
f 1083/9/3 1081/9/3 1080/9/3
f 1083/12/3 1080/12/3 1082/12/3
f 1084/9/3 1081/9/3 1083/9/3
f 1088/4/3 1086/4/3 1085/4/3
f 1089/4/3 1086/4/3 1088/4/3
f 1091/4/3 1088/4/3 1087/4/3
f 1091/4/3 1090/4/3 1089/4/3
f 1091/4/3 1089/4/3 1088/4/3
f 1092/4/3 1090/4/3 1091/4/3
f 1093/4/3 1090/4/3 1092/4/3
f 1094/4/3 1090/4/3 1093/4/3
f 1095/4/3 1093/4/3 1092/4/3
f 1096/4/3 1093/4/3 1095/4/3
f 1100/12/3 1098/12/3 1097/12/3
f 1101/9/3 1099/9/3 1098/9/3
f 1101/12/3 1098/12/3 1100/12/3
f 1102/9/3 1099/9/3 1101/9/3
f 1108/4/3 1104/4/3 1103/4/3
f 1109/4/3 1104/4/3 1108/4/3
f 1110/4/3 1106/4/3 1105/4/3
f 1111/4/3 1106/4/3 1110/4/3
f 1112/10/3 1108/10/3 1107/10/3
f 1113/10/3 1108/10/3 1112/10/3
f 1117/4/3 1114/4/3 1113/4/3
f 1118/4/3 1114/4/3 1117/4/3
f 1119/4/3 1116/4/3 1115/4/3
f 1120/4/3 1116/4/3 1119/4/3
f 1126/4/3 1122/4/3 1121/4/3
f 1127/4/3 1122/4/3 1126/4/3
f 1128/4/3 1124/4/3 1123/4/3
f 1129/4/3 1124/4/3 1128/4/3
f 1130/10/3 1126/10/3 1125/10/3
f 1131/10/3 1126/10/3 1130/10/3
f 1135/4/3 1132/4/3 1131/4/3
f 1136/4/3 1132/4/3 1135/4/3
f 1137/4/3 1134/4/3 1133/4/3
f 1138/4/3 1134/4/3 1137/4/3
f 1142/12/3 1140/12/3 1139/12/3
f 1143/9/3 1141/9/3 1140/9/3
f 1143/12/3 1140/12/3 1142/12/3
f 1144/9/3 1141/9/3 1143/9/3
f 1148/12/3 1146/12/3 1145/12/3
f 1149/9/3 1147/9/3 1146/9/3
f 1149/12/3 1146/12/3 1148/12/3
f 1150/9/3 1147/9/3 1149/9/3
f 1154/12/3 1152/12/3 1151/12/3
f 1155/9/3 1153/9/3 1152/9/3
f 1155/12/3 1152/12/3 1154/12/3
f 1156/9/3 1153/9/3 1155/9/3
f 1160/12/3 1158/12/3 1157/12/3
f 1161/9/3 1159/9/3 1158/9/3
f 1161/12/3 1158/12/3 1160/12/3
f 1162/9/3 1159/9/3 1161/9/3
f 1166/12/3 1164/12/3 1163/12/3
f 1167/9/3 1165/9/3 1164/9/3
f 1167/12/3 1164/12/3 1166/12/3
f 1168/9/3 1165/9/3 1167/9/3
f 1171/4/3 1170/4/3 1169/4/3
f 1173/4/3 1171/4/3 1169/4/3
f 1173/4/3 1172/4/3 1171/4/3
f 1174/4/3 1172/4/3 1173/4/3
f 1175/4/3 1173/4/3 1169/4/3
f 1176/4/3 1173/4/3 1175/4/3
f 1180/12/3 1178/12/3 1177/12/3
f 1181/9/3 1179/9/3 1178/9/3
f 1181/12/3 1178/12/3 1180/12/3
f 1182/9/3 1179/9/3 1181/9/3
f 1186/12/3 1184/12/3 1183/12/3
f 1187/9/3 1185/9/3 1184/9/3
f 1187/12/3 1184/12/3 1186/12/3
f 1188/9/3 1185/9/3 1187/9/3
f 1191/4/3 1190/4/3 1189/4/3
f 1192/4/3 1190/4/3 1191/4/3
f 1195/4/3 1194/4/3 1193/4/3
f 1196/4/3 1194/4/3 1195/4/3
f 1200/12/3 1198/12/3 1197/12/3
f 1201/9/3 1199/9/3 1198/9/3
f 1201/12/3 1198/12/3 1200/12/3
f 1202/9/3 1199/9/3 1201/9/3
f 1206/12/3 1204/12/3 1203/12/3
f 1207/9/3 1205/9/3 1204/9/3
f 1207/12/3 1204/12/3 1206/12/3
f 1208/9/3 1205/9/3 1207/9/3
f 1212/12/3 1210/12/3 1209/12/3
f 1213/9/3 1211/9/3 1210/9/3
f 1213/12/3 1210/12/3 1212/12/3
f 1214/9/3 1211/9/3 1213/9/3
f 1218/4/3 1216/4/3 1215/4/3
f 1219/4/3 1216/4/3 1218/4/3
f 1221/4/3 1218/4/3 1217/4/3
f 1221/4/3 1220/4/3 1219/4/3
f 1221/4/3 1219/4/3 1218/4/3
f 1222/4/3 1220/4/3 1221/4/3
f 1223/4/3 1220/4/3 1222/4/3
f 1224/4/3 1220/4/3 1223/4/3
f 1225/4/3 1223/4/3 1222/4/3
f 1226/4/3 1223/4/3 1225/4/3
f 1232/4/3 1228/4/3 1227/4/3
f 1233/4/3 1228/4/3 1232/4/3
f 1234/4/3 1230/4/3 1229/4/3
f 1235/4/3 1230/4/3 1234/4/3
f 1236/10/3 1232/10/3 1231/10/3
f 1237/10/3 1232/10/3 1236/10/3
f 1241/4/3 1238/4/3 1237/4/3
f 1242/4/3 1238/4/3 1241/4/3
f 1243/4/3 1240/4/3 1239/4/3
f 1244/4/3 1240/4/3 1243/4/3
f 1248/12/3 1246/12/3 1245/12/3
f 1249/9/3 1247/9/3 1246/9/3
f 1249/12/3 1246/12/3 1248/12/3
f 1250/9/3 1247/9/3 1249/9/3
f 1254/4/3 1252/4/3 1251/4/3
f 1255/4/3 1252/4/3 1254/4/3
f 1257/4/3 1254/4/3 1253/4/3
f 1257/4/3 1256/4/3 1255/4/3
f 1257/4/3 1255/4/3 1254/4/3
f 1258/4/3 1256/4/3 1257/4/3
f 1259/4/3 1256/4/3 1258/4/3
f 1260/4/3 1256/4/3 1259/4/3
f 1261/4/3 1259/4/3 1258/4/3
f 1262/4/3 1259/4/3 1261/4/3
f 1266/12/3 1264/12/3 1263/12/3
f 1267/9/3 1265/9/3 1264/9/3
f 1267/12/3 1264/12/3 1266/12/3
f 1268/9/3 1265/9/3 1267/9/3
f 1274/4/3 1270/4/3 1269/4/3
f 1275/4/3 1270/4/3 1274/4/3
f 1276/4/3 1272/4/3 1271/4/3
f 1277/4/3 1272/4/3 1276/4/3
f 1278/10/3 1274/10/3 1273/10/3
f 1279/10/3 1274/10/3 1278/10/3
f 1283/4/3 1280/4/3 1279/4/3
f 1284/4/3 1280/4/3 1283/4/3
f 1285/4/3 1282/4/3 1281/4/3
f 1286/4/3 1282/4/3 1285/4/3
f 1293/5/3 1288/5/3 1287/5/3
f 1294/5/3 1288/5/3 1293/5/3
f 1295/7/3 1290/7/3 1289/7/3
f 1296/7/3 1290/7/3 1295/7/3
f 1297/3/3 1292/3/3 1291/3/3
f 1298/3/3 1292/3/3 1297/3/3
f 1305/5/3 1300/5/3 1299/5/3
f 1306/5/3 1300/5/3 1305/5/3
f 1307/7/3 1302/7/3 1301/7/3
f 1308/7/3 1302/7/3 1307/7/3
f 1309/3/3 1304/3/3 1303/3/3
f 1310/3/3 1304/3/3 1309/3/3
f 1317/5/3 1312/5/3 1311/5/3
f 1318/5/3 1312/5/3 1317/5/3
f 1319/7/3 1314/7/3 1313/7/3
f 1320/7/3 1314/7/3 1319/7/3
f 1321/3/3 1316/3/3 1315/3/3
f 1322/3/3 1316/3/3 1321/3/3
f 1332/11/3 1321/11/3 1320/11/3
f 1333/11/3 1321/11/3 1332/11/3
f 1334/7/3 1325/7/3 1324/7/3
f 1335/8/3 1326/8/3 1325/8/3
f 1335/7/3 1325/7/3 1334/7/3
f 1336/7/3 1327/7/3 1326/7/3
f 1336/8/3 1326/8/3 1335/8/3
f 1337/8/3 1328/8/3 1327/8/3
f 1337/7/3 1327/7/3 1336/7/3
f 1338/7/3 1329/7/3 1328/7/3
f 1338/8/3 1328/8/3 1337/8/3
f 1339/8/3 1330/8/3 1329/8/3
f 1339/7/3 1329/7/3 1338/7/3
f 1340/7/3 1331/7/3 1330/7/3
f 1340/8/3 1330/8/3 1339/8/3
f 1341/7/3 1331/7/3 1340/7/3
f 1343/11/3 1321/11/3 1333/11/3
f 1347/11/3 1343/11/3 1342/11/3
f 1348/11/3 1321/11/3 1343/11/3
f 1348/11/3 1343/11/3 1347/11/3
f 1349/3/3 1323/3/3 1322/3/3
f 1350/3/3 1323/3/3 1349/3/3
f 1351/5/3 1345/5/3 1344/5/3
f 1352/5/3 1345/5/3 1351/5/3
f 1353/7/3 1347/7/3 1346/7/3
f 1354/7/3 1347/7/3 1353/7/3
f 1355/3/3 1349/3/3 1348/3/3
f 1356/3/3 1349/3/3 1355/3/3
f 1363/5/3 1358/5/3 1357/5/3
f 1364/5/3 1358/5/3 1363/5/3
f 1365/7/3 1360/7/3 1359/7/3
f 1366/7/3 1360/7/3 1365/7/3
f 1367/3/3 1362/3/3 1361/3/3
f 1368/3/3 1362/3/3 1367/3/3
f 1378/11/3 1367/11/3 1366/11/3
f 1379/11/3 1367/11/3 1378/11/3
f 1380/7/3 1371/7/3 1370/7/3
f 1381/8/3 1372/8/3 1371/8/3
f 1381/7/3 1371/7/3 1380/7/3
f 1382/7/3 1373/7/3 1372/7/3
f 1382/8/3 1372/8/3 1381/8/3
f 1383/8/3 1374/8/3 1373/8/3
f 1383/7/3 1373/7/3 1382/7/3
f 1384/7/3 1375/7/3 1374/7/3
f 1384/8/3 1374/8/3 1383/8/3
f 1385/8/3 1376/8/3 1375/8/3
f 1385/7/3 1375/7/3 1384/7/3
f 1386/7/3 1377/7/3 1376/7/3
f 1386/8/3 1376/8/3 1385/8/3
f 1387/7/3 1377/7/3 1386/7/3
f 1389/11/3 1367/11/3 1379/11/3
f 1393/11/3 1389/11/3 1388/11/3
f 1394/11/3 1367/11/3 1389/11/3
f 1394/11/3 1389/11/3 1393/11/3
f 1395/3/3 1369/3/3 1368/3/3
f 1396/3/3 1369/3/3 1395/3/3
f 1397/5/3 1391/5/3 1390/5/3
f 1398/5/3 1391/5/3 1397/5/3
f 1399/7/3 1393/7/3 1392/7/3
f 1400/7/3 1393/7/3 1399/7/3
f 1401/3/3 1395/3/3 1394/3/3
f 1402/3/3 1395/3/3 1401/3/3
f 1411/7/3 1404/7/3 1403/7/3
f 1412/8/3 1405/8/3 1404/8/3
f 1412/7/3 1404/7/3 1411/7/3
f 1413/7/3 1406/7/3 1405/7/3
f 1413/8/3 1405/8/3 1412/8/3
f 1414/8/3 1407/8/3 1406/8/3
f 1414/7/3 1406/7/3 1413/7/3
f 1415/7/3 1408/7/3 1407/7/3
f 1415/8/3 1407/8/3 1414/8/3
f 1416/8/3 1409/8/3 1408/8/3
f 1416/7/3 1408/7/3 1415/7/3
f 1417/7/3 1410/7/3 1409/7/3
f 1417/8/3 1409/8/3 1416/8/3
f 1418/7/3 1410/7/3 1417/7/3
f 1429/3/3 1420/3/3 1419/3/3
f 1430/3/3 1420/3/3 1429/3/3
f 1431/7/3 1422/7/3 1421/7/3
f 1432/8/3 1423/8/3 1422/8/3
f 1432/7/3 1422/7/3 1431/7/3
f 1433/7/3 1424/7/3 1423/7/3
f 1433/8/3 1423/8/3 1432/8/3
f 1434/8/3 1425/8/3 1424/8/3
f 1434/7/3 1424/7/3 1433/7/3
f 1435/7/3 1426/7/3 1425/7/3
f 1435/8/3 1425/8/3 1434/8/3
f 1436/8/3 1427/8/3 1426/8/3
f 1436/7/3 1426/7/3 1435/7/3
f 1437/7/3 1428/7/3 1427/7/3
f 1437/8/3 1427/8/3 1436/8/3
f 1438/7/3 1428/7/3 1437/7/3
f 1447/7/3 1440/7/3 1439/7/3
f 1448/8/3 1441/8/3 1440/8/3
f 1448/7/3 1440/7/3 1447/7/3
f 1449/7/3 1442/7/3 1441/7/3
f 1449/8/3 1441/8/3 1448/8/3
f 1450/8/3 1443/8/3 1442/8/3
f 1450/7/3 1442/7/3 1449/7/3
f 1451/7/3 1444/7/3 1443/7/3
f 1451/8/3 1443/8/3 1450/8/3
f 1452/8/3 1445/8/3 1444/8/3
f 1452/7/3 1444/7/3 1451/7/3
f 1453/7/3 1446/7/3 1445/7/3
f 1453/8/3 1445/8/3 1452/8/3
f 1454/7/3 1446/7/3 1453/7/3
f 1465/3/3 1456/3/3 1455/3/3
f 1466/3/3 1456/3/3 1465/3/3
f 1467/7/3 1458/7/3 1457/7/3
f 1468/8/3 1459/8/3 1458/8/3
f 1468/7/3 1458/7/3 1467/7/3
f 1469/7/3 1460/7/3 1459/7/3
f 1469/8/3 1459/8/3 1468/8/3
f 1470/8/3 1461/8/3 1460/8/3
f 1470/7/3 1460/7/3 1469/7/3
f 1471/7/3 1462/7/3 1461/7/3
f 1471/8/3 1461/8/3 1470/8/3
f 1472/8/3 1463/8/3 1462/8/3
f 1472/7/3 1462/7/3 1471/7/3
f 1473/7/3 1464/7/3 1463/7/3
f 1473/8/3 1463/8/3 1472/8/3
f 1474/7/3 1464/7/3 1473/7/3
f 1477/4/3 1476/4/3 1475/4/3
f 1479/4/3 1477/4/3 1475/4/3
f 1479/4/3 1478/4/3 1477/4/3
f 1480/4/3 1478/4/3 1479/4/3
f 1481/4/3 1479/4/3 1475/4/3
f 1482/4/3 1479/4/3 1481/4/3
f 1485/11/3 1484/11/3 1483/11/3
f 1486/11/3 1484/11/3 1485/11/3
f 1489/11/3 1487/11/3 1486/11/3
f 1490/11/3 1487/11/3 1489/11/3
f 1491/11/3 1489/11/3 1488/11/3
f 1492/11/3 1489/11/3 1491/11/3
f 1495/4/3 1494/4/3 1493/4/3
f 1496/4/3 1494/4/3 1495/4/3
f 1499/4/3 1498/4/3 1497/4/3
f 1500/4/3 1498/4/3 1499/4/3
f 1503/11/3 1502/11/3 1501/11/3
f 1504/11/3 1502/11/3 1503/11/3
f 1507/11/3 1505/11/3 1504/11/3
f 1508/11/3 1505/11/3 1507/11/3
f 1509/11/3 1507/11/3 1506/11/3
f 1510/11/3 1507/11/3 1509/11/3
f 1511/4/4 1512/4/4 1516/4/4
f 1516/4/4 1512/4/4 1517/4/4
f 1513/4/4 1514/4/4 1518/4/4
f 1518/4/4 1514/4/4 1519/4/4
f 1515/10/4 1516/10/4 1520/10/4
f 1520/10/4 1516/10/4 1521/10/4
f 1521/4/4 1522/4/4 1525/4/4
f 1525/4/4 1522/4/4 1526/4/4
f 1523/4/4 1524/4/4 1527/4/4
f 1527/4/4 1524/4/4 1528/4/4
f 1529/4/4 1530/4/4 1532/4/4
f 1532/4/4 1530/4/4 1533/4/4
f 1531/4/4 1532/4/4 1535/4/4
f 1533/4/4 1534/4/4 1535/4/4
f 1532/4/4 1533/4/4 1535/4/4
f 1535/4/4 1534/4/4 1536/4/4
f 1536/4/4 1534/4/4 1537/4/4
f 1537/4/4 1534/4/4 1538/4/4
f 1536/4/4 1537/4/4 1539/4/4
f 1539/4/4 1537/4/4 1540/4/4
f 1541/4/4 1542/4/4 1546/4/4
f 1546/4/4 1542/4/4 1547/4/4
f 1543/4/4 1544/4/4 1548/4/4
f 1548/4/4 1544/4/4 1549/4/4
f 1545/10/4 1546/10/4 1550/10/4
f 1550/10/4 1546/10/4 1551/10/4
f 1551/4/4 1552/4/4 1555/4/4
f 1555/4/4 1552/4/4 1556/4/4
f 1553/4/4 1554/4/4 1557/4/4
f 1557/4/4 1554/4/4 1558/4/4
f 1559/4/4 1560/4/4 1564/4/4
f 1564/4/4 1560/4/4 1565/4/4
f 1561/4/4 1562/4/4 1566/4/4
f 1566/4/4 1562/4/4 1567/4/4
f 1563/10/4 1564/10/4 1568/10/4
f 1568/10/4 1564/10/4 1569/10/4
f 1569/4/4 1570/4/4 1573/4/4
f 1573/4/4 1570/4/4 1574/4/4
f 1571/4/4 1572/4/4 1575/4/4
f 1575/4/4 1572/4/4 1576/4/4
f 1577/4/4 1578/4/4 1580/4/4
f 1580/4/4 1578/4/4 1581/4/4
f 1579/4/4 1580/4/4 1583/4/4
f 1581/4/4 1582/4/4 1583/4/4
f 1580/4/4 1581/4/4 1583/4/4
f 1583/4/4 1582/4/4 1584/4/4
f 1584/4/4 1582/4/4 1585/4/4
f 1585/4/4 1582/4/4 1586/4/4
f 1584/4/4 1585/4/4 1587/4/4
f 1587/4/4 1585/4/4 1588/4/4
f 1589/4/4 1590/4/4 1592/4/4
f 1592/4/4 1590/4/4 1593/4/4
f 1591/4/4 1592/4/4 1595/4/4
f 1593/4/4 1594/4/4 1595/4/4
f 1592/4/4 1593/4/4 1595/4/4
f 1595/4/4 1594/4/4 1596/4/4
f 1596/4/4 1594/4/4 1597/4/4
f 1597/4/4 1594/4/4 1598/4/4
f 1596/4/4 1597/4/4 1599/4/4
f 1599/4/4 1597/4/4 1600/4/4
f 1601/4/4 1602/4/4 1603/4/4
f 1603/4/4 1602/4/4 1604/4/4
f 1605/4/4 1606/4/4 1607/4/4
f 1607/4/4 1606/4/4 1608/4/4
f 1609/4/4 1610/4/4 1611/4/4
f 1609/4/4 1611/4/4 1613/4/4
f 1611/4/4 1612/4/4 1613/4/4
f 1613/4/4 1612/4/4 1614/4/4
f 1609/4/4 1613/4/4 1615/4/4
f 1615/4/4 1613/4/4 1616/4/4
f 1617/4/4 1618/4/4 1622/4/4
f 1622/4/4 1618/4/4 1623/4/4
f 1619/4/4 1620/4/4 1624/4/4
f 1624/4/4 1620/4/4 1625/4/4
f 1621/10/4 1622/10/4 1626/10/4
f 1626/10/4 1622/10/4 1627/10/4
f 1627/4/4 1628/4/4 1631/4/4
f 1631/4/4 1628/4/4 1632/4/4
f 1629/4/4 1630/4/4 1633/4/4
f 1633/4/4 1630/4/4 1634/4/4
f 1635/4/4 1636/4/4 1638/4/4
f 1638/4/4 1636/4/4 1639/4/4
f 1637/4/4 1638/4/4 1641/4/4
f 1639/4/4 1640/4/4 1641/4/4
f 1638/4/4 1639/4/4 1641/4/4
f 1641/4/4 1640/4/4 1642/4/4
f 1642/4/4 1640/4/4 1643/4/4
f 1643/4/4 1640/4/4 1644/4/4
f 1642/4/4 1643/4/4 1645/4/4
f 1645/4/4 1643/4/4 1646/4/4
f 1647/4/4 1648/4/4 1652/4/4
f 1652/4/4 1648/4/4 1653/4/4
f 1649/4/4 1650/4/4 1654/4/4
f 1654/4/4 1650/4/4 1655/4/4
f 1651/10/4 1652/10/4 1656/10/4
f 1656/10/4 1652/10/4 1657/10/4
f 1657/4/4 1658/4/4 1661/4/4
f 1661/4/4 1658/4/4 1662/4/4
f 1659/4/4 1660/4/4 1663/4/4
f 1663/4/4 1660/4/4 1664/4/4
f 1665/4/4 1666/4/4 1668/4/4
f 1668/4/4 1666/4/4 1669/4/4
f 1667/4/4 1668/4/4 1671/4/4
f 1669/4/4 1670/4/4 1671/4/4
f 1668/4/4 1669/4/4 1671/4/4
f 1671/4/4 1670/4/4 1672/4/4
f 1672/4/4 1670/4/4 1673/4/4
f 1673/4/4 1670/4/4 1674/4/4
f 1672/4/4 1673/4/4 1675/4/4
f 1675/4/4 1673/4/4 1676/4/4
f 1677/12/4 1678/12/4 1680/12/4
f 1678/9/4 1679/9/4 1681/9/4
f 1680/12/4 1678/12/4 1681/12/4
f 1681/9/4 1679/9/4 1682/9/4
f 1683/11/4 1684/11/4 1685/11/4
f 1685/11/4 1684/11/4 1686/11/4
f 1686/11/4 1687/11/4 1689/11/4
f 1689/11/4 1687/11/4 1690/11/4
f 1688/11/4 1689/11/4 1691/11/4
f 1691/11/4 1689/11/4 1692/11/4
f 1693/11/4 1694/11/4 1695/11/4
f 1695/11/4 1694/11/4 1696/11/4
f 1696/11/4 1697/11/4 1699/11/4
f 1699/11/4 1697/11/4 1700/11/4
f 1698/11/4 1699/11/4 1701/11/4
f 1701/11/4 1699/11/4 1702/11/4
f 1703/12/4 1704/12/4 1706/12/4
f 1704/9/4 1705/9/4 1707/9/4
f 1706/12/4 1704/12/4 1707/12/4
f 1707/9/4 1705/9/4 1708/9/4
f 1709/12/4 1710/12/4 1712/12/4
f 1710/9/4 1711/9/4 1713/9/4
f 1712/12/4 1710/12/4 1713/12/4
f 1713/9/4 1711/9/4 1714/9/4
f 1715/7/4 1716/7/4 1723/7/4
f 1716/8/4 1717/8/4 1724/8/4
f 1723/7/4 1716/7/4 1724/7/4
f 1717/7/4 1718/7/4 1725/7/4
f 1724/8/4 1717/8/4 1725/8/4
f 1718/8/4 1719/8/4 1726/8/4
f 1725/7/4 1718/7/4 1726/7/4
f 1719/7/4 1720/7/4 1727/7/4
f 1726/8/4 1719/8/4 1727/8/4
f 1720/8/4 1721/8/4 1728/8/4
f 1727/7/4 1720/7/4 1728/7/4
f 1721/7/4 1722/7/4 1729/7/4
f 1728/8/4 1721/8/4 1729/8/4
f 1729/7/4 1722/7/4 1730/7/4
f 1731/3/4 1732/3/4 1741/3/4
f 1741/3/4 1732/3/4 1742/3/4
f 1733/7/4 1734/7/4 1743/7/4
f 1734/8/4 1735/8/4 1744/8/4
f 1743/7/4 1734/7/4 1744/7/4
f 1735/7/4 1736/7/4 1745/7/4
f 1744/8/4 1735/8/4 1745/8/4
f 1736/8/4 1737/8/4 1746/8/4
f 1745/7/4 1736/7/4 1746/7/4
f 1737/7/4 1738/7/4 1747/7/4
f 1746/8/4 1737/8/4 1747/8/4
f 1738/8/4 1739/8/4 1748/8/4
f 1747/7/4 1738/7/4 1748/7/4
f 1739/7/4 1740/7/4 1749/7/4
f 1748/8/4 1739/8/4 1749/8/4
f 1749/7/4 1740/7/4 1750/7/4
f 1751/7/4 1752/7/4 1759/7/4
f 1752/8/4 1753/8/4 1760/8/4
f 1759/7/4 1752/7/4 1760/7/4
f 1753/7/4 1754/7/4 1761/7/4
f 1760/8/4 1753/8/4 1761/8/4
f 1754/8/4 1755/8/4 1762/8/4
f 1761/7/4 1754/7/4 1762/7/4
f 1755/7/4 1756/7/4 1763/7/4
f 1762/8/4 1755/8/4 1763/8/4
f 1756/8/4 1757/8/4 1764/8/4
f 1763/7/4 1756/7/4 1764/7/4
f 1757/7/4 1758/7/4 1765/7/4
f 1764/8/4 1757/8/4 1765/8/4
f 1765/7/4 1758/7/4 1766/7/4
f 1767/3/4 1768/3/4 1777/3/4
f 1777/3/4 1768/3/4 1778/3/4
f 1769/7/4 1770/7/4 1779/7/4
f 1770/8/4 1771/8/4 1780/8/4
f 1779/7/4 1770/7/4 1780/7/4
f 1771/7/4 1772/7/4 1781/7/4
f 1780/8/4 1771/8/4 1781/8/4
f 1772/8/4 1773/8/4 1782/8/4
f 1781/7/4 1772/7/4 1782/7/4
f 1773/7/4 1774/7/4 1783/7/4
f 1782/8/4 1773/8/4 1783/8/4
f 1774/8/4 1775/8/4 1784/8/4
f 1783/7/4 1774/7/4 1784/7/4
f 1775/7/4 1776/7/4 1785/7/4
f 1784/8/4 1775/8/4 1785/8/4
f 1785/7/4 1776/7/4 1786/7/4
f 1787/5/4 1788/5/4 1793/5/4
f 1793/5/4 1788/5/4 1794/5/4
f 1789/7/4 1790/7/4 1795/7/4
f 1795/7/4 1790/7/4 1796/7/4
f 1791/3/4 1792/3/4 1797/3/4
f 1797/3/4 1792/3/4 1798/3/4
f 1796/11/4 1797/11/4 1808/11/4
f 1808/11/4 1797/11/4 1809/11/4
f 1800/7/4 1801/7/4 1810/7/4
f 1801/8/4 1802/8/4 1811/8/4
f 1810/7/4 1801/7/4 1811/7/4
f 1802/7/4 1803/7/4 1812/7/4
f 1811/8/4 1802/8/4 1812/8/4
f 1803/8/4 1804/8/4 1813/8/4
f 1812/7/4 1803/7/4 1813/7/4
f 1804/7/4 1805/7/4 1814/7/4
f 1813/8/4 1804/8/4 1814/8/4
f 1805/8/4 1806/8/4 1815/8/4
f 1814/7/4 1805/7/4 1815/7/4
f 1806/7/4 1807/7/4 1816/7/4
f 1815/8/4 1806/8/4 1816/8/4
f 1816/7/4 1807/7/4 1817/7/4
f 1809/11/4 1797/11/4 1819/11/4
f 1818/11/4 1819/11/4 1823/11/4
f 1819/11/4 1797/11/4 1824/11/4
f 1823/11/4 1819/11/4 1824/11/4
f 1798/3/4 1799/3/4 1825/3/4
f 1825/3/4 1799/3/4 1826/3/4
f 1820/5/4 1821/5/4 1827/5/4
f 1827/5/4 1821/5/4 1828/5/4
f 1822/7/4 1823/7/4 1829/7/4
f 1829/7/4 1823/7/4 1830/7/4
f 1824/3/4 1825/3/4 1831/3/4
f 1831/3/4 1825/3/4 1832/3/4
f 1833/4/4 1834/4/4 1835/4/4
f 1835/4/4 1834/4/4 1836/4/4
f 1837/4/4 1838/4/4 1839/4/4
f 1839/4/4 1838/4/4 1840/4/4
f 1841/5/4 1842/5/4 1847/5/4
f 1847/5/4 1842/5/4 1848/5/4
f 1843/7/4 1844/7/4 1849/7/4
f 1849/7/4 1844/7/4 1850/7/4
f 1845/3/4 1846/3/4 1851/3/4
f 1851/3/4 1846/3/4 1852/3/4
f 1850/11/4 1851/11/4 1862/11/4
f 1862/11/4 1851/11/4 1863/11/4
f 1854/7/4 1855/7/4 1864/7/4
f 1855/8/4 1856/8/4 1865/8/4
f 1864/7/4 1855/7/4 1865/7/4
f 1856/7/4 1857/7/4 1866/7/4
f 1865/8/4 1856/8/4 1866/8/4
f 1857/8/4 1858/8/4 1867/8/4
f 1866/7/4 1857/7/4 1867/7/4
f 1858/7/4 1859/7/4 1868/7/4
f 1867/8/4 1858/8/4 1868/8/4
f 1859/8/4 1860/8/4 1869/8/4
f 1868/7/4 1859/7/4 1869/7/4
f 1860/7/4 1861/7/4 1870/7/4
f 1869/8/4 1860/8/4 1870/8/4
f 1870/7/4 1861/7/4 1871/7/4
f 1863/11/4 1851/11/4 1873/11/4
f 1872/11/4 1873/11/4 1879/11/4
f 1873/11/4 1851/11/4 1880/11/4
f 1879/11/4 1873/11/4 1880/11/4
f 1852/3/4 1853/3/4 1881/3/4
f 1881/3/4 1853/3/4 1882/3/4
f 1876/5/4 1877/5/4 1883/5/4
f 1875/9/4 1876/9/4 1883/9/4
f 1883/5/4 1877/5/4 1884/5/4
f 1878/7/4 1879/7/4 1885/7/4
f 1885/7/4 1879/7/4 1886/7/4
f 1880/3/4 1881/3/4 1887/3/4
f 1887/3/4 1881/3/4 1888/3/4
f 1874/12/4 1875/12/4 1889/12/4
f 1875/9/4 1883/9/4 1890/9/4
f 1889/12/4 1875/12/4 1890/12/4
f 1890/9/4 1883/9/4 1891/9/4
f 1892/12/4 1893/12/4 1895/12/4
f 1893/9/4 1894/9/4 1896/9/4
f 1895/12/4 1893/12/4 1896/12/4
f 1896/9/4 1894/9/4 1897/9/4
f 1899/9/4 1900/9/4 1901/9/4
f 1898/12/4 1899/12/4 1907/12/4
f 1899/9/4 1901/9/4 1908/9/4
f 1907/12/4 1899/12/4 1908/12/4
f 1901/5/4 1902/5/4 1909/5/4
f 1908/9/4 1901/9/4 1909/9/4
f 1909/5/4 1902/5/4 1910/5/4
f 1910/5/4 1902/5/4 1911/5/4
f 1903/7/4 1904/7/4 1912/7/4
f 1912/7/4 1904/7/4 1913/7/4
f 1905/3/4 1906/3/4 1914/3/4
f 1914/3/4 1906/3/4 1915/3/4
f 1916/4/4 1917/4/4 1918/4/4
f 1916/4/4 1918/4/4 1920/4/4
f 1918/4/4 1919/4/4 1920/4/4
f 1920/4/4 1919/4/4 1921/4/4
f 1916/4/4 1920/4/4 1922/4/4
f 1922/4/4 1920/4/4 1923/4/4
f 1924/12/4 1925/12/4 1932/12/4
f 1925/9/4 1926/9/4 1933/9/4
f 1932/12/4 1925/12/4 1933/12/4
f 1926/5/4 1927/5/4 1934/5/4
f 1933/9/4 1926/9/4 1934/9/4
f 1934/5/4 1927/5/4 1935/5/4
f 1928/7/4 1929/7/4 1936/7/4
f 1936/7/4 1929/7/4 1937/7/4
f 1930/3/4 1931/3/4 1938/3/4
f 1938/3/4 1931/3/4 1939/3/4
f 1940/12/4 1941/12/4 1943/12/4
f 1941/9/4 1942/9/4 1944/9/4
f 1943/12/4 1941/12/4 1944/12/4
f 1944/9/4 1942/9/4 1945/9/4
f 1946/12/4 1947/12/4 1949/12/4
f 1947/9/4 1948/9/4 1950/9/4
f 1949/12/4 1947/12/4 1950/12/4
f 1950/9/4 1948/9/4 1951/9/4
f 1952/12/4 1953/12/4 1955/12/4
f 1953/9/4 1954/9/4 1956/9/4
f 1955/12/4 1953/12/4 1956/12/4
f 1956/9/4 1954/9/4 1957/9/4
f 1958/12/4 1959/12/4 1961/12/4
f 1959/9/4 1960/9/4 1962/9/4
f 1961/12/4 1959/12/4 1962/12/4
f 1962/9/4 1960/9/4 1963/9/4
f 1964/12/4 1965/12/4 1967/12/4
f 1965/9/4 1966/9/4 1968/9/4
f 1967/12/4 1965/12/4 1968/12/4
f 1968/9/4 1966/9/4 1969/9/4
f 1970/12/4 1971/12/4 1973/12/4
f 1971/9/4 1972/9/4 1974/9/4
f 1973/12/4 1971/12/4 1974/12/4
f 1974/9/4 1972/9/4 1975/9/4
f 1976/6/4 1977/6/4 1980/6/4
f 1977/3/4 1978/3/4 1981/3/4
f 1980/6/4 1977/6/4 1981/6/4
f 1978/9/4 1979/9/4 1982/9/4
f 1981/3/4 1978/3/4 1982/3/4
f 1982/9/4 1979/9/4 1983/9/4
f 1986/6/5 1985/6/5 1984/6/5
f 1987/6/5 1985/6/5 1986/6/5
f 1991/4/5 1989/4/5 1988/4/5
f 1992/4/5 1989/4/5 1991/4/5
f 1994/4/5 1991/4/5 1990/4/5
f 1995/4/5 1991/4/5 1994/4/5
f 1996/4/5 1993/4/5 1992/4/5
f 1997/4/5 1993/4/5 1996/4/5
f 1998/4/5 1996/4/5 1995/4/5
f 1999/4/5 1996/4/5 1998/4/5
f 2003/4/5 2001/4/5 2000/4/5
f 2004/4/5 2001/4/5 2003/4/5
f 2006/4/5 2003/4/5 2002/4/5
f 2007/4/5 2003/4/5 2006/4/5
f 2008/4/5 2005/4/5 2004/4/5
f 2009/4/5 2005/4/5 2008/4/5
f 2010/4/5 2008/4/5 2007/4/5
f 2011/4/5 2008/4/5 2010/4/5
f 2016/4/5 2013/4/5 2012/4/5
f 2017/4/5 2013/4/5 2016/4/5
f 2018/4/5 2015/4/5 2014/4/5
f 2019/4/5 2015/4/5 2018/4/5
f 2024/4/5 2021/4/5 2020/4/5
f 2025/4/5 2021/4/5 2024/4/5
f 2026/4/5 2023/4/5 2022/4/5
f 2027/4/5 2023/4/5 2026/4/5
f 2032/4/5 2029/4/5 2028/4/5
f 2033/4/5 2029/4/5 2032/4/5
f 2034/4/5 2031/4/5 2030/4/5
f 2035/4/5 2031/4/5 2034/4/5
f 2040/4/5 2037/4/5 2036/4/5
f 2041/4/5 2037/4/5 2040/4/5
f 2042/4/5 2039/4/5 2038/4/5
f 2043/4/5 2039/4/5 2042/4/5
f 2047/4/5 2045/4/5 2044/4/5
f 2048/4/5 2045/4/5 2047/4/5
f 2050/4/5 2047/4/5 2046/4/5
f 2051/4/5 2047/4/5 2050/4/5
f 2052/4/5 2049/4/5 2048/4/5
f 2053/4/5 2049/4/5 2052/4/5
f 2054/4/5 2052/4/5 2051/4/5
f 2055/4/5 2052/4/5 2054/4/5
f 2059/4/5 2057/4/5 2056/4/5
f 2060/4/5 2057/4/5 2059/4/5
f 2062/4/5 2059/4/5 2058/4/5
f 2063/4/5 2059/4/5 2062/4/5
f 2064/4/5 2061/4/5 2060/4/5
f 2065/4/5 2061/4/5 2064/4/5
f 2066/4/5 2064/4/5 2063/4/5
f 2067/4/5 2064/4/5 2066/4/5
f 2071/4/5 2069/4/5 2068/4/5
f 2072/4/5 2069/4/5 2071/4/5
f 2074/4/5 2071/4/5 2070/4/5
f 2075/4/5 2071/4/5 2074/4/5
f 2076/4/5 2073/4/5 2072/4/5
f 2077/4/5 2073/4/5 2076/4/5
f 2078/4/5 2076/4/5 2075/4/5
f 2079/4/5 2076/4/5 2078/4/5
f 2084/4/5 2081/4/5 2080/4/5
f 2085/4/5 2081/4/5 2084/4/5
f 2086/4/5 2083/4/5 2082/4/5
f 2087/4/5 2083/4/5 2086/4/5
f 2092/4/5 2089/4/5 2088/4/5
f 2093/4/5 2089/4/5 2092/4/5
f 2094/4/5 2091/4/5 2090/4/5
f 2095/4/5 2091/4/5 2094/4/5
f 2100/4/5 2097/4/5 2096/4/5
f 2101/4/5 2097/4/5 2100/4/5
f 2102/4/5 2099/4/5 2098/4/5
f 2103/4/5 2099/4/5 2102/4/5
f 2108/4/5 2105/4/5 2104/4/5
f 2109/4/5 2105/4/5 2108/4/5
f 2110/4/5 2107/4/5 2106/4/5
f 2111/4/5 2107/4/5 2110/4/5
f 2116/4/5 2113/4/5 2112/4/5
f 2117/4/5 2113/4/5 2116/4/5
f 2118/4/5 2115/4/5 2114/4/5
f 2119/4/5 2115/4/5 2118/4/5
f 2124/4/5 2121/4/5 2120/4/5
f 2125/4/5 2121/4/5 2124/4/5
f 2126/4/5 2123/4/5 2122/4/5
f 2127/4/5 2123/4/5 2126/4/5
f 2133/7/5 2129/7/5 2128/7/5
f 2134/7/5 2129/7/5 2133/7/5
f 2135/7/5 2129/7/5 2134/7/5
f 2136/7/5 2129/7/5 2135/7/5
f 2139/7/5 2131/7/5 2130/7/5
f 2140/7/5 2131/7/5 2139/7/5
f 2141/7/5 2131/7/5 2140/7/5
f 2142/7/5 2131/7/5 2141/7/5
f 2144/7/5 2133/7/5 2132/7/5
f 2144/7/5 2134/7/5 2133/7/5
f 2145/7/5 2134/7/5 2144/7/5
f 2146/7/5 2137/7/5 2136/7/5
f 2146/7/5 2136/7/5 2135/7/5
f 2147/7/5 2137/7/5 2146/7/5
f 2148/7/5 2140/7/5 2139/7/5
f 2148/7/5 2139/7/5 2138/7/5
f 2149/7/5 2140/7/5 2148/7/5
f 2150/7/5 2143/7/5 2142/7/5
f 2150/7/5 2142/7/5 2141/7/5
f 2151/7/5 2143/7/5 2150/7/5
f 2152/7/5 2144/7/5 2132/7/5
f 2155/7/5 2137/7/5 2147/7/5
f 2156/7/5 2148/7/5 2138/7/5
f 2159/7/5 2143/7/5 2151/7/5
f 2160/7/5 2153/7/5 2152/7/5
f 2160/7/5 2152/7/5 2132/7/5
f 2161/7/5 2153/7/5 2160/7/5
f 2162/7/5 2153/7/5 2161/7/5
f 2163/7/5 2155/7/5 2154/7/5
f 2164/7/5 2137/7/5 2155/7/5
f 2164/7/5 2155/7/5 2163/7/5
f 2165/7/5 2137/7/5 2164/7/5
f 2166/7/5 2157/7/5 2156/7/5
f 2166/7/5 2156/7/5 2138/7/5
f 2167/7/5 2157/7/5 2166/7/5
f 2168/7/5 2157/7/5 2167/7/5
f 2169/7/5 2159/7/5 2158/7/5
f 2170/7/5 2143/7/5 2159/7/5
f 2170/7/5 2159/7/5 2169/7/5
f 2171/7/5 2143/7/5 2170/7/5
f 2172/7/5 2162/7/5 2161/7/5
f 2172/7/5 2163/7/5 2162/7/5
f 2172/7/5 2164/7/5 2163/7/5
f 2173/7/5 2164/7/5 2172/7/5
f 2174/7/5 2170/7/5 2169/7/5
f 2174/7/5 2168/7/5 2167/7/5
f 2174/7/5 2169/7/5 2168/7/5
f 2175/7/5 2170/7/5 2174/7/5
f 2181/11/5 2177/11/5 2176/11/5
f 2182/11/5 2177/11/5 2181/11/5
f 2185/11/5 2179/11/5 2178/11/5
f 2186/11/5 2179/11/5 2185/11/5
f 2188/11/5 2181/11/5 2180/11/5
f 2189/11/5 2181/11/5 2188/11/5
f 2190/11/5 2183/11/5 2182/11/5
f 2191/11/5 2183/11/5 2190/11/5
f 2192/11/5 2185/11/5 2184/11/5
f 2193/11/5 2185/11/5 2192/11/5
f 2194/11/5 2187/11/5 2186/11/5
f 2195/11/5 2187/11/5 2194/11/5
f 2196/11/5 2190/11/5 2189/11/5
f 2197/11/5 2190/11/5 2196/11/5
f 2198/11/5 2194/11/5 2193/11/5
f 2199/11/5 2194/11/5 2198/11/5
f 2205/3/5 2201/3/5 2200/3/5
f 2206/3/5 2201/3/5 2205/3/5
f 2209/3/5 2203/3/5 2202/3/5
f 2210/3/5 2203/3/5 2209/3/5
f 2216/7/5 2213/7/5 2212/7/5
f 2217/7/5 2213/7/5 2216/7/5
f 2218/7/5 2215/7/5 2214/7/5
f 2219/7/5 2215/7/5 2218/7/5
f 2220/3/5 2205/3/5 2204/3/5
f 2221/3/5 2205/3/5 2220/3/5
f 2222/3/5 2207/3/5 2206/3/5
f 2223/3/5 2207/3/5 2222/3/5
f 2224/3/5 2209/3/5 2208/3/5
f 2225/3/5 2209/3/5 2224/3/5
f 2226/3/5 2211/3/5 2210/3/5
f 2227/3/5 2211/3/5 2226/3/5
f 2228/3/5 2222/3/5 2221/3/5
f 2229/3/5 2222/3/5 2228/3/5
f 2230/3/5 2226/3/5 2225/3/5
f 2231/3/5 2226/3/5 2230/3/5
f 2232/9/6 2233/9/6 2234/9/6
f 2234/9/6 2233/9/6 2235/9/6
f 2232/9/6 2234/9/6 2236/9/6
f 2235/9/6 2233/9/6 2237/9/6
f 2232/9/6 2236/9/6 2238/9/6
f 2236/9/6 2237/9/6 2238/9/6
f 2237/9/6 2233/9/6 2239/9/6
f 2238/9/6 2237/9/6 2239/9/6
f 2232/9/6 2238/9/6 2240/9/6
f 2240/9/6 2238/9/6 2241/9/6
f 2239/9/6 2233/9/6 2242/9/6
f 2242/9/6 2233/9/6 2243/9/6
f 2232/9/6 2240/9/6 2244/9/6
f 2244/9/6 2240/9/6 2245/9/6
f 2243/9/6 2233/9/6 2246/9/6
f 2246/9/6 2233/9/6 2247/9/6
f 2247/9/6 2233/9/6 2248/9/6
f 2248/9/6 2233/9/6 2249/9/6
f 2232/9/6 2244/9/6 2250/9/6
f 2250/9/6 2244/9/6 2251/9/6
f 2249/9/6 2233/9/6 2252/9/6
f 2252/9/6 2233/9/6 2253/9/6
f 2253/9/6 2233/9/6 2254/9/6
f 2254/9/6 2233/9/6 2255/9/6
f 2253/9/6 2254/9/6 2256/9/6
f 2255/9/6 2233/9/6 2257/9/6
f 2253/9/6 2256/9/6 2258/9/6
f 2256/9/6 2257/9/6 2258/9/6
f 2258/9/6 2257/9/6 2259/9/6
f 2259/9/6 2257/9/6 2260/9/6
f 2260/9/6 2257/9/6 2261/9/6
f 2261/9/6 2257/9/6 2262/9/6
f 2262/9/6 2257/9/6 2263/9/6
f 2263/9/6 2257/9/6 2264/9/6
f 2264/9/6 2257/9/6 2265/9/6
f 2232/9/6 2250/9/6 2266/9/6
f 2266/9/6 2250/9/6 2267/9/6
f 2265/9/6 2257/9/6 2268/9/6
f 2257/9/6 2233/9/6 2269/9/6
f 2268/9/6 2257/9/6 2269/9/6
f 2232/9/6 2266/9/6 2270/9/6
f 2270/9/6 2266/9/6 2271/9/6
f 2269/9/6 2233/9/6 2272/9/6
f 2272/9/6 2233/9/6 2273/9/6
f 2232/9/6 2270/9/6 2274/9/6
f 2274/9/6 2270/9/6 2275/9/6
f 2273/9/6 2233/9/6 2276/9/6
f 2276/9/6 2233/9/6 2277/9/6
f 2277/9/6 2233/9/6 2278/9/6
f 2278/9/6 2233/9/6 2279/9/6
f 2279/9/6 2233/9/6 2280/9/6
f 2280/9/6 2233/9/6 2281/9/6
f 2232/9/6 2274/9/6 2282/9/6
f 2281/9/6 2233/9/6 2285/9/6
f 2282/9/6 2283/9/6 2286/9/6
f 2284/9/6 2285/9/6 2289/9/6
f 2286/9/6 2287/9/6 2290/9/6
f 2288/9/6 2289/9/6 2295/9/6
f 2290/9/6 2291/9/6 2296/9/6
f 2292/9/6 2293/9/6 2297/9/6
f 2294/9/6 2295/9/6 2299/9/6
f 2296/9/6 2297/9/6 2300/9/6
f 2297/9/6 2293/9/6 2300/9/6
f 2300/9/6 2301/9/6 2302/9/6
f 2298/9/6 2299/9/6 2305/9/6
f 2302/9/6 2303/9/6 2306/9/6
f 2304/9/6 2305/9/6 2307/9/6
f 2290/9/6 2296/9/6 2308/9/6
f 2306/9/6 2307/9/6 2308/9/6
f 2232/9/6 2282/9/6 2308/9/6
f 2282/9/6 2286/9/6 2308/9/6
f 2286/9/6 2290/9/6 2308/9/6
f 2302/9/6 2306/9/6 2308/9/6
f 2300/9/6 2302/9/6 2308/9/6
f 2296/9/6 2300/9/6 2308/9/6
f 2307/9/6 2305/9/6 2309/9/6
f 2308/9/6 2307/9/6 2309/9/6
f 2285/9/6 2233/9/6 2309/9/6
f 2299/9/6 2295/9/6 2309/9/6
f 2305/9/6 2299/9/6 2309/9/6
f 2295/9/6 2289/9/6 2309/9/6
f 2289/9/6 2285/9/6 2309/9/6
f 2310/9/6 2311/9/6 2313/9/6
f 2313/9/6 2311/9/6 2314/9/6
f 2312/9/6 2313/9/6 2317/9/6
f 2314/9/6 2315/9/6 2317/9/6
f 2313/9/6 2314/9/6 2317/9/6
f 2317/9/6 2315/9/6 2318/9/6
f 2316/9/6 2317/9/6 2320/9/6
f 2318/9/6 2319/9/6 2320/9/6
f 2317/9/6 2318/9/6 2320/9/6
f 2316/9/6 2320/9/6 2323/9/6
f 2320/9/6 2321/9/6 2323/9/6
f 2323/9/6 2321/9/6 2324/9/6
f 2322/9/6 2323/9/6 2326/9/6
f 2324/9/6 2325/9/6 2326/9/6
f 2323/9/6 2324/9/6 2326/9/6
f 2326/9/6 2325/9/6 2327/9/6
f 2322/9/6 2326/9/6 2328/9/6
f 2327/9/6 2325/9/6 2329/9/6
f 2329/9/6 2325/9/6 2330/9/6
f 2328/9/6 2329/9/6 2332/9/6
f 2330/9/6 2331/9/6 2332/9/6
f 2329/9/6 2330/9/6 2332/9/6
f 2332/9/6 2333/9/6 2334/9/6
f 2334/9/6 2335/9/6 2336/9/6
f 2322/9/6 2328/9/6 2339/9/6
f 2336/9/6 2337/9/6 2339/9/6
f 2334/9/6 2336/9/6 2339/9/6
f 2332/9/6 2334/9/6 2339/9/6
f 2328/9/6 2332/9/6 2339/9/6
f 2339/9/6 2337/9/6 2340/9/6
f 2340/9/6 2337/9/6 2341/9/6
f 2341/9/6 2337/9/6 2342/9/6
f 2338/9/6 2339/9/6 2345/9/6
f 2339/9/6 2340/9/6 2345/9/6
f 2341/9/6 2342/9/6 2346/9/6
f 2342/9/6 2343/9/6 2346/9/6
f 2344/9/6 2345/9/6 2349/9/6
f 2345/9/6 2340/9/6 2350/9/6
f 2349/9/6 2345/9/6 2350/9/6
f 2346/9/6 2347/9/6 2351/9/6
f 2341/9/6 2346/9/6 2351/9/6
f 2349/9/6 2350/9/6 2352/9/6
f 2350/9/6 2351/9/6 2352/9/6
f 2351/9/6 2347/9/6 2352/9/6
f 2348/9/6 2349/9/6 2352/9/6
f 2348/9/6 2352/9/6 2354/9/6
f 2352/9/6 2353/9/6 2354/9/6
f 2354/9/6 2353/9/6 2355/9/6
f 2355/9/6 2353/9/6 2356/9/6
f 2348/9/6 2354/9/6 2358/9/6
f 2356/9/6 2357/9/6 2359/9/6
f 2355/9/6 2356/9/6 2359/9/6
f 2359/9/6 2357/9/6 2360/9/6
f 2358/9/6 2359/9/6 2360/9/6
f 2348/9/6 2358/9/6 2362/9/6
f 2360/9/6 2361/9/6 2362/9/6
f 2358/9/6 2360/9/6 2362/9/6
f 2362/9/6 2361/9/6 2363/9/6
f 2348/9/6 2362/9/6 2364/9/6
f 2363/9/6 2361/9/6 2365/9/6
f 2365/9/6 2361/9/6 2366/9/6
f 2366/9/6 2361/9/6 2367/9/6
f 2367/9/6 2361/9/6 2368/9/6
f 2368/9/6 2361/9/6 2369/9/6
f 2364/9/6 2365/9/6 2370/9/6
f 2365/9/6 2366/9/6 2370/9/6
f 2370/9/6 2366/9/6 2371/9/6
f 2367/9/6 2368/9/6 2372/9/6
f 2372/9/6 2368/9/6 2373/9/6
f 2373/9/6 2368/9/6 2374/9/6
f 2374/9/6 2368/9/6 2375/9/6
f 2369/9/6 2361/9/6 2376/9/6
f 2376/9/6 2361/9/6 2377/9/6
f 2348/9/6 2364/9/6 2378/9/6
f 2364/9/6 2370/9/6 2378/9/6
f 2378/9/6 2370/9/6 2379/9/6
f 2373/9/6 2374/9/6 2380/9/6
f 2380/9/6 2374/9/6 2381/9/6
f 2377/9/6 2361/9/6 2382/9/6
f 2382/9/6 2361/9/6 2383/9/6
f 2379/9/6 2370/9/6 2384/9/6
f 2384/9/6 2370/9/6 2385/9/6
f 2385/9/6 2370/9/6 2386/9/6
f 2373/9/6 2380/9/6 2389/9/6
f 2381/9/6 2374/9/6 2390/9/6
f 2377/9/6 2382/9/6 2392/9/6
f 2392/9/6 2382/9/6 2393/9/6
f 2386/9/6 2387/9/6 2394/9/6
f 2385/9/6 2386/9/6 2394/9/6
f 2394/9/6 2387/9/6 2395/9/6
f 2395/9/6 2387/9/6 2396/9/6
f 2396/9/6 2387/9/6 2397/9/6
f 2388/9/6 2389/9/6 2399/9/6
f 2389/9/6 2380/9/6 2400/9/6
f 2399/9/6 2389/9/6 2400/9/6
f 2390/9/6 2391/9/6 2401/9/6
f 2381/9/6 2390/9/6 2401/9/6
f 2401/9/6 2391/9/6 2402/9/6
f 2395/9/6 2396/9/6 2403/9/6
f 2403/9/6 2396/9/6 2404/9/6
f 2399/9/6 2400/9/6 2405/9/6
f 2398/9/6 2399/9/6 2405/9/6
f 2401/9/6 2402/9/6 2405/9/6
f 2400/9/6 2401/9/6 2405/9/6
f 2405/9/6 2402/9/6 2406/9/6
f 2398/9/6 2405/9/6 2407/9/6
f 2407/9/6 2405/9/6 2408/9/6
f 2408/9/6 2405/9/6 2409/9/6
f 2409/9/6 2405/9/6 2410/9/6
f 2410/9/6 2405/9/6 2411/9/6
f 2411/9/6 2405/9/6 2412/9/6
f 2410/9/6 2411/9/6 2413/9/6
f 2413/9/6 2411/9/6 2414/9/6
f 2415/4/6 2416/4/6 2419/4/6
f 2419/4/6 2416/4/6 2420/4/6
f 2417/4/6 2418/4/6 2421/4/6
f 2421/4/6 2418/4/6 2422/4/6
f 2423/4/6 2424/4/6 2427/4/6
f 2427/4/6 2424/4/6 2428/4/6
f 2425/4/6 2426/4/6 2429/4/6
f 2429/4/6 2426/4/6 2430/4/6
f 2431/5/6 2432/5/6 2436/5/6
f 2436/5/6 2432/5/6 2437/5/6
f 2437/5/6 2432/5/6 2438/5/6
f 2438/5/6 2432/5/6 2439/5/6
f 2433/5/6 2434/5/6 2442/5/6
f 2442/5/6 2434/5/6 2443/5/6
f 2443/5/6 2434/5/6 2444/5/6
f 2444/5/6 2434/5/6 2445/5/6
f 2435/5/6 2436/5/6 2447/5/6
f 2436/5/6 2437/5/6 2447/5/6
f 2447/5/6 2437/5/6 2448/5/6
f 2439/5/6 2440/5/6 2449/5/6
f 2438/5/6 2439/5/6 2449/5/6
f 2449/5/6 2440/5/6 2450/5/6
f 2442/5/6 2443/5/6 2451/5/6
f 2441/5/6 2442/5/6 2451/5/6
f 2451/5/6 2443/5/6 2452/5/6
f 2445/5/6 2446/5/6 2453/5/6
f 2444/5/6 2445/5/6 2453/5/6
f 2453/5/6 2446/5/6 2454/5/6
f 2435/5/6 2447/5/6 2459/5/6
f 2450/5/6 2440/5/6 2462/5/6
f 2455/4/6 2456/4/6 2463/4/6
f 2463/4/6 2456/4/6 2464/4/6
f 2457/4/6 2458/4/6 2465/4/6
f 2465/4/6 2458/4/6 2466/4/6
f 2441/5/6 2451/5/6 2467/5/6
f 2454/5/6 2446/5/6 2470/5/6
f 2459/5/6 2460/5/6 2471/5/6
f 2435/5/6 2459/5/6 2471/5/6
f 2471/5/6 2460/5/6 2472/5/6
f 2472/5/6 2460/5/6 2473/5/6
f 2461/5/6 2462/5/6 2474/5/6
f 2462/5/6 2440/5/6 2475/5/6
f 2474/5/6 2462/5/6 2475/5/6
f 2475/5/6 2440/5/6 2476/5/6
f 2467/5/6 2468/5/6 2481/5/6
f 2441/5/6 2467/5/6 2481/5/6
f 2481/5/6 2468/5/6 2482/5/6
f 2482/5/6 2468/5/6 2483/5/6
f 2469/5/6 2470/5/6 2484/5/6
f 2470/5/6 2446/5/6 2485/5/6
f 2484/5/6 2470/5/6 2485/5/6
f 2485/5/6 2446/5/6 2486/5/6
f 2472/5/6 2473/5/6 2487/5/6
f 2473/5/6 2474/5/6 2487/5/6
f 2474/5/6 2475/5/6 2487/5/6
f 2487/5/6 2475/5/6 2488/5/6
f 2477/4/6 2478/4/6 2489/4/6
f 2489/4/6 2478/4/6 2490/4/6
f 2479/4/6 2480/4/6 2491/4/6
f 2491/4/6 2480/4/6 2492/4/6
f 2482/5/6 2483/5/6 2493/5/6
f 2483/5/6 2484/5/6 2493/5/6
f 2484/5/6 2485/5/6 2493/5/6
f 2493/5/6 2485/5/6 2494/5/6
f 2495/4/6 2496/4/6 2498/4/6
f 2498/4/6 2496/4/6 2499/4/6
f 2497/4/6 2498/4/6 2501/4/6
f 2499/4/6 2500/4/6 2501/4/6
f 2498/4/6 2499/4/6 2501/4/6
f 2501/4/6 2500/4/6 2502/4/6
f 2502/4/6 2500/4/6 2503/4/6
f 2503/4/6 2500/4/6 2504/4/6
f 2502/4/6 2503/4/6 2505/4/6
f 2505/4/6 2503/4/6 2506/4/6
f 2507/4/6 2508/4/6 2510/4/6
f 2510/4/6 2508/4/6 2511/4/6
f 2509/4/6 2510/4/6 2513/4/6
f 2511/4/6 2512/4/6 2513/4/6
f 2510/4/6 2511/4/6 2513/4/6
f 2513/4/6 2512/4/6 2514/4/6
f 2514/4/6 2512/4/6 2515/4/6
f 2515/4/6 2512/4/6 2516/4/6
f 2514/4/6 2515/4/6 2517/4/6
f 2517/4/6 2515/4/6 2518/4/6
f 2519/4/6 2520/4/6 2523/4/6
f 2523/4/6 2520/4/6 2524/4/6
f 2521/4/6 2522/4/6 2525/4/6
f 2525/4/6 2522/4/6 2526/4/6
f 2527/4/6 2528/4/6 2531/4/6
f 2531/4/6 2528/4/6 2532/4/6
f 2529/4/6 2530/4/6 2533/4/6
f 2533/4/6 2530/4/6 2534/4/6
f 2535/4/6 2536/4/6 2539/4/6
f 2539/4/6 2536/4/6 2540/4/6
f 2537/4/6 2538/4/6 2541/4/6
f 2541/4/6 2538/4/6 2542/4/6
f 2543/4/6 2544/4/6 2547/4/6
f 2547/4/6 2544/4/6 2548/4/6
f 2545/4/6 2546/4/6 2549/4/6
f 2549/4/6 2546/4/6 2550/4/6
f 2551/4/6 2552/4/6 2554/4/6
f 2554/4/6 2552/4/6 2555/4/6
f 2553/4/6 2554/4/6 2557/4/6
f 2555/4/6 2556/4/6 2557/4/6
f 2554/4/6 2555/4/6 2557/4/6
f 2557/4/6 2556/4/6 2558/4/6
f 2558/4/6 2556/4/6 2559/4/6
f 2559/4/6 2556/4/6 2560/4/6
f 2558/4/6 2559/4/6 2561/4/6
f 2561/4/6 2559/4/6 2562/4/6
f 2563/4/6 2564/4/6 2566/4/6
f 2566/4/6 2564/4/6 2567/4/6
f 2565/4/6 2566/4/6 2569/4/6
f 2567/4/6 2568/4/6 2569/4/6
f 2566/4/6 2567/4/6 2569/4/6
f 2569/4/6 2568/4/6 2570/4/6
f 2570/4/6 2568/4/6 2571/4/6
f 2571/4/6 2568/4/6 2572/4/6
f 2570/4/6 2571/4/6 2573/4/6
f 2573/4/6 2571/4/6 2574/4/6
f 2575/4/6 2576/4/6 2579/4/6
f 2579/4/6 2576/4/6 2580/4/6
f 2577/4/6 2578/4/6 2581/4/6
f 2581/4/6 2578/4/6 2582/4/6
f 2583/4/6 2584/4/6 2587/4/6
f 2587/4/6 2584/4/6 2588/4/6
f 2585/4/6 2586/4/6 2589/4/6
f 2589/4/6 2586/4/6 2590/4/6
f 2591/4/6 2592/4/6 2595/4/6
f 2595/4/6 2592/4/6 2596/4/6
f 2593/4/6 2594/4/6 2597/4/6
f 2597/4/6 2594/4/6 2598/4/6
f 2599/4/6 2600/4/6 2603/4/6
f 2603/4/6 2600/4/6 2604/4/6
f 2601/4/6 2602/4/6 2605/4/6
f 2605/4/6 2602/4/6 2606/4/6
f 2607/4/6 2608/4/6 2611/4/6
f 2611/4/6 2608/4/6 2612/4/6
f 2609/4/6 2610/4/6 2613/4/6
f 2613/4/6 2610/4/6 2614/4/6
f 2615/4/6 2616/4/6 2619/4/6
f 2619/4/6 2616/4/6 2620/4/6
f 2617/4/6 2618/4/6 2621/4/6
f 2621/4/6 2618/4/6 2622/4/6
f 2623/4/6 2624/4/6 2626/4/6
f 2626/4/6 2624/4/6 2627/4/6
f 2625/4/6 2626/4/6 2629/4/6
f 2627/4/6 2628/4/6 2629/4/6
f 2626/4/6 2627/4/6 2629/4/6
f 2629/4/6 2628/4/6 2630/4/6
f 2630/4/6 2628/4/6 2631/4/6
f 2631/4/6 2628/4/6 2632/4/6
f 2630/4/6 2631/4/6 2633/4/6
f 2633/4/6 2631/4/6 2634/4/6
f 2635/4/6 2636/4/6 2638/4/6
f 2638/4/6 2636/4/6 2639/4/6
f 2637/4/6 2638/4/6 2641/4/6
f 2639/4/6 2640/4/6 2641/4/6
f 2638/4/6 2639/4/6 2641/4/6
f 2641/4/6 2640/4/6 2642/4/6
f 2642/4/6 2640/4/6 2643/4/6
f 2643/4/6 2640/4/6 2644/4/6
f 2642/4/6 2643/4/6 2645/4/6
f 2645/4/6 2643/4/6 2646/4/6
f 2647/4/6 2648/4/6 2650/4/6
f 2650/4/6 2648/4/6 2651/4/6
f 2649/4/6 2650/4/6 2653/4/6
f 2651/4/6 2652/4/6 2653/4/6
f 2650/4/6 2651/4/6 2653/4/6
f 2653/4/6 2652/4/6 2654/4/6
f 2654/4/6 2652/4/6 2655/4/6
f 2655/4/6 2652/4/6 2656/4/6
f 2654/4/6 2655/4/6 2657/4/6
f 2657/4/6 2655/4/6 2658/4/6
f 2659/7/6 2660/7/6 2664/7/6
f 2664/7/6 2660/7/6 2665/7/6
f 2665/7/6 2660/7/6 2666/7/6
f 2666/7/6 2660/7/6 2667/7/6
f 2661/7/6 2662/7/6 2670/7/6
f 2670/7/6 2662/7/6 2671/7/6
f 2671/7/6 2662/7/6 2672/7/6
f 2672/7/6 2662/7/6 2673/7/6
f 2663/7/6 2664/7/6 2675/7/6
f 2665/7/6 2666/7/6 2676/7/6
f 2676/7/6 2666/7/6 2677/7/6
f 2667/7/6 2668/7/6 2678/7/6
f 2669/7/6 2670/7/6 2679/7/6
f 2671/7/6 2672/7/6 2680/7/6
f 2680/7/6 2672/7/6 2681/7/6
f 2673/7/6 2674/7/6 2682/7/6
f 2676/7/6 2677/7/6 2683/7/6
f 2663/7/6 2675/7/6 2683/7/6
f 2677/7/6 2678/7/6 2683/7/6
f 2675/7/6 2676/7/6 2683/7/6
f 2683/7/6 2678/7/6 2684/7/6
f 2684/7/6 2678/7/6 2685/7/6
f 2678/7/6 2668/7/6 2686/7/6
f 2685/7/6 2678/7/6 2686/7/6
f 2681/7/6 2682/7/6 2687/7/6
f 2680/7/6 2681/7/6 2687/7/6
f 2669/7/6 2679/7/6 2687/7/6
f 2679/7/6 2680/7/6 2687/7/6
f 2687/7/6 2682/7/6 2688/7/6
f 2688/7/6 2682/7/6 2689/7/6
f 2682/7/6 2674/7/6 2690/7/6
f 2689/7/6 2682/7/6 2690/7/6
f 2663/7/6 2683/7/6 2691/7/6
f 2691/7/6 2683/7/6 2692/7/6
f 2684/7/6 2685/7/6 2693/7/6
f 2693/7/6 2685/7/6 2694/7/6
f 2686/7/6 2668/7/6 2695/7/6
f 2695/7/6 2668/7/6 2696/7/6
f 2669/7/6 2687/7/6 2697/7/6
f 2697/7/6 2687/7/6 2698/7/6
f 2688/7/6 2689/7/6 2699/7/6
f 2699/7/6 2689/7/6 2700/7/6
f 2690/7/6 2674/7/6 2701/7/6
f 2701/7/6 2674/7/6 2702/7/6
f 2693/7/6 2694/7/6 2703/7/6
f 2692/7/6 2693/7/6 2703/7/6
f 2694/7/6 2695/7/6 2703/7/6
f 2703/7/6 2695/7/6 2704/7/6
f 2699/7/6 2700/7/6 2705/7/6
f 2700/7/6 2701/7/6 2705/7/6
f 2698/7/6 2699/7/6 2705/7/6
f 2705/7/6 2701/7/6 2706/7/6
f 2707/3/6 2708/3/6 2712/3/6
f 2712/3/6 2708/3/6 2713/3/6
f 2709/3/6 2710/3/6 2716/3/6
f 2716/3/6 2710/3/6 2717/3/6
f 2711/3/6 2712/3/6 2719/3/6
f 2719/3/6 2712/3/6 2720/3/6
f 2713/3/6 2714/3/6 2721/3/6
f 2721/3/6 2714/3/6 2722/3/6
f 2715/3/6 2716/3/6 2723/3/6
f 2723/3/6 2716/3/6 2724/3/6
f 2717/3/6 2718/3/6 2725/3/6
f 2725/3/6 2718/3/6 2726/3/6
f 2720/3/6 2721/3/6 2727/3/6
f 2727/3/6 2721/3/6 2728/3/6
f 2724/3/6 2725/3/6 2729/3/6
f 2729/3/6 2725/3/6 2730/3/6
f 2731/3/6 2732/3/6 2735/3/6
f 2735/3/6 2732/3/6 2736/3/6
f 2733/3/6 2734/3/6 2737/3/6
f 2737/3/6 2734/3/6 2738/3/6
f 2731/3/6 2735/3/6 2739/3/6
f 2736/3/6 2732/3/6 2740/3/6
f 2733/3/6 2737/3/6 2741/3/6
f 2738/3/6 2734/3/6 2742/3/6
f 2731/3/6 2739/3/6 2743/3/6
f 2739/3/6 2740/3/6 2743/3/6
f 2740/3/6 2732/3/6 2744/3/6
f 2743/3/6 2740/3/6 2744/3/6
f 2741/3/6 2742/3/6 2745/3/6
f 2733/3/6 2741/3/6 2745/3/6
f 2742/3/6 2734/3/6 2746/3/6
f 2745/3/6 2742/3/6 2746/3/6
f 2747/3/6 2748/3/6 2751/3/6
f 2751/3/6 2748/3/6 2752/3/6
f 2749/3/6 2750/3/6 2753/3/6
f 2753/3/6 2750/3/6 2754/3/6
