# MagicaVoxel @ Ephtracy

# group
o 

# material
mtllib RoadTIntersectionHasarli.mtl
usemtl palette

# normals
vn -1 0 0
vn 1 0 0
vn 0 0 1
vn 0 0 -1
vn 0 -1 0
vn 0 1 0

# texcoords
vt 0.447266 0.5
vt 0.958984 0.5
vt 0.990234 0.5

# verts
v -2 0 2
v -2 0 1.5
v -2 0 0.0999999
v -2 0 -0.1
v -2 0 -0.2
v -2 0 -1.3
v -2 0 -1.4
v -2 0 -1.5
v -2 0 -2
v -2 0.1 2
v -2 0.1 1.5
v -2 0.1 0.0999999
v -2 0.1 -0.1
v -2 0.1 -0.2
v -2 0.1 -1.3
v -2 0.1 -1.4
v -2 0.1 -1.5
v -2 0.1 -2
v -1.9 0 -0.1
v -1.9 0 -0.2
v -1.9 0 -1.3
v -1.9 0 -1.4
v -1.9 0.1 -0.1
v -1.9 0.1 -0.2
v -1.9 0.1 -1.3
v -1.9 0.1 -1.4
v -1.8 0 0.0999999
v -1.8 0 -0.1
v -1.8 0.1 0.0999999
v -1.8 0.1 -0.1
v -1.7 0 0.2
v -1.7 0 0.0999999
v -1.7 0 -1.2
v -1.7 0 -1.3
v -1.7 0.1 0.2
v -1.7 0.1 0.0999999
v -1.7 0.1 -1.2
v -1.7 0.1 -1.3
v -1.6 0 0.3
v -1.6 0 0.2
v -1.6 0.1 0.3
v -1.6 0.1 0.2
v -1.5 0 0.5
v -1.5 0 0.3
v -1.5 0 -1.1
v -1.5 0 -1.2
v -1.5 0.1 0.5
v -1.5 0.1 0.3
v -1.5 0.1 -1.1
v -1.5 0.1 -1.2
v -1.4 0 0.6
v -1.4 0 0.5
v -1.4 0 -1
v -1.4 0 -1.1
v -1.4 0.1 0.6
v -1.4 0.1 0.5
v -1.4 0.1 -1
v -1.4 0.1 -1.1
v -1.3 0 0.8
v -1.3 0 0.6
v -1.3 0.1 0.8
v -1.3 0.1 0.6
v -1.2 0 0.9
v -1.2 0 0.8
v -1.2 0 -0.9
v -1.2 0 -1
v -1.2 0.1 0.9
v -1.2 0.1 0.8
v -1.2 0.1 -0.9
v -1.2 0.1 -1
v -1.1 0 1
v -1.1 0 0.9
v -1.1 0.1 1
v -1.1 0.1 0.9
v -1 0 1.2
v -1 0 1
v -1 0 -0.8
v -1 0 -0.9
v -1 0.1 1.2
v -1 0.1 1
v -1 0.1 -0.8
v -1 0.1 -0.9
v -0.9 0 1.3
v -0.9 0 1.2
v -0.9 0.1 1.3
v -0.9 0.1 1.2
v -0.8 0 1.5
v -0.8 0 1.3
v -0.8 0 -0.7
v -0.8 0 -0.8
v -0.8 0.1 1.5
v -0.8 0.1 1.3
v -0.8 0.1 -0.7
v -0.8 0.1 -0.8
v -0.7 0 1.6
v -0.7 0 1.5
v -0.7 0 -0.6
v -0.7 0 -0.7
v -0.7 0.1 1.6
v -0.7 0.1 1.5
v -0.7 0.1 -0.6
v -0.7 0.1 -0.7
v -0.6 0 1.7
v -0.6 0 1.6
v -0.6 0.1 1.7
v -0.6 0.1 1.6
v -0.5 0 1.9
v -0.5 0 1.7
v -0.5 0 -0.5
v -0.5 0 -0.6
v -0.5 0.1 1.9
v -0.5 0.1 1.7
v -0.5 0.1 -0.5
v -0.5 0.1 -0.6
v -0.4 0 2
v -0.4 0 1.9
v -0.4 0.1 2
v -0.4 0.1 1.9
v -0.3 0 -0.4
v -0.3 0 -0.5
v -0.3 0.1 -0.4
v -0.3 0.1 -0.5
v -0.2 0 -0.3
v -0.2 0 -0.4
v -0.2 0.1 -0.3
v -0.2 0.1 -0.4
v 2.38419e-07 0 -0.2
v 2.38419e-07 0 -0.3
v 2.38419e-07 0.1 -0.2
v 2.38419e-07 0.1 -0.3
v 0.2 0 -0.1
v 0.2 0 -0.2
v 0.2 0.1 -0.1
v 0.2 0.1 -0.2
v 0.3 0 -2.38419e-07
v 0.3 0 -0.1
v 0.3 0.1 -2.38419e-07
v 0.3 0.1 -0.1
v 0.5 0 0.0999999
v 0.5 0 -2.38419e-07
v 0.5 0.1 0.0999999
v 0.5 0.1 -2.38419e-07
v 0.7 0 0.2
v 0.7 0 0.0999999
v 0.7 0.1 0.2
v 0.7 0.1 0.0999999
v 0.8 0 0.3
v 0.8 0 0.2
v 0.8 0.1 0.3
v 0.8 0.1 0.2
v 1 0 0.4
v 1 0 0.3
v 1 0.1 0.4
v 1 0.1 0.3
v 1.2 0 2
v 1.2 0 1.6
v 1.2 0 0.5
v 1.2 0 0.4
v 1.2 0.1 2
v 1.2 0.1 1.6
v 1.2 0.1 0.5
v 1.2 0.1 0.4
v 1.3 0 1.6
v 1.3 0 1
v 1.3 0.1 1.6
v 1.3 0.1 1
v 1.4 0 1
v 1.4 0 0.7
v 1.4 0 0.6
v 1.4 0 0.2
v 1.4 0.1 1
v 1.4 0.1 0.7
v 1.4 0.1 0.6
v 1.4 0.1 0.2
v 1.5 0 0.7
v 1.5 0 0.6
v 1.5 0 0.2
v 1.5 0 0.0999999
v 1.5 0 -0.1
v 1.5 0 -0.4
v 1.5 0.1 0.7
v 1.5 0.1 0.6
v 1.5 0.1 0.2
v 1.5 0.1 0.0999999
v 1.5 0.1 -0.1
v 1.5 0.1 -0.4
v 1.6 0 -0.4
v 1.6 0 -1
v 1.6 0.1 -0.4
v 1.6 0.1 -1
v 1.7 0 0.8
v 1.7 0 0.7
v 1.7 0 -1
v 1.7 0 -1.5
v 1.7 0 -1.6
v 1.7 0.1 0.8
v 1.7 0.1 0.7
v 1.7 0.1 -1
v 1.7 0.1 -1.5
v 1.7 0.1 -1.6
v 1.8 0 -1.6
v 1.8 0 -2
v 1.8 0.1 -1.6
v 1.8 0.1 -2
v -1.9 0 0.0999999
v -1.9 0 -0.1
v -1.9 0 -1.2
v -1.9 0 -1.3
v -1.9 0.1 0.0999999
v -1.9 0.1 -0.1
v -1.9 0.1 -1.2
v -1.9 0.1 -1.3
v -1.8 0 0.2
v -1.8 0 0.0999999
v -1.8 0.1 0.2
v -1.8 0.1 0.0999999
v -1.7 0 0.3
v -1.7 0 0.2
v -1.7 0 -1.1
v -1.7 0 -1.2
v -1.7 0.1 0.3
v -1.7 0.1 0.2
v -1.7 0.1 -1.1
v -1.7 0.1 -1.2
v -1.6 0 0.5
v -1.6 0 0.3
v -1.6 0.1 0.5
v -1.6 0.1 0.3
v -1.5 0 0.6
v -1.5 0 0.5
v -1.5 0 -1
v -1.5 0 -1.1
v -1.5 0.1 0.6
v -1.5 0.1 0.5
v -1.5 0.1 -1
v -1.5 0.1 -1.1
v -1.4 0 0.8
v -1.4 0 0.6
v -1.4 0 -0.9
v -1.4 0 -1
v -1.4 0.1 0.8
v -1.4 0.1 0.6
v -1.4 0.1 -0.9
v -1.4 0.1 -1
v -1.3 0 0.9
v -1.3 0 0.8
v -1.3 0.1 0.9
v -1.3 0.1 0.8
v -1.2 0 1
v -1.2 0 0.9
v -1.2 0 -0.8
v -1.2 0 -0.9
v -1.2 0.1 1
v -1.2 0.1 0.9
v -1.2 0.1 -0.8
v -1.2 0.1 -0.9
v -1.1 0 1.2
v -1.1 0 1
v -1.1 0.1 1.2
v -1.1 0.1 1
v -1 0 1.3
v -1 0 1.2
v -1 0 -0.7
v -1 0 -0.8
v -1 0.1 1.3
v -1 0.1 1.2
v -1 0.1 -0.7
v -1 0.1 -0.8
v -0.9 0 1.5
v -0.9 0 1.3
v -0.9 0.1 1.5
v -0.9 0.1 1.3
v -0.8 0 1.6
v -0.8 0 1.5
v -0.8 0 -0.6
v -0.8 0 -0.7
v -0.8 0.1 1.6
v -0.8 0.1 1.5
v -0.8 0.1 -0.6
v -0.8 0.1 -0.7
v -0.7 0 1.7
v -0.7 0 1.6
v -0.7 0 -0.5
v -0.7 0 -0.6
v -0.7 0.1 1.7
v -0.7 0.1 1.6
v -0.7 0.1 -0.5
v -0.7 0.1 -0.6
v -0.6 0 1.9
v -0.6 0 1.7
v -0.6 0.1 1.9
v -0.6 0.1 1.7
v -0.5 0 2
v -0.5 0 1.9
v -0.5 0 -0.4
v -0.5 0 -0.5
v -0.5 0.1 2
v -0.5 0.1 1.9
v -0.5 0.1 -0.4
v -0.5 0.1 -0.5
v -0.3 0 -0.3
v -0.3 0 -0.4
v -0.3 0.1 -0.3
v -0.3 0.1 -0.4
v -0.2 0 -0.2
v -0.2 0 -0.3
v -0.2 0.1 -0.2
v -0.2 0.1 -0.3
v 2.38419e-07 0 -0.1
v 2.38419e-07 0 -0.2
v 2.38419e-07 0.1 -0.1
v 2.38419e-07 0.1 -0.2
v 0.2 0 -2.38419e-07
v 0.2 0 -0.1
v 0.2 0.1 -2.38419e-07
v 0.2 0.1 -0.1
v 0.3 0 0.0999999
v 0.3 0 -2.38419e-07
v 0.3 0.1 0.0999999
v 0.3 0.1 -2.38419e-07
v 0.5 0 0.2
v 0.5 0 0.0999999
v 0.5 0.1 0.2
v 0.5 0.1 0.0999999
v 0.7 0 0.3
v 0.7 0 0.2
v 0.7 0.1 0.3
v 0.7 0.1 0.2
v 0.8 0 0.4
v 0.8 0 0.3
v 0.8 0.1 0.4
v 0.8 0.1 0.3
v 1 0 0.5
v 1 0 0.4
v 1 0.1 0.5
v 1 0.1 0.4
v 1.1 0 2
v 1.1 0 1.6
v 1.1 0.1 2
v 1.1 0.1 1.6
v 1.2 0 1.6
v 1.2 0 1
v 1.2 0 0.6
v 1.2 0 0.5
v 1.2 0.1 1.6
v 1.2 0.1 1
v 1.2 0.1 0.6
v 1.2 0.1 0.5
v 1.3 0 1
v 1.3 0 0.6
v 1.3 0 0.5
v 1.3 0 0.2
v 1.3 0.1 1
v 1.3 0.1 0.6
v 1.3 0.1 0.5
v 1.3 0.1 0.2
v 1.4 0 0.2
v 1.4 0 0.0999999
v 1.4 0 -0.1
v 1.4 0 -0.4
v 1.4 0.1 0.2
v 1.4 0.1 0.0999999
v 1.4 0.1 -0.1
v 1.4 0.1 -0.4
v 1.5 0 0.8
v 1.5 0 0.7
v 1.5 0 -0.4
v 1.5 0 -1
v 1.5 0.1 0.8
v 1.5 0.1 0.7
v 1.5 0.1 -0.4
v 1.5 0.1 -1
v 1.6 0 -1
v 1.6 0 -1.5
v 1.6 0 -1.6
v 1.6 0.1 -1
v 1.6 0.1 -1.5
v 1.6 0.1 -1.6
v 1.7 0 0.9
v 1.7 0 0.8
v 1.7 0 -1.6
v 1.7 0 -2
v 1.7 0.1 0.9
v 1.7 0.1 0.8
v 1.7 0.1 -1.6
v 1.7 0.1 -2
v 1.9 0 1
v 1.9 0 0.9
v 1.9 0.1 1
v 1.9 0.1 0.9
v 2 0 2
v 2 0 1.5
v 2 0 1
v 2 0 0.8
v 2 0 0.0999999
v 2 0 -0.1
v 2 0 -1.5
v 2 0 -2
v 2 0.1 2
v 2 0.1 1.5
v 2 0.1 1
v 2 0.1 0.8
v 2 0.1 0.0999999
v 2 0.1 -0.1
v 2 0.1 -1.5
v 2 0.1 -2
v -2 0 2
v -2 0.1 2
v -1.5 0 2
v -1.5 0.1 2
v -0.5 0 2
v -0.5 0.1 2
v -0.4 0 2
v -0.4 0.1 2
v -0.0999999 0 2
v -0.0999999 0.1 2
v 0.1 0 2
v 0.1 0.1 2
v 1.1 0 2
v 1.1 0.1 2
v 1.2 0 2
v 1.2 0.1 2
v 1.5 0 2
v 1.5 0.1 2
v 2 0 2
v 2 0.1 2
v -0.5 0 1.9
v -0.5 0.1 1.9
v -0.4 0 1.9
v -0.4 0.1 1.9
v -0.6 0 1.7
v -0.6 0.1 1.7
v -0.5 0 1.7
v -0.5 0.1 1.7
v -0.7 0 1.6
v -0.7 0.1 1.6
v -0.6 0 1.6
v -0.6 0.1 1.6
v 1.1 0 1.6
v 1.1 0.1 1.6
v 1.2 0 1.6
v 1.2 0.1 1.6
v -0.8 0 1.5
v -0.8 0.1 1.5
v -0.7 0 1.5
v -0.7 0.1 1.5
v -0.9 0 1.3
v -0.9 0.1 1.3
v -0.8 0 1.3
v -0.8 0.1 1.3
v -1 0 1.2
v -1 0.1 1.2
v -0.9 0 1.2
v -0.9 0.1 1.2
v -1.1 0 1
v -1.1 0.1 1
v -1 0 1
v -1 0.1 1
v 1.2 0 1
v 1.2 0.1 1
v 1.3 0 1
v 1.3 0.1 1
v -1.2 0 0.9
v -1.2 0.1 0.9
v -1.1 0 0.9
v -1.1 0.1 0.9
v -1.3 0 0.8
v -1.3 0.1 0.8
v -1.2 0 0.8
v -1.2 0.1 0.8
v 1.7 0 0.8
v 1.7 0.1 0.8
v 2 0 0.8
v 2 0.1 0.8
v 1.5 0 0.7
v 1.5 0.1 0.7
v 1.7 0 0.7
v 1.7 0.1 0.7
v -1.4 0 0.6
v -1.4 0.1 0.6
v -1.3 0 0.6
v -1.3 0.1 0.6
v 1.4 0 0.6
v 1.4 0.1 0.6
v 1.5 0 0.6
v 1.5 0.1 0.6
v -1.5 0 0.5
v -1.5 0.1 0.5
v -1.4 0 0.5
v -1.4 0.1 0.5
v 1.2 0 0.5
v 1.2 0.1 0.5
v 1.3 0 0.5
v 1.3 0.1 0.5
v 1 0 0.4
v 1 0.1 0.4
v 1.2 0 0.4
v 1.2 0.1 0.4
v -1.6 0 0.3
v -1.6 0.1 0.3
v -1.5 0 0.3
v -1.5 0.1 0.3
v 0.8 0 0.3
v 0.8 0.1 0.3
v 1 0 0.3
v 1 0.1 0.3
v -1.7 0 0.2
v -1.7 0.1 0.2
v -1.6 0 0.2
v -1.6 0.1 0.2
v 0.7 0 0.2
v 0.7 0.1 0.2
v 0.8 0 0.2
v 0.8 0.1 0.2
v 1.3 0 0.2
v 1.3 0.1 0.2
v 1.4 0 0.2
v 1.4 0.1 0.2
v -1.8 0 0.0999999
v -1.8 0.1 0.0999999
v -1.7 0 0.0999999
v -1.7 0.1 0.0999999
v 0.5 0 0.0999999
v 0.5 0.1 0.0999999
v 0.7 0 0.0999999
v 0.7 0.1 0.0999999
v 0.3 0 -2.38419e-07
v 0.3 0.1 -2.38419e-07
v 0.5 0 -2.38419e-07
v 0.5 0.1 -2.38419e-07
v -1.9 0 -0.1
v -1.9 0.1 -0.1
v -1.8 0 -0.1
v -1.8 0.1 -0.1
v 0.2 0 -0.1
v 0.2 0.1 -0.1
v 0.3 0 -0.1
v 0.3 0.1 -0.1
v -2 0 -0.2
v -2 0.1 -0.2
v -1.9 0 -0.2
v -1.9 0.1 -0.2
v 2.38419e-07 0 -0.2
v 2.38419e-07 0.1 -0.2
v 0.2 0 -0.2
v 0.2 0.1 -0.2
v -0.2 0 -0.3
v -0.2 0.1 -0.3
v 2.38419e-07 0 -0.3
v 2.38419e-07 0.1 -0.3
v -0.3 0 -0.4
v -0.3 0.1 -0.4
v -0.2 0 -0.4
v -0.2 0.1 -0.4
v 1.4 0 -0.4
v 1.4 0.1 -0.4
v 1.5 0 -0.4
v 1.5 0.1 -0.4
v -0.5 0 -0.5
v -0.5 0.1 -0.5
v -0.3 0 -0.5
v -0.3 0.1 -0.5
v -0.7 0 -0.6
v -0.7 0.1 -0.6
v -0.5 0 -0.6
v -0.5 0.1 -0.6
v -0.8 0 -0.7
v -0.8 0.1 -0.7
v -0.7 0 -0.7
v -0.7 0.1 -0.7
v -1 0 -0.8
v -1 0.1 -0.8
v -0.8 0 -0.8
v -0.8 0.1 -0.8
v -1.2 0 -0.9
v -1.2 0.1 -0.9
v -1 0 -0.9
v -1 0.1 -0.9
v -1.4 0 -1
v -1.4 0.1 -1
v -1.2 0 -1
v -1.2 0.1 -1
v 1.5 0 -1
v 1.5 0.1 -1
v 1.6 0 -1
v 1.6 0.1 -1
v -1.5 0 -1.1
v -1.5 0.1 -1.1
v -1.4 0 -1.1
v -1.4 0.1 -1.1
v -1.7 0 -1.2
v -1.7 0.1 -1.2
v -1.5 0 -1.2
v -1.5 0.1 -1.2
v -1.9 0 -1.3
v -1.9 0.1 -1.3
v -1.7 0 -1.3
v -1.7 0.1 -1.3
v -2 0 -1.4
v -2 0.1 -1.4
v -1.9 0 -1.4
v -1.9 0.1 -1.4
v 1.6 0 -1.6
v 1.6 0.1 -1.6
v 1.7 0 -1.6
v 1.7 0.1 -1.6
v -0.6 0 1.9
v -0.6 0.1 1.9
v -0.5 0 1.9
v -0.5 0.1 1.9
v -0.7 0 1.7
v -0.7 0.1 1.7
v -0.6 0 1.7
v -0.6 0.1 1.7
v -0.8 0 1.6
v -0.8 0.1 1.6
v -0.7 0 1.6
v -0.7 0.1 1.6
v 1.2 0 1.6
v 1.2 0.1 1.6
v 1.3 0 1.6
v 1.3 0.1 1.6
v -0.9 0 1.5
v -0.9 0.1 1.5
v -0.8 0 1.5
v -0.8 0.1 1.5
v -1 0 1.3
v -1 0.1 1.3
v -0.9 0 1.3
v -0.9 0.1 1.3
v -1.1 0 1.2
v -1.1 0.1 1.2
v -1 0 1.2
v -1 0.1 1.2
v -1.2 0 1
v -1.2 0.1 1
v -1.1 0 1
v -1.1 0.1 1
v 1.3 0 1
v 1.3 0.1 1
v 1.4 0 1
v 1.4 0.1 1
v 1.9 0 1
v 1.9 0.1 1
v 2 0 1
v 2 0.1 1
v -1.3 0 0.9
v -1.3 0.1 0.9
v -1.2 0 0.9
v -1.2 0.1 0.9
v 1.7 0 0.9
v 1.7 0.1 0.9
v 1.9 0 0.9
v 1.9 0.1 0.9
v -1.4 0 0.8
v -1.4 0.1 0.8
v -1.3 0 0.8
v -1.3 0.1 0.8
v 1.5 0 0.8
v 1.5 0.1 0.8
v 1.7 0 0.8
v 1.7 0.1 0.8
v 1.4 0 0.7
v 1.4 0.1 0.7
v 1.5 0 0.7
v 1.5 0.1 0.7
v -1.5 0 0.6
v -1.5 0.1 0.6
v -1.4 0 0.6
v -1.4 0.1 0.6
v 1.2 0 0.6
v 1.2 0.1 0.6
v 1.3 0 0.6
v 1.3 0.1 0.6
v -1.6 0 0.5
v -1.6 0.1 0.5
v -1.5 0 0.5
v -1.5 0.1 0.5
v 1 0 0.5
v 1 0.1 0.5
v 1.2 0 0.5
v 1.2 0.1 0.5
v 0.8 0 0.4
v 0.8 0.1 0.4
v 1 0 0.4
v 1 0.1 0.4
v -1.7 0 0.3
v -1.7 0.1 0.3
v -1.6 0 0.3
v -1.6 0.1 0.3
v 0.7 0 0.3
v 0.7 0.1 0.3
v 0.8 0 0.3
v 0.8 0.1 0.3
v -1.8 0 0.2
v -1.8 0.1 0.2
v -1.7 0 0.2
v -1.7 0.1 0.2
v 0.5 0 0.2
v 0.5 0.1 0.2
v 0.7 0 0.2
v 0.7 0.1 0.2
v 1.4 0 0.2
v 1.4 0.1 0.2
v 1.5 0 0.2
v 1.5 0.1 0.2
v -1.9 0 0.0999999
v -1.9 0.1 0.0999999
v -1.8 0 0.0999999
v -1.8 0.1 0.0999999
v 0.3 0 0.0999999
v 0.3 0.1 0.0999999
v 0.5 0 0.0999999
v 0.5 0.1 0.0999999
v 0.2 0 -2.38419e-07
v 0.2 0.1 -2.38419e-07
v 0.3 0 -2.38419e-07
v 0.3 0.1 -2.38419e-07
v -2 0 -0.1
v -2 0.1 -0.1
v -1.9 0 -0.1
v -1.9 0.1 -0.1
v 2.38419e-07 0 -0.1
v 2.38419e-07 0.1 -0.1
v 0.2 0 -0.1
v 0.2 0.1 -0.1
v -0.2 0 -0.2
v -0.2 0.1 -0.2
v 2.38419e-07 0 -0.2
v 2.38419e-07 0.1 -0.2
v -0.3 0 -0.3
v -0.3 0.1 -0.3
v -0.2 0 -0.3
v -0.2 0.1 -0.3
v -0.5 0 -0.4
v -0.5 0.1 -0.4
v -0.3 0 -0.4
v -0.3 0.1 -0.4
v 1.5 0 -0.4
v 1.5 0.1 -0.4
v 1.6 0 -0.4
v 1.6 0.1 -0.4
v -0.7 0 -0.5
v -0.7 0.1 -0.5
v -0.5 0 -0.5
v -0.5 0.1 -0.5
v -0.8 0 -0.6
v -0.8 0.1 -0.6
v -0.7 0 -0.6
v -0.7 0.1 -0.6
v -1 0 -0.7
v -1 0.1 -0.7
v -0.8 0 -0.7
v -0.8 0.1 -0.7
v -1.2 0 -0.8
v -1.2 0.1 -0.8
v -1 0 -0.8
v -1 0.1 -0.8
v -1.4 0 -0.9
v -1.4 0.1 -0.9
v -1.2 0 -0.9
v -1.2 0.1 -0.9
v -1.5 0 -1
v -1.5 0.1 -1
v -1.4 0 -1
v -1.4 0.1 -1
v 1.6 0 -1
v 1.6 0.1 -1
v 1.7 0 -1
v 1.7 0.1 -1
v -1.7 0 -1.1
v -1.7 0.1 -1.1
v -1.5 0 -1.1
v -1.5 0.1 -1.1
v -1.9 0 -1.2
v -1.9 0.1 -1.2
v -1.7 0 -1.2
v -1.7 0.1 -1.2
v -2 0 -1.3
v -2 0.1 -1.3
v -1.9 0 -1.3
v -1.9 0.1 -1.3
v 1.7 0 -1.6
v 1.7 0.1 -1.6
v 1.8 0 -1.6
v 1.8 0.1 -1.6
v -2 0 -2
v -2 0.1 -2
v 1.7 0 -2
v 1.7 0.1 -2
v 1.8 0 -2
v 1.8 0.1 -2
v 2 0 -2
v 2 0.1 -2
v -2 0 2
v -1.5 0 2
v -0.5 0 2
v -0.4 0 2
v -0.0999999 0 2
v 0.1 0 2
v 1.1 0 2
v 1.2 0 2
v 1.5 0 2
v 2 0 2
v -0.6 0 1.9
v -0.5 0 1.9
v -0.4 0 1.9
v -0.7 0 1.7
v -0.6 0 1.7
v -0.5 0 1.7
v -0.8 0 1.6
v -0.7 0 1.6
v -0.6 0 1.6
v 1.1 0 1.6
v 1.2 0 1.6
v 1.3 0 1.6
v -2 0 1.5
v -1.5 0 1.5
v -0.9 0 1.5
v -0.8 0 1.5
v -0.7 0 1.5
v 1.5 0 1.5
v 2 0 1.5
v -1 0 1.3
v -0.9 0 1.3
v -0.8 0 1.3
v -1.1 0 1.2
v -1 0 1.2
v -0.9 0 1.2
v -1.2 0 1
v -1.1 0 1
v -1 0 1
v 1.2 0 1
v 1.3 0 1
v 1.4 0 1
v 1.9 0 1
v 2 0 1
v -1.3 0 0.9
v -1.2 0 0.9
v -1.1 0 0.9
v 1.7 0 0.9
v 1.9 0 0.9
v -1.4 0 0.8
v -1.3 0 0.8
v -1.2 0 0.8
v 1.5 0 0.8
v 1.7 0 0.8
v 2 0 0.8
v 1.4 0 0.7
v 1.5 0 0.7
v 1.7 0 0.7
v -1.5 0 0.6
v -1.4 0 0.6
v -1.3 0 0.6
v 1.2 0 0.6
v 1.3 0 0.6
v 1.4 0 0.6
v 1.5 0 0.6
v -1.6 0 0.5
v -1.5 0 0.5
v -1.4 0 0.5
v 1 0 0.5
v 1.2 0 0.5
v 1.3 0 0.5
v 0.8 0 0.4
v 1 0 0.4
v 1.2 0 0.4
v -1.7 0 0.3
v -1.6 0 0.3
v -1.5 0 0.3
v 0.7 0 0.3
v 0.8 0 0.3
v 1 0 0.3
v -1.8 0 0.2
v -1.7 0 0.2
v -1.6 0 0.2
v 0.5 0 0.2
v 0.7 0 0.2
v 0.8 0 0.2
v 1.3 0 0.2
v 1.4 0 0.2
v 1.5 0 0.2
v -2 0 0.0999999
v -1.9 0 0.0999999
v -1.8 0 0.0999999
v -1.7 0 0.0999999
v -0.0999999 0 0.0999999
v 0.1 0 0.0999999
v 0.3 0 0.0999999
v 0.5 0 0.0999999
v 0.7 0 0.0999999
v 1.4 0 0.0999999
v 1.5 0 0.0999999
v 2 0 0.0999999
v 0.2 0 -2.38419e-07
v 0.3 0 -2.38419e-07
v 0.5 0 -2.38419e-07
v -2 0 -0.1
v -1.9 0 -0.1
v -1.8 0 -0.1
v 2.38419e-07 0 -0.1
v 0.2 0 -0.1
v 0.3 0 -0.1
v 1.4 0 -0.1
v 1.5 0 -0.1
v 2 0 -0.1
v -2 0 -0.2
v -1.9 0 -0.2
v -0.2 0 -0.2
v 2.38419e-07 0 -0.2
v 0.2 0 -0.2
v -0.3 0 -0.3
v -0.2 0 -0.3
v 2.38419e-07 0 -0.3
v -0.5 0 -0.4
v -0.3 0 -0.4
v -0.2 0 -0.4
v 1.4 0 -0.4
v 1.5 0 -0.4
v 1.6 0 -0.4
v -0.7 0 -0.5
v -0.5 0 -0.5
v -0.3 0 -0.5
v -0.8 0 -0.6
v -0.7 0 -0.6
v -0.5 0 -0.6
v -1 0 -0.7
v -0.8 0 -0.7
v -0.7 0 -0.7
v -1.2 0 -0.8
v -1 0 -0.8
v -0.8 0 -0.8
v -1.4 0 -0.9
v -1.2 0 -0.9
v -1 0 -0.9
v -1.5 0 -1
v -1.4 0 -1
v -1.2 0 -1
v 1.5 0 -1
v 1.6 0 -1
v 1.7 0 -1
v -1.7 0 -1.1
v -1.5 0 -1.1
v -1.4 0 -1.1
v -1.9 0 -1.2
v -1.7 0 -1.2
v -1.5 0 -1.2
v -2 0 -1.3
v -1.9 0 -1.3
v -1.7 0 -1.3
v -2 0 -1.4
v -1.9 0 -1.4
v -2 0 -1.5
v 1.6 0 -1.5
v 1.7 0 -1.5
v 2 0 -1.5
v 1.6 0 -1.6
v 1.7 0 -1.6
v 1.8 0 -1.6
v -2 0 -2
v 1.7 0 -2
v 1.8 0 -2
v 2 0 -2
v -2 0.1 2
v -1.5 0.1 2
v -0.5 0.1 2
v -0.4 0.1 2
v -0.0999999 0.1 2
v 0.1 0.1 2
v 1.1 0.1 2
v 1.2 0.1 2
v 1.5 0.1 2
v 2 0.1 2
v -0.6 0.1 1.9
v -0.5 0.1 1.9
v -0.4 0.1 1.9
v -0.7 0.1 1.7
v -0.6 0.1 1.7
v -0.5 0.1 1.7
v -0.8 0.1 1.6
v -0.7 0.1 1.6
v -0.6 0.1 1.6
v 1.1 0.1 1.6
v 1.2 0.1 1.6
v 1.3 0.1 1.6
v -2 0.1 1.5
v -1.5 0.1 1.5
v -0.9 0.1 1.5
v -0.8 0.1 1.5
v -0.7 0.1 1.5
v 1.5 0.1 1.5
v 2 0.1 1.5
v -1 0.1 1.3
v -0.9 0.1 1.3
v -0.8 0.1 1.3
v -1.1 0.1 1.2
v -1 0.1 1.2
v -0.9 0.1 1.2
v -1.2 0.1 1
v -1.1 0.1 1
v -1 0.1 1
v 1.2 0.1 1
v 1.3 0.1 1
v 1.4 0.1 1
v 1.9 0.1 1
v 2 0.1 1
v -1.3 0.1 0.9
v -1.2 0.1 0.9
v -1.1 0.1 0.9
v 1.7 0.1 0.9
v 1.9 0.1 0.9
v -1.4 0.1 0.8
v -1.3 0.1 0.8
v -1.2 0.1 0.8
v 1.5 0.1 0.8
v 1.7 0.1 0.8
v 2 0.1 0.8
v 1.4 0.1 0.7
v 1.5 0.1 0.7
v 1.7 0.1 0.7
v -1.5 0.1 0.6
v -1.4 0.1 0.6
v -1.3 0.1 0.6
v 1.2 0.1 0.6
v 1.3 0.1 0.6
v 1.4 0.1 0.6
v 1.5 0.1 0.6
v -1.6 0.1 0.5
v -1.5 0.1 0.5
v -1.4 0.1 0.5
v 1 0.1 0.5
v 1.2 0.1 0.5
v 1.3 0.1 0.5
v 0.8 0.1 0.4
v 1 0.1 0.4
v 1.2 0.1 0.4
v -1.7 0.1 0.3
v -1.6 0.1 0.3
v -1.5 0.1 0.3
v 0.7 0.1 0.3
v 0.8 0.1 0.3
v 1 0.1 0.3
v -1.8 0.1 0.2
v -1.7 0.1 0.2
v -1.6 0.1 0.2
v 0.5 0.1 0.2
v 0.7 0.1 0.2
v 0.8 0.1 0.2
v 1.3 0.1 0.2
v 1.4 0.1 0.2
v 1.5 0.1 0.2
v -2 0.1 0.0999999
v -1.9 0.1 0.0999999
v -1.8 0.1 0.0999999
v -1.7 0.1 0.0999999
v -0.0999999 0.1 0.0999999
v 0.1 0.1 0.0999999
v 0.3 0.1 0.0999999
v 0.5 0.1 0.0999999
v 0.7 0.1 0.0999999
v 1.4 0.1 0.0999999
v 1.5 0.1 0.0999999
v 2 0.1 0.0999999
v 0.2 0.1 -2.38419e-07
v 0.3 0.1 -2.38419e-07
v 0.5 0.1 -2.38419e-07
v -2 0.1 -0.1
v -1.9 0.1 -0.1
v -1.8 0.1 -0.1
v 2.38419e-07 0.1 -0.1
v 0.2 0.1 -0.1
v 0.3 0.1 -0.1
v 1.4 0.1 -0.1
v 1.5 0.1 -0.1
v 2 0.1 -0.1
v -2 0.1 -0.2
v -1.9 0.1 -0.2
v -0.2 0.1 -0.2
v 2.38419e-07 0.1 -0.2
v 0.2 0.1 -0.2
v -0.3 0.1 -0.3
v -0.2 0.1 -0.3
v 2.38419e-07 0.1 -0.3
v -0.5 0.1 -0.4
v -0.3 0.1 -0.4
v -0.2 0.1 -0.4
v 1.4 0.1 -0.4
v 1.5 0.1 -0.4
v 1.6 0.1 -0.4
v -0.7 0.1 -0.5
v -0.5 0.1 -0.5
v -0.3 0.1 -0.5
v -0.8 0.1 -0.6
v -0.7 0.1 -0.6
v -0.5 0.1 -0.6
v -1 0.1 -0.7
v -0.8 0.1 -0.7
v -0.7 0.1 -0.7
v -1.2 0.1 -0.8
v -1 0.1 -0.8
v -0.8 0.1 -0.8
v -1.4 0.1 -0.9
v -1.2 0.1 -0.9
v -1 0.1 -0.9
v -1.5 0.1 -1
v -1.4 0.1 -1
v -1.2 0.1 -1
v 1.5 0.1 -1
v 1.6 0.1 -1
v 1.7 0.1 -1
v -1.7 0.1 -1.1
v -1.5 0.1 -1.1
v -1.4 0.1 -1.1
v -1.9 0.1 -1.2
v -1.7 0.1 -1.2
v -1.5 0.1 -1.2
v -2 0.1 -1.3
v -1.9 0.1 -1.3
v -1.7 0.1 -1.3
v -2 0.1 -1.4
v -1.9 0.1 -1.4
v -2 0.1 -1.5
v 1.6 0.1 -1.5
v 1.7 0.1 -1.5
v 2 0.1 -1.5
v 1.6 0.1 -1.6
v 1.7 0.1 -1.6
v 1.8 0.1 -1.6
v -2 0.1 -2
v 1.7 0.1 -2
v 1.8 0.1 -2
v 2 0.1 -2

# faces
f 10/1/1 2/1/1 1/1/1
f 11/3/1 3/3/1 2/3/1
f 11/1/1 2/1/1 10/1/1
f 12/2/1 4/2/1 3/2/1
f 12/3/1 3/3/1 11/3/1
f 13/2/1 4/2/1 12/2/1
f 14/3/1 6/3/1 5/3/1
f 15/3/1 6/3/1 14/3/1
f 16/3/1 8/3/1 7/3/1
f 17/1/1 9/1/1 8/1/1
f 17/3/1 8/3/1 16/3/1
f 18/1/1 9/1/1 17/1/1
f 23/3/1 20/3/1 19/3/1
f 24/3/1 20/3/1 23/3/1
f 25/3/1 22/3/1 21/3/1
f 26/3/1 22/3/1 25/3/1
f 29/2/1 28/2/1 27/2/1
f 30/2/1 28/2/1 29/2/1
f 35/3/1 32/3/1 31/3/1
f 36/3/1 32/3/1 35/3/1
f 37/3/1 34/3/1 33/3/1
f 38/3/1 34/3/1 37/3/1
f 41/3/1 40/3/1 39/3/1
f 42/3/1 40/3/1 41/3/1
f 47/3/1 44/3/1 43/3/1
f 48/3/1 44/3/1 47/3/1
f 49/3/1 46/3/1 45/3/1
f 50/3/1 46/3/1 49/3/1
f 55/3/1 52/3/1 51/3/1
f 56/3/1 52/3/1 55/3/1
f 57/3/1 54/3/1 53/3/1
f 58/3/1 54/3/1 57/3/1
f 61/3/1 60/3/1 59/3/1
f 62/3/1 60/3/1 61/3/1
f 67/3/1 64/3/1 63/3/1
f 68/3/1 64/3/1 67/3/1
f 69/3/1 66/3/1 65/3/1
f 70/3/1 66/3/1 69/3/1
f 73/3/1 72/3/1 71/3/1
f 74/3/1 72/3/1 73/3/1
f 79/3/1 76/3/1 75/3/1
f 80/3/1 76/3/1 79/3/1
f 81/3/1 78/3/1 77/3/1
f 82/3/1 78/3/1 81/3/1
f 85/3/1 84/3/1 83/3/1
f 86/3/1 84/3/1 85/3/1
f 91/3/1 88/3/1 87/3/1
f 92/3/1 88/3/1 91/3/1
f 93/3/1 90/3/1 89/3/1
f 94/3/1 90/3/1 93/3/1
f 99/3/1 96/3/1 95/3/1
f 100/3/1 96/3/1 99/3/1
f 101/3/1 98/3/1 97/3/1
f 102/3/1 98/3/1 101/3/1
f 105/3/1 104/3/1 103/3/1
f 106/3/1 104/3/1 105/3/1
f 111/3/1 108/3/1 107/3/1
f 112/3/1 108/3/1 111/3/1
f 113/3/1 110/3/1 109/3/1
f 114/3/1 110/3/1 113/3/1
f 117/3/1 116/3/1 115/3/1
f 118/3/1 116/3/1 117/3/1
f 121/3/1 120/3/1 119/3/1
f 122/3/1 120/3/1 121/3/1
f 125/3/1 124/3/1 123/3/1
f 126/3/1 124/3/1 125/3/1
f 129/3/1 128/3/1 127/3/1
f 130/3/1 128/3/1 129/3/1
f 133/3/1 132/3/1 131/3/1
f 134/3/1 132/3/1 133/3/1
f 137/2/1 136/2/1 135/2/1
f 138/2/1 136/2/1 137/2/1
f 141/2/1 140/2/1 139/2/1
f 142/2/1 140/2/1 141/2/1
f 145/3/1 144/3/1 143/3/1
f 146/3/1 144/3/1 145/3/1
f 149/3/1 148/3/1 147/3/1
f 150/3/1 148/3/1 149/3/1
f 153/3/1 152/3/1 151/3/1
f 154/3/1 152/3/1 153/3/1
f 159/3/1 156/3/1 155/3/1
f 160/3/1 156/3/1 159/3/1
f 161/3/1 158/3/1 157/3/1
f 162/3/1 158/3/1 161/3/1
f 165/3/1 164/3/1 163/3/1
f 166/3/1 164/3/1 165/3/1
f 171/3/1 168/3/1 167/3/1
f 172/3/1 168/3/1 171/3/1
f 173/3/1 170/3/1 169/3/1
f 174/3/1 170/3/1 173/3/1
f 181/3/1 176/3/1 175/3/1
f 182/3/1 176/3/1 181/3/1
f 183/3/1 178/3/1 177/3/1
f 184/2/1 179/2/1 178/2/1
f 184/3/1 178/3/1 183/3/1
f 185/3/1 180/3/1 179/3/1
f 185/2/1 179/2/1 184/2/1
f 186/3/1 180/3/1 185/3/1
f 189/3/1 188/3/1 187/3/1
f 190/3/1 188/3/1 189/3/1
f 196/3/1 192/3/1 191/3/1
f 197/3/1 192/3/1 196/3/1
f 198/3/1 194/3/1 193/3/1
f 199/1/1 195/1/1 194/1/1
f 199/3/1 194/3/1 198/3/1
f 200/1/1 195/1/1 199/1/1
f 203/1/1 202/1/1 201/1/1
f 204/1/1 202/1/1 203/1/1
f 205/2/2 206/2/2 209/2/2
f 209/2/2 206/2/2 210/2/2
f 207/3/2 208/3/2 211/3/2
f 211/3/2 208/3/2 212/3/2
f 213/3/2 214/3/2 215/3/2
f 215/3/2 214/3/2 216/3/2
f 217/3/2 218/3/2 221/3/2
f 221/3/2 218/3/2 222/3/2
f 219/3/2 220/3/2 223/3/2
f 223/3/2 220/3/2 224/3/2
f 225/3/2 226/3/2 227/3/2
f 227/3/2 226/3/2 228/3/2
f 229/3/2 230/3/2 233/3/2
f 233/3/2 230/3/2 234/3/2
f 231/3/2 232/3/2 235/3/2
f 235/3/2 232/3/2 236/3/2
f 237/3/2 238/3/2 241/3/2
f 241/3/2 238/3/2 242/3/2
f 239/3/2 240/3/2 243/3/2
f 243/3/2 240/3/2 244/3/2
f 245/3/2 246/3/2 247/3/2
f 247/3/2 246/3/2 248/3/2
f 249/3/2 250/3/2 253/3/2
f 253/3/2 250/3/2 254/3/2
f 251/3/2 252/3/2 255/3/2
f 255/3/2 252/3/2 256/3/2
f 257/3/2 258/3/2 259/3/2
f 259/3/2 258/3/2 260/3/2
f 261/3/2 262/3/2 265/3/2
f 265/3/2 262/3/2 266/3/2
f 263/3/2 264/3/2 267/3/2
f 267/3/2 264/3/2 268/3/2
f 269/3/2 270/3/2 271/3/2
f 271/3/2 270/3/2 272/3/2
f 273/3/2 274/3/2 277/3/2
f 277/3/2 274/3/2 278/3/2
f 275/3/2 276/3/2 279/3/2
f 279/3/2 276/3/2 280/3/2
f 281/3/2 282/3/2 285/3/2
f 285/3/2 282/3/2 286/3/2
f 283/3/2 284/3/2 287/3/2
f 287/3/2 284/3/2 288/3/2
f 289/3/2 290/3/2 291/3/2
f 291/3/2 290/3/2 292/3/2
f 293/3/2 294/3/2 297/3/2
f 297/3/2 294/3/2 298/3/2
f 295/3/2 296/3/2 299/3/2
f 299/3/2 296/3/2 300/3/2
f 301/3/2 302/3/2 303/3/2
f 303/3/2 302/3/2 304/3/2
f 305/3/2 306/3/2 307/3/2
f 307/3/2 306/3/2 308/3/2
f 309/3/2 310/3/2 311/3/2
f 311/3/2 310/3/2 312/3/2
f 313/2/2 314/2/2 315/2/2
f 315/2/2 314/2/2 316/2/2
f 317/2/2 318/2/2 319/2/2
f 319/2/2 318/2/2 320/2/2
f 321/3/2 322/3/2 323/3/2
f 323/3/2 322/3/2 324/3/2
f 325/3/2 326/3/2 327/3/2
f 327/3/2 326/3/2 328/3/2
f 329/3/2 330/3/2 331/3/2
f 331/3/2 330/3/2 332/3/2
f 333/3/2 334/3/2 335/3/2
f 335/3/2 334/3/2 336/3/2
f 337/3/2 338/3/2 339/3/2
f 339/3/2 338/3/2 340/3/2
f 341/3/2 342/3/2 345/3/2
f 345/3/2 342/3/2 346/3/2
f 343/3/2 344/3/2 347/3/2
f 347/3/2 344/3/2 348/3/2
f 349/3/2 350/3/2 353/3/2
f 353/3/2 350/3/2 354/3/2
f 351/3/2 352/3/2 355/3/2
f 355/3/2 352/3/2 356/3/2
f 357/3/2 358/3/2 361/3/2
f 358/2/2 359/2/2 362/2/2
f 361/3/2 358/3/2 362/3/2
f 359/3/2 360/3/2 363/3/2
f 362/2/2 359/2/2 363/2/2
f 363/3/2 360/3/2 364/3/2
f 365/3/2 366/3/2 369/3/2
f 369/3/2 366/3/2 370/3/2
f 367/3/2 368/3/2 371/3/2
f 371/3/2 368/3/2 372/3/2
f 373/3/2 374/3/2 376/3/2
f 374/1/2 375/1/2 377/1/2
f 376/3/2 374/3/2 377/3/2
f 377/1/2 375/1/2 378/1/2
f 379/3/2 380/3/2 383/3/2
f 383/3/2 380/3/2 384/3/2
f 381/1/2 382/1/2 385/1/2
f 385/1/2 382/1/2 386/1/2
f 387/3/2 388/3/2 389/3/2
f 389/3/2 388/3/2 390/3/2
f 391/1/2 392/1/2 399/1/2
f 392/3/2 393/3/2 400/3/2
f 399/1/2 392/1/2 400/1/2
f 400/3/2 393/3/2 401/3/2
f 394/3/2 395/3/2 402/3/2
f 395/2/2 396/2/2 403/2/2
f 402/3/2 395/3/2 403/3/2
f 396/3/2 397/3/2 404/3/2
f 403/2/2 396/2/2 404/2/2
f 397/1/2 398/1/2 405/1/2
f 404/3/2 397/3/2 405/3/2
f 405/1/2 398/1/2 406/1/2
f 409/1/3 408/1/3 407/1/3
f 410/1/3 408/1/3 409/1/3
f 411/3/3 410/3/3 409/3/3
f 412/3/3 410/3/3 411/3/3
f 415/3/3 414/3/3 413/3/3
f 416/3/3 414/3/3 415/3/3
f 417/2/3 416/2/3 415/2/3
f 418/2/3 416/2/3 417/2/3
f 419/3/3 418/3/3 417/3/3
f 420/3/3 418/3/3 419/3/3
f 423/3/3 422/3/3 421/3/3
f 424/3/3 422/3/3 423/3/3
f 425/1/3 424/1/3 423/1/3
f 426/1/3 424/1/3 425/1/3
f 429/3/3 428/3/3 427/3/3
f 430/3/3 428/3/3 429/3/3
f 433/3/3 432/3/3 431/3/3
f 434/3/3 432/3/3 433/3/3
f 437/3/3 436/3/3 435/3/3
f 438/3/3 436/3/3 437/3/3
f 441/3/3 440/3/3 439/3/3
f 442/3/3 440/3/3 441/3/3
f 445/3/3 444/3/3 443/3/3
f 446/3/3 444/3/3 445/3/3
f 449/3/3 448/3/3 447/3/3
f 450/3/3 448/3/3 449/3/3
f 453/3/3 452/3/3 451/3/3
f 454/3/3 452/3/3 453/3/3
f 457/3/3 456/3/3 455/3/3
f 458/3/3 456/3/3 457/3/3
f 461/3/3 460/3/3 459/3/3
f 462/3/3 460/3/3 461/3/3
f 465/3/3 464/3/3 463/3/3
f 466/3/3 464/3/3 465/3/3
f 469/3/3 468/3/3 467/3/3
f 470/3/3 468/3/3 469/3/3
f 473/3/3 472/3/3 471/3/3
f 474/3/3 472/3/3 473/3/3
f 477/3/3 476/3/3 475/3/3
f 478/3/3 476/3/3 477/3/3
f 481/3/3 480/3/3 479/3/3
f 482/3/3 480/3/3 481/3/3
f 485/3/3 484/3/3 483/3/3
f 486/3/3 484/3/3 485/3/3
f 489/3/3 488/3/3 487/3/3
f 490/3/3 488/3/3 489/3/3
f 493/3/3 492/3/3 491/3/3
f 494/3/3 492/3/3 493/3/3
f 497/3/3 496/3/3 495/3/3
f 498/3/3 496/3/3 497/3/3
f 501/3/3 500/3/3 499/3/3
f 502/3/3 500/3/3 501/3/3
f 505/3/3 504/3/3 503/3/3
f 506/3/3 504/3/3 505/3/3
f 509/3/3 508/3/3 507/3/3
f 510/3/3 508/3/3 509/3/3
f 513/3/3 512/3/3 511/3/3
f 514/3/3 512/3/3 513/3/3
f 517/3/3 516/3/3 515/3/3
f 518/3/3 516/3/3 517/3/3
f 521/2/3 520/2/3 519/2/3
f 522/2/3 520/2/3 521/2/3
f 525/2/3 524/2/3 523/2/3
f 526/2/3 524/2/3 525/2/3
f 529/2/3 528/2/3 527/2/3
f 530/2/3 528/2/3 529/2/3
f 533/3/3 532/3/3 531/3/3
f 534/3/3 532/3/3 533/3/3
f 537/3/3 536/3/3 535/3/3
f 538/3/3 536/3/3 537/3/3
f 541/3/3 540/3/3 539/3/3
f 542/3/3 540/3/3 541/3/3
f 545/3/3 544/3/3 543/3/3
f 546/3/3 544/3/3 545/3/3
f 549/3/3 548/3/3 547/3/3
f 550/3/3 548/3/3 549/3/3
f 553/3/3 552/3/3 551/3/3
f 554/3/3 552/3/3 553/3/3
f 557/3/3 556/3/3 555/3/3
f 558/3/3 556/3/3 557/3/3
f 561/3/3 560/3/3 559/3/3
f 562/3/3 560/3/3 561/3/3
f 565/3/3 564/3/3 563/3/3
f 566/3/3 564/3/3 565/3/3
f 569/3/3 568/3/3 567/3/3
f 570/3/3 568/3/3 569/3/3
f 573/3/3 572/3/3 571/3/3
f 574/3/3 572/3/3 573/3/3
f 577/3/3 576/3/3 575/3/3
f 578/3/3 576/3/3 577/3/3
f 581/3/3 580/3/3 579/3/3
f 582/3/3 580/3/3 581/3/3
f 585/3/3 584/3/3 583/3/3
f 586/3/3 584/3/3 585/3/3
f 589/3/3 588/3/3 587/3/3
f 590/3/3 588/3/3 589/3/3
f 593/3/3 592/3/3 591/3/3
f 594/3/3 592/3/3 593/3/3
f 597/3/3 596/3/3 595/3/3
f 598/3/3 596/3/3 597/3/3
f 601/3/3 600/3/3 599/3/3
f 602/3/3 600/3/3 601/3/3
f 605/1/3 604/1/3 603/1/3
f 606/1/3 604/1/3 605/1/3
f 607/3/4 608/3/4 609/3/4
f 609/3/4 608/3/4 610/3/4
f 611/3/4 612/3/4 613/3/4
f 613/3/4 612/3/4 614/3/4
f 615/3/4 616/3/4 617/3/4
f 617/3/4 616/3/4 618/3/4
f 619/3/4 620/3/4 621/3/4
f 621/3/4 620/3/4 622/3/4
f 623/3/4 624/3/4 625/3/4
f 625/3/4 624/3/4 626/3/4
f 627/3/4 628/3/4 629/3/4
f 629/3/4 628/3/4 630/3/4
f 631/3/4 632/3/4 633/3/4
f 633/3/4 632/3/4 634/3/4
f 635/3/4 636/3/4 637/3/4
f 637/3/4 636/3/4 638/3/4
f 639/3/4 640/3/4 641/3/4
f 641/3/4 640/3/4 642/3/4
f 643/3/4 644/3/4 645/3/4
f 645/3/4 644/3/4 646/3/4
f 647/3/4 648/3/4 649/3/4
f 649/3/4 648/3/4 650/3/4
f 651/3/4 652/3/4 653/3/4
f 653/3/4 652/3/4 654/3/4
f 655/3/4 656/3/4 657/3/4
f 657/3/4 656/3/4 658/3/4
f 659/3/4 660/3/4 661/3/4
f 661/3/4 660/3/4 662/3/4
f 663/3/4 664/3/4 665/3/4
f 665/3/4 664/3/4 666/3/4
f 667/3/4 668/3/4 669/3/4
f 669/3/4 668/3/4 670/3/4
f 671/3/4 672/3/4 673/3/4
f 673/3/4 672/3/4 674/3/4
f 675/3/4 676/3/4 677/3/4
f 677/3/4 676/3/4 678/3/4
f 679/3/4 680/3/4 681/3/4
f 681/3/4 680/3/4 682/3/4
f 683/3/4 684/3/4 685/3/4
f 685/3/4 684/3/4 686/3/4
f 687/3/4 688/3/4 689/3/4
f 689/3/4 688/3/4 690/3/4
f 691/3/4 692/3/4 693/3/4
f 693/3/4 692/3/4 694/3/4
f 695/3/4 696/3/4 697/3/4
f 697/3/4 696/3/4 698/3/4
f 699/3/4 700/3/4 701/3/4
f 701/3/4 700/3/4 702/3/4
f 703/3/4 704/3/4 705/3/4
f 705/3/4 704/3/4 706/3/4
f 707/3/4 708/3/4 709/3/4
f 709/3/4 708/3/4 710/3/4
f 711/3/4 712/3/4 713/3/4
f 713/3/4 712/3/4 714/3/4
f 715/2/4 716/2/4 717/2/4
f 717/2/4 716/2/4 718/2/4
f 719/2/4 720/2/4 721/2/4
f 721/2/4 720/2/4 722/2/4
f 723/2/4 724/2/4 725/2/4
f 725/2/4 724/2/4 726/2/4
f 727/3/4 728/3/4 729/3/4
f 729/3/4 728/3/4 730/3/4
f 731/3/4 732/3/4 733/3/4
f 733/3/4 732/3/4 734/3/4
f 735/3/4 736/3/4 737/3/4
f 737/3/4 736/3/4 738/3/4
f 739/3/4 740/3/4 741/3/4
f 741/3/4 740/3/4 742/3/4
f 743/3/4 744/3/4 745/3/4
f 745/3/4 744/3/4 746/3/4
f 747/3/4 748/3/4 749/3/4
f 749/3/4 748/3/4 750/3/4
f 751/3/4 752/3/4 753/3/4
f 753/3/4 752/3/4 754/3/4
f 755/3/4 756/3/4 757/3/4
f 757/3/4 756/3/4 758/3/4
f 759/3/4 760/3/4 761/3/4
f 761/3/4 760/3/4 762/3/4
f 763/3/4 764/3/4 765/3/4
f 765/3/4 764/3/4 766/3/4
f 767/3/4 768/3/4 769/3/4
f 769/3/4 768/3/4 770/3/4
f 771/3/4 772/3/4 773/3/4
f 773/3/4 772/3/4 774/3/4
f 775/3/4 776/3/4 777/3/4
f 777/3/4 776/3/4 778/3/4
f 779/3/4 780/3/4 781/3/4
f 781/3/4 780/3/4 782/3/4
f 783/1/4 784/1/4 785/1/4
f 785/1/4 784/1/4 786/1/4
f 787/1/4 788/1/4 789/1/4
f 789/1/4 788/1/4 790/1/4
f 791/1/4 792/1/4 793/1/4
f 793/1/4 792/1/4 794/1/4
f 805/3/5 797/3/5 796/3/5
f 806/3/5 797/3/5 805/3/5
f 807/3/5 799/3/5 798/3/5
f 808/3/5 805/3/5 796/3/5
f 809/3/5 805/3/5 808/3/5
f 810/3/5 807/3/5 806/3/5
f 811/3/5 808/3/5 796/3/5
f 812/3/5 808/3/5 811/3/5
f 813/3/5 810/3/5 809/3/5
f 814/3/5 801/3/5 800/3/5
f 815/3/5 803/3/5 802/3/5
f 816/3/5 803/3/5 815/3/5
f 817/1/5 796/1/5 795/1/5
f 818/3/5 811/3/5 796/3/5
f 818/1/5 796/1/5 817/1/5
f 819/3/5 811/3/5 818/3/5
f 820/3/5 811/3/5 819/3/5
f 821/3/5 813/3/5 812/3/5
f 822/3/5 803/3/5 816/3/5
f 822/1/5 804/1/5 803/1/5
f 823/1/5 804/1/5 822/1/5
f 824/3/5 818/3/5 817/3/5
f 824/3/5 819/3/5 818/3/5
f 825/3/5 819/3/5 824/3/5
f 826/3/5 821/3/5 820/3/5
f 827/3/5 824/3/5 817/3/5
f 828/3/5 824/3/5 827/3/5
f 829/3/5 826/3/5 825/3/5
f 830/3/5 827/3/5 817/3/5
f 831/3/5 827/3/5 830/3/5
f 832/3/5 829/3/5 828/3/5
f 833/3/5 815/3/5 814/3/5
f 834/3/5 823/3/5 822/3/5
f 834/3/5 822/3/5 816/3/5
f 835/3/5 823/3/5 834/3/5
f 836/3/5 823/3/5 835/3/5
f 837/3/5 823/3/5 836/3/5
f 838/3/5 830/3/5 817/3/5
f 839/3/5 830/3/5 838/3/5
f 840/3/5 832/3/5 831/3/5
f 841/3/5 836/3/5 835/3/5
f 842/3/5 836/3/5 841/3/5
f 843/3/5 838/3/5 817/3/5
f 844/3/5 838/3/5 843/3/5
f 845/3/5 840/3/5 839/3/5
f 846/3/5 841/3/5 835/3/5
f 847/3/5 841/3/5 846/3/5
f 849/3/5 846/3/5 835/3/5
f 850/3/5 846/3/5 849/3/5
f 851/3/5 848/3/5 847/3/5
f 852/3/5 843/3/5 817/3/5
f 853/3/5 843/3/5 852/3/5
f 854/3/5 845/3/5 844/3/5
f 855/3/5 833/3/5 814/3/5
f 855/3/5 834/3/5 833/3/5
f 856/3/5 834/3/5 855/3/5
f 858/3/5 851/3/5 850/3/5
f 859/3/5 852/3/5 817/3/5
f 860/3/5 852/3/5 859/3/5
f 861/3/5 854/3/5 853/3/5
f 862/3/5 814/3/5 800/3/5
f 862/3/5 855/3/5 814/3/5
f 863/3/5 855/3/5 862/3/5
f 865/3/5 862/3/5 800/3/5
f 866/3/5 862/3/5 865/3/5
f 867/3/5 864/3/5 863/3/5
f 868/3/5 859/3/5 817/3/5
f 869/3/5 859/3/5 868/3/5
f 870/3/5 861/3/5 860/3/5
f 871/3/5 865/3/5 800/3/5
f 872/3/5 865/3/5 871/3/5
f 873/3/5 867/3/5 866/3/5
f 874/3/5 868/3/5 817/3/5
f 875/3/5 868/3/5 874/3/5
f 876/3/5 870/3/5 869/3/5
f 877/3/5 871/3/5 800/3/5
f 878/3/5 871/3/5 877/3/5
f 879/3/5 873/3/5 872/3/5
f 880/3/5 867/3/5 873/3/5
f 880/3/5 864/3/5 867/3/5
f 880/3/5 873/3/5 879/3/5
f 881/3/5 858/3/5 857/3/5
f 882/3/5 851/3/5 858/3/5
f 882/3/5 858/3/5 881/3/5
f 883/3/5 874/3/5 817/3/5
f 884/3/5 874/3/5 883/3/5
f 885/3/5 874/3/5 884/3/5
f 886/3/5 876/3/5 875/3/5
f 887/3/5 813/3/5 821/3/5
f 887/2/5 800/2/5 799/2/5
f 887/3/5 876/3/5 886/3/5
f 887/3/5 799/3/5 807/3/5
f 887/3/5 807/3/5 810/3/5
f 887/3/5 810/3/5 813/3/5
f 887/3/5 870/3/5 876/3/5
f 887/3/5 829/3/5 832/3/5
f 887/3/5 821/3/5 826/3/5
f 887/3/5 826/3/5 829/3/5
f 887/3/5 861/3/5 870/3/5
f 887/3/5 840/3/5 845/3/5
f 887/3/5 845/3/5 854/3/5
f 887/3/5 832/3/5 840/3/5
f 887/3/5 854/3/5 861/3/5
f 888/3/5 877/3/5 800/3/5
f 888/2/5 800/2/5 887/2/5
f 889/3/5 877/3/5 888/3/5
f 890/3/5 877/3/5 889/3/5
f 891/3/5 880/3/5 879/3/5
f 891/3/5 879/3/5 878/3/5
f 891/3/5 881/3/5 880/3/5
f 892/3/5 881/3/5 891/3/5
f 893/3/5 851/3/5 882/3/5
f 894/3/5 848/3/5 851/3/5
f 894/3/5 851/3/5 893/3/5
f 895/2/5 886/2/5 885/2/5
f 895/2/5 889/2/5 888/2/5
f 895/2/5 887/2/5 886/2/5
f 895/2/5 888/2/5 887/2/5
f 896/2/5 889/2/5 895/2/5
f 897/2/5 892/2/5 891/2/5
f 897/2/5 891/2/5 890/2/5
f 898/2/5 884/2/5 883/2/5
f 899/2/5 884/2/5 898/2/5
f 900/2/5 895/2/5 885/2/5
f 901/2/5 895/2/5 900/2/5
f 902/2/5 895/2/5 901/2/5
f 903/2/5 897/2/5 896/2/5
f 904/2/5 892/2/5 897/2/5
f 904/2/5 897/2/5 903/2/5
f 905/2/5 894/2/5 893/2/5
f 906/2/5 894/2/5 905/2/5
f 908/3/5 900/3/5 899/3/5
f 908/3/5 901/3/5 900/3/5
f 909/3/5 901/3/5 908/3/5
f 910/3/5 901/3/5 909/3/5
f 911/3/5 904/3/5 903/3/5
f 911/3/5 903/3/5 902/3/5
f 912/3/5 909/3/5 908/3/5
f 912/3/5 908/3/5 907/3/5
f 913/3/5 909/3/5 912/3/5
f 914/3/5 911/3/5 910/3/5
f 915/3/5 912/3/5 907/3/5
f 916/3/5 912/3/5 915/3/5
f 917/3/5 914/3/5 913/3/5
f 918/3/5 904/3/5 911/3/5
f 918/3/5 911/3/5 914/3/5
f 918/3/5 914/3/5 917/3/5
f 919/3/5 906/3/5 905/3/5
f 920/3/5 906/3/5 919/3/5
f 921/3/5 915/3/5 907/3/5
f 922/3/5 915/3/5 921/3/5
f 923/3/5 917/3/5 916/3/5
f 923/3/5 918/3/5 917/3/5
f 923/3/5 919/3/5 918/3/5
f 924/3/5 921/3/5 907/3/5
f 925/3/5 921/3/5 924/3/5
f 926/3/5 923/3/5 922/3/5
f 927/3/5 924/3/5 907/3/5
f 928/3/5 924/3/5 927/3/5
f 929/3/5 926/3/5 925/3/5
f 930/3/5 927/3/5 907/3/5
f 931/3/5 927/3/5 930/3/5
f 932/3/5 929/3/5 928/3/5
f 933/3/5 930/3/5 907/3/5
f 934/3/5 930/3/5 933/3/5
f 935/3/5 932/3/5 931/3/5
f 936/3/5 933/3/5 907/3/5
f 937/3/5 933/3/5 936/3/5
f 938/3/5 935/3/5 934/3/5
f 939/3/5 919/3/5 923/3/5
f 939/3/5 923/3/5 926/3/5
f 939/3/5 935/3/5 938/3/5
f 939/3/5 926/3/5 929/3/5
f 939/3/5 929/3/5 932/3/5
f 939/3/5 932/3/5 935/3/5
f 940/3/5 906/3/5 920/3/5
f 941/3/5 906/3/5 940/3/5
f 942/3/5 936/3/5 907/3/5
f 943/3/5 936/3/5 942/3/5
f 944/3/5 939/3/5 938/3/5
f 944/3/5 938/3/5 937/3/5
f 944/3/5 940/3/5 939/3/5
f 945/3/5 942/3/5 907/3/5
f 946/3/5 942/3/5 945/3/5
f 947/3/5 944/3/5 943/3/5
f 948/3/5 945/3/5 907/3/5
f 949/3/5 945/3/5 948/3/5
f 950/3/5 947/3/5 946/3/5
f 952/3/5 950/3/5 949/3/5
f 953/3/5 952/3/5 951/3/5
f 954/3/5 947/3/5 950/3/5
f 954/3/5 952/3/5 953/3/5
f 954/3/5 940/3/5 944/3/5
f 954/3/5 950/3/5 952/3/5
f 954/3/5 944/3/5 947/3/5
f 955/3/5 906/3/5 941/3/5
f 956/3/5 906/3/5 955/3/5
f 957/1/5 954/1/5 953/1/5
f 958/1/5 956/1/5 955/1/5
f 959/1/5 956/1/5 958/1/5
f 960/1/5 957/1/5 953/1/5
f 960/1/5 958/1/5 957/1/5
f 961/1/5 958/1/5 960/1/5
f 962/1/5 956/1/5 959/1/5
f 963/1/5 956/1/5 962/1/5
f 965/3/6 966/3/6 974/3/6
f 974/3/6 966/3/6 975/3/6
f 967/3/6 968/3/6 976/3/6
f 965/3/6 974/3/6 977/3/6
f 977/3/6 974/3/6 978/3/6
f 975/3/6 976/3/6 979/3/6
f 965/3/6 977/3/6 980/3/6
f 980/3/6 977/3/6 981/3/6
f 978/3/6 979/3/6 982/3/6
f 969/3/6 970/3/6 983/3/6
f 971/3/6 972/3/6 984/3/6
f 984/3/6 972/3/6 985/3/6
f 964/1/6 965/1/6 986/1/6
f 965/3/6 980/3/6 987/3/6
f 986/1/6 965/1/6 987/1/6
f 987/3/6 980/3/6 988/3/6
f 988/3/6 980/3/6 989/3/6
f 981/3/6 982/3/6 990/3/6
f 985/3/6 972/3/6 991/3/6
f 972/1/6 973/1/6 991/1/6
f 991/1/6 973/1/6 992/1/6
f 986/3/6 987/3/6 993/3/6
f 987/3/6 988/3/6 993/3/6
f 993/3/6 988/3/6 994/3/6
f 989/3/6 990/3/6 995/3/6
f 986/3/6 993/3/6 996/3/6
f 996/3/6 993/3/6 997/3/6
f 994/3/6 995/3/6 998/3/6
f 986/3/6 996/3/6 999/3/6
f 999/3/6 996/3/6 1000/3/6
f 997/3/6 998/3/6 1001/3/6
f 983/3/6 984/3/6 1002/3/6
f 991/3/6 992/3/6 1003/3/6
f 985/3/6 991/3/6 1003/3/6
f 1003/3/6 992/3/6 1004/3/6
f 1004/3/6 992/3/6 1005/3/6
f 1005/3/6 992/3/6 1006/3/6
f 986/3/6 999/3/6 1007/3/6
f 1007/3/6 999/3/6 1008/3/6
f 1000/3/6 1001/3/6 1009/3/6
f 1004/3/6 1005/3/6 1010/3/6
f 1010/3/6 1005/3/6 1011/3/6
f 986/3/6 1007/3/6 1012/3/6
f 1012/3/6 1007/3/6 1013/3/6
f 1008/3/6 1009/3/6 1014/3/6
f 1004/3/6 1010/3/6 1015/3/6
f 1015/3/6 1010/3/6 1016/3/6
f 1004/3/6 1015/3/6 1018/3/6
f 1018/3/6 1015/3/6 1019/3/6
f 1016/3/6 1017/3/6 1020/3/6
f 986/3/6 1012/3/6 1021/3/6
f 1021/3/6 1012/3/6 1022/3/6
f 1013/3/6 1014/3/6 1023/3/6
f 983/3/6 1002/3/6 1024/3/6
f 1002/3/6 1003/3/6 1024/3/6
f 1024/3/6 1003/3/6 1025/3/6
f 1019/3/6 1020/3/6 1027/3/6
f 986/3/6 1021/3/6 1028/3/6
f 1028/3/6 1021/3/6 1029/3/6
f 1022/3/6 1023/3/6 1030/3/6
f 969/3/6 983/3/6 1031/3/6
f 983/3/6 1024/3/6 1031/3/6
f 1031/3/6 1024/3/6 1032/3/6
f 969/3/6 1031/3/6 1034/3/6
f 1034/3/6 1031/3/6 1035/3/6
f 1032/3/6 1033/3/6 1036/3/6
f 986/3/6 1028/3/6 1037/3/6
f 1037/3/6 1028/3/6 1038/3/6
f 1029/3/6 1030/3/6 1039/3/6
f 969/3/6 1034/3/6 1040/3/6
f 1040/3/6 1034/3/6 1041/3/6
f 1035/3/6 1036/3/6 1042/3/6
f 986/3/6 1037/3/6 1043/3/6
f 1043/3/6 1037/3/6 1044/3/6
f 1038/3/6 1039/3/6 1045/3/6
f 969/3/6 1040/3/6 1046/3/6
f 1046/3/6 1040/3/6 1047/3/6
f 1041/3/6 1042/3/6 1048/3/6
f 1042/3/6 1036/3/6 1049/3/6
f 1036/3/6 1033/3/6 1049/3/6
f 1048/3/6 1042/3/6 1049/3/6
f 1026/3/6 1027/3/6 1050/3/6
f 1027/3/6 1020/3/6 1051/3/6
f 1050/3/6 1027/3/6 1051/3/6
f 986/3/6 1043/3/6 1052/3/6
f 1052/3/6 1043/3/6 1053/3/6
f 1053/3/6 1043/3/6 1054/3/6
f 1044/3/6 1045/3/6 1055/3/6
f 990/3/6 982/3/6 1056/3/6
f 968/2/6 969/2/6 1056/2/6
f 1055/3/6 1045/3/6 1056/3/6
f 976/3/6 968/3/6 1056/3/6
f 979/3/6 976/3/6 1056/3/6
f 982/3/6 979/3/6 1056/3/6
f 1045/3/6 1039/3/6 1056/3/6
f 1001/3/6 998/3/6 1056/3/6
f 995/3/6 990/3/6 1056/3/6
f 998/3/6 995/3/6 1056/3/6
f 1039/3/6 1030/3/6 1056/3/6
f 1014/3/6 1009/3/6 1056/3/6
f 1023/3/6 1014/3/6 1056/3/6
f 1009/3/6 1001/3/6 1056/3/6
f 1030/3/6 1023/3/6 1056/3/6
f 969/3/6 1046/3/6 1057/3/6
f 1056/2/6 969/2/6 1057/2/6
f 1057/3/6 1046/3/6 1058/3/6
f 1058/3/6 1046/3/6 1059/3/6
f 1048/3/6 1049/3/6 1060/3/6
f 1047/3/6 1048/3/6 1060/3/6
f 1049/3/6 1050/3/6 1060/3/6
f 1060/3/6 1050/3/6 1061/3/6
f 1051/3/6 1020/3/6 1062/3/6
f 1020/3/6 1017/3/6 1063/3/6
f 1062/3/6 1020/3/6 1063/3/6
f 1054/2/6 1055/2/6 1064/2/6
f 1057/2/6 1058/2/6 1064/2/6
f 1055/2/6 1056/2/6 1064/2/6
f 1056/2/6 1057/2/6 1064/2/6
f 1064/2/6 1058/2/6 1065/2/6
f 1060/2/6 1061/2/6 1066/2/6
f 1059/2/6 1060/2/6 1066/2/6
f 1052/2/6 1053/2/6 1067/2/6
f 1067/2/6 1053/2/6 1068/2/6
f 1054/2/6 1064/2/6 1069/2/6
f 1069/2/6 1064/2/6 1070/2/6
f 1070/2/6 1064/2/6 1071/2/6
f 1065/2/6 1066/2/6 1072/2/6
f 1066/2/6 1061/2/6 1073/2/6
f 1072/2/6 1066/2/6 1073/2/6
f 1062/2/6 1063/2/6 1074/2/6
f 1074/2/6 1063/2/6 1075/2/6
f 1068/3/6 1069/3/6 1077/3/6
f 1069/3/6 1070/3/6 1077/3/6
f 1077/3/6 1070/3/6 1078/3/6
f 1078/3/6 1070/3/6 1079/3/6
f 1072/3/6 1073/3/6 1080/3/6
f 1071/3/6 1072/3/6 1080/3/6
f 1077/3/6 1078/3/6 1081/3/6
f 1076/3/6 1077/3/6 1081/3/6
f 1081/3/6 1078/3/6 1082/3/6
f 1079/3/6 1080/3/6 1083/3/6
f 1076/3/6 1081/3/6 1084/3/6
f 1084/3/6 1081/3/6 1085/3/6
f 1082/3/6 1083/3/6 1086/3/6
f 1080/3/6 1073/3/6 1087/3/6
f 1083/3/6 1080/3/6 1087/3/6
f 1086/3/6 1083/3/6 1087/3/6
f 1074/3/6 1075/3/6 1088/3/6
f 1088/3/6 1075/3/6 1089/3/6
f 1076/3/6 1084/3/6 1090/3/6
f 1090/3/6 1084/3/6 1091/3/6
f 1085/3/6 1086/3/6 1092/3/6
f 1086/3/6 1087/3/6 1092/3/6
f 1087/3/6 1088/3/6 1092/3/6
f 1076/3/6 1090/3/6 1093/3/6
f 1093/3/6 1090/3/6 1094/3/6
f 1091/3/6 1092/3/6 1095/3/6
f 1076/3/6 1093/3/6 1096/3/6
f 1096/3/6 1093/3/6 1097/3/6
f 1094/3/6 1095/3/6 1098/3/6
f 1076/3/6 1096/3/6 1099/3/6
f 1099/3/6 1096/3/6 1100/3/6
f 1097/3/6 1098/3/6 1101/3/6
f 1076/3/6 1099/3/6 1102/3/6
f 1102/3/6 1099/3/6 1103/3/6
f 1100/3/6 1101/3/6 1104/3/6
f 1076/3/6 1102/3/6 1105/3/6
f 1105/3/6 1102/3/6 1106/3/6
f 1103/3/6 1104/3/6 1107/3/6
f 1092/3/6 1088/3/6 1108/3/6
f 1095/3/6 1092/3/6 1108/3/6
f 1107/3/6 1104/3/6 1108/3/6
f 1098/3/6 1095/3/6 1108/3/6
f 1101/3/6 1098/3/6 1108/3/6
f 1104/3/6 1101/3/6 1108/3/6
f 1089/3/6 1075/3/6 1109/3/6
f 1109/3/6 1075/3/6 1110/3/6
f 1076/3/6 1105/3/6 1111/3/6
f 1111/3/6 1105/3/6 1112/3/6
f 1107/3/6 1108/3/6 1113/3/6
f 1106/3/6 1107/3/6 1113/3/6
f 1108/3/6 1109/3/6 1113/3/6
f 1076/3/6 1111/3/6 1114/3/6
f 1114/3/6 1111/3/6 1115/3/6
f 1112/3/6 1113/3/6 1116/3/6
f 1076/3/6 1114/3/6 1117/3/6
f 1117/3/6 1114/3/6 1118/3/6
f 1115/3/6 1116/3/6 1119/3/6
f 1118/3/6 1119/3/6 1121/3/6
f 1120/3/6 1121/3/6 1122/3/6
f 1119/3/6 1116/3/6 1123/3/6
f 1122/3/6 1121/3/6 1123/3/6
f 1113/3/6 1109/3/6 1123/3/6
f 1121/3/6 1119/3/6 1123/3/6
f 1116/3/6 1113/3/6 1123/3/6
f 1110/3/6 1075/3/6 1124/3/6
f 1124/3/6 1075/3/6 1125/3/6
f 1122/1/6 1123/1/6 1126/1/6
f 1124/1/6 1125/1/6 1127/1/6
f 1127/1/6 1125/1/6 1128/1/6
f 1122/1/6 1126/1/6 1129/1/6
f 1126/1/6 1127/1/6 1129/1/6
f 1129/1/6 1127/1/6 1130/1/6
f 1128/1/6 1125/1/6 1131/1/6
f 1131/1/6 1125/1/6 1132/1/6
